<svg width="40" height="40" viewBox="0 0 40 40" fill="none" xmlns="http://www.w3.org/2000/svg">
<g id="Linear / Security / QR Code">
<path id="Vector" d="M3.33331 28.1667C3.33331 25.9843 3.33331 24.8932 3.82451 24.0917C4.09936 23.6432 4.47646 23.266 4.92498 22.9912C5.72655 22.5 6.8177 22.5 8.99998 22.5H10.8333C13.976 22.5 15.5474 22.5 16.5237 23.4763C17.5 24.4527 17.5 26.024 17.5 29.1667V31C17.5 33.1823 17.5 34.2735 17.0088 35.075C16.734 35.5235 16.3568 35.9007 15.9083 36.1755C15.1067 36.6667 14.0156 36.6667 11.8333 36.6667C8.55988 36.6667 6.92316 36.6667 5.72081 35.9298C5.04805 35.5177 4.4824 34.952 4.07011 34.2792C3.33331 33.0768 3.33331 31.4402 3.33331 28.1667Z" stroke="white" stroke-width="2"/>
<path id="Vector_2" d="M22.5 9.00001C22.5 6.81773 22.5 5.72658 22.9912 4.92501C23.266 4.47649 23.6432 4.09939 24.0917 3.82454C24.8932 3.33334 25.9843 3.33334 28.1667 3.33334C31.4402 3.33334 33.0768 3.33334 34.2792 4.07014C34.952 4.48243 35.5177 5.04808 35.9298 5.72084C36.6667 6.92319 36.6667 8.55991 36.6667 11.8333C36.6667 14.0156 36.6667 15.1068 36.1755 15.9083C35.9007 16.3569 35.5235 16.734 35.075 17.0088C34.2735 17.5 33.1823 17.5 31 17.5H29.1667C26.024 17.5 24.4527 17.5 23.4763 16.5237C22.5 15.5474 22.5 13.976 22.5 10.8333V9.00001Z" stroke="white" stroke-width="2"/>
<path id="Vector_3" d="M27.5 10.4167C27.5 9.55766 27.5 9.12816 27.7152 8.82489C27.7912 8.71788 27.8845 8.62444 27.9915 8.54853C28.2948 8.33334 28.7243 8.33334 29.5833 8.33334C30.4423 8.33334 30.8718 8.33334 31.1752 8.54853C31.2822 8.62444 31.3755 8.71788 31.4515 8.82489C31.6667 9.12816 31.6667 9.55766 31.6667 10.4167C31.6667 11.2757 31.6667 11.7052 31.4515 12.0085C31.3755 12.1155 31.2822 12.2089 31.1752 12.2848C30.8718 12.5 30.4423 12.5 29.5833 12.5C28.7243 12.5 28.2948 12.5 27.9915 12.2848C27.8845 12.2089 27.7912 12.1155 27.7152 12.0085C27.5 11.7052 27.5 11.2757 27.5 10.4167Z" fill="white"/>
<path id="Vector_4" d="M21.25 36.6667C21.25 37.357 21.8097 37.9167 22.5 37.9167C23.1903 37.9167 23.75 37.357 23.75 36.6667H21.25ZM31.6667 21.25H28.3333V23.75H31.6667V21.25ZM21.25 31.6667V36.6667H23.75V31.6667H21.25ZM28.3333 21.25C27.189 21.25 26.2367 21.2485 25.4683 21.3267C24.6792 21.4068 23.947 21.5815 23.287 22.0225L24.6758 24.1012C24.8567 23.9803 25.13 23.874 25.7213 23.8138C26.3337 23.7515 27.137 23.75 28.3333 23.75V21.25ZM23.75 28.3333C23.75 27.137 23.7515 26.3337 23.8138 25.7213C23.874 25.13 23.9803 24.8567 24.1012 24.6758L22.0225 23.287C21.5815 23.947 21.4068 24.6792 21.3267 25.4683C21.2485 26.2367 21.25 27.189 21.25 28.3333H23.75ZM23.287 22.0225C22.7865 22.3568 22.3568 22.7865 22.0225 23.287L24.1012 24.6758C24.2532 24.4483 24.4483 24.2532 24.6758 24.1012L23.287 22.0225Z" fill="white"/>
<path id="Vector_5" d="M37.9166 22.5C37.9166 21.8097 37.357 21.25 36.6666 21.25C35.9763 21.25 35.4166 21.8097 35.4166 22.5H37.9166ZM28.3333 37.9167H31.6666V35.4167H28.3333V37.9167ZM37.9166 28.3333V22.5H35.4166V28.3333H37.9166ZM31.6666 37.9167C32.4261 37.9167 33.0583 37.9173 33.5756 37.882C34.1041 37.846 34.6033 37.7683 35.0873 37.5678L34.1306 35.258C34.002 35.3113 33.8066 35.3605 33.4055 35.3878C32.993 35.416 32.4603 35.4167 31.6666 35.4167V37.9167ZM35.4166 31.6667C35.4166 32.4603 35.416 32.993 35.3878 33.4055C35.3605 33.8067 35.3113 34.002 35.258 34.1307L37.5678 35.0873C37.7683 34.6033 37.846 34.1042 37.882 33.5757C37.9173 33.0583 37.9166 32.4262 37.9166 31.6667H35.4166ZM35.0873 37.5678C36.2103 37.1027 37.1026 36.2103 37.5678 35.0873L35.258 34.1307C35.0466 34.641 34.641 35.0465 34.1306 35.258L35.0873 37.5678Z" fill="white"/>
<path id="Vector_6" d="M3.33331 11.8333C3.33331 8.55991 3.33331 6.92319 4.07011 5.72084C4.4824 5.04808 5.04805 4.48243 5.72081 4.07014C6.92316 3.33334 8.55988 3.33334 11.8333 3.33334C14.0156 3.33334 15.1067 3.33334 15.9083 3.82454C16.3568 4.09939 16.734 4.47649 17.0088 4.92501C17.5 5.72658 17.5 6.81773 17.5 9.00001V10.8333C17.5 13.976 17.5 15.5474 16.5237 16.5237C15.5474 17.5 13.976 17.5 10.8333 17.5H8.99998C6.8177 17.5 5.72655 17.5 4.92498 17.0088C4.47646 16.734 4.09936 16.3569 3.82451 15.9083C3.33331 15.1068 3.33331 14.0156 3.33331 11.8333Z" stroke="white" stroke-width="2"/>
<path id="Vector_7" d="M8.33331 10.4167C8.33331 9.55766 8.33331 9.12816 8.5485 8.82489C8.62441 8.71788 8.71785 8.62444 8.82486 8.54853C9.12813 8.33334 9.55763 8.33334 10.4166 8.33334C11.2757 8.33334 11.7052 8.33334 12.0084 8.54853C12.1154 8.62444 12.2089 8.71788 12.2848 8.82489C12.5 9.12816 12.5 9.55766 12.5 10.4167C12.5 11.2757 12.5 11.7052 12.2848 12.0085C12.2089 12.1155 12.1154 12.2089 12.0084 12.2848C11.7052 12.5 11.2757 12.5 10.4166 12.5C9.55763 12.5 9.12813 12.5 8.82486 12.2848C8.71785 12.2089 8.62441 12.1155 8.5485 12.0085C8.33331 11.7052 8.33331 11.2757 8.33331 10.4167Z" fill="white"/>
<path id="Vector_8" d="M8.33331 29.5833C8.33331 28.7243 8.33331 28.2948 8.5485 27.9915C8.62441 27.8845 8.71785 27.7912 8.82486 27.7152C9.12813 27.5 9.55763 27.5 10.4166 27.5C11.2757 27.5 11.7052 27.5 12.0084 27.7152C12.1154 27.7912 12.2089 27.8845 12.2848 27.9915C12.5 28.2948 12.5 28.7243 12.5 29.5833C12.5 30.4423 12.5 30.8718 12.2848 31.1752C12.2089 31.2822 12.1154 31.3755 12.0084 31.4515C11.7052 31.6667 11.2757 31.6667 10.4166 31.6667C9.55763 31.6667 9.12813 31.6667 8.82486 31.4515C8.71785 31.3755 8.62441 31.2822 8.5485 31.1752C8.33331 30.8718 8.33331 30.4423 8.33331 29.5833Z" fill="white"/>
<path id="Vector_9" d="M26.6667 29.5833C26.6667 28.413 26.6667 27.8278 26.9475 27.4073C27.0692 27.2253 27.2254 27.0692 27.4074 26.9475C27.8279 26.6667 28.413 26.6667 29.5834 26.6667C30.7537 26.6667 31.3389 26.6667 31.7594 26.9475C31.9414 27.0692 32.0975 27.2253 32.2192 27.4073C32.5 27.8278 32.5 28.413 32.5 29.5833C32.5 30.7537 32.5 31.3388 32.2192 31.7593C32.0975 31.9413 31.9414 32.0975 31.7594 32.2192C31.3389 32.5 30.7537 32.5 29.5834 32.5C28.413 32.5 27.8279 32.5 27.4074 32.2192C27.2254 32.0975 27.0692 31.9413 26.9475 31.7593C26.6667 31.3388 26.6667 30.7537 26.6667 29.5833Z" fill="white"/>
</g>
</svg>
