<svg width="40" height="40" viewBox="0 0 40 40" fill="none" xmlns="http://www.w3.org/2000/svg">
<g id="Linear / Electronic, Devices / Socket">
<path id="Vector" d="M3.33334 20C3.33334 12.1433 3.33334 8.21489 5.77413 5.77413C8.21489 3.33334 12.1433 3.33334 20 3.33334C27.8567 3.33334 31.7852 3.33334 34.2258 5.77413C36.6667 8.21489 36.6667 12.1433 36.6667 20C36.6667 27.8567 36.6667 31.7852 34.2258 34.2258C31.7852 36.6667 27.8567 36.6667 20 36.6667C12.1433 36.6667 8.21489 36.6667 5.77413 34.2258C3.33334 31.7852 3.33334 27.8567 3.33334 20Z" stroke="white" stroke-width="2"/>
<path id="Vector_2" d="M20 30C25.5228 30 30 25.5228 30 20C30 14.4772 25.5228 10 20 10C14.4772 10 10 14.4772 10 20C10 25.5228 14.4772 30 20 30Z" stroke="white" stroke-width="2"/>
<path id="Vector_3" d="M20 30.0002V27.5" stroke="white" stroke-width="2" stroke-linecap="round"/>
<path id="Vector_4" d="M20 12.5V10" stroke="white" stroke-width="2" stroke-linecap="round"/>
<path id="Vector_5" d="M23.3333 21.6667C24.2538 21.6667 25 20.9205 25 20C25 19.0795 24.2538 18.3333 23.3333 18.3333C22.4128 18.3333 21.6667 19.0795 21.6667 20C21.6667 20.9205 22.4128 21.6667 23.3333 21.6667Z" fill="white"/>
<path id="Vector_6" d="M16.6667 21.6667C17.5871 21.6667 18.3333 20.9205 18.3333 20C18.3333 19.0795 17.5871 18.3333 16.6667 18.3333C15.7462 18.3333 15 19.0795 15 20C15 20.9205 15.7462 21.6667 16.6667 21.6667Z" fill="white"/>
</g>
</svg>
