<svg width="40" height="40" viewBox="0 0 40 40" fill="none" xmlns="http://www.w3.org/2000/svg">
<g id="Linear / Astronomy / Star Rings">
<path id="Vector" d="M36.6588 22.5337C36.5713 21.532 35.7606 20.5227 34.4065 19.5827M36.6588 22.5337C36.7036 23.047 36.5558 23.5272 36.238 23.9683C35.5943 24.8618 34.2533 25.5947 32.4041 26.1165C35.166 25.337 36.7945 24.087 36.6588 22.5337ZM36.6588 22.5337C36.6403 22.3223 36.5896 22.1108 36.5085 21.8995C36.3628 21.5202 36.1188 21.1422 35.7863 20.7695C35.1928 20.1043 34.3175 19.4563 33.2155 18.8493M36.6588 22.5337C36.8175 24.351 34.5615 25.753 30.901 26.4725M34.4065 19.5827C31.4275 17.5143 25.8183 15.7808 19.493 15.1998C10.2926 14.3547 3.06118 16.268 3.34118 19.4733M34.4065 19.5827C33.4755 18.9362 32.2875 18.3225 30.901 17.7665C31.7518 18.1077 32.5276 18.4705 33.2155 18.8493M33.2155 18.8493C31.6316 17.977 29.58 17.189 27.2251 16.5562M3.34118 19.4733C3.35963 19.6847 3.41028 19.8962 3.49141 20.1075C3.6371 20.4868 3.88108 20.8648 4.21361 21.2377C4.80708 21.9027 5.68256 22.5507 6.78453 23.1577M3.34118 19.4733C3.20548 17.92 4.83405 16.6702 7.59585 15.8905C5.74678 16.4125 4.40563 17.1452 3.76191 18.0388C3.44416 18.4798 3.29633 18.96 3.34118 19.4733ZM3.34118 19.4733C3.42868 20.475 4.23936 21.4843 5.59346 22.4245M6.78453 23.1577C7.47231 23.5365 8.24831 23.8993 9.09903 24.2407C7.71258 23.6845 6.52451 23.0708 5.59346 22.4245M6.78453 23.1577C8.36836 24.03 10.4201 24.818 12.7748 25.4508M5.59346 22.4245C7.52201 23.7633 10.5528 24.962 14.1666 25.7985" stroke="white" stroke-width="1.8" stroke-linecap="round"/>
<path id="Vector_2" d="M25.4573 8.08434C25.8893 7.81171 26.3087 7.57557 26.7123 7.37842C28.1802 6.66152 29.4395 6.46007 30.3365 6.89377C30.7962 7.11604 31.1328 7.49166 31.3523 7.99744C31.5575 8.46984 31.6605 9.05577 31.6663 9.73634M25.4573 8.08434C22.4333 9.99272 18.7938 13.6893 15.6365 18.3205C10.3984 26.004 8.46764 33.3562 11.3133 34.7647M25.4573 8.08434C24.8092 8.49336 24.1328 8.98454 23.439 9.54944M31.6663 9.73634C31.6733 10.532 31.5475 11.457 31.2968 12.4811M31.6663 9.73634C31.6788 11.1633 31.2642 13.0063 30.4683 15.0913M11.3133 34.7647C11.3189 34.7673 11.3245 34.7702 11.3302 34.7728C11.5194 34.8643 11.7247 34.9277 11.9447 34.9637C12.3398 35.0285 12.7822 35.0058 13.2635 34.902C14.1226 34.717 15.1058 34.274 16.1656 33.6098C16.4136 33.4545 16.6658 33.2868 16.9217 33.1077C17.348 32.8092 17.7843 32.4782 18.2278 32.1172L20.1858 30.5262M11.3133 34.7647C9.93711 34.0835 9.67814 32.0122 10.37 29.1855" stroke="white" stroke-width="1.8" stroke-linecap="round"/>
<path id="Vector_3" d="M19.6078 23.8022C19.5848 22.2849 19.5735 21.5262 20.0518 21.25C20.5302 20.9739 21.1815 21.363 22.4842 22.1415L22.8212 22.343C23.1913 22.5642 23.3763 22.6747 23.5802 22.7005C23.7842 22.7264 23.9837 22.6644 24.383 22.5404L24.7465 22.4275C26.1513 21.9912 26.8538 21.773 27.276 22.163C27.6983 22.553 27.5607 23.2929 27.2855 24.7725L27.2143 25.1554C27.1362 25.5759 27.097 25.786 27.1433 25.9915C27.1898 26.1969 27.3163 26.3742 27.5697 26.7287L27.8002 27.0515C28.6913 28.2992 29.1368 28.923 28.9195 29.4402C28.7022 29.9575 27.9657 30.0255 26.493 30.1615L26.112 30.1967C25.6935 30.2354 25.4843 30.2547 25.309 30.3559C25.1338 30.457 25.0125 30.6285 24.7698 30.9717L24.5488 31.284C23.6947 32.4914 23.2675 33.0952 22.711 33.0247C22.1543 32.9544 21.8368 32.2567 21.2018 30.861L21.0377 30.5C20.8572 30.1034 20.767 29.905 20.6123 29.7622C20.4575 29.6194 20.256 29.548 19.8527 29.4055L19.4857 29.2759C18.0665 28.7744 17.357 28.5235 17.2305 27.9629C17.1038 27.4022 17.644 26.903 18.7242 25.9044L19.0037 25.646C19.3107 25.3624 19.4642 25.2204 19.5438 25.031C19.6233 24.8415 19.6202 24.6259 19.6137 24.1947L19.6078 23.8022Z" stroke="white" stroke-width="1.8"/>
</g>
</svg>
