<svg width="160" height="170" viewBox="0 0 160 170" fill="none" xmlns="http://www.w3.org/2000/svg">
<g filter="url(#filter0_d_284_12837)">
<path d="M138.909 90.6293C144.482 55.6305 119.268 22.9473 82.5909 17.6293C45.9141 12.3112 11.6639 36.3722 6.09087 71.3709C0.517835 106.37 25.7324 139.053 62.4091 144.371C99.0859 149.689 133.336 125.628 138.909 90.6293Z" fill="url(#paint0_radial_284_12837)"/>
<path d="M131.062 94.1171C138.647 63.2583 118.58 32.3749 86.2418 25.137C53.9035 17.8992 21.5394 37.0477 13.9545 67.9065C6.36959 98.7653 26.4362 129.649 58.7745 136.887C91.1128 144.124 123.477 124.976 131.062 94.1171Z" fill="#E0A326"/>
<g style="mix-blend-mode:screen">
<path d="M30.7329 101.628C25.4846 99.221 21.7013 93.0978 20.0323 88.3197C16.5086 78.2324 19.2348 67.225 23.6672 57.8102C37.502 28.3979 75.6684 25.4956 85.6273 33.8486C95.5862 42.2015 89.2622 54.8548 72.6085 61.7389C55.9547 68.623 56.9932 91.222 47.2569 98.2123C43.5478 100.884 39.2453 103.008 34.4049 102.601C33.1068 102.495 31.8828 102.141 30.7329 101.61V101.628Z" fill="#E0A326"/>
</g>
<g opacity="0.7">
<g style="mix-blend-mode:screen">
<path d="M26.5417 79.8076C22.9253 77.4009 19.4388 74.7994 16.1192 72.021C13.7268 86.0193 17.065 100.885 26.6344 113.166C32.3835 120.528 39.7089 126.085 47.8318 129.766C43.9373 126.864 40.3765 123.413 37.2795 119.449C28.0439 107.609 24.613 93.3635 26.5231 79.8076H26.5417Z" fill="#E0A326"/>
</g>
<g style="mix-blend-mode:screen">
<path d="M68.4914 26.5928C57.9205 27.2476 47.4053 30.7339 38.2809 37.2286C27.1166 45.1568 19.8839 56.2705 16.9166 68.2513C20.1806 71.0828 23.6115 73.7196 27.1908 76.1795C29.8799 63.5616 37.2609 51.8109 48.926 43.511C57.0118 37.7595 66.1732 34.3794 75.5015 33.2114C73.3317 30.8046 70.995 28.5748 68.4914 26.5928Z" fill="#E0A326"/>
</g>
<g style="mix-blend-mode:screen">
<path d="M93.6575 33.7426C92.3778 32.1144 91.024 30.5571 89.5775 29.0706C83.9768 27.3717 78.1164 26.4868 72.2375 26.4868C74.4815 28.4689 76.5772 30.6279 78.543 32.9108C83.6059 32.5392 88.6873 32.84 93.6575 33.7426Z" fill="#E0A326"/>
</g>
<g style="mix-blend-mode:screen">
<path d="M97.4036 34.5564C100.797 35.4059 104.117 36.5562 107.307 37.9896C103.357 35.0343 99.0356 32.6275 94.5106 30.8047C95.5306 32.0258 96.4764 33.2646 97.4036 34.5564Z" fill="#E0A326"/>
</g>
</g>
<g style="mix-blend-mode:multiply" opacity="0.5">
<path d="M79.3775 25.124C84.051 28.0086 88.2793 31.725 91.8029 36.2377C107.696 56.5891 103.283 85.382 81.9553 100.548C60.6281 115.715 30.4548 111.503 14.5614 91.1512C14.5057 91.0804 14.4501 90.9919 14.3945 90.9211C15.9337 99.3095 19.513 107.503 25.2064 114.794C44.6976 139.765 81.7142 144.914 107.863 126.315C134.031 107.716 139.428 72.3925 119.936 47.4398C109.811 34.468 94.9556 26.8583 79.359 25.124H79.3775Z" fill="#E0A326"/>
</g>
<g style="mix-blend-mode:multiply" opacity="0.5">
<path d="M112.259 42.2368C112.259 42.2368 112.37 42.3607 112.407 42.4315C131.824 67.2956 127.058 102.017 101.762 119.997C78.3575 136.632 45.5693 133.093 25.429 112.759C44.8831 137.446 80.991 142.95 106.194 125.023C131.49 107.043 136.238 72.3216 116.839 47.4574C115.393 45.6169 113.853 43.8826 112.24 42.2368H112.259Z" fill="#E0A326"/>
</g>
<g style="mix-blend-mode:multiply" opacity="0.5">
<path d="M56.3256 32.5566C58.551 35.3881 55.2685 41.2989 49.0002 45.7585C42.7318 50.2181 35.87 51.51 33.6446 48.6785C31.4191 45.847 34.7017 39.9362 40.97 35.4766C47.2384 31.017 54.1002 29.7251 56.3256 32.5566Z" fill="#E0A326"/>
</g>
<g style="mix-blend-mode:multiply" opacity="0.5">
<path d="M36.3151 50.0764C39.4864 50.5896 44.4009 49.0145 49.0002 45.7583C54.1002 42.1304 57.2158 37.5469 57.0118 34.4323C53.8405 33.9191 48.926 35.4941 44.3267 38.7503C39.2268 42.3782 36.1111 46.9617 36.3151 50.0764Z" fill="#E0A326"/>
</g>
<g style="mix-blend-mode:multiply" opacity="0.5">
<path d="M125.5 72.5693C122.143 74.0913 116.709 69.8617 113.353 63.1369C109.996 56.412 109.996 49.7226 113.353 48.2007C116.709 46.6787 122.143 50.9083 125.5 57.6331C128.857 64.358 128.857 71.0474 125.5 72.5693Z" fill="#E0A326"/>
</g>
<g style="mix-blend-mode:multiply" opacity="0.5">
<path d="M111.387 50.4307C110.237 53.2976 110.886 58.2173 113.353 63.1547C116.079 68.6231 120.177 72.4456 123.423 72.8526C124.573 69.9857 123.924 65.066 121.457 60.1286C118.731 54.6602 114.632 50.8377 111.387 50.4307Z" fill="#E0A326"/>
</g>
<g style="mix-blend-mode:multiply" opacity="0.5">
<path d="M89.2251 118.989C86.8328 116.281 89.7073 110.193 95.6789 105.38C101.632 100.566 108.42 98.8495 110.812 101.557C113.204 104.265 110.33 110.353 104.358 115.166C98.4051 119.98 91.6175 121.696 89.2251 118.989Z" fill="#E0A326"/>
</g>
<g style="mix-blend-mode:multiply" opacity="0.5">
<path d="M108.067 100.318C104.859 99.9821 100.056 101.858 95.6789 105.38C90.8386 109.291 88.0197 114.051 88.4277 117.148C91.636 117.484 96.4393 115.609 100.816 112.087C105.656 108.176 108.475 103.415 108.067 100.318Z" fill="#E0A326"/>
</g>
<g style="mix-blend-mode:multiply" opacity="0.5">
<path d="M51.0216 104.247C50.6136 96.7435 57.8834 90.3019 67.2303 89.8594C76.5772 89.3993 84.4775 95.1154 84.8855 102.601C85.2935 110.105 78.0237 116.546 68.6768 116.989C59.33 117.449 51.4296 111.733 51.0216 104.247Z" fill="#E0A326"/>
</g>
<g style="mix-blend-mode:multiply" opacity="0.5">
<path d="M67.2303 89.8595C58.7921 90.2665 52.0602 95.5579 51.1329 102.088C52.7834 108.477 60.0347 113.078 68.4543 112.671C76.8924 112.264 83.6244 106.972 84.5517 100.442C82.9011 94.0537 75.6499 89.4525 67.2303 89.8595Z" fill="#E0A326"/>
</g>
<g style="mix-blend-mode:multiply" opacity="0.5">
<path d="M67.9165 53.3509C69.9194 57.7928 67.0448 63.2257 61.4998 65.4909C55.9547 67.7561 49.8533 66.0041 47.8504 61.5622C45.8474 57.1203 48.722 51.6873 54.2671 49.4221C59.8121 47.1569 65.9136 48.9089 67.9165 53.3509Z" fill="#E0A326"/>
</g>
<g style="mix-blend-mode:multiply" opacity="0.5">
<path d="M61.4998 65.4907C66.4885 63.4379 69.3259 58.819 68.3616 54.6779C65.8765 51.1739 60.4241 49.9351 55.4354 51.988C50.4467 54.0408 47.6093 58.6597 48.5736 62.8008C51.0587 66.3048 56.511 67.5436 61.4998 65.4907Z" fill="#E0A326"/>
</g>
<g style="mix-blend-mode:multiply" opacity="0.5">
<path d="M97.5335 91.2576C91.3764 89.7711 87.8899 82.9047 89.7259 75.8967C91.5619 68.8887 98.0713 64.4291 104.228 65.9156C110.385 67.4022 113.872 74.2686 112.036 81.2766C110.181 88.2668 103.691 92.7442 97.5335 91.2576Z" fill="#E0A326"/>
</g>
<g style="mix-blend-mode:multiply" opacity="0.5">
<path d="M89.7259 75.8968C88.0568 82.2146 90.7273 88.4262 95.7902 90.6737C101.354 90.9746 106.788 86.7273 108.457 80.4272C110.126 74.1094 107.455 67.8978 102.392 65.6503C96.8287 65.3494 91.3949 69.5967 89.7259 75.8968Z" fill="#E0A326"/>
</g>
<g style="mix-blend-mode:multiply" opacity="0.5">
<path d="M27.3577 68.2339C30.2879 68.2162 32.6988 72.959 32.7544 78.8344C32.81 84.7098 30.4733 89.4879 27.5431 89.5056C24.613 89.5233 22.2021 84.7805 22.1464 78.9052C22.0908 73.0298 24.4275 68.2516 27.3577 68.2339Z" fill="#E0A326"/>
</g>
<g style="mix-blend-mode:multiply" opacity="0.5">
<path d="M29.713 88.5502C31.5304 86.8689 32.7729 83.1526 32.7359 78.8345C32.6988 74.0564 31.0853 70.0215 28.9155 68.7119C27.0981 70.3931 25.8555 74.1095 25.8926 78.4275C25.9297 83.2057 27.5431 87.2406 29.713 88.5502Z" fill="#E0A326"/>
</g>
<g style="mix-blend-mode:multiply" opacity="0.5">
<path d="M39.4122 121.607C40.8587 118.351 47.8503 118.033 55.046 120.935C62.2416 123.82 66.915 128.81 65.4685 132.084C64.0219 135.358 57.0303 135.659 49.8347 132.756C42.6391 129.872 37.9657 124.881 39.4122 121.607Z" fill="#E0A326"/>
</g>
<g style="mix-blend-mode:multiply" opacity="0.5">
<path d="M65.3943 129.164C64.2445 126.297 60.3314 123.041 55.046 120.917C49.1856 118.564 43.4736 118.334 40.766 120.086C41.9158 122.952 45.8289 126.209 51.1143 128.332C56.9747 130.686 62.6867 130.916 65.3943 129.164Z" fill="#E0A326"/>
</g>
<g style="mix-blend-mode:multiply" opacity="0.5">
<path d="M75.7426 29.8493C75.9837 31.8313 72.627 33.8488 68.2503 34.3443C63.855 34.8398 60.1088 33.6187 59.8492 31.6367C59.5896 29.6546 62.9648 27.6372 67.3416 27.1416C71.7368 26.6461 75.483 27.8495 75.7426 29.8493Z" fill="#E0A326"/>
</g>
<g style="mix-blend-mode:multiply" opacity="0.5">
<path d="M60.7394 33.0524C62.1488 34.1673 65.0234 34.716 68.2503 34.362C71.811 33.955 74.7041 32.5569 75.5201 30.9642C74.1106 29.8493 71.2361 29.3007 68.0092 29.6546C64.4485 30.0617 61.5554 31.4597 60.7394 33.0524Z" fill="#E0A326"/>
</g>
<g style="mix-blend-mode:multiply" opacity="0.5">
<path d="M111.684 116.829C110.052 115.555 110.997 111.892 113.798 108.618C116.598 105.344 120.177 103.734 121.809 104.99C123.441 106.264 122.496 109.928 119.695 113.201C116.895 116.475 113.316 118.086 111.684 116.829Z" fill="#E0A326"/>
</g>
<g style="mix-blend-mode:multiply" opacity="0.5">
<path d="M120.159 104.583C118.341 104.707 115.875 106.229 113.816 108.618C111.535 111.272 110.497 114.21 111.053 115.891C112.87 115.75 115.337 114.246 117.396 111.856C119.677 109.202 120.715 106.264 120.159 104.583Z" fill="#E0A326"/>
</g>
<g style="mix-blend-mode:multiply" opacity="0.5">
<path d="M26.5417 107.698C28.1551 106.424 31.7529 108.034 34.5718 111.273C37.3907 114.529 38.3551 118.192 36.7231 119.466C35.1097 120.741 31.5119 119.13 28.693 115.892C25.8741 112.635 24.9097 108.972 26.5417 107.698Z" fill="#E0A326"/>
</g>
<g style="mix-blend-mode:multiply" opacity="0.5">
<path d="M37.4835 117.998C37.706 116.263 36.6304 113.662 34.5718 111.273C32.2908 108.618 29.4719 107.079 27.6359 107.273C27.4133 109.008 28.489 111.609 30.5475 113.998C32.8286 116.653 35.6475 118.192 37.4835 117.998Z" fill="#E0A326"/>
</g>
<g style="mix-blend-mode:multiply" opacity="0.5">
<path d="M87.8713 131.058C87.0368 129.217 89.6331 126.368 93.6946 124.687C97.7375 123.006 101.706 123.13 102.541 124.97C103.375 126.811 100.779 129.66 96.7175 131.341C92.6746 133.022 88.7059 132.898 87.8713 131.058Z" fill="#E0A326"/>
</g>
<g style="mix-blend-mode:multiply" opacity="0.5">
<path d="M101.261 123.855C99.5735 123.183 96.6618 123.448 93.676 124.687C90.3749 126.05 88.0382 128.209 87.7415 129.943C89.4291 130.615 92.3408 130.35 95.3266 129.111C98.6277 127.748 100.964 125.589 101.261 123.855Z" fill="#E0A326"/>
</g>
<g style="mix-blend-mode:multiply" opacity="0.5">
<path d="M114.836 44.9978C113.965 46.2897 110.942 45.9357 108.086 44.2014C105.23 42.4671 103.598 40.0073 104.469 38.7154C105.341 37.4235 108.364 37.7775 111.22 39.5117C114.076 41.246 115.708 43.7059 114.836 44.9978Z" fill="#E0A326"/>
</g>
<g style="mix-blend-mode:multiply" opacity="0.5">
<path d="M104.284 39.9544C104.562 41.2639 105.99 42.9275 108.086 44.2016C110.423 45.6174 112.852 46.1129 114.132 45.5466C113.853 44.237 112.425 42.5735 110.33 41.2993C107.993 39.8836 105.564 39.3881 104.284 39.9544Z" fill="#E0A326"/>
</g>
<g style="mix-blend-mode:multiply" opacity="0.5">
<path d="M126.576 86.6387C124.962 86.5679 123.794 83.878 123.979 80.6394C124.146 77.4009 125.593 74.8525 127.206 74.9233C128.82 74.9941 129.988 77.684 129.802 80.9226C129.636 84.1611 128.189 86.7095 126.576 86.6387Z" fill="#E0A326"/>
</g>
<g style="mix-blend-mode:multiply" opacity="0.5">
<path d="M125.964 75.3833C124.906 76.2504 124.09 78.2679 123.961 80.6393C123.812 83.2761 124.573 85.5413 125.722 86.3377C126.78 85.4706 127.596 83.4531 127.725 81.0817C127.874 78.4449 127.113 76.1797 125.964 75.3833Z" fill="#E0A326"/>
</g>
<g style="mix-blend-mode:multiply" opacity="0.5">
<path d="M39.7831 111.45C40.4136 110.6 42.4536 110.937 44.3453 112.211C46.2369 113.485 47.2569 115.202 46.6078 116.069C45.9773 116.918 43.9373 116.582 42.0456 115.308C40.154 114.034 39.134 112.317 39.7831 111.45Z" fill="#E0A326"/>
</g>
<g style="mix-blend-mode:multiply" opacity="0.5">
<path d="M46.7933 115.219C46.6634 114.317 45.7362 113.149 44.3453 112.211C42.806 111.167 41.174 110.76 40.2653 111.096C40.3951 111.998 41.3224 113.166 42.7133 114.104C44.2525 115.148 45.8845 115.555 46.7933 115.219Z" fill="#E0A326"/>
</g>
<g style="mix-blend-mode:multiply" opacity="0.5">
<path d="M49.0558 66.8888C50.8362 67.5259 51.6522 69.7203 50.8362 71.7732C50.0387 73.8437 47.9245 75.0117 46.1442 74.3746C44.3638 73.7375 43.5478 71.5431 44.3638 69.4903C45.1613 67.4197 47.2754 66.2517 49.0558 66.8888Z" fill="#E0A326"/>
</g>
<g style="mix-blend-mode:multiply" opacity="0.5">
<path d="M47.6093 74.5161C48.9631 74.3215 50.2427 73.295 50.8362 71.7731C51.4852 70.0919 51.0773 68.3222 49.946 67.3843C48.5922 67.5789 47.3125 68.6054 46.7191 70.1273C46.07 71.8085 46.478 73.5782 47.6093 74.5161Z" fill="#E0A326"/>
</g>
<g style="mix-blend-mode:multiply" opacity="0.5">
<path d="M66.303 39.3522C66.5812 40.3609 65.0048 41.6528 62.7794 42.2191C60.5539 42.7854 58.514 42.4314 58.2172 41.4227C57.939 40.414 59.5154 39.1221 61.7409 38.5558C63.9663 37.9895 66.0063 38.3434 66.303 39.3522Z" fill="#E0A326"/>
</g>
<g style="mix-blend-mode:multiply" opacity="0.5">
<path d="M58.7921 42.0775C59.6081 42.5553 61.1474 42.6261 62.7794 42.2191C64.5968 41.759 65.9877 40.821 66.2845 39.9362C65.4685 39.4584 63.9292 39.3876 62.2972 39.7946C60.4798 40.2547 59.0889 41.1927 58.7921 42.0775Z" fill="#E0A326"/>
</g>
<g style="mix-blend-mode:multiply" opacity="0.5">
<path d="M108.141 63.4735C106.788 63.9336 105.193 62.978 104.562 61.3322C103.932 59.6864 104.507 57.9698 105.86 57.4919C107.214 57.0318 108.809 57.9875 109.44 59.6333C110.07 61.2791 109.495 62.9957 108.141 63.4735Z" fill="#E0A326"/>
</g>
<g style="mix-blend-mode:multiply" opacity="0.5">
<path d="M104.97 58.1113C104.303 58.8723 104.117 60.1288 104.581 61.3322C105.1 62.6771 106.25 63.562 107.381 63.5797C108.049 62.8187 108.234 61.5622 107.771 60.3588C107.251 59.0139 106.101 58.129 104.97 58.1113Z" fill="#E0A326"/>
</g>
<g style="mix-blend-mode:multiply" opacity="0.5">
<path d="M21.553 59.4206C23.5744 59.9339 24.3162 63.6502 23.185 67.7382C22.0537 71.8085 19.4944 74.7108 17.473 74.1976C15.4515 73.6844 14.7097 69.968 15.841 65.88C16.9723 61.8097 19.5315 58.9074 21.553 59.4206Z" fill="#E0A326"/>
</g>
<g style="mix-blend-mode:multiply" opacity="0.5">
<path d="M19.1792 73.9144C20.7741 73.0827 22.369 70.729 23.2035 67.7382C24.1122 64.4289 23.8155 61.3496 22.573 60.04C20.9781 60.8718 19.3832 63.2255 18.5486 66.2163C17.6399 69.5256 17.9366 72.6048 19.1792 73.9144Z" fill="#E0A326"/>
</g>
<g style="mix-blend-mode:multiply" opacity="0.5">
<path d="M117.822 93.5228C118.675 93.8768 118.842 95.3456 118.174 96.7791C117.507 98.2302 116.283 99.0974 115.43 98.7434C114.577 98.3895 114.41 96.9207 115.077 95.4872C115.745 94.0361 116.969 93.1689 117.822 93.5228Z" fill="#E0A326"/>
</g>
<g style="mix-blend-mode:multiply" opacity="0.5">
<path d="M117.321 88.2664C117.841 88.4788 117.933 89.3813 117.544 90.2485C117.154 91.1156 116.394 91.6642 115.875 91.4519C115.356 91.2395 115.263 90.337 115.652 89.4698C116.06 88.585 116.802 88.0541 117.321 88.2664Z" fill="#E0A326"/>
</g>
<g style="mix-blend-mode:multiply" opacity="0.5">
<path d="M59.6823 119.82C59.2187 120.705 57.494 120.794 55.862 120.015C54.23 119.236 53.2656 117.874 53.7292 116.971C54.1929 116.086 55.9176 115.998 57.5496 116.777C59.1816 117.555 60.1459 118.918 59.6823 119.82Z" fill="#E0A326"/>
</g>
<g style="mix-blend-mode:multiply" opacity="0.5">
<path d="M64.467 120.865C64.1888 121.395 63.1503 121.449 62.1488 120.971C61.1474 120.493 60.5725 119.679 60.8507 119.13C61.1289 118.582 62.1674 118.546 63.1688 119.024C64.1703 119.502 64.7452 120.316 64.467 120.865Z" fill="#E0A326"/>
</g>
<g style="mix-blend-mode:multiply" opacity="0.5">
<path d="M37.4093 111.556C37.0384 111.892 36.2224 111.662 35.6104 111.025C34.9798 110.405 34.7758 109.609 35.1468 109.273C35.5177 108.937 36.3337 109.167 36.9457 109.804C37.5762 110.423 37.7802 111.219 37.4093 111.556Z" fill="#E0A326"/>
</g>
<g style="mix-blend-mode:multiply" opacity="0.5">
<path d="M105.193 45.3692C104.655 45.8647 103.468 45.5108 102.559 44.6082C101.651 43.688 101.354 42.5554 101.892 42.0599C102.429 41.5643 103.616 41.9183 104.525 42.8208C105.434 43.7411 105.731 44.8737 105.193 45.3692Z" fill="#E0A326"/>
</g>
<g style="mix-blend-mode:multiply" opacity="0.5">
<path d="M107.233 49.3514C106.88 49.6699 106.101 49.4575 105.508 48.8558C104.915 48.2542 104.711 47.5109 105.081 47.1923C105.434 46.8738 106.213 47.0862 106.806 47.6879C107.4 48.2895 107.604 49.0328 107.233 49.3514Z" fill="#E0A326"/>
</g>
<g style="mix-blend-mode:multiply" opacity="0.5">
<path d="M79.8597 131.359C79.8226 132.244 78.4688 132.934 76.8183 132.881C75.1677 132.828 73.851 132.067 73.8881 131.164C73.9252 130.261 75.279 129.589 76.9295 129.642C78.5801 129.695 79.8968 130.456 79.8597 131.359Z" fill="#E0A326"/>
</g>
<g style="mix-blend-mode:multiply" opacity="0.5">
<path d="M84.7928 128.97C84.7928 129.518 83.9397 129.925 82.9382 129.89C81.9368 129.854 81.1393 129.394 81.1579 128.846C81.1579 128.297 82.011 127.89 83.0124 127.925C84.0139 127.961 84.8113 128.421 84.7928 128.97Z" fill="#E0A326"/>
</g>
<g style="mix-blend-mode:multiply" opacity="0.5">
<path d="M72.4045 128.686C72.4045 129.235 71.5514 129.642 70.5499 129.607C69.5485 129.571 68.751 129.111 68.7696 128.563C68.7696 128.014 69.6226 127.607 70.6241 127.642C71.6255 127.678 72.423 128.138 72.4045 128.686Z" fill="#E0A326"/>
</g>
<g style="mix-blend-mode:screen" opacity="0.5">
<path d="M26.4675 58.9785C25.6886 58.483 25.7999 57.0141 26.7086 55.7046C27.6173 54.395 28.9897 53.7225 29.7686 54.218C30.5475 54.7135 30.4362 56.1824 29.5275 57.492C28.6188 58.8015 27.2464 59.474 26.4675 58.9785ZM27.877 63.3496C28.4333 62.5533 28.489 61.6507 28.0253 61.3676C27.5431 61.0667 26.7086 61.4738 26.1522 62.2701C25.5959 63.0665 25.5402 63.969 26.0039 64.2522C26.4861 64.553 27.3206 64.146 27.877 63.3496ZM34.6275 53.4394C35.1838 52.643 35.2395 51.7405 34.7758 51.4573C34.2937 51.1565 33.4591 51.5635 32.9028 52.3599C32.3464 53.1562 32.2908 54.0588 32.7544 54.3419C33.2366 54.6428 34.0711 54.2357 34.6275 53.4394ZM73.4615 38.0961C73.1463 37.2644 74.1292 36.1318 75.687 35.6009C77.2448 35.07 78.7655 35.3 79.0808 36.1318C79.3961 36.9635 78.4132 38.0961 76.8554 38.6271C75.2975 39.1757 73.7768 38.9279 73.4615 38.0961ZM83.4761 38.2377C84.4219 37.9015 85.0339 37.229 84.8299 36.7158C84.6259 36.2026 83.7171 36.061 82.7713 36.3972C81.8255 36.7335 81.2135 37.406 81.4175 37.9192C81.6215 38.4324 82.5302 38.574 83.4761 38.2377Z" fill="#E0A326"/>
</g>
</g>
<defs>
<filter id="filter0_d_284_12837" x="-24" y="-8" width="193" height="186" filterUnits="userSpaceOnUse" color-interpolation-filters="sRGB">
<feFlood flood-opacity="0" result="BackgroundImageFix"/>
<feColorMatrix in="SourceAlpha" type="matrix" values="0 0 0 0 0 0 0 0 0 0 0 0 0 0 0 0 0 0 127 0" result="hardAlpha"/>
<feOffset dy="4"/>
<feGaussianBlur stdDeviation="10"/>
<feComposite in2="hardAlpha" operator="out"/>
<feColorMatrix type="matrix" values="0 0 0 0 0 0 0 0 0 0 0 0 0 0 0 0 0 0 0.25 0"/>
<feBlend mode="normal" in2="BackgroundImageFix" result="effect1_dropShadow_284_12837"/>
<feBlend mode="normal" in="SourceGraphic" in2="effect1_dropShadow_284_12837" result="shape"/>
</filter>
<radialGradient id="paint0_radial_284_12837" cx="0" cy="0" r="1" gradientUnits="userSpaceOnUse" gradientTransform="translate(72.5011 81.0113) scale(67.19 64.1159)">
<stop stop-color="#E0A326"/>
<stop offset="0.38" stop-color="#E0A326" stop-opacity="0.99"/>
<stop offset="0.52" stop-color="#E0A326" stop-opacity="0.96"/>
<stop offset="0.62" stop-color="#E0A326" stop-opacity="0.91"/>
<stop offset="0.7" stop-color="#E0A326" stop-opacity="0.83"/>
<stop offset="0.77" stop-color="#E0A326" stop-opacity="0.73"/>
<stop offset="0.83" stop-color="#E0A326" stop-opacity="0.61"/>
<stop offset="0.88" stop-color="#E0A326" stop-opacity="0.47"/>
<stop offset="0.93" stop-color="#E0A326" stop-opacity="0.3"/>
<stop offset="0.98" stop-color="#E0A326" stop-opacity="0.12"/>
<stop offset="1" stop-color="#E0A326" stop-opacity="0"/>
</radialGradient>
</defs>
</svg>
