<svg width="147" height="158" viewBox="0 0 147 158" fill="none" xmlns="http://www.w3.org/2000/svg">
<g filter="url(#filter0_d_284_13032)">
<path fill-rule="evenodd" clip-rule="evenodd" d="M18.2822 103.461C17.4782 103.053 16.7814 102.609 16.1918 102.13C15.9774 101.615 15.7808 101.1 15.6379 100.603C14.7267 99.4663 13.9585 98.33 13.3153 97.1759C12.4577 95.5602 11.475 92.968 11.3857 90.6421C11.5465 90.216 11.7251 89.8076 11.9395 89.417C13.6547 90.1272 15.3699 90.8552 17.103 91.5654C18.1571 93.4829 19.2291 95.4004 20.2832 97.318C19.6222 99.3598 18.9432 101.402 18.2822 103.443V103.461Z" fill="url(#paint0_radial_284_13032)"/>
<path fill-rule="evenodd" clip-rule="evenodd" d="M22.2843 74.8222L51.2459 61.3994C52.3536 63.5655 53.4792 65.7139 54.7835 67.738C56.6595 70.1349 58.7499 72.4253 61.1082 74.6269C61.3226 74.9998 61.4834 75.3904 61.6085 75.781C61.1618 77.2369 60.8224 78.7283 60.6437 80.2553C60.608 81.3028 60.5722 82.3326 60.5365 83.3802C59.8397 87.6236 59.5181 89.3459 57.9101 93.3407C55.1587 95.063 51.7998 96.5366 47.4939 97.6907C46.7614 97.673 46.0646 97.602 45.3857 97.4599C43.2596 92.8081 39.4897 88.973 35.4698 85.2622C32.2002 83.4334 29.0735 81.5336 26.0005 79.5806C25.8218 79.2255 25.6253 78.8704 25.4466 78.533C24.1245 78.0181 22.9096 77.4322 21.7483 76.8285C21.5517 76.4557 21.4981 76.0828 21.4624 75.7277C21.7125 75.3904 21.9627 75.0886 22.2485 74.84L22.2843 74.8222Z" fill="url(#paint1_radial_284_13032)"/>
<path style="mix-blend-mode:multiply" fill-rule="evenodd" clip-rule="evenodd" d="M22.2843 74.8222L51.2459 61.3994C52.3536 63.5655 53.4792 65.7139 54.7835 67.738C56.6595 70.1349 58.7499 72.4253 61.1082 74.6269C61.3226 74.9998 61.4834 75.3904 61.6085 75.781C61.1618 77.2369 60.8224 78.7283 60.6437 80.2553C60.608 81.3028 60.5722 82.3326 60.5365 83.3802C59.8397 87.6236 59.5181 89.3459 57.9101 93.3407C55.1587 95.063 51.7998 96.5366 47.4939 97.6907C46.7614 97.673 46.0646 97.602 45.3857 97.4599C43.2596 92.8081 39.4897 88.973 35.4698 85.2622C32.2002 83.4334 29.0735 81.5336 26.0005 79.5806C25.8218 79.2255 25.6253 78.8704 25.4466 78.533C24.1245 78.0181 22.9096 77.4322 21.7483 76.8285C21.5517 76.4557 21.4981 76.0828 21.4624 75.7277C21.7125 75.3904 21.9627 75.0886 22.2485 74.84L22.2843 74.8222Z" fill="url(#paint2_radial_284_13032)"/>
<path style="mix-blend-mode:screen" fill-rule="evenodd" clip-rule="evenodd" d="M22.2843 74.8222L51.2459 61.3994C52.3536 63.5655 53.4792 65.7139 54.7835 67.738C56.6595 70.1349 58.7499 72.4253 61.1082 74.6269C61.3226 74.9998 61.4834 75.3904 61.6085 75.781C61.1618 77.2369 60.8224 78.7283 60.6437 80.2553C60.608 81.3028 60.5722 82.3326 60.5365 83.3802C59.8397 87.6236 59.5181 89.3459 57.9101 93.3407C55.1587 95.063 51.7998 96.5366 47.4939 97.6907C46.7614 97.673 46.0646 97.602 45.3857 97.4599C43.2596 92.8081 39.4897 88.973 35.4698 85.2622C32.2002 83.4334 29.0735 81.5336 26.0005 79.5806C25.8218 79.2255 25.6253 78.8704 25.4466 78.533C24.1245 78.0181 22.9096 77.4322 21.7483 76.8285C21.5517 76.4557 21.4981 76.0828 21.4624 75.7277C21.7125 75.3904 21.9627 75.0886 22.2485 74.84L22.2843 74.8222Z" fill="url(#paint3_radial_284_13032)"/>
<path fill-rule="evenodd" clip-rule="evenodd" d="M46.8508 90.0742C45.2964 88.636 42.4556 86.026 42.0983 85.7952C40.6332 84.8364 39.0252 84.1972 37.4887 83.3272C35.2018 82.0489 32.8434 80.8415 30.7173 79.2968C30.5744 79.1903 29.0557 77.4503 28.7877 77.255C28.6984 77.184 27.1797 76.6869 27.0725 76.5803C26.2149 75.6748 25.5181 74.6628 24.8392 73.6152L22.3021 74.7871C22.0163 75.0356 21.7662 75.3197 21.516 75.6748C21.5339 76.0477 21.6054 76.4205 21.8019 76.7756C22.9632 77.3971 24.1781 77.9652 25.5003 78.4801C25.6789 78.8352 25.8755 79.1903 26.0541 79.5277C29.1093 81.4807 32.2538 83.3805 35.5234 85.2093C39.5434 88.9201 43.3132 92.7552 45.4393 97.407C45.9038 96.5903 46.5828 94.8325 46.6185 94.6194C46.69 94.2111 46.7793 91.5656 46.8686 90.0386L46.8508 90.0742Z" fill="url(#paint4_radial_284_13032)"/>
<path fill-rule="evenodd" clip-rule="evenodd" d="M51.3531 88.7779C50.96 89.0798 48.2443 89.8255 46.8507 90.0918C46.7614 91.6187 46.6721 94.2643 46.6006 94.6726C46.5649 94.8857 45.8681 96.6434 45.4214 97.4602C46.0825 97.6022 46.7971 97.6732 47.5297 97.691C51.8355 96.5369 55.2123 95.0632 57.9459 93.341C59.5717 89.3461 59.8754 87.6416 60.5722 83.3804C60.608 82.3329 60.6437 81.3031 60.6794 80.2555C60.8581 78.7286 61.1976 77.2372 61.6442 75.7812C60.7509 76.1719 59.8576 76.5625 58.9642 76.9708C58.1781 78.6931 57.4992 80.4863 56.588 82.1553C55.8555 83.4869 54.9443 84.7298 54.0152 85.9194C53.2112 86.9314 51.5675 88.6359 51.3888 88.7779H51.3531Z" fill="url(#paint5_radial_284_13032)"/>
<path fill-rule="evenodd" clip-rule="evenodd" d="M50.9065 67.0457C52.0856 69.2473 53.5328 71.3424 55.1051 73.2777C56.2128 74.6448 57.66 75.7279 58.9464 76.953C59.8397 76.5624 60.733 76.1718 61.6264 75.7634C61.5013 75.3551 61.3405 74.9822 61.1261 74.6093C58.7677 72.4255 56.6773 70.1173 54.8014 67.7204C53.4971 65.6963 52.3715 63.548 51.2638 61.3818L49.1377 62.3584C49.6737 63.9386 50.1025 65.572 50.8886 67.0457H50.9065Z" fill="url(#paint6_radial_284_13032)"/>
<path fill-rule="evenodd" clip-rule="evenodd" d="M32.6647 32.5476C32.361 31.8019 32.0394 31.0562 31.7357 30.3104C30.753 29.8666 30.1813 29.8666 29.145 29.8311C25 33.0802 20.6584 38.389 17.2816 42.9343C14.5838 48.2785 12.3326 53.6938 10.8497 59.1801C10.5281 62.962 10.9211 67.7913 11.475 69.993C13.5297 71.6619 15.888 73.2776 18.5502 74.8223C20.6405 75.0531 22.6952 75.1242 24.7141 75.0176C27.5906 74.7336 30.485 74.2897 33.3615 73.6682C39.7399 69.8154 45.7966 65.3766 51.8355 60.9734C51.7819 59.6418 51.5854 58.1503 51.1208 56.7832C48.9769 55.0787 47.6905 53.0902 46.6721 51.1016C43.5276 49.912 39.5255 48.8112 37.8996 47.959C35.4519 46.6628 33.8796 44.3724 32.5754 42.4371C30.7351 39.7206 31.825 34.8557 32.6826 32.5653L32.6647 32.5476Z" fill="url(#paint7_radial_284_13032)"/>
<path fill-rule="evenodd" clip-rule="evenodd" d="M33.3615 73.6683L34.6836 69.6379C31.8071 70.8275 27.4298 71.9638 24.7677 71.9993C21.9448 70.8985 19.4256 69.9752 16.5134 69.0875C15.9774 68.8389 15.4235 68.5193 14.8518 68.1287C14.1729 68.0399 13.4939 67.9157 12.8329 67.7736C12.4219 67.3475 12.1004 66.8504 11.8324 66.3177C10.7782 64.1693 10.7604 61.293 10.8318 59.1802C10.5102 62.962 10.9033 67.7914 11.4572 69.993C13.5118 71.662 15.8702 73.2777 18.5323 74.8224C20.6227 75.0532 22.6773 75.1242 24.6963 75.0177C27.5728 74.7336 30.4671 74.2897 33.3437 73.6683H33.3615Z" fill="url(#paint8_radial_284_13032)"/>
<path fill-rule="evenodd" clip-rule="evenodd" d="M34.6836 69.6556L33.3615 73.686C39.7399 69.8332 45.7966 65.3944 51.8355 60.9912L49.7809 58.5942C45.0105 61.7901 40.2401 64.7375 35.6663 67.7913C35.3447 68.4128 35.0231 69.0342 34.7015 69.6556H34.6836Z" fill="url(#paint9_radial_284_13032)"/>
<path fill-rule="evenodd" clip-rule="evenodd" d="M45.8145 52.5045C47.4225 54.4043 48.7625 56.4284 49.763 58.5945L51.8176 60.9914C51.764 59.6598 51.5675 58.1684 51.103 56.8012C48.959 55.0968 47.6726 53.1082 46.6542 51.1196L45.8145 52.5223V52.5045Z" fill="#511334"/>
<path fill-rule="evenodd" clip-rule="evenodd" d="M31.1997 45.9173C36.3452 49.3795 40.2223 50.7644 45.8145 52.5044L46.6542 51.1018C43.5097 49.9122 39.5076 48.8114 37.8817 47.9591C35.434 46.663 33.8618 44.3726 32.5575 42.4373C30.7173 39.7208 31.8071 34.8559 32.6647 32.5655L29.6631 32.459C28.2874 39.6853 28.8413 42.2775 31.1818 45.9351L31.1997 45.9173Z" fill="url(#paint10_radial_284_13032)"/>
<path fill-rule="evenodd" clip-rule="evenodd" d="M29.681 32.4591L32.6826 32.5656C32.3789 31.8199 32.0573 31.0742 31.7535 30.3285C30.7709 29.8846 30.1992 29.8846 29.1629 29.8491C29.3773 30.6481 29.4845 31.4116 29.6453 32.1928C29.6453 32.2816 29.681 32.3703 29.6989 32.4591H29.681Z" fill="url(#paint11_radial_284_13032)"/>
<path fill-rule="evenodd" clip-rule="evenodd" d="M31.7357 30.3106L32.2002 29.0144L35.845 26.5642L38.6857 24.8065L42.938 21.7349L45.0105 21.433L50.9243 19.0184L56.9989 16L62.3589 16.1953L69.3447 16L77.5454 16.3018L81.3867 17.5092L83.1019 18.61L84.3347 20.6518L59.2322 32.2814L32.6647 32.5477L32.0573 31.0918L31.7357 30.3106Z" fill="url(#paint12_radial_284_13032)"/>
<path fill-rule="evenodd" clip-rule="evenodd" d="M31.1997 45.9175C31.0389 49.6105 29.5559 54.7595 28.2696 58.1329C26.9296 60.7074 25.4645 63.2286 23.9101 65.7321C23.2133 67.4899 22.7667 69.3009 22.4808 71.1474C23.2312 71.4315 23.9816 71.7156 24.7677 72.0174C26.2685 71.9996 28.3232 71.6268 30.3421 71.0941C31.8965 70.6858 33.433 70.1709 34.6836 69.656C34.8087 69.4074 34.9516 69.1411 35.0767 68.8925C35.2732 68.5196 35.4519 68.1645 35.6484 67.7917C40.2223 64.7378 44.9926 61.7905 49.763 58.5946C48.7625 56.4285 47.4225 54.4044 45.8145 52.5046C40.2044 50.7646 36.3274 49.3797 31.1997 45.9175Z" fill="url(#paint13_radial_284_13032)"/>
<path fill-rule="evenodd" clip-rule="evenodd" d="M28.2695 58.1326C29.5559 54.7591 31.021 49.6102 31.1997 45.9171C28.8413 42.2773 28.3053 39.6851 29.681 32.441C29.6631 32.3523 29.6453 32.2635 29.6274 32.1747C29.4666 31.3935 29.3594 30.63 29.145 29.8311C25 33.0802 20.6584 38.389 17.2816 42.9343C14.5838 48.2785 12.3326 53.6938 10.8497 59.1801C10.7604 61.293 10.7961 64.1693 11.8502 66.3177C12.1182 66.8503 12.4398 67.3475 12.8507 67.7736C13.5297 67.9156 14.2086 68.0399 14.8697 68.1287C15.4414 68.5193 15.9952 68.8389 16.5312 69.0875C18.6216 69.7444 20.5333 70.4013 22.4987 71.1293C22.8024 69.3005 23.2312 67.4895 23.928 65.714C25.4645 63.2105 26.9296 60.6893 28.2874 58.1148L28.2695 58.1326Z" fill="url(#paint14_radial_284_13032)"/>
<path fill-rule="evenodd" clip-rule="evenodd" d="M38.114 39.8985C37.0242 38.9575 36.1487 38.0164 35.3268 37.0754C35.5234 34.785 35.8807 32.5479 36.6847 30.4883C37.4887 28.8904 38.5249 27.4522 39.7756 26.1561C41.2585 24.7889 42.8308 23.7236 44.4209 22.6938C39.3468 25.144 35.0946 28.0559 31.289 31.8199C30.8423 33.1693 30.5565 34.572 30.3778 35.9924C31.1997 42.1889 32.7719 44.0532 37.2028 48.1013C38.5428 48.5984 39.8649 49.0246 41.1692 49.4507C40.8833 48.2966 40.7047 47.4976 40.526 46.3436C38.7572 44.3017 38.2033 41.9226 38.114 39.8807V39.8985Z" fill="url(#paint15_radial_284_13032)"/>
<path fill-rule="evenodd" clip-rule="evenodd" d="M42.7593 40.0935C41.2049 39.8805 39.6505 39.8094 38.0962 39.8982C38.1855 41.94 38.7394 44.3192 40.5081 46.3611C43.8492 46.5741 47.3689 45.2247 50.9958 42.9698C48.3337 41.9045 45.6537 40.8392 42.7415 40.1113L42.7593 40.0935Z" fill="url(#paint16_radial_284_13032)"/>
<path fill-rule="evenodd" clip-rule="evenodd" d="M51.0137 42.952C47.3868 45.2069 43.867 46.5741 40.526 46.3433C40.7225 47.4973 40.8833 48.2963 41.1692 49.4504C42.9737 50.0185 44.7604 50.5512 46.6542 51.0838C47.7798 51.2259 48.9233 51.3679 50.0489 51.51C50.6921 51.3502 51.3353 51.1726 51.9784 51.0128C52.7467 50.9418 53.5328 50.8708 54.3011 50.8175C54.9086 49.3616 55.4982 47.9057 56.0163 46.4853C56.588 44.7453 56.9989 42.9876 57.3384 41.2476C55.3195 42.1531 53.1755 42.5969 51.0137 42.952Z" fill="url(#paint17_radial_284_13032)"/>
<path fill-rule="evenodd" clip-rule="evenodd" d="M57.3384 41.2477C57.0168 42.9877 56.588 44.7454 56.0163 46.4854C55.4981 47.9058 54.9264 49.3617 54.3011 50.8176C57.5171 49.5038 60.608 47.604 63.5559 45.0827C64.217 43.2717 65.0031 41.4962 65.9322 39.7562L62.5733 35.4062C61.1261 37.5191 59.2322 39.3834 57.3205 41.2299L57.3384 41.2477Z" fill="url(#paint18_radial_284_13032)"/>
<path fill-rule="evenodd" clip-rule="evenodd" d="M62.5912 35.4241L65.9501 39.7741C65.0031 34.6607 64.6101 30.9676 64.9317 24.9842C64.7709 24.7356 64.5922 24.4693 64.4135 24.2207C64.0741 25.428 63.7346 26.6176 63.3952 27.825C63.1272 30.3639 62.8592 32.8852 62.5912 35.4241Z" fill="url(#paint19_radial_284_13032)"/>
<path fill-rule="evenodd" clip-rule="evenodd" d="M48.1371 35.2998C46.2612 36.2764 44.01 38.549 41.1513 39.9162C41.6873 39.9517 42.2233 40.0049 42.7772 40.0937C45.6894 40.8217 48.3515 41.887 51.0315 42.9523C53.1934 42.5794 55.3374 42.1533 57.3563 41.2478C59.268 39.4013 61.1797 37.537 62.609 35.4241C62.877 32.8852 63.145 30.3639 63.413 27.825C63.7525 26.6176 64.092 25.428 64.4314 24.2207C61.8944 27.5587 57.3027 30.1864 52.8182 32.8141C51.2995 33.7019 48.7982 34.9625 48.1371 35.2998Z" fill="url(#paint20_radial_284_13032)"/>
<path fill-rule="evenodd" clip-rule="evenodd" d="M41.1513 39.9159C44.01 38.5488 46.2611 36.2761 48.1371 35.2996C48.7982 34.9622 51.2995 33.7016 52.8182 32.8139C57.3205 30.2039 61.9122 27.5584 64.4314 24.2204C63.7703 23.2794 63.02 22.4094 62.2338 21.5749C60.6616 21.1133 59.0893 20.8292 57.5349 20.6694C53.0147 20.8115 48.8339 21.5572 44.4388 22.6758C42.8486 23.7055 41.2764 24.7886 39.7935 26.138C38.5428 27.4341 37.5244 28.8723 36.7026 30.4702C35.8986 32.5298 35.5412 34.7669 35.3447 37.0573C36.1666 37.9984 37.042 38.9394 38.1319 39.8804C39.1503 39.8271 40.1508 39.8271 41.1692 39.9159H41.1513Z" fill="url(#paint21_radial_284_13032)"/>
<path fill-rule="evenodd" clip-rule="evenodd" d="M108.169 77.0239C109.08 77.0772 113.94 77.2015 114.636 76.8286C115.994 75.9941 117.334 75.3017 118.692 74.8223C119.746 74.6802 120.89 74.698 121.837 74.627C122.426 74.4849 124.141 73.686 125.053 73.0468C125.553 73.5617 126.178 74.3074 126.625 75.0176C126.732 72.8337 126.821 70.6676 126.929 68.4837C126.375 65.2701 125.821 62.0564 125.267 58.825C124.034 55.6646 122.819 53.463 122.587 50.0718C120.389 46.3432 118.764 43.1828 116.923 39.2589C115.047 37.2526 113.35 35.1398 111.492 33.169C107.115 28.4816 102.148 24.8951 96.6269 21.2731C96.1088 20.989 95.5728 20.7049 95.0546 20.4208C94.0898 20.0657 93.0893 19.8349 92.0709 19.6751C90.9096 18.8939 89.7483 18.0949 88.587 17.3137C87.5686 16.8698 86.4966 16.6213 85.4067 16.4082C86.5502 18.1127 89.6768 19.8172 91.8208 20.8647C92.196 21.5572 92.9643 23.4214 95.2869 26.2267C96.2338 28.2508 97.0378 30.3459 97.6096 32.512C98.2885 33.0979 98.8602 33.7904 99.3783 34.5716C100.558 37.5012 101.63 40.5373 102.612 43.6799C102.97 45.8993 103.291 48.101 103.523 50.3203C105.882 55.2562 108.115 60.1744 110.205 65.1103C109.848 66.0868 109.437 67.0456 108.883 68.0221C108.49 70.7031 108.169 74.1298 108.169 77.0772V77.0239Z" fill="url(#paint22_radial_284_13032)"/>
<path fill-rule="evenodd" clip-rule="evenodd" d="M118.692 74.8046C117.549 72.8693 112.6 67.0279 110.188 65.0571C109.83 66.0337 109.419 66.9924 108.865 67.969C108.472 70.65 108.151 74.0767 108.151 77.024C109.062 77.0773 113.922 77.2016 114.619 76.8287C115.976 75.9942 117.316 75.3018 118.674 74.8224L118.692 74.8046Z" fill="url(#paint23_radial_284_13032)"/>
<path fill-rule="evenodd" clip-rule="evenodd" d="M97.681 46.6987C99.3426 45.9174 101.004 44.9587 102.594 43.6448C101.612 40.5199 100.54 37.466 99.3605 34.5365C98.8423 33.7552 98.2706 33.0628 97.5917 32.4769C97.0021 30.3108 96.216 28.2157 95.269 26.1916C92.9464 23.3863 92.1781 21.522 91.8029 20.8296C89.6589 19.782 86.5323 18.0598 85.3888 16.373C84.5312 17.03 83.763 17.7757 83.1019 18.6102C83.1913 19.1961 83.3521 19.782 83.7094 20.3679C87.8008 22.2322 90.1413 24.7179 93.1786 30.9499C93.5002 31.6779 93.8218 32.3881 94.1434 33.1161C96.5376 38.4781 97.3773 40.946 97.681 46.6987Z" fill="url(#paint24_radial_284_13032)"/>
<path fill-rule="evenodd" clip-rule="evenodd" d="M102.612 43.6444C101.004 44.9583 99.3605 45.917 97.6989 46.6983C98.5565 50.8352 98.6816 55.3805 98.5029 59.5707C98.8424 61.2752 99.0925 63.0507 99.1639 64.8972C98.6816 69.2294 97.824 72.9757 95.8229 77.0061C95.7693 78.462 96.073 79.9179 96.6269 81.3739C98.3242 80.8234 100.057 80.3441 101.862 79.9535C104.131 79.1012 106.293 78.2135 108.187 77.0061C108.187 74.0588 108.508 70.6321 108.901 67.951C109.455 66.9745 109.866 66.0157 110.223 65.0392C108.133 60.1033 105.9 55.1852 103.541 50.2493C103.309 48.0299 102.987 45.8283 102.63 43.6089L102.612 43.6444Z" fill="url(#paint25_radial_284_13032)"/>
<path fill-rule="evenodd" clip-rule="evenodd" d="M114.654 76.8287C113.957 77.2015 109.098 77.0773 108.187 77.024C106.293 78.2136 104.131 79.1191 101.862 79.9713C100.075 80.3619 98.3242 80.8413 96.6269 81.3917C104.006 84.3923 109.759 85.0493 117.531 86.2744C118.889 85.8838 120.264 85.4576 121.622 84.8717C121.586 84.3568 121.569 83.8242 121.533 83.3093C122.158 80.5217 122.909 77.7697 123.855 75.1065C124.249 74.414 124.642 73.7393 125.035 73.0469C124.123 73.6861 122.408 74.485 121.819 74.6271C120.872 74.6981 119.728 74.6981 118.674 74.8224C117.316 75.3195 115.976 76.012 114.618 76.8287H114.654Z" fill="url(#paint26_radial_284_13032)"/>
<path fill-rule="evenodd" clip-rule="evenodd" d="M123.855 75.0886C122.909 77.7518 122.14 80.4861 121.533 83.2914C121.569 83.8063 121.586 84.3389 121.622 84.8538C122.783 83.9838 123.838 83.0428 124.767 82.0308C125.267 81.1963 125.696 80.2908 126.089 79.3498C126.267 77.8939 126.446 76.438 126.643 74.982C126.196 74.2718 125.553 73.5261 125.07 73.0112C124.677 73.7037 124.284 74.3784 123.891 75.0708L123.855 75.0886Z" fill="url(#paint27_radial_284_13032)"/>
<path fill-rule="evenodd" clip-rule="evenodd" d="M39.99 98.9871C36.0594 99.9814 30.896 100.425 27.5728 100.425C24.9107 98.8451 22.5701 97.0696 21.3552 95.5426C19.9259 95.4006 17.6033 94.9922 16.6921 94.6549C16.5849 94.2643 16.4598 93.6429 16.4062 93.27C14.9947 92.8971 13.7441 92.1514 12.4756 91.459C13.887 92.8084 14.9411 94.0157 16.1739 95.6314L18.5323 97.8508C19.0326 98.1526 20.7656 98.4722 21.6232 98.5077C22.32 99.1824 23.2491 99.9104 24.0709 100.337C24.4997 100.514 24.9285 100.621 25.3573 100.709C26.1077 101.153 26.8581 101.615 27.6085 102.059C29.3773 102.059 31.1997 102.165 33.165 102.503C35.5948 102.219 38.0247 102.059 40.4545 102.059C41.9911 101.42 43.474 100.709 44.9033 99.8394C45.1892 99.0404 45.3678 98.2237 45.4214 97.4247C44.9033 96.2884 44.278 95.2053 43.5812 94.1578C43.5991 95.0455 43.5276 95.9333 43.3132 96.821C42.3127 97.6022 41.2049 98.3124 39.9721 98.9516L39.99 98.9871Z" fill="url(#paint28_radial_284_13032)"/>
<path fill-rule="evenodd" clip-rule="evenodd" d="M27.5549 100.407C30.8959 100.407 36.0594 99.9813 39.9721 98.9693C41.2049 98.3301 42.3126 97.6199 43.3132 96.8386C43.5276 95.9509 43.599 95.0631 43.5812 94.1754C41.4372 90.9262 38.5428 88.0499 35.5055 85.2446C32.2359 83.4158 29.1093 81.516 26.0362 79.563C25.3573 80.9834 24.5354 82.2085 23.6421 83.2916C23.1955 87.4462 22.3915 91.5121 21.3373 95.5248C22.5701 97.034 24.8928 98.8095 27.5549 100.407Z" fill="url(#paint29_radial_284_13032)"/>
<path fill-rule="evenodd" clip-rule="evenodd" d="M21.3373 95.5428C22.3915 91.5302 23.1955 87.4643 23.6421 83.3096C24.5354 82.2088 25.3573 81.0014 26.0362 79.581C25.8576 79.2259 25.661 78.8708 25.4824 78.5335C24.1602 78.0186 22.9453 77.4327 21.784 76.829L18.5323 74.8582C15.8702 73.3135 13.5118 71.7155 11.4571 70.0288C10.9033 70.8278 10.4745 71.68 10.135 72.5855C10.0278 73.5088 9.97422 74.4498 9.99209 75.3731C9.68836 76.2963 9.36676 77.2374 9.06303 78.1606C8.88436 80.5753 9.24169 84.2328 10.0278 86.0971C10.671 87.2157 11.3142 88.3343 11.9574 89.4351L12.4934 91.4769C13.7619 92.1693 15.0126 92.9151 16.424 93.2879C16.4598 93.643 16.6027 94.2822 16.7099 94.6728C17.6211 95.0102 19.9259 95.4008 21.3731 95.5606L21.3373 95.5428Z" fill="url(#paint30_radial_284_13032)"/>
<path fill-rule="evenodd" clip-rule="evenodd" d="M48.2979 84.6056C46.5291 84.5524 43.3132 85.3336 42.0804 85.7952C42.4377 86.026 45.2785 88.636 46.8329 90.0742C48.2265 89.8078 50.9422 89.0621 51.3352 88.7603C51.5318 88.6183 53.1576 86.9138 53.9616 85.9017C51.8355 85.5821 50.3526 85.2093 48.2801 84.6056H48.2979Z" fill="url(#paint31_radial_284_13032)"/>
<path fill-rule="evenodd" clip-rule="evenodd" d="M56.6238 65.0038C56.1771 61.7013 55.4624 58.4344 54.3547 55.203C53.247 54.0489 52.0321 53.1256 50.7814 52.3089C49.4057 51.9005 48.03 51.5099 46.6542 51.1016C47.7084 53.9779 49.8702 58.026 51.2459 61.3817C53.515 66.8148 54.3726 68.0931 58.2675 72.4609C59.2501 74.0943 60.2149 75.71 61.1797 77.3613L62.9485 72.4431C61.0904 69.8686 58.9643 67.4007 56.6238 65.0038Z" fill="url(#paint32_radial_284_13032)"/>
<path fill-rule="evenodd" clip-rule="evenodd" d="M54.3547 55.2031L55.3373 51.7764C53.8187 51.9539 52.3 52.1315 50.7814 52.309C52.032 53.1258 53.2291 54.049 54.3547 55.2031Z" fill="#BC5152"/>
<path fill-rule="evenodd" clip-rule="evenodd" d="M55.3374 51.7763C61.7693 50.2494 64.6458 49.1664 69.166 44.1772C69.434 43.3782 69.5948 40.9458 69.2911 40.1646C67.3794 41.7092 66.0037 42.668 64.0384 43.8221C61.1976 46.6629 58.5533 48.9 54.4083 50.5335C51.7283 50.7998 49.3521 51.2259 46.6364 51.0839C48.0121 51.4923 49.3878 51.8829 50.7635 52.2912C52.2822 52.1137 53.8008 51.9361 55.3195 51.7586L55.3374 51.7763Z" fill="url(#paint33_radial_284_13032)"/>
<path fill-rule="evenodd" clip-rule="evenodd" d="M69.1839 44.1951C71.2921 44.3371 73.3647 44.3549 75.4015 44.1951C80.6185 45.8818 85.371 47.0892 91.1419 47.9236C92.0352 47.4798 93.0178 47.1957 94.0541 47.0536C91.8744 46.5743 89.6947 46.0771 87.5328 45.5977C84.9064 44.852 82.2622 44.1241 79.6358 43.3783L75.1871 41.7271C74.5439 41.3188 73.9007 40.9282 73.2575 40.5198C71.9353 40.4133 70.6311 40.3067 69.309 40.2002C69.6127 40.9637 69.434 43.4139 69.1839 44.2128V44.1951Z" fill="url(#paint34_radial_284_13032)"/>
<path fill-rule="evenodd" clip-rule="evenodd" d="M91.1419 47.9056C92.4461 51.9005 93.8576 55.0254 95.4477 56.6056L98.5029 59.5529C98.628 56.3926 98.5922 53.0191 98.1991 49.7877C96.8234 48.8644 95.4298 47.9589 94.0541 47.0356C93.0179 47.1777 92.0352 47.4618 91.1419 47.9056Z" fill="url(#paint35_radial_284_13032)"/>
<path fill-rule="evenodd" clip-rule="evenodd" d="M95.4299 56.606C93.3573 59.9972 89.8376 62.8025 89.2123 66.7618C86.0142 69.9755 80.1182 72.692 76.3663 74.361C77.8849 75.3198 80.422 77.6634 80.8508 78.9063C83.6379 77.983 86.4073 77.113 89.2302 76.2608C92.3925 73.7928 95.8229 71.5912 98.6101 68.6971C98.8424 67.472 99.021 66.2114 99.164 64.8976C99.0925 63.051 98.8602 61.2755 98.5029 59.571L95.4477 56.6237L95.4299 56.606Z" fill="url(#paint36_radial_284_13032)"/>
<path fill-rule="evenodd" clip-rule="evenodd" d="M80.8508 78.8881C80.422 77.6453 77.8849 75.3016 76.3663 74.3428C71.8282 74.2363 67.3615 73.4906 62.9664 72.4253L61.1976 77.3434C64.8066 79.474 69.3626 79.4918 73.4361 80.0777C76.3127 79.8824 78.0457 79.5273 80.8508 78.8704V78.8881Z" fill="url(#paint37_radial_284_13032)"/>
<path fill-rule="evenodd" clip-rule="evenodd" d="M76.3662 74.3608C80.1361 72.7096 86.0142 69.9931 89.2123 66.7617C89.8376 62.8023 93.3573 59.997 95.4298 56.6058C93.8576 55.0256 92.4461 51.9007 91.124 47.9058C85.371 47.0713 80.6006 45.864 75.3836 44.1772C73.3468 44.337 71.2743 44.3193 69.166 44.1772C64.6458 49.1487 61.7514 50.2317 55.3373 51.7764L54.3547 55.2031C55.4803 58.4345 56.1771 61.7015 56.6237 65.0039C58.9464 67.4008 61.0904 69.8688 62.9485 72.4433C67.3615 73.4908 71.8103 74.2365 76.3484 74.3608H76.3662Z" fill="url(#paint38_radial_284_13032)"/>
<path fill-rule="evenodd" clip-rule="evenodd" d="M92.8392 73.5439C93.8397 74.698 94.8224 75.8521 95.8229 77.0061C97.2165 74.2008 98.0562 71.5198 98.5922 68.6968C96.8413 70.5078 94.8581 72.0525 92.8392 73.5439Z" fill="#6C61B8"/>
<path fill-rule="evenodd" clip-rule="evenodd" d="M92.8392 73.5442C93.6968 73.5442 94.5723 73.5442 95.4298 73.5442C96.8056 72.6387 97.949 70.3838 98.5922 68.7148C96.8413 70.5259 94.8581 72.0705 92.8392 73.562V73.5442Z" fill="url(#paint39_radial_284_13032)"/>
<path fill-rule="evenodd" clip-rule="evenodd" d="M95.4298 73.5262C94.5723 73.5262 93.6968 73.5262 92.8392 73.5262C93.8397 74.6803 94.8224 75.8344 95.8229 76.9885C95.8944 76.2783 95.948 75.5503 95.9301 74.8046C95.7872 74.3252 95.6085 73.8991 95.4298 73.4907V73.5262Z" fill="url(#paint40_radial_284_13032)"/>
<path fill-rule="evenodd" clip-rule="evenodd" d="M95.4298 73.5265C95.6264 73.9348 95.7872 74.3609 95.9301 74.8403C95.9301 75.586 95.8944 76.314 95.8229 77.0242C97.2165 74.2189 98.0562 71.5379 98.5922 68.7148C97.949 70.3838 96.7877 72.6387 95.4298 73.5442V73.5265Z" fill="url(#paint41_radial_284_13032)"/>
<path fill-rule="evenodd" clip-rule="evenodd" d="M21.516 75.6923C21.6768 75.4614 21.8555 75.2484 22.0341 75.0531C20.8728 75.0353 19.7115 74.9466 18.5323 74.8223L21.784 76.7931C21.5875 76.4202 21.5339 76.0474 21.4981 75.6923H21.516Z" fill="#511334"/>
<path fill-rule="evenodd" clip-rule="evenodd" d="M16.1918 102.13C15.7451 103.373 15.5664 104.722 15.7094 106.16C17.371 108.096 18.979 109.907 20.5155 111.948C25.7682 117.009 29.6095 120.861 35.6484 125.069C41.6158 128.248 45.3678 129.899 51.6926 132.207C55.8555 132.846 59.4288 133.219 63.6274 133.521C64.9317 133.663 66.2181 133.823 67.5223 133.965C73.2575 133.148 75.5265 132.882 80.9222 130.769C81.2795 130.502 81.6011 129.97 81.7977 129.65C79.207 129.242 76.6164 128.816 74.0257 128.407C73.1681 128.034 72.2748 127.697 71.2922 127.395C69.7199 127.395 67.8439 127.395 66.3789 127.2C60.072 125.762 55.9805 123.685 50.0846 121.075C47.8691 120.364 45.6716 119.672 43.4561 118.962L38.3999 117.559L35.0588 115.748C33.5223 115.34 31.9858 114.47 30.4493 114.061C28.8949 113.174 27.3584 112.659 25.7861 111.842C23.4813 108.983 21.1765 106.125 18.8718 103.266C17.9784 102.893 17.0851 102.503 16.1918 102.13Z" fill="url(#paint42_radial_284_13032)"/>
<path fill-rule="evenodd" clip-rule="evenodd" d="M15.7094 106.178C17.8534 108.149 19.64 110.492 20.8371 111.629C21.0694 111.86 21.9805 112.552 22.6059 112.943C26.0541 115.056 29.8776 116.76 33.4866 118.607C34.5229 119.139 35.577 119.619 36.5775 120.222C37.1492 120.56 37.9354 121.003 38.5428 121.252C41.2585 122.406 44.0814 122.832 46.3326 123.791C47.7798 124.412 48.9947 125.211 50.4598 125.797C51.8713 126.365 53.4435 126.738 54.8907 127.253C55.8555 127.591 57.1955 128.212 58.1781 128.478C59.1608 128.762 59.9827 128.94 60.8581 129.117C61.6978 129.295 64.217 130.112 64.5029 130.147C64.6101 130.147 65.6821 129.97 66.2717 129.916C68.1655 129.757 72.382 129.366 72.5964 129.295C72.793 129.224 73.5612 128.798 74.0079 128.461C73.1503 128.088 72.257 127.75 71.2743 127.449C69.702 127.449 67.8261 127.449 66.361 127.253C60.0541 125.815 55.9627 123.738 50.0667 121.128C47.8513 120.418 45.6537 119.725 43.4383 119.015L38.382 117.612L35.041 115.801C33.5045 115.393 31.9679 114.523 30.4314 114.114C28.877 113.227 27.3405 112.712 25.7683 111.895C23.4635 109.037 21.1587 106.178 18.8539 103.319C17.9606 102.947 17.0673 102.556 16.1739 102.183C15.7273 103.426 15.5486 104.775 15.6915 106.214L15.7094 106.178Z" fill="url(#paint43_radial_284_13032)"/>
<path fill-rule="evenodd" clip-rule="evenodd" d="M73.597 95.6849C73.7399 94.0514 73.9007 92.4179 74.0436 90.7845C71.7031 90.9443 69.3626 91.1041 67.0042 91.2639C64.2706 91.1396 61.6621 90.6779 59.1429 90.021C58.8392 90.9975 58.4461 92.0451 57.928 93.3234C55.1766 95.0457 51.8176 96.5193 47.5118 97.6734C46.7793 97.6557 46.0825 97.5846 45.4036 97.4426C45.35 98.2416 45.1892 99.0583 44.8854 99.8573C47.7441 101.047 50.5849 102.272 53.247 103.817C54.0331 104.012 54.8371 104.101 55.6232 104.119C57.0883 103.657 58.5533 103.142 60.0184 102.521C61.537 101.704 63.1093 101.118 64.7173 100.603C67.8797 98.5789 70.1844 97.2828 73.5791 95.6671L73.597 95.6849Z" fill="url(#paint44_radial_284_13032)"/>
<path fill-rule="evenodd" clip-rule="evenodd" d="M73.5969 95.6849C70.2023 97.2828 67.8975 98.5967 64.7351 100.621C63.1272 101.136 61.537 101.722 60.0362 102.538C58.5712 103.16 57.1061 103.675 55.6411 104.136C57.4277 103.728 59.2144 103.32 61.001 103.124C65.2354 101.455 69.6842 99.9283 74.2044 98.65C75.2764 98.0285 76.3484 97.3894 77.4561 96.7679C77.0452 96.3596 76.5985 95.9512 75.9911 95.5961C75.2585 95.5428 74.4545 95.5961 73.6148 95.7026L73.5969 95.6849Z" fill="url(#paint45_radial_284_13032)"/>
<path fill-rule="evenodd" clip-rule="evenodd" d="M73.597 95.6844C74.4367 95.5957 75.2407 95.5424 75.9732 95.5779C76.5807 95.933 77.0452 96.3236 77.4383 96.7497C79.4036 95.6134 81.4046 94.4948 83.4593 93.3585C87.5864 92.453 91.5528 91.3877 95.3405 90.1449C92.3032 89.5234 89.391 89.4879 86.3715 89.3281C84.5313 89.7365 82.8875 90.0916 81.083 90.3047C78.7425 90.4644 76.402 90.6242 74.0436 90.784C73.9007 92.4175 73.7399 94.051 73.597 95.6844Z" fill="url(#paint46_radial_284_13032)"/>
<path fill-rule="evenodd" clip-rule="evenodd" d="M86.3715 89.3283C89.4088 89.4704 92.3211 89.5237 95.3405 90.1451C95.7514 89.6657 96.6448 87.3398 96.6984 86.6296C95.6978 85.1559 94.7152 84.0551 93.7146 83.1318L92.0531 85.44C88.1403 87.7304 84.5848 89.0975 81.083 90.3226C82.8875 90.1096 84.5312 89.7545 86.3715 89.3461V89.3283Z" fill="url(#paint47_radial_284_13032)"/>
<path fill-rule="evenodd" clip-rule="evenodd" d="M81.083 90.3046C84.5849 89.0973 88.1582 87.7124 92.0531 85.422L93.7147 83.1139C93.1072 80.2908 92.3032 77.45 91.3563 74.627C90.6238 75.1596 89.9091 75.71 89.1944 76.2604C86.3715 77.1127 83.6201 77.9649 80.815 78.9059C78.01 79.5629 76.2769 79.918 73.4004 80.1133C69.3269 79.5273 64.7709 79.5096 61.1618 77.379C60.9296 78.32 60.7509 79.2965 60.6437 80.2731C60.608 81.3206 60.5723 82.3504 60.5365 83.3979C60.0541 86.2743 59.7683 87.9965 59.1251 90.0383C61.6621 90.6953 64.2528 91.1569 66.9863 91.2812C69.3269 91.1214 71.6674 90.9616 74.0257 90.8018C76.3663 90.642 78.7068 90.4822 81.0652 90.3224L81.083 90.3046Z" fill="url(#paint48_radial_284_13032)"/>
<path style="mix-blend-mode:multiply" opacity="0.5" fill-rule="evenodd" clip-rule="evenodd" d="M81.083 90.3046C84.5849 89.0973 88.1582 87.7124 92.0531 85.422L93.7147 83.1139C93.1072 80.2908 92.3032 77.45 91.3563 74.627C90.6238 75.1596 89.9091 75.71 89.1944 76.2604C86.3715 77.1127 83.6201 77.9649 80.815 78.9059C78.01 79.5629 76.2769 79.918 73.4004 80.1133C69.3269 79.5273 64.7709 79.5096 61.1618 77.379C60.9296 78.32 60.7509 79.2965 60.6437 80.2731C60.608 81.3206 60.5723 82.3504 60.5365 83.3979C60.0541 86.2743 59.7683 87.9965 59.1251 90.0383C61.6621 90.6953 64.2528 91.1569 66.9863 91.2812C69.3269 91.1214 71.6674 90.9616 74.0257 90.8018C76.3663 90.642 78.7068 90.4822 81.0652 90.3224L81.083 90.3046Z" fill="url(#paint49_radial_284_13032)"/>
<path fill-rule="evenodd" clip-rule="evenodd" d="M91.3741 74.627C92.3211 77.4501 93.1251 80.2909 93.7325 83.1139C94.7331 84.0372 95.7157 85.1557 96.7162 86.6117C96.7877 84.8361 96.752 83.0784 96.6269 81.3739C96.073 79.918 95.7693 78.4621 95.8229 77.0062C94.8224 75.8521 93.8397 74.698 92.8392 73.5439C92.3568 73.899 91.8744 74.2719 91.3741 74.627Z" fill="url(#paint50_radial_284_13032)"/>
<path fill-rule="evenodd" clip-rule="evenodd" d="M80.547 90.3404C79.9574 89.9143 79.3142 89.5592 78.5281 89.3106C74.0615 89.0621 70.6847 89.3106 68.237 90.1451C67.6117 90.4469 67.1114 90.8376 66.6647 91.2459C67.1293 91.6365 67.6831 92.0094 68.4335 92.329C70.1844 92.6486 71.9711 92.8616 73.8471 92.9149C75.4372 92.7373 76.9916 92.4533 78.546 92.0982C79.3678 91.7253 80.0468 91.1039 80.547 90.3404Z" fill="url(#paint51_radial_284_13032)"/>
<path fill-rule="evenodd" clip-rule="evenodd" d="M68.237 90.1451C67.701 90.4114 67.2722 90.731 66.8613 91.0684C66.8434 91.1039 66.8077 91.1394 66.7898 91.1749C66.7719 91.2104 66.7719 91.2282 66.7898 91.2459C66.7898 91.2459 66.8255 91.2459 66.8613 91.2459C66.8791 91.2459 66.897 91.2459 66.9149 91.2459C69.4519 91.0151 71.9532 90.8731 74.4724 90.7488C74.6511 90.7488 74.8119 90.731 74.9905 90.7133C76.7415 90.6245 78.5281 90.6245 80.2969 90.5712C80.3326 90.5712 80.3684 90.5712 80.4041 90.5535C80.4398 90.5002 80.4756 90.4647 80.5113 90.4114C80.5113 90.3937 80.5113 90.3582 80.5113 90.3404C80.5113 90.3227 80.4934 90.2872 80.4756 90.2694C79.9217 89.8788 79.2964 89.5414 78.546 89.3106C74.0793 89.0621 70.7026 89.3106 68.2549 90.1451H68.237Z" fill="url(#paint52_radial_284_13032)"/>
<path fill-rule="evenodd" clip-rule="evenodd" d="M29.9669 111.628C30.0562 112.427 30.217 113.244 30.4493 114.079C31.7178 114.061 32.9863 113.954 34.237 113.724C32.7005 113.102 31.289 112.392 29.9669 111.628Z" fill="url(#paint53_radial_284_13032)"/>
<path fill-rule="evenodd" clip-rule="evenodd" d="M29.9669 111.629C31.3069 112.392 32.7005 113.102 34.237 113.724C35.5412 113.955 36.9706 114.203 38.1319 114.576C37.4708 113.262 36.6668 111.291 36.4167 110.049C36.381 108.966 36.4167 107.883 36.5596 106.835C34.3263 107.9 32.0751 108.841 29.7882 109.569C29.7882 110.262 29.8597 110.936 29.9669 111.629Z" fill="url(#paint54_radial_284_13032)"/>
<path fill-rule="evenodd" clip-rule="evenodd" d="M30.4314 114.079C30.1991 113.244 30.0383 112.428 29.949 111.629C29.8418 110.936 29.7882 110.261 29.7703 109.569C25.3216 107.9 21.6768 105.947 18.3179 103.87C19.0862 105.095 20.3368 106.497 21.6768 107.793L22.4272 109.196C23.6064 110.528 26.5186 112.747 30.4135 114.079H30.4314Z" fill="url(#paint55_radial_284_13032)"/>
<path fill-rule="evenodd" clip-rule="evenodd" d="M18.3179 103.87C21.6768 105.947 25.3394 107.9 29.7703 109.569C32.0751 108.841 34.3263 107.9 36.5418 106.835C34.2191 105.237 32.2002 103.852 30.6101 102.201C29.5738 102.112 28.5554 102.077 27.5728 102.077C26.8224 101.633 26.072 101.171 25.3216 100.727C24.8928 100.638 24.464 100.514 24.0352 100.354C23.1955 99.9282 22.2843 99.2003 21.5875 98.5256C20.7477 98.4901 18.9968 98.1705 18.4966 97.8687C18.1214 99.4844 18.0678 101.473 18.3 103.888L18.3179 103.87Z" fill="url(#paint56_radial_284_13032)"/>
<path fill-rule="evenodd" clip-rule="evenodd" d="M70.3988 20.847C68.3442 22.1432 66.5933 23.5458 64.9495 24.984C64.6101 30.9497 65.021 34.6605 65.9679 39.7739C67.0757 39.9515 68.2012 40.0935 69.3268 40.2C70.649 40.3066 71.9532 40.4131 73.2753 40.5196C73.9185 40.928 74.5617 41.3186 75.2049 41.727L79.6537 43.3782C82.2801 44.1239 84.9243 44.8518 87.5507 45.5976C89.7304 46.0769 91.9101 46.5741 94.072 47.0535C95.3048 46.9825 96.5376 46.8759 97.7168 46.6984C97.413 40.9635 96.5733 38.4955 94.1792 33.1158C93.8576 32.3878 93.536 31.6776 93.2144 30.9497C90.1771 24.6999 87.8544 22.2319 83.7451 20.3676C81.494 20.0125 79.2606 19.6752 76.938 19.5864C74.7404 19.7995 72.5428 20.1546 70.4167 20.847H70.3988Z" fill="url(#paint57_radial_284_13032)"/>
<path style="mix-blend-mode:screen" opacity="0.55" fill-rule="evenodd" clip-rule="evenodd" d="M70.3988 20.847C68.3442 22.1432 66.5933 23.5458 64.9495 24.984C64.6101 30.9497 65.021 34.6605 65.9679 39.7739C67.0757 39.9515 68.2012 40.0935 69.3268 40.2C70.649 40.3066 71.9532 40.4131 73.2753 40.5196C73.9185 40.928 74.5617 41.3186 75.2049 41.727L79.6537 43.3782C82.2801 44.1239 84.9243 44.8518 87.5507 45.5976C89.7304 46.0769 91.9101 46.5741 94.072 47.0535C95.3048 46.9825 96.5376 46.8759 97.7168 46.6984C97.413 40.9635 96.5733 38.4955 94.1792 33.1158C93.8576 32.3878 93.536 31.6776 93.2144 30.9497C90.1771 24.6999 87.8544 22.2319 83.7451 20.3676C81.494 20.0125 79.2606 19.6752 76.938 19.5864C74.7404 19.7995 72.5428 20.1546 70.4167 20.847H70.3988Z" fill="url(#paint58_radial_284_13032)"/>
<path fill-rule="evenodd" clip-rule="evenodd" d="M77.4204 39.4724C76.134 39.2416 74.8297 39.064 73.4719 38.9753C72.9002 38.2473 72.257 37.6791 71.578 37.1465C69.5234 37.8567 67.701 38.7799 65.9501 39.7742C67.0578 39.9518 68.1834 40.0938 69.309 40.2004C70.6311 40.3069 71.9354 40.4134 73.2575 40.5199C73.9007 40.9283 74.5439 41.3189 75.1871 41.7273L79.6358 43.3785C82.2622 44.1242 84.9065 44.8522 87.5328 45.5979C89.7126 46.0773 91.8923 46.5744 94.0541 47.0538C95.2869 46.9828 96.5197 46.8762 97.6989 46.6987C92.3925 43.8401 82.3694 40.7685 77.4382 39.4724H77.4204Z" fill="url(#paint59_radial_284_13032)"/>
<path fill-rule="evenodd" clip-rule="evenodd" d="M71.578 37.1461C69.8092 33.4886 68.63 30.5767 67.2007 26.0137C66.5397 25.6231 65.7893 25.2857 64.9495 24.9839C64.6101 30.9496 65.021 34.6604 65.9679 39.7738C67.7189 38.7973 69.5412 37.874 71.5959 37.1461H71.578Z" fill="url(#paint60_radial_284_13032)"/>
<path fill-rule="evenodd" clip-rule="evenodd" d="M69.309 40.1825C68.1834 40.0759 67.0578 39.9517 65.9501 39.7563C65.2354 41.088 64.6101 42.4551 64.0562 43.8223C66.0215 42.6682 67.3973 41.7094 69.309 40.1647V40.1825Z" fill="#511334"/>
<path fill-rule="evenodd" clip-rule="evenodd" d="M94.0541 47.0537C95.4298 47.9769 96.8234 48.8824 98.1991 49.8057C98.0741 48.7581 97.9133 47.7283 97.6989 46.7163C96.5197 46.8939 95.3048 47.0004 94.0541 47.0714V47.0537Z" fill="#511334"/>
<path fill-rule="evenodd" clip-rule="evenodd" d="M96.8949 47.8523C97.2344 47.4972 97.4845 47.1066 97.681 46.6982C96.5018 46.8758 95.2869 46.9823 94.0363 47.0533C94.9832 47.3729 95.9122 47.7103 96.877 47.8523H96.8949Z" fill="url(#paint61_radial_284_13032)"/>
<path fill-rule="evenodd" clip-rule="evenodd" d="M64.0562 43.8398C64.9317 42.8988 65.7714 41.94 66.5039 40.8925C66.3431 40.4486 66.1645 40.0935 65.9501 39.7739C65.2354 41.1056 64.6101 42.4727 64.0562 43.8398Z" fill="url(#paint62_radial_284_13032)"/>
<path fill-rule="evenodd" clip-rule="evenodd" d="M47.083 21.0602C51.7641 20.2257 56.4451 19.3557 61.1261 18.5035C66.6469 18.6988 74.5618 19.5155 80.1182 17.9353C80.5649 17.811 80.9937 17.669 81.4046 17.5092L77.5633 16.3018L69.3626 16L62.3768 16.1953L57.0168 16L50.9422 19.0184L45.0284 21.433C45.7252 21.3088 46.4041 21.1845 47.1009 21.0602H47.083Z" fill="url(#paint63_radial_284_13032)"/>
<path fill-rule="evenodd" clip-rule="evenodd" d="M74.0079 128.425C74.2223 128.034 74.4367 127.643 74.6511 127.253C79.4214 125.602 83.9238 123.702 88.2654 120.861C88.9264 120.719 89.5875 120.595 90.2307 120.453C90.588 119.956 90.9453 119.441 91.2848 118.944C94.2506 117.701 97.288 116.706 100.45 116.085H102.416C105.239 115.197 107.829 114.292 110.599 113.244C110.599 113.99 110.545 114.753 110.384 115.57C109.812 117.239 109.026 118.837 107.847 120.364C104.327 121.198 100.325 124.962 97.3773 127.2C96.1981 127.928 94.8938 128.513 93.536 129.011C92.6784 129.153 91.8208 129.277 90.9632 129.419C89.3195 130.431 87.104 131.123 85.7104 131.337C84.1203 130.839 82.8875 130.271 81.7977 129.685C79.207 129.277 76.6164 128.851 74.0257 128.442L74.0079 128.425Z" fill="url(#paint64_radial_284_13032)"/>
<path fill-rule="evenodd" clip-rule="evenodd" d="M75.0977 127.093C77.2774 126.365 78.9569 126.223 82.0299 127.324C84.031 126.401 85.5496 125.815 87.64 125.14C87.9259 124.98 88.5155 124.501 88.6941 124.288C89.5339 124.323 90.3557 124.288 91.1776 124.235C95.1618 123.205 100.307 121.216 103.827 119.032C106.239 117.523 107.74 116.689 110.366 115.57C110.527 114.753 110.581 113.99 110.581 113.244C107.811 114.292 105.221 115.197 102.398 116.085H100.432C97.2701 116.724 94.2328 117.718 91.2669 118.944C90.9096 119.441 90.5523 119.956 90.2128 120.453C89.5517 120.595 88.8907 120.719 88.2475 120.861C84.0488 123.613 79.6894 125.477 75.0977 127.093Z" fill="url(#paint65_radial_284_13032)"/>
<path fill-rule="evenodd" clip-rule="evenodd" d="M80.7614 117.15C85.2102 114.523 96.6805 108.93 96.752 105.432C98.3778 105.148 99.9501 104.686 101.504 104.083C102.04 103.515 102.523 102.929 102.916 102.272C105.274 100.905 107.525 99.3776 109.741 97.7442L111.456 96.1285C111.456 94.5305 111.349 92.9326 110.956 91.4056C109.116 90.6599 107.115 90.1628 104.935 89.9497C102.487 90.5179 100.075 91.2103 97.7525 92.1158C93.5181 92.9325 89.3552 94.0866 85.2638 95.3827C82.1908 96.7854 79.3142 98.3833 76.5092 100.052C74.6153 100.39 72.7215 100.585 70.8991 100.549C70.5596 101.189 69.9879 102.254 69.6842 102.503C64.8245 104.775 59.0357 106.107 53.8544 107.989C49.227 107.9 44.6532 108.202 40.0972 108.841C39.7041 110.261 39.8113 111.7 40.5617 113.173C44.0636 113.99 47.5476 114.984 50.9779 116.334C60.6616 117.363 70.6847 117.328 80.7793 117.133L80.7614 117.15Z" fill="url(#paint66_radial_284_13032)"/>
<path fill-rule="evenodd" clip-rule="evenodd" d="M76.5092 100.052C79.1177 101.846 81.7083 103.639 84.2454 105.166C85.7462 105.645 87.3542 106.071 89.4088 106.142C91.9637 105.734 94.3936 105.503 96.752 105.432C98.3778 105.148 99.9501 104.686 101.504 104.083C102.04 103.515 102.523 102.929 102.916 102.272C105.274 100.905 107.525 99.3776 109.741 97.7442L111.456 96.1285C111.456 94.5305 111.349 92.9326 110.956 91.4056C109.116 90.6599 107.115 90.1628 104.935 89.9497C102.487 90.5179 100.075 91.2103 97.7525 92.1158C93.5181 92.9325 89.3552 94.0866 85.2638 95.3827C82.1907 96.7854 79.3142 98.3833 76.5092 100.052Z" fill="url(#paint67_radial_284_13032)"/>
<path fill-rule="evenodd" clip-rule="evenodd" d="M40.5439 113.174C39.7935 111.7 39.6863 110.244 40.0793 108.841C38.9001 108.167 37.7388 107.492 36.5596 106.835C36.4167 107.883 36.381 108.966 36.4167 110.049C36.6668 111.291 37.4887 113.262 38.1319 114.576C38.9359 114.115 39.7399 113.653 40.5439 113.174Z" fill="url(#paint68_radial_284_13032)"/>
<path fill-rule="evenodd" clip-rule="evenodd" d="M40.0794 108.841C44.6353 108.202 49.227 107.9 53.8366 107.989C59.0357 106.107 64.8245 104.793 69.6663 102.503C69.9701 102.254 70.5418 101.171 70.8812 100.549C72.7215 100.585 74.5975 100.39 76.4913 100.052C79.2964 98.3834 82.1729 96.7854 85.2459 95.3827C89.3552 94.0866 93.5003 92.9326 97.7346 92.1158C100.057 91.2103 102.469 90.5356 104.917 89.9497C107.097 90.1628 109.098 90.6599 110.938 91.4056C111.331 92.9503 111.456 94.5305 111.438 96.1285L115.494 91.7075L112.403 88.2452L106.739 87.4995L95.3227 90.1628C91.535 91.4056 87.5686 92.4709 83.4414 93.3764C81.3868 94.5128 79.3857 95.6313 77.4204 96.7676C76.3305 97.3891 75.2407 98.0282 74.1687 98.6497C69.6485 99.928 65.1997 101.455 60.9653 103.124C59.1787 103.319 57.392 103.728 55.6054 104.136C54.8192 104.118 54.0152 104.029 53.2291 103.834L41.6337 105.947L36.5418 106.853C37.721 107.527 38.8823 108.202 40.0615 108.859L40.0794 108.841Z" fill="url(#paint69_radial_284_13032)"/>
<path fill-rule="evenodd" clip-rule="evenodd" d="M80.7614 117.15C70.6847 117.328 60.6437 117.381 50.9601 116.351C47.5297 115.002 44.0457 114.008 40.5439 113.191C39.7399 113.653 38.9359 114.114 38.1319 114.594L45.4572 116.511L50.8171 118.464L57.0883 119.263L66.2538 120.169L80.9758 119.21L88.051 115.837L99.1818 109.001L104.095 103.071L109.759 97.7441C107.543 99.3776 105.274 100.905 102.934 102.272C102.541 102.929 102.04 103.515 101.522 104.083C99.9679 104.704 98.3778 105.148 96.7698 105.432C96.6984 108.93 85.2281 114.523 80.7793 117.15H80.7614Z" fill="url(#paint70_radial_284_13032)"/>
<path fill-rule="evenodd" clip-rule="evenodd" d="M35.7556 105.468C34.8266 104.26 33.9332 103.248 33.165 102.52C32.2895 102.378 31.4498 102.272 30.6279 102.201C32.2181 103.852 34.2191 105.237 36.5596 106.835C36.3274 106.355 36.0415 105.894 35.7556 105.485V105.468Z" fill="url(#paint71_radial_284_13032)"/>
<path fill-rule="evenodd" clip-rule="evenodd" d="M40.7225 104.775C39.0967 105.273 37.453 105.503 35.7556 105.486C36.0415 105.912 36.3095 106.356 36.5596 106.835L41.6516 105.929L53.247 103.817C48.9769 103.462 44.9748 104.261 40.7047 104.775H40.7225Z" fill="#511334"/>
<path opacity="0.5" fill-rule="evenodd" clip-rule="evenodd" d="M35.7556 105.468C37.4351 105.503 39.0967 105.272 40.7225 104.757C40.7225 103.852 40.6511 102.964 40.4545 102.059C38.0247 102.059 35.5948 102.236 33.165 102.502C33.9332 103.23 34.8266 104.242 35.7556 105.45V105.468Z" fill="url(#paint72_radial_284_13032)"/>
<path fill-rule="evenodd" clip-rule="evenodd" d="M40.4545 102.076C40.6511 102.982 40.7225 103.87 40.7225 104.775C44.9926 104.26 48.9769 103.461 53.2648 103.816C50.6027 102.289 47.7619 101.064 44.9212 99.8569C43.4918 100.727 41.9911 101.437 40.4724 102.076H40.4545Z" fill="url(#paint73_radial_284_13032)"/>
<path fill-rule="evenodd" clip-rule="evenodd" d="M86.8539 119.264L80.9579 119.21L66.2359 120.169L57.0704 119.264L50.7992 118.465L45.4393 116.511L38.114 114.594C36.9527 114.203 35.5234 113.955 34.2191 113.742C32.9506 113.973 31.6821 114.061 30.4314 114.097C31.9679 114.505 33.5044 115.375 35.041 115.784L38.382 117.595L43.4382 118.997C45.6537 119.707 47.8513 120.4 50.0667 121.11C55.9627 123.72 60.0541 125.797 66.361 127.236C67.826 127.431 69.702 127.449 71.2743 127.431C72.2569 127.733 73.1503 128.07 74.0079 128.443C74.2223 128.052 74.4367 127.662 74.6511 127.271C74.8119 127.218 74.9548 127.165 75.1156 127.111C79.7073 125.496 84.0667 123.631 88.2653 120.879L86.8718 119.264H86.8539Z" fill="url(#paint74_radial_284_13032)"/>
<path fill-rule="evenodd" clip-rule="evenodd" d="M35.0588 115.748C40.7225 116.263 44.5996 117.275 49.3163 119.015C50.1203 119.317 53.9259 120.844 56.1413 121.714C57.6778 121.891 63.7525 121.962 66.2359 121.572C69.2375 121.518 82.9054 121.199 84.2811 120.79C84.9422 120.595 86.2107 119.849 86.8539 119.264L80.9579 119.21L66.2359 120.169L57.0704 119.264L50.7992 118.465L45.4393 116.511L38.114 114.594C36.9527 114.203 35.5234 113.955 34.2191 113.742C32.9506 113.973 31.6821 114.061 30.4314 114.097C31.9679 114.505 33.5044 115.375 35.041 115.784L35.0588 115.748Z" fill="url(#paint75_radial_284_13032)"/>
<path fill-rule="evenodd" clip-rule="evenodd" d="M86.8539 119.263L88.051 115.836L80.9579 119.192L86.8539 119.263Z" fill="#511334"/>
<path fill-rule="evenodd" clip-rule="evenodd" d="M99.7893 111.22L100.45 109.818C102.684 108.024 104.971 106.782 107.275 105.787C108.651 102.964 110.223 100.283 112.081 97.7975C113.368 96.5547 114.833 95.3829 116.405 94.282C117.084 92.9859 117.906 91.7076 118.871 90.4292L115.512 91.7076L111.456 96.1286L109.741 97.7443L104.077 103.071L99.1639 109.001L88.0331 115.837L86.836 119.263C88.319 118.393 89.9805 117.097 91.3741 115.197C94.2149 113.475 97.0021 112.215 99.7714 111.22H99.7893Z" fill="url(#paint76_radial_284_13032)"/>
<path fill-rule="evenodd" clip-rule="evenodd" d="M100.45 109.8L99.7893 111.202C97.02 112.197 94.2328 113.44 91.392 115.18C89.9984 117.079 88.3368 118.375 86.8539 119.245L88.2475 120.861C88.9086 120.719 89.5696 120.595 90.2128 120.453C90.5702 119.956 90.9275 119.441 91.2669 118.944C94.2328 117.701 97.2701 116.706 100.432 116.085H102.398C105.221 115.197 107.811 114.292 110.581 113.244C111.796 112.747 112.975 112.143 114.1 111.344C113.797 110.989 113.493 110.652 113.189 110.315C111.385 108.397 109.384 106.941 107.257 105.787C104.953 106.764 102.666 108.024 100.432 109.818L100.45 109.8Z" fill="url(#paint77_radial_284_13032)"/>
<path fill-rule="evenodd" clip-rule="evenodd" d="M107.275 105.787C109.401 106.941 111.402 108.397 113.207 110.315C113.511 110.652 113.814 110.989 114.118 111.345C114.815 110.208 115.44 109.072 115.941 107.918C117.62 106.125 119.389 104.385 121.193 102.698C120.693 102.005 120.193 101.295 119.728 100.567C118.424 98.5609 117.263 96.4835 116.405 94.2642C114.815 95.3827 113.35 96.5368 112.081 97.7797C110.223 100.265 108.651 102.946 107.275 105.769V105.787Z" fill="url(#paint78_radial_284_13032)"/>
<path fill-rule="evenodd" clip-rule="evenodd" d="M116.423 94.2643C117.298 96.4659 118.442 98.561 119.746 100.567C120.211 101.278 120.711 101.988 121.211 102.698C121.944 99.9459 122.319 97.0518 122.569 94.3531C121.98 92.8616 119.961 91.0861 118.871 90.4292C117.924 91.6898 117.084 92.9682 116.405 94.282L116.423 94.2643Z" fill="url(#paint79_radial_284_13032)"/>
<path fill-rule="evenodd" clip-rule="evenodd" d="M123.391 88.0677C122.926 86.7716 122.355 85.6707 121.622 84.854C120.264 85.4399 118.889 85.8838 117.531 86.2567L118.889 90.4113C119.978 91.0683 121.997 92.8438 122.587 94.3352C123.212 92.0803 123.534 88.7601 123.391 88.0677Z" fill="url(#paint80_radial_284_13032)"/>
<path fill-rule="evenodd" clip-rule="evenodd" d="M121.622 84.8542C122.355 85.6886 122.926 86.7717 123.391 88.0678C123.516 87.5352 124.427 86.097 125.249 85.1205C125.571 84.7299 125.874 84.4103 126.107 84.2505C126.41 84.1795 126.696 84.1084 127 84.0729L126.107 79.3501C125.714 80.2911 125.267 81.1789 124.785 82.0311C123.855 83.0431 122.819 83.9842 121.64 84.8542H121.622Z" fill="url(#paint81_radial_284_13032)"/>
<path fill-rule="evenodd" clip-rule="evenodd" d="M125.231 85.1203C124.427 86.0968 123.498 87.535 123.373 88.0676C123.498 88.7601 123.177 92.0803 122.569 94.3352L125.303 89.2572L126.964 84.0728C126.661 84.1083 126.375 84.1615 126.071 84.2503C125.839 84.4101 125.535 84.7297 125.213 85.1203H125.231Z" fill="url(#paint82_radial_284_13032)"/>
<path fill-rule="evenodd" clip-rule="evenodd" d="M114.011 85.7061L112.439 88.2273L115.53 91.6895L118.889 90.4111L117.531 86.2565C116.316 86.0612 115.154 85.8836 114.011 85.7061Z" fill="url(#paint83_radial_284_13032)"/>
<path fill-rule="evenodd" clip-rule="evenodd" d="M112.439 88.2273L114.565 88.0142L116.691 87.233L117.531 86.2565C116.316 86.0612 115.154 85.8836 114.011 85.7061L112.439 88.2273Z" fill="url(#paint84_radial_284_13032)"/>
<path fill-rule="evenodd" clip-rule="evenodd" d="M112.439 88.2275L114.011 85.7063C107.919 84.7652 102.862 83.8952 96.6269 81.374C96.752 83.0963 96.7877 84.8363 96.7162 86.6118C96.6626 87.322 95.7514 89.6479 95.3584 90.1273L106.775 87.464L112.439 88.2097V88.2275Z" fill="url(#paint85_radial_284_13032)"/>
<path fill-rule="evenodd" clip-rule="evenodd" d="M104.041 86.1323C101.63 86.6117 99.1997 86.736 96.7162 86.6117C96.6626 87.3219 95.7514 89.6478 95.3584 90.1272L106.775 87.464C106.078 86.9491 105.185 86.4164 104.041 86.1323Z" fill="url(#paint86_radial_284_13032)"/>
<path style="mix-blend-mode:multiply" fill-rule="evenodd" clip-rule="evenodd" d="M126.071 79.3676C126.25 77.9116 126.428 76.4557 126.625 74.9998C126.732 72.816 126.821 70.6498 126.929 68.466C126.375 65.2523 125.821 62.0386 125.267 58.8072C124.034 55.6468 122.819 53.4452 122.587 50.054C120.389 46.3254 118.764 43.165 116.923 39.2412C115.047 37.2349 113.35 35.122 111.492 33.1512C107.115 28.4639 102.148 24.8773 96.6269 21.2553C96.1088 20.9712 95.5728 20.6872 95.0546 20.4031C94.0899 20.048 93.0893 19.8172 92.0709 19.6574C90.9096 18.8761 89.7483 18.0772 88.587 17.2959C87.5686 16.8521 86.4966 16.6035 85.4067 16.3904C84.5491 17.0474 83.7809 17.7931 83.1198 18.6276L81.3867 17.5268L77.5454 16.3194L69.3447 16.0176L62.3589 16.2129L56.9989 16.0176L50.9243 19.0359L45.0105 21.4506L42.938 21.7525L38.6857 24.8241L35.845 26.5818L32.2002 29.0498L31.7178 30.3459L32.0394 31.1094V31.1449C31.9322 30.8785 31.8071 30.6122 31.6999 30.3459C30.7173 29.902 30.1455 29.902 29.1093 29.8843C24.9643 33.1334 20.6227 38.4422 17.2459 42.9875C14.5481 48.3318 12.2969 53.747 10.814 59.2333C10.4924 63.0152 10.8854 67.8445 11.4393 70.0462C10.8854 70.8451 10.4566 71.6974 10.1172 72.6029C10.01 73.5262 9.95637 74.4672 9.97424 75.3904C9.6705 76.3137 9.34891 77.2547 9.04518 78.178C8.86651 80.5927 9.22384 84.2502 10.01 86.1145C10.6532 87.233 11.2964 88.3516 11.9396 89.4524C11.7252 89.8253 11.5286 90.2337 11.3857 90.6775C11.4572 93.0212 12.4577 95.5957 13.3153 97.2114C13.9585 98.3477 14.7267 99.484 15.6379 100.638C15.7809 101.153 15.9774 101.668 16.1918 102.165C15.7451 103.408 15.5665 104.757 15.7094 106.195C17.371 108.131 18.979 109.942 20.5155 111.984C25.7682 117.044 29.6096 120.897 35.6484 125.105C41.6159 128.283 45.3678 129.934 51.6926 132.242C55.8555 132.881 59.4288 133.254 63.6274 133.556C64.9317 133.698 66.2181 133.858 67.5223 134C73.2575 133.183 75.5265 132.917 80.9222 130.804C81.2796 130.538 81.6012 130.005 81.7977 129.685C82.8875 130.289 84.1203 130.857 85.7105 131.337C87.1219 131.123 89.3195 130.431 90.9811 129.419C91.8387 129.277 92.6963 129.153 93.5539 129.011C94.9117 128.514 96.216 127.928 97.3952 127.2C100.343 124.963 104.345 121.181 107.865 120.364C109.044 118.837 109.83 117.221 110.402 115.57C110.563 114.753 110.616 113.99 110.616 113.244C111.831 112.747 113.011 112.143 114.136 111.344C114.833 110.208 115.458 109.072 115.958 107.918C117.638 106.124 119.407 104.384 121.211 102.698C121.944 99.9457 122.319 97.0516 122.569 94.3528L125.303 89.2749L126.964 84.0904L126.071 79.3676Z" fill="url(#paint87_radial_284_13032)"/>
<path style="mix-blend-mode:screen" fill-rule="evenodd" clip-rule="evenodd" d="M126.071 79.3676C126.25 77.9116 126.428 76.4557 126.625 74.9998C126.732 72.816 126.821 70.6498 126.929 68.466C126.375 65.2523 125.821 62.0386 125.267 58.8072C124.034 55.6468 122.819 53.4452 122.587 50.054C120.389 46.3254 118.764 43.165 116.923 39.2412C115.047 37.2349 113.35 35.122 111.492 33.1512C107.115 28.4639 102.148 24.8773 96.6269 21.2553C96.1088 20.9712 95.5728 20.6872 95.0546 20.4031C94.0899 20.048 93.0893 19.8172 92.0709 19.6574C90.9096 18.8761 89.7483 18.0772 88.587 17.2959C87.5686 16.8521 86.4966 16.6035 85.4067 16.3904C84.5491 17.0474 83.7809 17.7931 83.1198 18.6276L81.3867 17.5268L77.5454 16.3194L69.3447 16.0176L62.3589 16.2129L56.9989 16.0176L50.9243 19.0359L45.0105 21.4506L42.938 21.7525L38.6857 24.8241L35.845 26.5818L32.2002 29.0498L31.7178 30.3459L32.0394 31.1094V31.1449C31.9322 30.8785 31.8071 30.6122 31.6999 30.3459C30.7173 29.902 30.1455 29.902 29.1093 29.8843C24.9643 33.1334 20.6227 38.4422 17.2459 42.9875C14.5481 48.3318 12.2969 53.747 10.814 59.2333C10.4924 63.0152 10.8854 67.8445 11.4393 70.0462C10.8854 70.8451 10.4566 71.6974 10.1172 72.6029C10.01 73.5262 9.95637 74.4672 9.97424 75.3904C9.6705 76.3137 9.34891 77.2547 9.04518 78.178C8.86651 80.5927 9.22384 84.2502 10.01 86.1145C10.6532 87.233 11.2964 88.3516 11.9396 89.4524C11.7252 89.8253 11.5286 90.2337 11.3857 90.6775C11.4572 93.0212 12.4577 95.5957 13.3153 97.2114C13.9585 98.3477 14.7267 99.484 15.6379 100.638C15.7809 101.153 15.9774 101.668 16.1918 102.165C15.7451 103.408 15.5665 104.757 15.7094 106.195C17.371 108.131 18.979 109.942 20.5155 111.984C25.7682 117.044 29.6096 120.897 35.6484 125.105C41.6159 128.283 45.3678 129.934 51.6926 132.242C55.8555 132.881 59.4288 133.254 63.6274 133.556C64.9317 133.698 66.2181 133.858 67.5223 134C73.2575 133.183 75.5265 132.917 80.9222 130.804C81.2796 130.538 81.6012 130.005 81.7977 129.685C82.8875 130.289 84.1203 130.857 85.7105 131.337C87.1219 131.123 89.3195 130.431 90.9811 129.419C91.8387 129.277 92.6963 129.153 93.5539 129.011C94.9117 128.514 96.216 127.928 97.3952 127.2C100.343 124.963 104.345 121.181 107.865 120.364C109.044 118.837 109.83 117.221 110.402 115.57C110.563 114.753 110.616 113.99 110.616 113.244C111.831 112.747 113.011 112.143 114.136 111.344C114.833 110.208 115.458 109.072 115.958 107.918C117.638 106.124 119.407 104.384 121.211 102.698C121.944 99.9457 122.319 97.0516 122.569 94.3528L125.303 89.2749L126.964 84.0904L126.071 79.3676Z" fill="url(#paint88_radial_284_13032)"/>
<path style="mix-blend-mode:screen" fill-rule="evenodd" clip-rule="evenodd" d="M126.071 79.3676C126.25 77.9116 126.428 76.4557 126.625 74.9998C126.732 72.816 126.821 70.6498 126.929 68.466C126.375 65.2523 125.821 62.0386 125.267 58.8072C124.034 55.6468 122.819 53.4452 122.587 50.054C120.389 46.3254 118.764 43.165 116.923 39.2412C115.047 37.2349 113.35 35.122 111.492 33.1512C107.115 28.4639 102.148 24.8773 96.6269 21.2553C96.1088 20.9712 95.5728 20.6872 95.0546 20.4031C94.0899 20.048 93.0893 19.8172 92.0709 19.6574C90.9096 18.8761 89.7483 18.0772 88.587 17.2959C87.5686 16.8521 86.4966 16.6035 85.4067 16.3904C84.5491 17.0474 83.7809 17.7931 83.1198 18.6276L81.3867 17.5268L77.5454 16.3194L69.3447 16.0176L62.3589 16.2129L56.9989 16.0176L50.9243 19.0359L45.0105 21.4506L42.938 21.7525L38.6857 24.8241L35.845 26.5818L32.2002 29.0498L31.7178 30.3459L32.0394 31.1094V31.1449C31.9322 30.8785 31.8071 30.6122 31.6999 30.3459C30.7173 29.902 30.1455 29.902 29.1093 29.8843C24.9643 33.1334 20.6227 38.4422 17.2459 42.9875C14.5481 48.3318 12.2969 53.747 10.814 59.2333C10.4924 63.0152 10.8854 67.8445 11.4393 70.0462C10.8854 70.8451 10.4566 71.6974 10.1172 72.6029C10.01 73.5262 9.95637 74.4672 9.97424 75.3904C9.6705 76.3137 9.34891 77.2547 9.04518 78.178C8.86651 80.5927 9.22384 84.2502 10.01 86.1145C10.6532 87.233 11.2964 88.3516 11.9396 89.4524C11.7252 89.8253 11.5286 90.2337 11.3857 90.6775C11.4572 93.0212 12.4577 95.5957 13.3153 97.2114C13.9585 98.3477 14.7267 99.484 15.6379 100.638C15.7809 101.153 15.9774 101.668 16.1918 102.165C15.7451 103.408 15.5665 104.757 15.7094 106.195C17.371 108.131 18.979 109.942 20.5155 111.984C25.7682 117.044 29.6096 120.897 35.6484 125.105C41.6159 128.283 45.3678 129.934 51.6926 132.242C55.8555 132.881 59.4288 133.254 63.6274 133.556C64.9317 133.698 66.2181 133.858 67.5223 134C73.2575 133.183 75.5265 132.917 80.9222 130.804C81.2796 130.538 81.6012 130.005 81.7977 129.685C82.8875 130.289 84.1203 130.857 85.7105 131.337C87.1219 131.123 89.3195 130.431 90.9811 129.419C91.8387 129.277 92.6963 129.153 93.5539 129.011C94.9117 128.514 96.216 127.928 97.3952 127.2C100.343 124.963 104.345 121.181 107.865 120.364C109.044 118.837 109.83 117.221 110.402 115.57C110.563 114.753 110.616 113.99 110.616 113.244C111.831 112.747 113.011 112.143 114.136 111.344C114.833 110.208 115.458 109.072 115.958 107.918C117.638 106.124 119.407 104.384 121.211 102.698C121.944 99.9457 122.319 97.0516 122.569 94.3528L125.303 89.2749L126.964 84.0904L126.071 79.3676Z" fill="url(#paint89_radial_284_13032)"/>
<path style="mix-blend-mode:screen" opacity="0.6" fill-rule="evenodd" clip-rule="evenodd" d="M34.7194 32.7074C33.1114 33.7905 31.4855 34.4296 29.7168 35.2109C28.1624 35.9033 26.1613 39.8982 25.804 40.4131C23.1419 44.1416 20.176 47.7104 18.1928 51.8296C16.6027 55.132 16.0489 58.8251 15.2449 62.3938C14.9233 63.7965 14.9411 65.2701 14.8518 66.7083C14.8161 67.3475 14.9411 68.0044 14.8518 68.6436C14.4051 71.8573 15.1555 74.3607 17.9248 78.7107C19.0862 80.5395 19.9616 82.2262 21.3016 83.9129C22.9453 85.9903 24.4104 88.2629 26.4293 90.0029C28.0552 91.4056 30.0384 92.3643 32.0215 93.1633C33.7189 93.838 35.5591 94.1398 37.3815 94.4062C40.6153 94.85 43.9028 95.436 47.1724 95.2584C49.0841 95.1519 50.8707 94.2109 52.6931 93.5539C55.2659 92.6307 57.7493 91.4943 60.3043 90.5533C65.1639 88.7246 68.505 87.3574 72.114 83.3803C74.1508 81.1076 75.7052 78.4444 77.7777 76.2072C78.8318 75.0709 80.4398 74.5383 81.4225 73.3487C82.6731 71.8573 83.6201 70.1173 84.3705 68.3418C85.1923 66.371 85.3889 64.1871 86.0857 62.163C86.6395 60.5651 87.8008 59.1802 88.1046 57.5289C88.7656 53.9779 89.0515 50.3381 88.9622 46.7339C88.9086 44.479 88.3368 42.2419 87.64 40.0935C86.9432 37.9274 86.0857 35.7613 84.8529 33.8437C83.763 32.1747 82.1372 30.9319 80.7436 29.5292C78.0457 26.8127 71.3815 23.0131 67.6295 22.1964C65.1282 21.646 62.5018 21.4329 59.9469 21.6638C57.2312 21.9123 54.6584 22.9421 52.0321 23.5991C49.4593 24.2382 46.815 24.6111 44.3494 25.5344C42.5092 26.2268 40.794 27.2211 39.2218 28.3929C37.578 29.6358 36.506 31.5711 34.7909 32.7074H34.7194ZM18.4608 82.7944C18.3179 82.5635 17.9249 82.2972 17.6926 82.4748C15.7809 83.8242 18.0678 89.1152 18.8896 90.7664C19.6936 92.3643 20.8192 93.9268 22.3557 94.8678C23.3205 95.4537 24.6784 94.637 25.7683 94.9566C26.7509 95.2407 27.001 96.1639 27.9658 96.5013C31.0746 97.5843 33.2901 95.72 30.8066 94.637C29.4666 94.0511 28.216 93.5894 26.9117 92.6662C22.588 89.6301 21.0515 86.8425 18.4608 82.8121V82.7944ZM76.4913 83.5401C76.3127 83.327 75.9553 83.2915 75.6873 83.327C75.1156 83.4335 74.5617 83.6644 74.0615 83.9662C73.4004 84.3746 72.7572 84.8362 72.2391 85.4044C71.7746 85.9015 71.3279 86.4519 71.1314 87.1088C71.042 87.3929 71.2028 87.8723 71.5066 87.9433C72.525 88.2097 73.6505 88.3339 74.6689 88.0321C76.1519 87.606 77.3132 84.5166 76.4913 83.5223V83.5401Z" fill="url(#paint90_radial_284_13032)"/>
<path style="mix-blend-mode:screen" fill-rule="evenodd" clip-rule="evenodd" d="M29.1629 35.5129C28.3589 39.0106 28.484 41.301 29.8776 44.3904C30.1991 45.1006 30.3599 45.4557 30.3778 45.9351C30.4493 48.6694 29.7168 53.8183 28.8949 56.4106C30.3599 52.9838 30.5565 50.5691 31.4319 47.1424C31.5391 46.6986 31.7357 46.6275 32.5039 47.0359C34.0583 47.8704 35.577 48.6338 37.185 49.3263C35.2018 48.1722 31.7714 46.5743 30.6815 44.4792C28.8949 41.0347 28.9485 39.0106 29.1808 35.4951L29.1629 35.5129Z" fill="url(#paint91_radial_284_13032)"/>
<path style="mix-blend-mode:screen" fill-rule="evenodd" clip-rule="evenodd" d="M36.2023 31.9619C35.7556 33.5954 35.3268 35.1401 34.9874 36.809C34.898 37.3062 34.3263 37.6613 33.826 37.9454C34.2727 37.7501 34.8266 37.537 35.3268 37.5903C36.238 38.265 37.7388 39.5611 37.9889 40.7329C38.3284 42.2776 38.6143 42.9878 39.2932 44.5325C38.8465 43.1298 38.5607 42.3486 38.3999 41.017C38.3284 40.3956 38.2927 40.3245 38.918 40.218C39.8471 40.0582 40.9369 40.076 41.7767 40.147C42.795 40.218 43.6348 40.3778 44.671 40.6441C43.8134 40.2003 42.6878 40.0405 41.9017 39.8274C41.7767 39.7919 41.7767 39.6676 41.9553 39.5788C43.331 38.9219 44.4388 38.1229 45.35 37.2352C44.2422 38.0341 43.1881 38.7266 42.0089 39.3125C41.6873 39.4723 41.3479 39.6321 41.0799 39.6854C40.0436 39.9162 38.2569 39.7919 37.7924 39.4013C37.0063 38.6201 36.1666 37.9099 35.6842 36.9333C35.8807 35.2821 35.8807 33.6131 36.2023 31.9797V31.9619Z" fill="url(#paint92_radial_284_13032)"/>
<path style="mix-blend-mode:screen" fill-rule="evenodd" clip-rule="evenodd" d="M70.4882 34.8205C68.7194 31.6779 68.1119 29.7071 67.0399 26.1028C66.4146 25.6767 65.9858 25.4281 65.3069 25.1085C65.7357 25.2505 66.897 25.7832 67.2543 25.801C69.9164 22.4097 71.8103 21.2202 75.1156 20.6875C72.382 21.3267 69.9343 22.9957 67.7367 26.2626C67.6295 28.1624 69.6127 32.9385 70.4882 34.8028V34.8205Z" fill="url(#paint93_radial_284_13032)"/>
<path style="mix-blend-mode:screen" fill-rule="evenodd" clip-rule="evenodd" d="M48.2443 51.5632C50.6206 52.3266 51.8534 53.0191 53.9973 55.3983C55.0157 58.1148 55.6053 61.0088 56.0877 63.8674C56.3379 65.3411 55.516 65.3766 54.3368 66.2288C55.4624 65.7139 56.2128 65.3943 56.7488 65.5719C57.3205 65.7672 58.3568 67.2409 60.6794 69.478C59.536 68.0576 58.4104 66.6372 57.2669 65.2168C56.2664 63.246 55.4981 58.4166 54.8728 55.9842C54.5155 54.5993 54.6941 54.4572 54.9979 53.0013C54.8549 53.3742 54.7299 53.7648 54.5869 54.1376C54.2475 55.0787 54.1581 54.6525 53.372 53.9956C51.6032 52.5219 50.96 52.2556 48.2801 51.5454L48.2443 51.5632Z" fill="url(#paint94_radial_284_13032)"/>
<path style="mix-blend-mode:screen" fill-rule="evenodd" clip-rule="evenodd" d="M31.1997 45.9175C31.0389 49.6105 29.5559 54.7595 28.2696 58.1329C26.9296 60.7074 25.4645 63.2286 23.9101 65.7321C23.2133 67.4899 22.7667 69.3009 22.4808 71.1474C23.2312 71.4315 23.9816 71.7156 24.7677 72.0174C26.2685 71.9996 28.3232 71.6268 30.3421 71.0941C31.8965 70.6858 33.433 70.1709 34.6836 69.656C34.8087 69.4074 34.9516 69.1411 35.0767 68.8925C35.2732 68.5196 35.4519 68.1645 35.6484 67.7917C40.2223 64.7378 44.9926 61.7905 49.763 58.5946C48.7625 56.4285 47.4225 54.4044 45.8145 52.5046C40.2044 50.7646 36.3274 49.3797 31.1997 45.9175Z" fill="url(#paint95_radial_284_13032)"/>
<path style="mix-blend-mode:screen" opacity="0.65" fill-rule="evenodd" clip-rule="evenodd" d="M41.1513 39.9159C44.01 38.5488 46.2611 36.2761 48.1371 35.2996C48.7982 34.9622 51.2995 33.7016 52.8182 32.8139C57.3205 30.2039 61.9122 27.5584 64.4314 24.2204C63.7703 23.2794 63.02 22.4094 62.2338 21.5749C60.6616 21.1133 59.0893 20.8292 57.5349 20.6694C53.0147 20.8115 48.8339 21.5572 44.4388 22.6758C42.8486 23.7055 41.2764 24.7886 39.7935 26.138C38.5428 27.4341 37.5244 28.8723 36.7026 30.4702C35.8986 32.5298 35.5412 34.7669 35.3447 37.0573C36.1666 37.9984 37.042 38.9394 38.1319 39.8804C39.1503 39.8271 40.1508 39.8271 41.1692 39.9159H41.1513Z" fill="url(#paint96_radial_284_13032)"/>
<path style="mix-blend-mode:screen" fill-rule="evenodd" clip-rule="evenodd" d="M28.2695 58.1326C29.5559 54.7591 31.021 49.6102 31.1997 45.9171C28.8413 42.2773 28.3053 39.6851 29.681 32.441C29.6631 32.3523 29.6453 32.2635 29.6274 32.1747C29.4666 31.3935 29.3594 30.63 29.145 29.8311C25 33.0802 20.6584 38.389 17.2816 42.9343C14.5838 48.2785 12.3326 53.6938 10.8497 59.1801C10.7604 61.293 10.7961 64.1693 11.8502 66.3177C12.1182 66.8503 12.4398 67.3475 12.8507 67.7736C13.5297 67.9156 14.2086 68.0399 14.8697 68.1287C15.4414 68.5193 15.9952 68.8389 16.5312 69.0875C18.6216 69.7444 20.5333 70.4013 22.4987 71.1293C22.8024 69.3005 23.2312 67.4895 23.928 65.714C25.4645 63.2105 26.9296 60.6893 28.2874 58.1148L28.2695 58.1326Z" fill="url(#paint97_radial_284_13032)"/>
<path style="mix-blend-mode:screen" opacity="0.6" fill-rule="evenodd" clip-rule="evenodd" d="M76.3662 74.3608C80.1361 72.7096 86.0142 69.9931 89.2123 66.7617C89.8376 62.8023 93.3573 59.997 95.4298 56.6058C93.8576 55.0256 92.4461 51.9007 91.124 47.9058C85.371 47.0713 80.6006 45.864 75.3836 44.1772C73.3468 44.337 71.2743 44.3193 69.166 44.1772C64.6458 49.1487 61.7514 50.2317 55.3373 51.7764L54.3547 55.2031C55.4803 58.4345 56.1771 61.7015 56.6237 65.0039C58.9464 67.4008 61.0904 69.8688 62.9485 72.4433C67.3615 73.4908 71.8103 74.2365 76.3484 74.3608H76.3662Z" fill="url(#paint98_radial_284_13032)"/>
</g>
<defs>
<filter id="filter0_d_284_13032" x="-11" y="0" width="158" height="158" filterUnits="userSpaceOnUse" color-interpolation-filters="sRGB">
<feFlood flood-opacity="0" result="BackgroundImageFix"/>
<feColorMatrix in="SourceAlpha" type="matrix" values="0 0 0 0 0 0 0 0 0 0 0 0 0 0 0 0 0 0 127 0" result="hardAlpha"/>
<feOffset dy="4"/>
<feGaussianBlur stdDeviation="10"/>
<feComposite in2="hardAlpha" operator="out"/>
<feColorMatrix type="matrix" values="0 0 0 0 0 0 0 0 0 0 0 0 0 0 0 0 0 0 0.25 0"/>
<feBlend mode="normal" in2="BackgroundImageFix" result="effect1_dropShadow_284_13032"/>
<feBlend mode="normal" in="SourceGraphic" in2="effect1_dropShadow_284_13032" result="shape"/>
</filter>
<radialGradient id="paint0_radial_284_13032" cx="0" cy="0" r="1" gradientUnits="userSpaceOnUse" gradientTransform="translate(19.3363 97.9749) scale(14.722 14.6302)">
<stop stop-color="#54143C"/>
<stop offset="1" stop-color="#9C3329"/>
</radialGradient>
<radialGradient id="paint1_radial_284_13032" cx="0" cy="0" r="1" gradientUnits="userSpaceOnUse" gradientTransform="translate(49.227 55.6113) scale(53.1351 52.8035)">
<stop stop-color="#691731"/>
<stop offset="1" stop-color="#B84D42"/>
</radialGradient>
<radialGradient id="paint2_radial_284_13032" cx="0" cy="0" r="1" gradientUnits="userSpaceOnUse" gradientTransform="translate(48.7267 95.1873) scale(34.536 34.3205)">
<stop offset="0.54" stop-color="white"/>
<stop offset="0.6" stop-color="#F9F5F4"/>
<stop offset="0.71" stop-color="#EBDBD9"/>
<stop offset="0.85" stop-color="#D4B2AD"/>
<stop offset="1" stop-color="#B87E76"/>
</radialGradient>
<radialGradient id="paint3_radial_284_13032" cx="0" cy="0" r="1" gradientUnits="userSpaceOnUse" gradientTransform="translate(50.8707 99.6438) scale(30.1944 30.006)">
<stop stop-color="#F33218"/>
<stop offset="0.07" stop-color="#DC2D15"/>
<stop offset="0.33" stop-color="#8F1D0E"/>
<stop offset="0.56" stop-color="#511008"/>
<stop offset="0.76" stop-color="#250703"/>
<stop offset="0.91" stop-color="#0A0200"/>
<stop offset="1"/>
</radialGradient>
<radialGradient id="paint4_radial_284_13032" cx="0" cy="0" r="1" gradientUnits="userSpaceOnUse" gradientTransform="translate(38.4535 45.5978) scale(53.278 52.9455)">
<stop stop-color="#9C3329"/>
<stop offset="1" stop-color="#4F0C35"/>
</radialGradient>
<radialGradient id="paint5_radial_284_13032" cx="0" cy="0" r="1" gradientUnits="userSpaceOnUse" gradientTransform="translate(30.8781 51.1728) scale(50.7409 50.4243)">
<stop stop-color="#8A2920"/>
<stop offset="1" stop-color="#4A0B25"/>
</radialGradient>
<radialGradient id="paint6_radial_284_13032" cx="0" cy="0" r="1" gradientUnits="userSpaceOnUse" gradientTransform="translate(59.6432 63.9563) scale(26.7462 26.5793)">
<stop stop-color="#54143C"/>
<stop offset="1" stop-color="#9C3329"/>
</radialGradient>
<radialGradient id="paint7_radial_284_13032" cx="0" cy="0" r="1" gradientUnits="userSpaceOnUse" gradientTransform="translate(22.3021 33.1157) scale(43.9517 43.6774)">
<stop stop-color="#A93F34"/>
<stop offset="1" stop-color="#6B1E3B"/>
</radialGradient>
<radialGradient id="paint8_radial_284_13032" cx="0" cy="0" r="1" gradientUnits="userSpaceOnUse" gradientTransform="translate(19.2648 53.2677) scale(29.0152 28.8342)">
<stop stop-color="#BD4124"/>
<stop offset="1" stop-color="#641A3B"/>
</radialGradient>
<radialGradient id="paint9_radial_284_13032" cx="0" cy="0" r="1" gradientUnits="userSpaceOnUse" gradientTransform="translate(28.9127 48.6337) scale(29.5334 29.3491)">
<stop stop-color="#73251E"/>
<stop offset="1" stop-color="#4A1234"/>
</radialGradient>
<radialGradient id="paint10_radial_284_13032" cx="0" cy="0" r="1" gradientUnits="userSpaceOnUse" gradientTransform="translate(41.6337 20.1903) scale(49.6511 49.3412)">
<stop stop-color="#73251E"/>
<stop offset="1" stop-color="#4A1234"/>
</radialGradient>
<radialGradient id="paint11_radial_284_13032" cx="0" cy="0" r="1" gradientUnits="userSpaceOnUse" gradientTransform="translate(25.8219 23.8657) scale(10.6127 10.5465)">
<stop stop-color="#73251E"/>
<stop offset="1" stop-color="#4A1234"/>
</radialGradient>
<radialGradient id="paint12_radial_284_13032" cx="0" cy="0" r="1" gradientUnits="userSpaceOnUse" gradientTransform="translate(51.9606 18.2371) scale(30.4267 30.2368)">
<stop stop-color="#73251E"/>
<stop offset="1" stop-color="#4A1234"/>
</radialGradient>
<radialGradient id="paint13_radial_284_13032" cx="0" cy="0" r="1" gradientUnits="userSpaceOnUse" gradientTransform="translate(50.567 67.117) scale(29.176 28.994)">
<stop stop-color="#6B1E3B"/>
<stop offset="1" stop-color="#C44A3C"/>
</radialGradient>
<radialGradient id="paint14_radial_284_13032" cx="0" cy="0" r="1" gradientUnits="userSpaceOnUse" gradientTransform="translate(-5.40886 35.6547) scale(43.3085 43.0382)">
<stop stop-color="#6B1E3B"/>
<stop offset="1" stop-color="#DB5B4E"/>
</radialGradient>
<radialGradient id="paint15_radial_284_13032" cx="0" cy="0" r="1" gradientUnits="userSpaceOnUse" gradientTransform="translate(46.8865 34.4122) scale(18.5455 18.4297)">
<stop stop-color="#96372D"/>
<stop offset="1" stop-color="#300317"/>
</radialGradient>
<radialGradient id="paint16_radial_284_13032" cx="0" cy="0" r="1" gradientUnits="userSpaceOnUse" gradientTransform="translate(38.9895 39.6852) scale(42.3973 42.1327)">
<stop stop-color="#A93F34"/>
<stop offset="1" stop-color="#6B1E3B"/>
</radialGradient>
<radialGradient id="paint17_radial_284_13032" cx="0" cy="0" r="1" gradientUnits="userSpaceOnUse" gradientTransform="translate(46.1361 13.4432) scale(38.0021 37.765)">
<stop stop-color="#993329"/>
<stop offset="1" stop-color="#6E203A"/>
</radialGradient>
<radialGradient id="paint18_radial_284_13032" cx="0" cy="0" r="1" gradientUnits="userSpaceOnUse" gradientTransform="translate(46.7793 27.2567) scale(27.9075 27.7334)">
<stop stop-color="#73251E"/>
<stop offset="1" stop-color="#3B0F29"/>
</radialGradient>
<radialGradient id="paint19_radial_284_13032" cx="0" cy="0" r="1" gradientUnits="userSpaceOnUse" gradientTransform="translate(96.0016 36.2409) scale(33.6606 33.4505)">
<stop stop-color="#73251E"/>
<stop offset="1" stop-color="#3B0E2A"/>
</radialGradient>
<radialGradient id="paint20_radial_284_13032" cx="0" cy="0" r="1" gradientUnits="userSpaceOnUse" gradientTransform="translate(57.5528 68.484) scale(59.9601 59.5859)">
<stop stop-color="#6B1E3B"/>
<stop offset="1" stop-color="#C44A3C"/>
</radialGradient>
<radialGradient id="paint21_radial_284_13032" cx="0" cy="0" r="1" gradientUnits="userSpaceOnUse" gradientTransform="translate(55.1229 22.3029) scale(81.7751 81.2648)">
<stop stop-color="#BF473B"/>
<stop offset="1" stop-color="#6B1E3B"/>
</radialGradient>
<radialGradient id="paint22_radial_284_13032" cx="0" cy="0" r="1" gradientUnits="userSpaceOnUse" gradientTransform="translate(85.6032 31.7308) scale(54.8324 54.4902)">
<stop stop-color="#9E3752"/>
<stop offset="1" stop-color="#571133"/>
</radialGradient>
<radialGradient id="paint23_radial_284_13032" cx="0" cy="0" r="1" gradientUnits="userSpaceOnUse" gradientTransform="translate(106.168 76.012) scale(33.3747 33.1664)">
<stop stop-color="#6B1E3B"/>
<stop offset="1" stop-color="#C44A3C"/>
</radialGradient>
<radialGradient id="paint24_radial_284_13032" cx="0" cy="0" r="1" gradientUnits="userSpaceOnUse" gradientTransform="translate(50.2454 51.1552) scale(75.7183 75.2459)">
<stop stop-color="#9E3359"/>
<stop offset="1" stop-color="#591931"/>
</radialGradient>
<radialGradient id="paint25_radial_284_13032" cx="0" cy="0" r="1" gradientUnits="userSpaceOnUse" gradientTransform="translate(97.7525 44.3546) scale(119.402 118.657)">
<stop stop-color="#5C1233"/>
<stop offset="1" stop-color="#A93F34"/>
</radialGradient>
<radialGradient id="paint26_radial_284_13032" cx="0" cy="0" r="1" gradientUnits="userSpaceOnUse" gradientTransform="translate(95.8586 48.6159) scale(50.6159 50.3)">
<stop stop-color="#9C3329"/>
<stop offset="1" stop-color="#480F3C"/>
</radialGradient>
<radialGradient id="paint27_radial_284_13032" cx="0" cy="0" r="1" gradientUnits="userSpaceOnUse" gradientTransform="translate(103.398 61.0621) scale(32.0525 31.8525)">
<stop stop-color="#9C3329"/>
<stop offset="1" stop-color="#430C3D"/>
</radialGradient>
<radialGradient id="paint28_radial_284_13032" cx="0" cy="0" r="1" gradientUnits="userSpaceOnUse" gradientTransform="translate(24.7856 78.3025) scale(28.1577 27.982)">
<stop stop-color="#73251E"/>
<stop offset="1" stop-color="#4A1234"/>
</radialGradient>
<radialGradient id="paint29_radial_284_13032" cx="0" cy="0" r="1" gradientUnits="userSpaceOnUse" gradientTransform="translate(26.5008 79.4565) scale(65.8739 65.4629)">
<stop stop-color="#6B1E3B"/>
<stop offset="1" stop-color="#C44A3C"/>
</radialGradient>
<radialGradient id="paint30_radial_284_13032" cx="0" cy="0" r="1" gradientUnits="userSpaceOnUse" gradientTransform="translate(15.3878 66.4068) scale(33.4997 33.2907)">
<stop stop-color="#BD5348"/>
<stop offset="1" stop-color="#6B1E3B"/>
</radialGradient>
<radialGradient id="paint31_radial_284_13032" cx="0" cy="0" r="1" gradientUnits="userSpaceOnUse" gradientTransform="translate(46.9401 79.5099) scale(19.8854 19.7614)">
<stop stop-color="#6B1E3B"/>
<stop offset="1" stop-color="#C44A3C"/>
</radialGradient>
<radialGradient id="paint32_radial_284_13032" cx="0" cy="0" r="1" gradientUnits="userSpaceOnUse" gradientTransform="translate(66.8434 48.8999) scale(45.5954 45.3109)">
<stop stop-color="#BD3634"/>
<stop offset="1" stop-color="#641A3B"/>
</radialGradient>
<radialGradient id="paint33_radial_284_13032" cx="0" cy="0" r="1" gradientUnits="userSpaceOnUse" gradientTransform="translate(65.4498 26.8483) scale(49.5618 49.2525)">
<stop stop-color="#6B1E3B"/>
<stop offset="1" stop-color="#C44A3C"/>
</radialGradient>
<radialGradient id="paint34_radial_284_13032" cx="0" cy="0" r="1" gradientUnits="userSpaceOnUse" gradientTransform="translate(57.4992 65.2348) scale(42.4509 42.186)">
<stop stop-color="#9C3329"/>
<stop offset="1" stop-color="#480A36"/>
</radialGradient>
<radialGradient id="paint35_radial_284_13032" cx="0" cy="0" r="1" gradientUnits="userSpaceOnUse" gradientTransform="translate(56.7846 63.5833) scale(42.6831 42.4168)">
<stop stop-color="#73251E"/>
<stop offset="1" stop-color="#4A1234"/>
</radialGradient>
<radialGradient id="paint36_radial_284_13032" cx="0" cy="0" r="1" gradientUnits="userSpaceOnUse" gradientTransform="translate(74.0794 58.6833) scale(58.0126 57.6506)">
<stop stop-color="#73251E"/>
<stop offset="1" stop-color="#4A1234"/>
</radialGradient>
<radialGradient id="paint37_radial_284_13032" cx="0" cy="0" r="1" gradientUnits="userSpaceOnUse" gradientTransform="translate(63.6274 60.1388) scale(32.5707 32.3674)">
<stop stop-color="#96372D"/>
<stop offset="1" stop-color="#380F21"/>
</radialGradient>
<radialGradient id="paint38_radial_284_13032" cx="0" cy="0" r="1" gradientUnits="userSpaceOnUse" gradientTransform="translate(109.026 76.012) scale(70.5728 70.1324)">
<stop stop-color="#6B1E3B"/>
<stop offset="1" stop-color="#C44A3C"/>
</radialGradient>
<radialGradient id="paint39_radial_284_13032" cx="0" cy="0" r="1" gradientUnits="userSpaceOnUse" gradientTransform="translate(99.4856 76.8289) scale(12.453 12.3753)">
<stop stop-color="#BD4124"/>
<stop offset="1" stop-color="#641A3B"/>
</radialGradient>
<radialGradient id="paint40_radial_284_13032" cx="0" cy="0" r="1" gradientUnits="userSpaceOnUse" gradientTransform="translate(95.2869 69.4781) scale(9.6658 9.60546)">
<stop stop-color="#73251E"/>
<stop offset="1" stop-color="#4A1234"/>
</radialGradient>
<radialGradient id="paint41_radial_284_13032" cx="0" cy="0" r="1" gradientUnits="userSpaceOnUse" gradientTransform="translate(88.9622 67.9514) scale(13.6322 13.5471)">
<stop stop-color="#9C3329"/>
<stop offset="1" stop-color="#480A36"/>
</radialGradient>
<radialGradient id="paint42_radial_284_13032" cx="0" cy="0" r="1" gradientUnits="userSpaceOnUse" gradientTransform="translate(39.5255 87.5707) scale(47.4178 47.1219)">
<stop stop-color="#A93F34"/>
<stop offset="1" stop-color="#6B1E3B"/>
</radialGradient>
<radialGradient id="paint43_radial_284_13032" cx="0" cy="0" r="1" gradientUnits="userSpaceOnUse" gradientTransform="translate(44.8318 28.0736) scale(109.022 108.341)">
<stop stop-color="#822B22"/>
<stop offset="1" stop-color="#4D1127"/>
</radialGradient>
<radialGradient id="paint44_radial_284_13032" cx="0" cy="0" r="1" gradientUnits="userSpaceOnUse" gradientTransform="translate(44.6532 96.3595) scale(50.0442 49.7319)">
<stop stop-color="#5C1435"/>
<stop offset="1" stop-color="#9E3540"/>
</radialGradient>
<radialGradient id="paint45_radial_284_13032" cx="0" cy="0" r="1" gradientUnits="userSpaceOnUse" gradientTransform="translate(70.2559 78.1074) scale(30.1051 29.9172)">
<stop stop-color="#73251E"/>
<stop offset="1" stop-color="#4A1234"/>
</radialGradient>
<radialGradient id="paint46_radial_284_13032" cx="0" cy="0" r="1" gradientUnits="userSpaceOnUse" gradientTransform="translate(77.474 76.9529) scale(24.2806 24.1291)">
<stop stop-color="#8C2D2B"/>
<stop offset="1" stop-color="#520E34"/>
</radialGradient>
<radialGradient id="paint47_radial_284_13032" cx="0" cy="0" r="1" gradientUnits="userSpaceOnUse" gradientTransform="translate(75.6694 70.8453) scale(27.3001 27.1297)">
<stop stop-color="#9C3329"/>
<stop offset="1" stop-color="#4F0D35"/>
</radialGradient>
<radialGradient id="paint48_radial_284_13032" cx="0" cy="0" r="1" gradientUnits="userSpaceOnUse" gradientTransform="translate(61.7872 66.4241) scale(37.9664 37.7295)">
<stop stop-color="#A93F34"/>
<stop offset="1" stop-color="#6B1E3B"/>
</radialGradient>
<radialGradient id="paint49_radial_284_13032" cx="0" cy="0" r="1" gradientUnits="userSpaceOnUse" gradientTransform="translate(78.3494 59.8903) scale(37.9664 37.7295)">
<stop offset="0.62" stop-color="#B87E76"/>
<stop offset="0.69" stop-color="#D4B2AD"/>
<stop offset="0.76" stop-color="#EBDBD9"/>
<stop offset="0.81" stop-color="#F9F5F4"/>
<stop offset="0.84" stop-color="white"/>
</radialGradient>
<radialGradient id="paint50_radial_284_13032" cx="0" cy="0" r="1" gradientUnits="userSpaceOnUse" gradientTransform="translate(81.1545 80.8413) scale(15.8655 15.7665)">
<stop stop-color="#73251E"/>
<stop offset="1" stop-color="#4A1234"/>
</radialGradient>
<radialGradient id="paint51_radial_284_13032" cx="0" cy="0" r="1" gradientUnits="userSpaceOnUse" gradientTransform="translate(73.0609 83.3449) scale(12.7924 12.7126)">
<stop stop-color="#6B1E3B"/>
<stop offset="1" stop-color="#9E3838"/>
</radialGradient>
<radialGradient id="paint52_radial_284_13032" cx="0" cy="0" r="1" gradientUnits="userSpaceOnUse" gradientTransform="translate(73.4183 84.2682) scale(14.7399 14.6479)">
<stop stop-color="#480A36"/>
<stop offset="1" stop-color="#9C3329"/>
</radialGradient>
<radialGradient id="paint53_radial_284_13032" cx="0" cy="0" r="1" gradientUnits="userSpaceOnUse" gradientTransform="translate(30.5386 109.587) scale(6.50342 6.46283)">
<stop stop-color="#A93F34"/>
<stop offset="1" stop-color="#6B1E3B"/>
</radialGradient>
<radialGradient id="paint54_radial_284_13032" cx="0" cy="0" r="1" gradientUnits="userSpaceOnUse" gradientTransform="translate(26.733 102.219) scale(16.598 16.4944)">
<stop stop-color="#73251E"/>
<stop offset="1" stop-color="#4A1234"/>
</radialGradient>
<radialGradient id="paint55_radial_284_13032" cx="0" cy="0" r="1" gradientUnits="userSpaceOnUse" gradientTransform="translate(23.0704 101.473) scale(15.3295 15.2338)">
<stop stop-color="#9C3329"/>
<stop offset="1" stop-color="#54143C"/>
</radialGradient>
<radialGradient id="paint56_radial_284_13032" cx="0" cy="0" r="1" gradientUnits="userSpaceOnUse" gradientTransform="translate(37.042 102.734) scale(24.1555 24.0048)">
<stop stop-color="#6B1E3B"/>
<stop offset="1" stop-color="#C44A3C"/>
</radialGradient>
<radialGradient id="paint57_radial_284_13032" cx="0" cy="0" r="1" gradientUnits="userSpaceOnUse" gradientTransform="translate(115.601 42.011) scale(58.1913 57.8282)">
<stop stop-color="#6B1E3B"/>
<stop offset="1" stop-color="#D44747"/>
</radialGradient>
<radialGradient id="paint58_radial_284_13032" cx="0" cy="0" r="1" gradientUnits="userSpaceOnUse" gradientTransform="translate(68.7908 34.4119) scale(23.7446 23.5964)">
<stop stop-color="#F33218"/>
<stop offset="1"/>
</radialGradient>
<radialGradient id="paint59_radial_284_13032" cx="0" cy="0" r="1" gradientUnits="userSpaceOnUse" gradientTransform="translate(85.0494 13.1772) scale(36.8944 36.6642)">
<stop stop-color="#9C3329"/>
<stop offset="1" stop-color="#430C3D"/>
</radialGradient>
<radialGradient id="paint60_radial_284_13032" cx="0" cy="0" r="1" gradientUnits="userSpaceOnUse" gradientTransform="translate(77.3846 21.5039) scale(29.3368 29.1538)">
<stop stop-color="#B02E34"/>
<stop offset="1" stop-color="#380F21"/>
</radialGradient>
<radialGradient id="paint61_radial_284_13032" cx="0" cy="0" r="1" gradientUnits="userSpaceOnUse" gradientTransform="translate(99.1997 45.8815) scale(5.48503 5.4508)">
<stop stop-color="#9C3329"/>
<stop offset="1" stop-color="#480A36"/>
</radialGradient>
<radialGradient id="paint62_radial_284_13032" cx="0" cy="0" r="1" gradientUnits="userSpaceOnUse" gradientTransform="translate(67.165 39.8449) scale(7.12875 7.08426)">
<stop stop-color="#9C3329"/>
<stop offset="1" stop-color="#480A36"/>
</radialGradient>
<radialGradient id="paint63_radial_284_13032" cx="0" cy="0" r="1" gradientUnits="userSpaceOnUse" gradientTransform="translate(72.5428 -4.93319) scale(44.9343 44.6539)">
<stop stop-color="#6B1E3B"/>
<stop offset="1" stop-color="#C44A3C"/>
</radialGradient>
<radialGradient id="paint64_radial_284_13032" cx="0" cy="0" r="1" gradientUnits="userSpaceOnUse" gradientTransform="translate(75.0263 109.888) scale(36.948 36.7174)">
<stop stop-color="#92334B"/>
<stop offset="1" stop-color="#571133"/>
</radialGradient>
<radialGradient id="paint65_radial_284_13032" cx="0" cy="0" r="1" gradientUnits="userSpaceOnUse" gradientTransform="translate(90.4451 103.319) scale(43.1477 42.8784)">
<stop stop-color="#6B1E3B"/>
<stop offset="1" stop-color="#C44A3C"/>
</radialGradient>
<radialGradient id="paint66_radial_284_13032" cx="0" cy="0" r="1" gradientUnits="userSpaceOnUse" gradientTransform="translate(84.0846 120.453) scale(69.7331 69.2979)">
<stop stop-color="#6B1E3B"/>
<stop offset="1" stop-color="#C44A3C"/>
</radialGradient>
<radialGradient id="paint67_radial_284_13032" cx="0" cy="0" r="1" gradientUnits="userSpaceOnUse" gradientTransform="translate(112.528 88.4228) scale(79.9885 79.4893)">
<stop stop-color="#6B1E3B"/>
<stop offset="1" stop-color="#C44A3C"/>
</radialGradient>
<radialGradient id="paint68_radial_284_13032" cx="0" cy="0" r="1" gradientUnits="userSpaceOnUse" gradientTransform="translate(46.011 108.096) scale(19.1172 18.9979)">
<stop stop-color="#8A2920"/>
<stop offset="1" stop-color="#4A0B25"/>
</radialGradient>
<radialGradient id="paint69_radial_284_13032" cx="0" cy="0" r="1" gradientUnits="userSpaceOnUse" gradientTransform="translate(57.8744 85.9903) scale(81.9895 81.4779)">
<stop stop-color="#8A2C2C"/>
<stop offset="1" stop-color="#4D0D35"/>
</radialGradient>
<radialGradient id="paint70_radial_284_13032" cx="0" cy="0" r="1" gradientUnits="userSpaceOnUse" gradientTransform="translate(66.5039 69.3716) scale(63.444 63.0481)">
<stop stop-color="#73251E"/>
<stop offset="1" stop-color="#4A1234"/>
</radialGradient>
<radialGradient id="paint71_radial_284_13032" cx="0" cy="0" r="1" gradientUnits="userSpaceOnUse" gradientTransform="translate(26.5365 108.024) scale(13.3106 13.2275)">
<stop stop-color="#9C3329"/>
<stop offset="1" stop-color="#4F0C35"/>
</radialGradient>
<radialGradient id="paint72_radial_284_13032" cx="0" cy="0" r="1" gradientUnits="userSpaceOnUse" gradientTransform="translate(44.6532 99.2178) scale(13.0426 12.9612)">
<stop stop-color="#6B1E3B"/>
<stop offset="1" stop-color="#C44A3C"/>
</radialGradient>
<radialGradient id="paint73_radial_284_13032" cx="0" cy="0" r="1" gradientUnits="userSpaceOnUse" gradientTransform="translate(45.0998 99.129) scale(29.6763 29.4911)">
<stop stop-color="#5C1435"/>
<stop offset="1" stop-color="#9E3540"/>
</radialGradient>
<radialGradient id="paint74_radial_284_13032" cx="0" cy="0" r="1" gradientUnits="userSpaceOnUse" gradientTransform="translate(80.3505 128.088) scale(67.1603 66.7412)">
<stop stop-color="#6B1E3B"/>
<stop offset="1" stop-color="#C44A3C"/>
</radialGradient>
<radialGradient id="paint75_radial_284_13032" cx="0" cy="0" r="1" gradientUnits="userSpaceOnUse" gradientTransform="translate(28.8949 50.2852) scale(100.999 100.369)">
<stop stop-color="#993329"/>
<stop offset="1" stop-color="#591233"/>
</radialGradient>
<radialGradient id="paint76_radial_284_13032" cx="0" cy="0" r="1" gradientUnits="userSpaceOnUse" gradientTransform="translate(109.098 115.268) scale(35.8045 35.5811)">
<stop stop-color="#782626"/>
<stop offset="1" stop-color="#3B0A28"/>
</radialGradient>
<radialGradient id="paint77_radial_284_13032" cx="0" cy="0" r="1" gradientUnits="userSpaceOnUse" gradientTransform="translate(106.06 97.6731) scale(30.6054 30.4144)">
<stop stop-color="#96372D"/>
<stop offset="1" stop-color="#572121"/>
</radialGradient>
<radialGradient id="paint78_radial_284_13032" cx="0" cy="0" r="1" gradientUnits="userSpaceOnUse" gradientTransform="translate(109.652 93.838) scale(30.3016 30.1126)">
<stop stop-color="#8F2F26"/>
<stop offset="1" stop-color="#3D0D27"/>
</radialGradient>
<radialGradient id="paint79_radial_284_13032" cx="0" cy="0" r="1" gradientUnits="userSpaceOnUse" gradientTransform="translate(109.312 85.298) scale(23.7267 23.5787)">
<stop stop-color="#9C3329"/>
<stop offset="1" stop-color="#430C3D"/>
</radialGradient>
<radialGradient id="paint80_radial_284_13032" cx="0" cy="0" r="1" gradientUnits="userSpaceOnUse" gradientTransform="translate(122.212 94.6015) scale(18.8134 18.6961)">
<stop stop-color="#6B1E3B"/>
<stop offset="1" stop-color="#C44A3C"/>
</radialGradient>
<radialGradient id="paint81_radial_284_13032" cx="0" cy="0" r="1" gradientUnits="userSpaceOnUse" gradientTransform="translate(118.71 88.3874) scale(14.2218 14.133)">
<stop stop-color="#9C3329"/>
<stop offset="1" stop-color="#480A36"/>
</radialGradient>
<radialGradient id="paint82_radial_284_13032" cx="0" cy="0" r="1" gradientUnits="userSpaceOnUse" gradientTransform="translate(116.316 83.5046) scale(13.1319 13.0499)">
<stop stop-color="#9C3329"/>
<stop offset="1" stop-color="#430C3D"/>
</radialGradient>
<radialGradient id="paint83_radial_284_13032" cx="0" cy="0" r="1" gradientUnits="userSpaceOnUse" gradientTransform="translate(118.889 79.8469) scale(13.5607 13.4761)">
<stop stop-color="#9C3329"/>
<stop offset="1" stop-color="#430C3D"/>
</radialGradient>
<radialGradient id="paint84_radial_284_13032" cx="0" cy="0" r="1" gradientUnits="userSpaceOnUse" gradientTransform="translate(115.744 84.0903) scale(8.25434 8.20283)">
<stop stop-color="#9C3329"/>
<stop offset="1" stop-color="#480A36"/>
</radialGradient>
<radialGradient id="paint85_radial_284_13032" cx="0" cy="0" r="1" gradientUnits="userSpaceOnUse" gradientTransform="translate(95.8229 92.5064) scale(21.1004 20.9687)">
<stop stop-color="#96372D"/>
<stop offset="1" stop-color="#380F21"/>
</radialGradient>
<radialGradient id="paint86_radial_284_13032" cx="0" cy="0" r="1" gradientUnits="userSpaceOnUse" gradientTransform="translate(97.9847 75.8522) scale(14.722 14.6301)">
<stop stop-color="#73251E"/>
<stop offset="1" stop-color="#4A1234"/>
</radialGradient>
<radialGradient id="paint87_radial_284_13032" cx="0" cy="0" r="1" gradientUnits="userSpaceOnUse" gradientTransform="translate(47.2081 44.1238) scale(101.857 101.221)">
<stop offset="0.57" stop-color="white"/>
<stop offset="0.69" stop-color="#D8C2CD"/>
<stop offset="0.96" stop-color="#772C51"/>
<stop offset="1" stop-color="#69163F"/>
</radialGradient>
<radialGradient id="paint88_radial_284_13032" cx="0" cy="0" r="1" gradientUnits="userSpaceOnUse" gradientTransform="translate(78.814 87.3751) scale(90.762 90.1956)">
<stop/>
<stop offset="0.22" stop-color="#020001"/>
<stop offset="0.38" stop-color="#0C0105"/>
<stop offset="0.52" stop-color="#1C030C"/>
<stop offset="0.65" stop-color="#330615"/>
<stop offset="0.77" stop-color="#500A22"/>
<stop offset="0.89" stop-color="#730E30"/>
<stop offset="1" stop-color="#9C1442"/>
</radialGradient>
<radialGradient id="paint89_radial_284_13032" cx="0" cy="0" r="1" gradientUnits="userSpaceOnUse" gradientTransform="translate(88.0152 96.945) scale(90.762 90.1956)">
<stop offset="0.04"/>
<stop offset="0.78"/>
<stop offset="0.8" stop-color="#060101"/>
<stop offset="0.83" stop-color="#190606"/>
<stop offset="0.86" stop-color="#380E0E"/>
<stop offset="0.9" stop-color="#631919"/>
<stop offset="0.94" stop-color="#9B2727"/>
<stop offset="0.98" stop-color="#DD3838"/>
<stop offset="1" stop-color="#F93F3F"/>
</radialGradient>
<radialGradient id="paint90_radial_284_13032" cx="0" cy="0" r="1" gradientUnits="userSpaceOnUse" gradientTransform="translate(44.5162 36.4174) rotate(16.8204) scale(67.2856 66.9363)">
<stop stop-color="#D41F3B"/>
<stop offset="1"/>
</radialGradient>
<radialGradient id="paint91_radial_284_13032" cx="0" cy="0" r="1" gradientUnits="userSpaceOnUse" gradientTransform="translate(31.3962 41.8337) scale(16.3836 16.2814)">
<stop stop-color="#D95234"/>
<stop offset="1"/>
</radialGradient>
<radialGradient id="paint92_radial_284_13032" cx="0" cy="0" r="1" gradientUnits="userSpaceOnUse" gradientTransform="translate(38.5964 41.9047) scale(12.1492 12.0734)">
<stop stop-color="#D95234"/>
<stop offset="1"/>
</radialGradient>
<radialGradient id="paint93_radial_284_13032" cx="0" cy="0" r="1" gradientUnits="userSpaceOnUse" gradientTransform="translate(67.4866 25.144) scale(14.1503 14.062)">
<stop stop-color="#D95234"/>
<stop offset="1"/>
</radialGradient>
<radialGradient id="paint94_radial_284_13032" cx="0" cy="0" r="1" gradientUnits="userSpaceOnUse" gradientTransform="translate(53.64 53.605) scale(20.8681 20.7379)">
<stop stop-color="#D95234"/>
<stop offset="1"/>
</radialGradient>
<radialGradient id="paint95_radial_284_13032" cx="0" cy="0" r="1" gradientUnits="userSpaceOnUse" gradientTransform="translate(27.4298 41.1946) scale(23.7625 23.6142)">
<stop stop-color="#F33218"/>
<stop offset="1"/>
</radialGradient>
<radialGradient id="paint96_radial_284_13032" cx="0" cy="0" r="1" gradientUnits="userSpaceOnUse" gradientTransform="translate(41.6694 41.7092) scale(20.7609 20.6314)">
<stop stop-color="#F33218"/>
<stop offset="1"/>
</radialGradient>
<radialGradient id="paint97_radial_284_13032" cx="0" cy="0" r="1" gradientUnits="userSpaceOnUse" gradientTransform="translate(31.6642 45.9171) scale(16.598 16.4944)">
<stop stop-color="#F33218"/>
<stop offset="1"/>
</radialGradient>
<radialGradient id="paint98_radial_284_13032" cx="0" cy="0" r="1" gradientUnits="userSpaceOnUse" gradientTransform="translate(59.6253 49.1131) scale(24.0483 23.8983)">
<stop stop-color="#F33218"/>
<stop offset="0.18" stop-color="#B82512"/>
<stop offset="0.4" stop-color="#77180B"/>
<stop offset="0.6" stop-color="#430D06"/>
<stop offset="0.77" stop-color="#1E0603"/>
<stop offset="0.91" stop-color="#080100"/>
<stop offset="1"/>
</radialGradient>
</defs>
</svg>
