<svg width="175" height="184" viewBox="0 0 175 184" fill="none" xmlns="http://www.w3.org/2000/svg">
<g filter="url(#filter0_d_284_12847)">
<path style="mix-blend-mode:screen" d="M102.197 156.803C140.196 146.201 162.405 106.802 151.803 68.8031C141.201 30.8043 101.802 8.59508 63.8028 19.1974C25.8041 29.7997 3.59486 69.1986 14.1972 107.197C24.7995 145.196 64.1984 167.405 102.197 156.803Z" fill="url(#paint0_radial_284_12847)"/>
<path d="M98.0288 147.269C130.773 138.959 150.581 105.678 142.271 72.9333C133.961 40.189 100.68 20.381 67.9359 28.6909C35.1916 37.0008 15.3836 70.2818 23.6935 103.026C32.0034 135.77 65.2844 155.578 98.0288 147.269Z" fill="url(#paint1_radial_284_12847)"/>
<path style="mix-blend-mode:screen" d="M98.0288 147.269C130.773 138.959 150.581 105.678 142.271 72.9333C133.961 40.189 100.68 20.381 67.9359 28.6909C35.1916 37.0008 15.3836 70.2818 23.6935 103.026C32.0034 135.77 65.2844 155.578 98.0288 147.269Z" fill="url(#paint2_radial_284_12847)"/>
<path d="M59.559 113.939C60.3728 114.436 61.3222 114.888 62.3168 114.753C64.2156 114.527 65.0745 112.221 65.0745 110.322C65.1198 105.801 62.6332 101.687 59.9207 98.0706C57.2081 94.4538 54.0887 91.0179 52.5515 86.7682C51.0144 82.5186 51.4665 77.1386 55.0381 74.3809C58.7452 71.4423 64.2608 72.4369 68.5557 70.4477C69.1434 70.1764 69.6859 69.8599 70.0476 69.3174C70.8613 68.0063 69.9572 66.3336 69.053 65.0677C64.0799 57.8342 59.9207 49.7418 58.9261 41.0163C58.5644 37.8969 58.7 34.687 59.2425 31.6128C47.8046 36.4502 38.1298 44.6783 31.484 55.0313C32.1621 55.2121 32.8403 55.3929 33.5184 55.7094C40.4354 58.9645 41.6109 68.0968 42.2438 75.7371C42.8315 83.0159 43.7357 90.3398 46.3126 97.1212C48.8896 103.948 53.3201 110.232 59.559 113.984V113.939Z" fill="url(#paint3_radial_284_12847)"/>
<path d="M75.7892 148.705C75.6535 144.591 75.3823 140.522 73.167 137.131C69.5051 131.48 61.7743 129.943 55.1285 130.847C53.3653 131.073 51.5117 131.435 49.9294 130.712C48.9348 130.259 48.1662 129.446 47.4881 128.632C40.7971 120.901 37.316 111 32.1621 102.184C29.9016 98.3416 26.5109 94.2275 22.1708 94.2275C25.0642 122.709 47.4881 145.359 75.8344 148.66L75.7892 148.705Z" fill="url(#paint4_radial_284_12847)"/>
<path d="M82.7966 26.8205C82.4349 26.8205 82.0733 26.8205 81.7568 26.8205C81.0334 27.8151 80.4005 28.9002 79.9936 30.1208C79.0894 32.8334 79.0442 35.9076 77.1907 38.1229C76.196 39.2983 74.7946 40.1121 73.7999 41.2875C71.3134 44.2261 72.1272 48.9279 74.5685 51.957C77.0098 54.9408 80.6266 56.6587 84.1077 58.3767C87.5888 60.0494 91.1604 61.903 93.4208 65.0677C95.2744 67.6898 95.9978 71.0805 95.3648 74.2C94.8223 76.9577 93.24 79.6251 93.6469 82.4281C94.1442 86.09 97.9418 88.6218 101.604 88.7574C105.311 88.893 108.792 87.0846 111.776 84.9598C113.268 83.92 114.714 82.7445 116.432 82.1568C121.044 80.4841 126.107 83.2418 129.679 86.6325C133.25 90.0232 136.144 94.2277 140.484 96.5334C141.388 97.0307 142.383 97.3924 143.377 97.528C143.874 94.3633 144.146 91.1083 144.146 87.808C144.055 54.0366 116.568 26.7301 82.7966 26.8205Z" fill="url(#paint5_radial_284_12847)"/>
<path d="M128.955 113.08C125.293 114.21 122.129 116.471 118.648 118.143C115.212 119.816 111.052 120.811 107.571 119.183C103.322 117.194 101.604 112.176 99.6597 107.926C97.8966 104.083 95.5909 100.512 92.8331 97.3472C89.7589 93.8208 85.464 90.5658 80.8526 91.3343C76.0152 92.1933 73.0766 97.1211 71.8107 101.868C71.0422 104.852 70.7257 108.152 72.0368 110.91C74.5685 116.154 81.9829 117.601 84.5146 122.845C86.549 127.05 84.7406 132.023 84.379 136.679C84.0625 140.974 85.1023 145.179 87.0463 148.976C110.058 147.439 129.588 133.153 138.63 113.125C135.466 112.176 132.03 112.085 128.865 113.035L128.955 113.08Z" fill="url(#paint6_radial_284_12847)"/>
<path style="mix-blend-mode:multiply" opacity="0.25" d="M129.498 127.502C124.751 128.678 119.778 129.356 114.669 129.356C80.8978 129.446 53.4105 102.14 53.3201 68.3682C53.2749 53.0874 58.8356 39.1177 68.0584 28.3579C41.5205 35.0941 21.8544 59.1907 21.9448 87.8535C22.0352 121.625 49.5225 148.931 83.2939 148.841C101.785 148.796 118.331 140.522 129.498 127.502Z" fill="url(#paint7_radial_284_12847)"/>
<path style="mix-blend-mode:screen" opacity="0.34" d="M108.702 138.488C102.824 140.568 96.5403 141.698 89.9849 141.698C58.5644 141.788 32.9759 116.381 32.8855 84.9602C32.8403 62.9884 45.2276 43.8649 63.447 34.3257C41.3396 42.2373 25.4711 63.3501 25.5163 88.2153C25.6068 119.636 51.1501 145.043 82.6158 144.953C92.0193 144.953 100.926 142.602 108.702 138.533V138.488Z" fill="url(#paint8_radial_284_12847)"/>
<path style="mix-blend-mode:screen" opacity="0.45" d="M77.3715 30.6184C111.143 30.528 138.63 57.8345 138.721 91.6059C138.766 111.182 129.634 128.632 115.347 139.844C132.708 128.994 144.191 109.735 144.146 87.7631C144.055 53.9917 116.568 26.6852 82.7966 26.7756C68.6009 26.7756 55.5354 31.7034 45.1824 39.8411C54.5408 34.0091 65.5266 30.6184 77.3715 30.5732V30.6184Z" fill="url(#paint9_radial_284_12847)"/>
<path style="mix-blend-mode:screen" d="M70.4997 35.9079C77.7332 34.0543 88.7643 36.9025 94.0538 38.3492C106.532 41.7399 117.698 48.883 125.519 59.2359C145.909 86.3616 131.171 117.737 122.129 126.101C113.087 134.464 103.276 124.699 103.457 109.644C103.638 94.5897 103.864 79.8062 96.1786 71.2616C88.493 62.717 69.1886 63.4856 65.0745 52.0024C63.7183 48.2048 62.4072 42.7345 65.0745 39.163C66.3404 37.4902 68.194 36.4956 70.4545 35.9079H70.4997Z" fill="url(#paint10_radial_284_12847)"/>
<path style="mix-blend-mode:screen" opacity="0.45" d="M117.472 62.8978C114.579 66.1981 107.436 64.7061 101.559 59.5523C95.6813 54.3984 93.24 47.5266 96.1334 44.1811C99.0268 40.8808 106.17 42.3727 112.047 47.5266C117.924 52.6804 120.366 59.5523 117.472 62.8978Z" fill="url(#paint11_radial_284_12847)"/>
<path style="mix-blend-mode:screen" opacity="0.45" d="M128.865 80.4844C126.559 81.705 122.943 79.3994 120.818 75.3305C118.648 71.2617 118.738 66.9668 121.044 65.7461C123.349 64.5255 126.966 66.8312 129.091 70.9C131.216 74.9688 131.171 79.2637 128.865 80.4844Z" fill="url(#paint12_radial_284_12847)"/>
</g>
<defs>
<filter id="filter0_d_284_12847" x="-25" y="-16" width="216" height="216" filterUnits="userSpaceOnUse" color-interpolation-filters="sRGB">
<feFlood flood-opacity="0" result="BackgroundImageFix"/>
<feColorMatrix in="SourceAlpha" type="matrix" values="0 0 0 0 0 0 0 0 0 0 0 0 0 0 0 0 0 0 127 0" result="hardAlpha"/>
<feOffset dy="4"/>
<feGaussianBlur stdDeviation="10"/>
<feComposite in2="hardAlpha" operator="out"/>
<feColorMatrix type="matrix" values="0 0 0 0 0 0 0 0 0 0 0 0 0 0 0 0 0 0 0.25 0"/>
<feBlend mode="normal" in2="BackgroundImageFix" result="effect1_dropShadow_284_12847"/>
<feBlend mode="normal" in="SourceGraphic" in2="effect1_dropShadow_284_12847" result="shape"/>
</filter>
<radialGradient id="paint0_radial_284_12847" cx="0" cy="0" r="1" gradientUnits="userSpaceOnUse" gradientTransform="translate(83.3783 88.019) scale(70.2554 70.2554)">
<stop offset="0.05" stop-color="#E0A326"/>
<stop offset="0.41" stop-color="#DFA227" stop-opacity="0.99"/>
<stop offset="0.55" stop-color="#DF9E2B" stop-opacity="0.96"/>
<stop offset="0.64" stop-color="#DE9832" stop-opacity="0.91"/>
<stop offset="0.71" stop-color="#DC8F3D" stop-opacity="0.83"/>
<stop offset="0.78" stop-color="#DA834B" stop-opacity="0.73"/>
<stop offset="0.84" stop-color="#D8755C" stop-opacity="0.61"/>
<stop offset="0.89" stop-color="#D56471" stop-opacity="0.47"/>
<stop offset="0.93" stop-color="#D25089" stop-opacity="0.3"/>
<stop offset="0.98" stop-color="#CE3AA3" stop-opacity="0.12"/>
<stop offset="1" stop-color="#CC2DB4" stop-opacity="0"/>
</radialGradient>
<radialGradient id="paint1_radial_284_12847" cx="0" cy="0" r="1" gradientUnits="userSpaceOnUse" gradientTransform="translate(141.912 78.4177) rotate(89.83) scale(179.346 179.346)">
<stop offset="0.05" stop-color="#E0A326"/>
<stop offset="1" stop-color="#CC2DB4"/>
</radialGradient>
<radialGradient id="paint2_radial_284_12847" cx="0" cy="0" r="1" gradientUnits="userSpaceOnUse" gradientTransform="translate(141.912 78.4177) rotate(89.83) scale(179.346 179.346)">
<stop offset="0.05" stop-color="#E0A326"/>
<stop offset="1" stop-color="#CC2DB4"/>
</radialGradient>
<radialGradient id="paint3_radial_284_12847" cx="0" cy="0" r="1" gradientUnits="userSpaceOnUse" gradientTransform="translate(124.97 63.545) rotate(89.83) scale(94.3068 94.3068)">
<stop stop-color="#F20074"/>
<stop offset="0.14" stop-color="#ED0276"/>
<stop offset="0.31" stop-color="#DE0A7C"/>
<stop offset="0.49" stop-color="#C61787"/>
<stop offset="0.67" stop-color="#A52A95"/>
<stop offset="0.87" stop-color="#7B41A8"/>
<stop offset="0.9" stop-color="#7446AC"/>
</radialGradient>
<radialGradient id="paint4_radial_284_12847" cx="0" cy="0" r="1" gradientUnits="userSpaceOnUse" gradientTransform="translate(124.97 63.5448) rotate(89.83) scale(94.3972 94.3972)">
<stop stop-color="#F20074"/>
<stop offset="0.14" stop-color="#ED0276"/>
<stop offset="0.31" stop-color="#DE0A7C"/>
<stop offset="0.49" stop-color="#C61787"/>
<stop offset="0.67" stop-color="#A52A95"/>
<stop offset="0.87" stop-color="#7B41A8"/>
<stop offset="0.9" stop-color="#7446AC"/>
</radialGradient>
<radialGradient id="paint5_radial_284_12847" cx="0" cy="0" r="1" gradientUnits="userSpaceOnUse" gradientTransform="translate(124.97 63.545) rotate(89.83) scale(94.3068 94.3068)">
<stop stop-color="#F20074"/>
<stop offset="0.14" stop-color="#ED0276"/>
<stop offset="0.31" stop-color="#DE0A7C"/>
<stop offset="0.49" stop-color="#C61787"/>
<stop offset="0.67" stop-color="#A52A95"/>
<stop offset="0.87" stop-color="#7B41A8"/>
<stop offset="0.9" stop-color="#7446AC"/>
</radialGradient>
<radialGradient id="paint6_radial_284_12847" cx="0" cy="0" r="1" gradientUnits="userSpaceOnUse" gradientTransform="translate(124.97 63.545) rotate(89.83) scale(94.3068 94.3068)">
<stop stop-color="#F20074"/>
<stop offset="0.14" stop-color="#ED0276"/>
<stop offset="0.31" stop-color="#DE0A7C"/>
<stop offset="0.49" stop-color="#C61787"/>
<stop offset="0.67" stop-color="#A52A95"/>
<stop offset="0.87" stop-color="#7B41A8"/>
<stop offset="0.9" stop-color="#7446AC"/>
</radialGradient>
<radialGradient id="paint7_radial_284_12847" cx="0" cy="0" r="1" gradientUnits="userSpaceOnUse" gradientTransform="translate(127.503 79.2254) rotate(89.83) scale(162.663 162.663)">
<stop offset="0.05" stop-color="#E0A326"/>
<stop offset="1" stop-color="#CC2DB4"/>
</radialGradient>
<radialGradient id="paint8_radial_284_12847" cx="0" cy="0" r="1" gradientUnits="userSpaceOnUse" gradientTransform="translate(107.119 81.0944) rotate(89.83) scale(133.322 133.322)">
<stop offset="0.05" stop-color="#E0A326"/>
<stop offset="1" stop-color="#CC2DB4"/>
</radialGradient>
<radialGradient id="paint9_radial_284_12847" cx="0" cy="0" r="1" gradientUnits="userSpaceOnUse" gradientTransform="translate(94.6415 83.3326) scale(53.121)">
<stop offset="0.05" stop-color="#E0A326"/>
<stop offset="1" stop-color="#CC2DB4"/>
</radialGradient>
<radialGradient id="paint10_radial_284_12847" cx="0" cy="0" r="1" gradientUnits="userSpaceOnUse" gradientTransform="translate(134.498 74.9098) rotate(89.83) scale(114.832 114.832)">
<stop offset="0.05" stop-color="#E0A326"/>
<stop offset="1" stop-color="#CC2DB4"/>
</radialGradient>
<radialGradient id="paint11_radial_284_12847" cx="0" cy="0" r="1" gradientUnits="userSpaceOnUse" gradientTransform="translate(106.803 53.5846) scale(11.5284)">
<stop offset="0.05" stop-color="#E0A326"/>
<stop offset="1" stop-color="#CC2DB4"/>
</radialGradient>
<radialGradient id="paint12_radial_284_12847" cx="0" cy="0" r="1" gradientUnits="userSpaceOnUse" gradientTransform="translate(124.977 73.1153) scale(6.78141 6.78141)">
<stop offset="0.05" stop-color="#E0A326"/>
<stop offset="1" stop-color="#CC2DB4"/>
</radialGradient>
</defs>
</svg>
