<svg width="168" height="166" viewBox="0 0 168 166" fill="none" xmlns="http://www.w3.org/2000/svg">
<g filter="url(#filter0_d_284_12852)">
<path fill-rule="evenodd" clip-rule="evenodd" d="M21.0112 69.9608L21.1117 74.546L23.281 82.491L34.5297 101.524L58.3727 124.489L78.7006 135.636L101.198 137.118L115.54 130.399L127.873 123.027L137.213 112.69L141.713 102.927L146.996 88.8154L147.779 85.258L148 82.8863C147.659 69.8224 121.767 60.4939 94.1272 56.6004C60.8032 51.8769 23.6828 51.9362 21.0112 69.9608Z" fill="url(#paint0_linear_284_12852)"/>
<path fill-rule="evenodd" clip-rule="evenodd" d="M84.124 18.5947C118.593 18.5947 146.514 46.0862 146.514 79.9812C146.514 113.876 118.573 141.368 84.124 141.368C49.6751 141.368 21.7344 113.896 21.7344 79.9812C21.7344 46.0664 49.6751 18.5947 84.124 18.5947Z" fill="url(#paint1_radial_284_12852)"/>
<path fill-rule="evenodd" clip-rule="evenodd" d="M43.8901 32.6665C43.388 33.6943 43.0465 34.5639 42.0823 35.5521C38.8483 38.9119 31.7577 42.5089 31.5769 47.6475C31.5568 48.4578 32.0992 49.2286 32.0389 50.0192C31.9184 51.62 31.356 53.1616 31.0747 54.7427C30.673 57.0353 31.7376 59.9406 34.5698 59.2489C36.1165 58.8734 39.2501 57.8061 39.6518 57.9049C41.1784 58.2805 43.0264 60.1383 44.8945 59.9604C47.8874 59.6639 50.4183 56.9958 52.9292 56.225C58.3928 54.5649 64.0372 60.3161 65.9655 65.5338C68.7978 73.1231 71.7505 82.7678 74.3417 84.4675C75.9085 85.4952 78.7407 86.0881 79.6045 86.6811C82.4166 88.5982 84.1441 94.7249 85.9519 96.899C87.9606 99.3101 90.833 100.377 94.2879 99.4485C97.08 98.6975 102.584 97.5314 104.372 97.314C109.293 96.7211 118.754 97.6302 121.044 96.5827C124.579 94.9423 128.154 91.4837 129.621 90.3571C133.437 87.4123 136.691 86.2067 138.499 83.5189C139.262 82.3923 139.061 79.487 139.122 77.7281C139.202 75.0402 141.171 74.1706 142.115 72.2337C144.565 67.273 140.668 57.5887 138.941 52.6675C138.439 51.2445 137.816 49.8808 137.354 48.4381C137.033 47.4696 136.832 46.5605 136.631 45.6711C136.169 43.6552 133.538 37.8051 130.484 35.137C127.913 32.9037 123.896 31.8958 121.084 29.8008C110.498 21.7767 94.4687 16.559 84.2847 16.0056C81.2315 15.8475 71.5898 19.0493 65.5839 20.8873C59.3168 22.8044 52.9493 24.682 47.6665 28.2987C45.9792 29.4648 44.794 30.8285 43.8901 32.6665ZM25.6513 77.4316C24.9684 77.7873 23.964 77.7873 23.3614 77.234C22.0759 76.0284 21.1519 72.7278 21.0113 69.9609C20.489 73.2219 20.4086 76.5818 20.2078 79.9811C19.7056 88.5389 20.2881 95.555 21.0514 98.1638C21.9955 101.405 26.274 108.56 33.0232 117.77C37.7235 124.193 45.0753 132.375 48.249 133.976C53.1502 136.427 71.8911 142 84.124 142C89.0855 142 94.2277 141.704 99.1891 140.913C104.412 140.083 111.844 138.482 114.094 137.296C119.055 134.687 127.371 127.059 132.714 120.556C136.751 115.655 143.661 106.761 144.284 105.081C145.148 102.749 147.659 90.4757 148 82.8864C147.397 89.1713 145.329 88.8946 142.657 93.7763C141.532 95.8317 140.729 98.0453 139.825 100.219C137.736 105.22 135.727 111.485 132.734 115.971C131.589 117.71 130.143 119.272 128.476 120.556C127.411 121.386 126.065 121.9 124.719 122.197C123.816 122.394 122.871 121.762 121.968 121.959C117.428 122.888 114.917 127.256 111.462 129.509C109.514 130.774 107.304 131.683 105.054 132.296C95.6338 134.885 90.9937 128.185 90.13 127.454C87.4383 125.221 78.5198 124.252 74.7033 123.264C65.6441 120.912 66.9096 114.074 66.4476 112.275C65.8651 110.002 64.68 108.797 63.2739 108.085C61.8477 107.354 53.0095 106.583 50.3581 105.378C43.629 102.294 41.1985 95.812 40.2745 86.3056C39.9933 83.4003 39.0693 78.0245 38.4868 77.0363C37.141 74.7832 34.4694 73.716 32.0791 74.2891C31.0145 74.5461 27.7805 76.3248 25.6312 77.4514L25.6513 77.4316ZM97.6023 88.1634C97.0398 88.6574 96.4171 91.6418 96.4171 92.4916C96.4171 93.1241 96.7184 94.1716 97.2206 94.0727C98.8878 93.796 101.901 93.2427 104.331 92.8869C105.878 92.6695 107.606 92.6695 109.152 92.3335C109.614 92.2347 110.116 91.7999 110.237 91.2465C110.377 90.5548 108.509 88.1634 107.746 87.8471C105.436 86.8787 99.5105 86.4439 97.6023 88.1436V88.1634ZM76.3906 54.466C72.7951 54.723 72.6344 60.8498 73.0361 63.4981C73.4981 66.4824 74.3417 69.4668 75.8282 72.0954C76.8727 73.9532 80.9905 75.2971 83.0393 74.6251C83.9432 74.3287 84.807 73.38 84.8873 72.4313C85.0882 70.1585 83.7825 67.9647 83.8227 65.6919C83.8428 63.3795 85.5502 58.2607 84.3851 57.233C82.3162 55.3752 78.9014 54.2882 76.4107 54.466H76.3906ZM63.8162 43.2204C62.8119 43.26 61.7071 43.5564 61.0242 44.3667C60.4216 45.098 59.9596 46.4222 60.4015 47.3115C61.667 49.8611 63.6957 51.9165 65.6843 53.7941C66.2869 54.3672 67.231 54.7427 67.9541 54.4463C68.7174 54.1301 69.1593 53.1221 69.4004 52.2327C69.9226 50.1971 70.3846 48.0626 70.1838 45.9281C70.1034 45.098 69.3602 44.347 68.6773 44.0505C67.1306 43.3983 65.4232 43.1611 63.7962 43.2402L63.8162 43.2204ZM47.8673 46.5605C45.6377 46.9755 42.4439 50.8097 43.7897 52.4304C44.2316 52.964 45.0552 53.379 45.7381 53.1814C47.5459 52.7071 49.0725 51.4224 50.7799 50.6319C51.4227 50.3354 52.1458 50.2761 52.7484 49.8808C53.7728 49.1891 53.3108 47.2522 52.6279 46.9755C51.1816 46.3826 49.4542 46.2641 47.8874 46.5605H47.8673Z" fill="url(#paint2_radial_284_12852)"/>
<path style="mix-blend-mode:screen" fill-rule="evenodd" clip-rule="evenodd" d="M40.2946 86.2861C40.0134 83.3808 39.0894 78.005 38.5069 77.0168C37.161 74.7638 34.4895 73.6965 32.0992 74.2697C31.0346 74.5266 27.8006 76.3053 25.6513 77.4319C25.4504 77.5505 25.2094 77.6098 24.9684 77.6493C24.9684 80.7522 25.6513 83.4005 28.4032 86.4047C29.9097 88.045 31.7778 87.8276 34.4895 91.484C35.293 92.571 35.6545 93.9347 36.5785 94.9229C38.0248 96.4842 39.5916 98.0258 41.4998 99.014C42.3234 99.4488 43.2273 99.7255 44.1713 99.9429C41.9618 96.504 40.8771 91.9188 40.3348 86.2663L40.2946 86.2861ZM76.3906 54.4466C72.7951 54.7035 72.6344 60.8303 73.0361 63.4786C73.4981 66.463 74.3417 69.4473 75.8282 72.0759C76.8727 73.9337 80.9905 75.2776 83.0393 74.6056C83.9432 74.3092 84.807 73.3605 84.8873 72.4119C85.0882 70.139 83.7825 67.9452 83.8227 65.6724C83.8428 63.36 85.5502 58.2412 84.3851 57.2135C82.3162 55.3557 78.9014 54.2687 76.4107 54.4466H76.3906ZM63.8162 43.2009C62.8119 43.2405 61.7071 43.5369 61.0242 44.3472C60.4216 45.0785 59.9596 46.4027 60.4015 47.292C61.667 49.8416 63.6957 51.897 65.6843 53.7746C66.2869 54.3477 67.231 54.7232 67.9541 54.4268C68.7174 54.1106 69.1593 53.1026 69.4004 52.2132C69.9226 50.1776 70.3846 48.0431 70.1838 45.9086C70.1034 45.0785 69.3602 44.3275 68.6773 44.031C67.1306 43.3788 65.4232 43.1416 63.7962 43.2207L63.8162 43.2009ZM47.8673 46.541C45.6377 46.9561 42.4439 50.7902 43.7897 52.4109C44.2316 52.9445 45.0552 53.3595 45.7381 53.1619C47.5459 52.6876 49.0725 51.4029 50.7799 50.6124C51.4227 50.3159 52.1458 50.2566 52.7484 49.8613C53.7728 49.1696 53.3108 47.2328 52.6279 46.9561C51.1816 46.3631 49.4542 46.2446 47.8874 46.541H47.8673ZM68.9384 19.8599C67.7533 20.2354 66.6284 20.5911 65.604 20.9073C59.3369 22.8244 52.9694 24.702 47.6865 28.3188C45.9992 29.4848 44.8141 30.8485 43.9102 32.6866C43.8098 32.904 43.6893 33.1214 43.5888 33.3388C43.2273 34.0898 42.8456 34.8013 42.1024 35.5721C40.7365 36.9753 38.7077 38.4379 36.7995 40.019C34.4493 41.9756 32.2599 44.1496 31.7376 46.6991C31.6773 47.0154 31.6372 47.3316 31.6171 47.6676C31.597 48.4779 32.1393 49.2487 32.0791 50.0392C31.9586 51.6401 31.3961 53.1817 31.1149 54.7628C30.894 55.9486 31.0948 57.3123 31.7175 58.261C32.3 59.1108 33.2441 59.6049 34.61 59.2887C36.1567 58.9132 39.2903 57.8459 39.692 57.9447C41.2186 58.3203 43.0666 60.1781 44.9346 60.0002C47.9276 59.7037 50.4585 57.0356 52.9694 56.2648C58.433 54.6047 64.0774 60.3559 66.0057 65.5736C68.838 73.1629 71.7907 82.8076 74.3819 84.5073C75.9487 85.535 78.7809 86.128 79.6447 86.7209C81.4926 87.966 82.8786 91.0294 84.1039 93.5987C85.51 92.3733 86.5746 90.7725 87.7196 89.3099C89.0453 87.63 89.7885 85.4955 91.295 83.9737C93.8059 81.4835 97.3813 81.602 99.4703 76.839C100.334 74.8823 99.7114 72.4712 100.635 70.5343C101.74 68.2022 104.271 66.7199 105.376 64.3878C106.199 62.6683 106.802 60.7907 107.063 58.8736C107.164 58.1622 107.204 57.4507 107.204 56.7589C107.164 52.4899 105.758 48.3593 105.195 44.1298C104.813 41.2443 105.255 38.2402 104.452 35.4338C103.066 30.6904 100.214 30.1371 97.0398 27.7259C95.1517 26.2831 93.7456 24.2079 91.6164 23.1407C88.8243 21.7374 85.7109 20.9864 82.6175 20.433C79.6246 19.8994 77.4753 19.9587 74.4422 20.1366C73.0361 20.2156 71.9112 20.1168 70.7864 20.018C70.1637 19.9587 69.541 19.9192 68.8982 19.8994L68.9384 19.8599ZM94.8705 34.2084C94.9307 33.655 95.6338 33.24 96.1962 33.1412C99.0686 32.6866 101.941 36.3429 102.524 38.932C102.925 40.6909 102.604 42.5685 102.945 44.3472C103.267 46.0272 104.191 47.5885 104.532 49.2684C105.737 55.1778 105.999 59.6444 102.443 64.6052C100.173 67.7674 97.4014 67.0954 97.2809 63.0438C97.2407 61.5022 97.7228 59.9607 98.2852 58.5377C100.153 53.7943 102.443 52.8062 102.363 47.0549C102.363 46.1457 102.222 45.1773 101.7 44.4263C101.077 43.5567 99.2092 42.865 99.1088 42.4499C98.9682 41.857 98.7874 40.2166 98.1848 39.3272C97.5018 38.2995 96.5578 38.3983 95.7744 37.4497C95.0512 36.5801 94.7499 35.3349 94.8504 34.2084H94.8705ZM39.009 44.367C38.0449 43.9124 38.9689 40.8688 39.5916 40.2166C40.4151 39.3668 41.7208 39.2284 42.7653 38.6553C43.5687 38.2007 44.4927 37.8647 45.0953 37.173C45.4569 36.7579 46.7425 32.3506 47.7267 30.9869C48.4298 29.9789 50.8603 28.4769 51.5834 29.1686C51.965 29.5244 51.6838 31.4415 51.4428 31.896C50.9406 32.8249 49.655 33.4771 49.4542 35.1966C49.3738 35.829 49.9162 38.3983 49.6149 39.9597C49.414 41.0467 48.9721 42.2918 48.028 42.9045C47.0036 43.5962 45.5372 43.1219 44.3521 43.4776C43.5888 43.7148 43.0465 44.5053 42.2631 44.6239C41.1985 44.8018 39.9933 44.8018 39.009 44.3275V44.367Z" fill="url(#paint3_radial_284_12852)"/>
<path style="mix-blend-mode:multiply" opacity="0.7" fill-rule="evenodd" clip-rule="evenodd" d="M74.6831 125.754C72.3531 125.003 58.453 122.513 54.8574 118.54C53.1702 116.683 51.8645 113.105 50.358 112.473C49.7956 112.236 47.5258 111.999 45.0149 111.623C43.0263 111.327 40.8971 110.931 39.3504 110.339C36.8797 109.41 34.6702 107.789 32.8423 105.911C25.7717 98.6581 28.8852 97.2549 26.2538 88.8552C25.611 86.8196 23.8836 85.2582 23.0801 83.2818C22.1963 81.1276 21.8347 79.2303 21.7544 77.491C21.7544 77.3132 21.7544 77.1353 21.7544 76.9772C21.7544 76.1471 21.7946 75.3368 21.8749 74.566C21.3928 73.1628 21.0714 71.4828 20.9911 69.961C20.4688 73.222 20.3885 76.5819 20.1876 79.9813C19.6854 88.539 20.268 95.5552 21.0313 98.164C21.9753 101.405 26.2538 108.56 33.003 117.77C37.7033 124.193 45.0551 132.375 48.2288 133.976C53.13 136.427 71.871 142 84.1038 142C89.0653 142 94.2075 141.704 99.169 140.913C104.392 140.083 111.824 138.482 114.073 137.296C119.035 134.688 127.351 127.059 132.694 120.556C136.731 115.655 143.641 106.761 144.264 105.081C145.128 102.749 147.638 90.4759 147.98 82.8866C147.638 86.3255 146.875 87.8078 145.811 89.2307C144.927 90.4166 143.842 91.5629 142.637 93.7567C141.512 95.8121 140.708 98.0256 139.805 100.2C137.716 105.2 135.707 111.465 132.714 115.951C131.569 117.691 130.123 119.252 128.456 120.537C127.391 121.367 126.045 121.881 124.699 122.177C123.795 122.375 122.851 121.742 121.947 121.94C117.408 122.869 114.897 127.237 111.442 129.49C109.494 130.755 107.284 131.664 105.034 132.276C97.9035 134.233 93.5045 130.873 91.4355 128.798C89.7683 127.138 86.4138 126.031 85.53 125.873C84.5056 125.695 83.441 125.774 82.3563 125.952C80.6288 126.229 76.3102 126.308 74.663 125.794L74.6831 125.754ZM128.034 54.2488C128.536 57.3517 130.725 60.1186 130.866 63.2611C130.906 64.3086 130.725 65.1189 130.404 65.8699C129.219 68.5776 126.366 70.4354 127.712 80.3173C127.953 82.1158 128.214 83.934 128.054 85.7325C127.833 88.1635 127.27 90.5549 126.608 92.8871C127.933 91.8 129.038 90.8119 129.701 90.298C133.517 87.3532 136.771 86.1476 138.579 83.4597C139.343 82.3332 139.142 79.4279 139.202 77.6689C139.262 75.1787 140.99 74.2498 141.994 72.5698C142.074 72.4513 142.135 72.3129 142.215 72.1746C144.666 67.2138 140.769 57.5296 139.041 52.6084C138.539 51.1854 137.916 49.8217 137.454 48.3789C137.374 48.1418 137.294 47.9046 137.233 47.6674C137.033 46.9559 136.872 46.284 136.731 45.612C136.269 43.5961 133.638 37.746 130.585 35.0779C128.014 32.8446 123.996 31.8366 121.184 29.7416C110.498 21.7768 94.4686 16.5592 84.2846 16.0058C83.0392 15.9465 80.6891 16.4406 77.9372 17.1719C81.7738 17.6264 86.1326 18.1403 90.3107 18.8715C94.5892 19.6226 98.6467 20.591 101.7 21.9349C103.086 22.5476 103.809 24.109 105.034 24.9786C107.103 26.4213 109.494 27.3502 111.542 28.8325C113.25 30.0776 114.515 31.8366 116.203 33.1015C117.568 34.1094 119.035 34.9395 120.12 36.2242C121.425 37.746 122.008 39.4259 123.032 41.1454C124.659 43.8925 126.306 45.6318 127.451 48.6161C128.074 50.2565 127.752 52.5491 128.034 54.2685V54.2488Z" fill="url(#paint4_radial_284_12852)"/>
<path style="mix-blend-mode:screen" fill-rule="evenodd" clip-rule="evenodd" d="M31.0948 49.4658C27.7403 55.7112 24.9884 62.7471 24.185 69.8028C23.964 71.7001 23.0802 77.5897 26.6757 75.5343C31.1952 72.965 40.0535 66.6603 41.0177 77.1747C41.4395 81.9378 41.9618 94.5669 44.5932 98.0848C47.8874 102.492 55.3798 106.484 66.2668 104.646C69.8423 104.053 73.5784 100.279 73.4378 98.9149C73.2369 96.8397 63.073 97.0966 79.8455 94.0332C80.5084 93.9147 81.1913 93.302 81.2717 92.63C81.3721 91.6813 80.6289 89.8235 79.725 89.4283C79.0219 89.112 78.0377 88.9342 76.9932 88.7761C72.0518 87.9657 70.9671 87.3333 69.9025 83.5386C68.0545 76.8782 67.5323 70.0202 64.0171 63.4784C61.6669 59.1106 56.9666 57.5492 52.8488 58.9722C49.7956 60.0197 44.1312 63.8934 41.0177 63.7353C39.1095 63.6365 38.9488 62.5099 39.0492 61.5218C39.1295 60.5929 39.2099 59.9999 38.8082 59.7035C38.0649 59.1699 35.6545 60.1185 34.7506 60.3952C32.762 61.0474 30.5726 61.4229 29.9499 58.32C29.7088 57.1539 29.8896 55.9286 30.0704 54.7625C30.2311 53.7348 30.673 52.7664 30.9944 51.7782C31.2153 51.1062 31.5166 50.454 31.6572 49.7425C31.6974 49.5251 31.7577 49.2089 31.5568 49.1101C31.376 49.031 31.2153 49.3077 31.1149 49.4856L31.0948 49.4658Z" fill="url(#paint5_radial_284_12852)"/>
<path style="mix-blend-mode:multiply" fill-rule="evenodd" clip-rule="evenodd" d="M126.588 92.9069C125.443 94.7449 123.956 96.4051 123.133 98.4012C122.189 100.674 123.494 103.619 120.461 107.255C119.577 108.323 118.151 108.916 116.785 109.232C110.136 110.734 101.841 110.003 95.7744 115.141C92.1989 118.185 92.5404 123.027 86.0724 125.636C87.7999 126.13 89.2662 126.703 90.1099 127.415C90.9736 128.126 95.5936 134.846 105.034 132.257C107.284 131.644 109.494 130.735 111.442 129.47C114.897 127.217 117.408 122.849 121.947 121.92C122.851 121.742 123.795 122.355 124.699 122.157C126.045 121.861 127.371 121.347 128.456 120.517C130.103 119.232 131.549 117.651 132.714 115.932C135.707 111.445 137.696 105.18 139.805 100.18C140.709 98.0257 141.512 95.7924 142.637 93.737C143.842 91.5432 144.927 90.3771 145.811 89.2111C146.273 86.207 146.514 83.1238 146.514 79.9813C146.514 68.1428 143.099 57.0751 137.213 47.707C137.274 47.9442 137.354 48.1814 137.434 48.4185C137.896 49.8415 138.519 51.225 139.021 52.648C140.749 57.5692 144.625 67.2534 142.195 72.2142C141.251 74.151 139.262 75.0206 139.202 77.7085C139.162 79.4675 139.343 82.3925 138.579 83.4993C136.772 86.1674 133.497 87.3928 129.701 90.3376C129.038 90.8515 127.933 91.8396 126.608 92.9266L126.588 92.9069ZM90.2505 117.77C90.5116 118.778 90.13 119.983 89.4269 120.754C88.5029 121.742 87.0969 122.217 85.7912 122.533C84.6864 122.81 80.7896 122.81 79.8857 122.078C78.6604 121.09 78.5801 117.197 81.5529 116.722C82.7983 116.525 84.0838 116.959 85.3493 116.88C86.3536 116.821 87.3178 116.11 88.3021 116.287C89.1256 116.426 90.0697 116.979 90.2706 117.77H90.2505ZM117.086 101.642C117.589 101.524 118.191 101.682 118.593 102.018C119.477 102.769 119.838 105.319 119.417 105.911C118.653 107.018 115.821 107.75 114.214 107.473C113.832 107.414 113.511 106.959 113.471 106.564C113.29 104.844 114.776 102.216 117.086 101.642Z" fill="url(#paint6_radial_284_12852)"/>
<path style="mix-blend-mode:screen" opacity="0.6" fill-rule="evenodd" clip-rule="evenodd" d="M38.7479 83.1829C39.0291 90.5153 37.8239 96.8002 41.078 104.093C42.8858 108.125 48.1887 109.35 52.2462 109.35C53.9938 109.35 55.661 108.935 57.4085 108.856C59.4574 108.757 64.2581 109.35 64.6599 111.801C65.0817 114.35 64.1979 117.137 65.2424 119.509C65.6642 120.497 66.3472 121.347 67.1305 122.118C70.0632 124.924 71.2483 124.529 75.2054 125.122C77.9172 125.517 86.0523 126.406 88.4025 127.711C91.757 129.588 93.7857 133.284 98.7271 134.925C101.579 135.873 110.96 132.691 113.39 130.339C116.404 127.414 117.709 124.944 120.561 123.778C122.108 123.145 122.952 125.458 126.969 123.363C128.215 122.711 129.52 121.841 130.464 120.813C138.399 112.433 139.383 101.306 144.666 90.6141C144.043 91.4244 143.34 92.3731 142.597 93.717C141.472 95.7725 140.668 97.986 139.764 100.16C137.675 105.16 135.667 111.425 132.674 115.912C131.529 117.651 130.083 119.212 128.415 120.497C127.351 121.327 126.005 121.841 124.659 122.137C123.755 122.335 122.811 121.703 121.907 121.9C117.368 122.829 114.857 127.197 111.402 129.45C109.453 130.715 107.244 131.624 104.994 132.237C95.5735 134.826 90.9334 128.126 90.0697 127.395C87.3781 125.161 78.4595 124.193 74.643 123.205C65.5839 120.853 66.8493 114.014 66.3873 112.216C65.8048 109.943 64.6197 108.738 63.2136 108.026C61.7875 107.295 52.9493 106.524 50.2978 105.318C43.5687 102.235 41.1382 95.7527 40.2142 86.2463C39.933 83.341 39.009 77.9653 38.4265 76.9771C37.0807 74.724 34.4091 73.6567 32.0188 74.2299C30.9542 74.4868 27.7202 76.2656 25.5709 77.3921C24.888 77.7479 23.8836 77.7479 23.281 77.1945C21.9955 75.9889 21.0715 72.6883 20.9309 69.9214C20.8505 70.4155 20.7903 70.8898 20.73 71.3839C20.8104 73.4789 20.9108 76.0284 21.4732 77.7479C22.0156 79.4475 24.4059 80.8508 25.9325 79.7638C27.7001 78.4989 29.0861 76.3446 31.0145 75.1786C31.5367 74.8623 32.1192 74.6845 32.7218 74.6054C37.4824 74.052 38.547 79.9614 38.6876 83.1829H38.7479Z" fill="url(#paint7_radial_284_12852)"/>
<path style="mix-blend-mode:screen" fill-rule="evenodd" clip-rule="evenodd" d="M97.2206 94.0729C96.6984 94.152 96.3971 93.1045 96.4172 92.4918C96.4172 92.0768 96.5778 91.1479 96.7988 90.2388C96.2364 91.7408 95.4932 93.9741 95.8547 95.1995C96.0355 95.8517 97.5621 96.247 98.4861 95.99C100.173 95.5552 101.78 94.8042 103.448 94.2903C104.834 93.8555 108.168 93.2429 109.172 92.7883C109.534 92.6302 109.815 92.3337 110.056 92.0373C110.136 91.9385 110.177 91.7013 110.197 91.4839C110.016 91.9187 109.574 92.2547 109.192 92.3535C107.646 92.6895 105.918 92.6697 104.372 92.9069C101.941 93.2626 98.928 93.816 97.2608 94.0927L97.2206 94.0729Z" fill="url(#paint8_radial_284_12852)"/>
<path style="mix-blend-mode:screen" fill-rule="evenodd" clip-rule="evenodd" d="M42.1024 52.6281C42.6046 54.2487 45.2359 55.1974 46.4813 54.2092C48.3092 52.7664 50.1371 51.3434 52.1659 50.1774C51.724 50.3355 51.2419 50.4343 50.8 50.6517C49.0926 51.462 47.566 52.7467 45.7582 53.2012C45.0551 53.3791 44.2316 52.9838 43.8098 52.4502C42.9059 51.3632 44.0508 49.2682 45.5774 47.8848C44.0307 49.0706 41.6806 51.2446 42.1225 52.6478L42.1024 52.6281Z" fill="url(#paint9_radial_284_12852)"/>
<path style="mix-blend-mode:screen" fill-rule="evenodd" clip-rule="evenodd" d="M63.2538 53.9719C64.3385 55.6518 65.4834 57.1341 66.3271 57.727C66.6083 57.9247 67.1105 57.9444 67.3716 57.727C67.8537 57.312 67.8537 56.5412 68.2554 56.0471C68.4965 55.7507 69.0589 55.7309 69.2196 55.3949C69.3803 55.0392 69.5209 54.6241 69.6414 54.1893C70.0833 52.4699 70.1838 50.2761 70.2038 48.3787C70.0632 49.7029 69.782 50.9876 69.4405 52.2525C69.2598 52.9244 68.9585 53.6952 68.4764 54.1498C68.3358 54.2881 68.1751 54.4067 67.9943 54.466C67.3917 54.7229 66.6083 54.466 66.0258 54.051C65.9254 53.9719 65.8249 53.8929 65.7245 53.8138C63.7359 51.9362 61.7071 49.9006 60.4416 47.3313C60.2408 46.936 60.2207 46.4814 60.301 46.0269C60.1805 46.4814 60.0399 46.9755 60.0801 47.3115C60.2207 48.5962 61.687 51.5212 63.2739 53.9917L63.2538 53.9719Z" fill="url(#paint10_radial_284_12852)"/>
<path style="mix-blend-mode:screen" fill-rule="evenodd" clip-rule="evenodd" d="M73.016 59.0317C72.0117 61.8777 71.4091 64.9214 71.6501 67.0756C71.7505 68.0243 72.2728 68.8741 72.5339 69.7833C72.8955 71.1074 72.8955 72.5304 73.4981 73.7558C75.0247 76.8785 80.2071 77.4911 83.1598 76.2065C84.5057 75.6333 84.7869 74.0127 84.8471 72.6292C84.6663 73.4989 83.883 74.3289 83.0393 74.6056C80.9905 75.2776 76.8928 73.9337 75.8282 72.0759C74.3417 69.4473 73.4981 66.4432 73.0361 63.4786C72.8754 62.3718 72.795 60.6721 73.0361 59.0317H73.016Z" fill="url(#paint11_radial_284_12852)"/>
<path style="mix-blend-mode:screen" fill-rule="evenodd" clip-rule="evenodd" d="M43.8901 32.6665C43.388 33.6943 43.0465 34.5639 42.0823 35.5521C38.8483 38.9119 31.7577 42.5089 31.5769 47.6475C31.5568 48.4578 32.0992 49.2286 32.0389 50.0192C31.9184 51.62 31.356 53.1616 31.0747 54.7427C30.673 57.0353 31.7376 59.9406 34.5698 59.2489C36.1165 58.8734 39.2501 57.8061 39.6518 57.9049C41.1784 58.2805 43.0264 60.1383 44.8945 59.9604C47.8874 59.6639 50.4183 56.9958 52.9292 56.225C58.3928 54.5649 64.0372 60.3161 65.9655 65.5338C68.7978 73.1231 71.7505 82.7678 74.3417 84.4675C75.9085 85.4952 78.7407 86.0881 79.6045 86.6811C82.4166 88.5982 84.1441 94.7249 85.9519 96.899C87.9606 99.3101 90.833 100.377 94.2879 99.4485C97.08 98.6975 102.584 97.5314 104.372 97.314C109.293 96.7211 118.754 97.6302 121.044 96.5827C124.579 94.9423 128.154 91.4837 129.621 90.3571C133.437 87.4123 136.691 86.2067 138.499 83.5189C139.262 82.3923 139.061 79.487 139.122 77.7281C139.202 75.0402 141.171 74.1706 142.115 72.2337C144.565 67.273 140.668 57.5887 138.941 52.6675C138.439 51.2445 137.816 49.8808 137.354 48.4381C137.033 47.4696 136.832 46.5605 136.631 45.6711C136.169 43.6552 133.538 37.8051 130.484 35.137C127.913 32.9037 123.896 31.8958 121.084 29.8008C110.498 21.7767 94.4687 16.559 84.2847 16.0056C81.2315 15.8475 71.5898 19.0493 65.5839 20.8873C59.3168 22.8044 52.9493 24.682 47.6665 28.2987C45.9792 29.4648 44.794 30.8285 43.8901 32.6665ZM25.6513 77.4316C24.9684 77.7873 23.964 77.7873 23.3614 77.234C22.0759 76.0284 21.1519 72.7278 21.0113 69.9609C20.489 73.2219 20.4086 76.5818 20.2078 79.9811C19.7056 88.5389 20.2881 95.555 21.0514 98.1638C21.9955 101.405 26.274 108.56 33.0232 117.77C37.7235 124.193 45.0753 132.375 48.249 133.976C53.1502 136.427 71.8911 142 84.124 142C89.0855 142 94.2277 141.704 99.1891 140.913C104.412 140.083 111.844 138.482 114.094 137.296C119.055 134.687 127.371 127.059 132.714 120.556C136.751 115.655 143.661 106.761 144.284 105.081C145.148 102.749 147.659 90.4757 148 82.8864C147.397 89.1713 145.329 88.8946 142.657 93.7763C141.532 95.8317 140.729 98.0453 139.825 100.219C137.736 105.22 135.727 111.485 132.734 115.971C131.589 117.71 130.143 119.272 128.476 120.556C127.411 121.386 126.065 121.9 124.719 122.197C123.816 122.394 122.871 121.762 121.968 121.959C117.428 122.888 114.917 127.256 111.462 129.509C109.514 130.774 107.304 131.683 105.054 132.296C95.6338 134.885 90.9937 128.185 90.13 127.454C87.4383 125.221 78.5198 124.252 74.7033 123.264C65.6441 120.912 66.9096 114.074 66.4476 112.275C65.8651 110.002 64.68 108.797 63.2739 108.085C61.8477 107.354 53.0095 106.583 50.3581 105.378C43.629 102.294 41.1985 95.812 40.2745 86.3056C39.9933 83.4003 39.0693 78.0245 38.4868 77.0363C37.141 74.7832 34.4694 73.716 32.0791 74.2891C31.0145 74.5461 27.7805 76.3248 25.6312 77.4514L25.6513 77.4316ZM97.6023 88.1634C97.0398 88.6574 96.4171 91.6418 96.4171 92.4916C96.4171 93.1241 96.7184 94.1716 97.2206 94.0727C98.8878 93.796 101.901 93.2427 104.331 92.8869C105.878 92.6695 107.606 92.6695 109.152 92.3335C109.614 92.2347 110.116 91.7999 110.237 91.2465C110.377 90.5548 108.509 88.1634 107.746 87.8471C105.436 86.8787 99.5105 86.4439 97.6023 88.1436V88.1634ZM76.3906 54.466C72.7951 54.723 72.6344 60.8498 73.0361 63.4981C73.4981 66.4824 74.3417 69.4668 75.8282 72.0954C76.8727 73.9532 80.9905 75.2971 83.0393 74.6251C83.9432 74.3287 84.807 73.38 84.8873 72.4313C85.0882 70.1585 83.7825 67.9647 83.8227 65.6919C83.8428 63.3795 85.5502 58.2607 84.3851 57.233C82.3162 55.3752 78.9014 54.2882 76.4107 54.466H76.3906ZM63.8162 43.2204C62.8119 43.26 61.7071 43.5564 61.0242 44.3667C60.4216 45.098 59.9596 46.4222 60.4015 47.3115C61.667 49.8611 63.6957 51.9165 65.6843 53.7941C66.2869 54.3672 67.231 54.7427 67.9541 54.4463C68.7174 54.1301 69.1593 53.1221 69.4004 52.2327C69.9226 50.1971 70.3846 48.0626 70.1838 45.9281C70.1034 45.098 69.3602 44.347 68.6773 44.0505C67.1306 43.3983 65.4232 43.1611 63.7962 43.2402L63.8162 43.2204ZM47.8673 46.5605C45.6377 46.9755 42.4439 50.8097 43.7897 52.4304C44.2316 52.964 45.0552 53.379 45.7381 53.1814C47.5459 52.7071 49.0725 51.4224 50.7799 50.6319C51.4227 50.3354 52.1458 50.2761 52.7484 49.8808C53.7728 49.1891 53.3108 47.2522 52.6279 46.9755C51.1816 46.3826 49.4542 46.2641 47.8874 46.5605H47.8673Z" fill="url(#paint12_radial_284_12852)"/>
</g>
<defs>
<filter id="filter0_d_284_12852" x="0" y="0" width="168" height="166" filterUnits="userSpaceOnUse" color-interpolation-filters="sRGB">
<feFlood flood-opacity="0" result="BackgroundImageFix"/>
<feColorMatrix in="SourceAlpha" type="matrix" values="0 0 0 0 0 0 0 0 0 0 0 0 0 0 0 0 0 0 127 0" result="hardAlpha"/>
<feOffset dy="4"/>
<feGaussianBlur stdDeviation="10"/>
<feComposite in2="hardAlpha" operator="out"/>
<feColorMatrix type="matrix" values="0 0 0 0 0 0 0 0 0 0 0 0 0 0 0 0 0 0 0.25 0"/>
<feBlend mode="normal" in2="BackgroundImageFix" result="effect1_dropShadow_284_12852"/>
<feBlend mode="normal" in="SourceGraphic" in2="effect1_dropShadow_284_12852" result="shape"/>
</filter>
<linearGradient id="paint0_linear_284_12852" x1="21.0112" y1="95.5351" x2="147.98" y2="95.5351" gradientUnits="userSpaceOnUse">
<stop stop-color="#4F309E"/>
<stop offset="0.33" stop-color="#47298F"/>
<stop offset="1" stop-color="#391D77"/>
</linearGradient>
<radialGradient id="paint1_radial_284_12852" cx="0" cy="0" r="1" gradientUnits="userSpaceOnUse" gradientTransform="translate(61.5063 52.3909) scale(101.88 100.242)">
<stop stop-color="#71F5FF"/>
<stop offset="0.13" stop-color="#69E8FF"/>
<stop offset="0.36" stop-color="#56C8FF"/>
<stop offset="0.38" stop-color="#54C5FF"/>
<stop offset="0.92" stop-color="#1483FF"/>
</radialGradient>
<radialGradient id="paint2_radial_284_12852" cx="0" cy="0" r="1" gradientUnits="userSpaceOnUse" gradientTransform="translate(65.3027 50.4342) scale(100.715 99.0958)">
<stop stop-color="#7A369E"/>
<stop offset="0.23" stop-color="#6D349E"/>
<stop offset="0.63" stop-color="#4F309E"/>
<stop offset="1" stop-color="#33128A"/>
</radialGradient>
<radialGradient id="paint3_radial_284_12852" cx="0" cy="0" r="1" gradientUnits="userSpaceOnUse" gradientTransform="translate(40.5155 25.0577) scale(89.3662 87.9292)">
<stop stop-color="#8D6EFF"/>
<stop offset="1"/>
</radialGradient>
<radialGradient id="paint4_radial_284_12852" cx="0" cy="0" r="1" gradientUnits="userSpaceOnUse" gradientTransform="translate(68.2554 62.0555) scale(105.516 103.819)">
<stop offset="0.45" stop-color="white"/>
<stop offset="0.5" stop-color="#F8F3F8"/>
<stop offset="0.58" stop-color="#E6D6E8"/>
<stop offset="0.69" stop-color="#C9A6CD"/>
<stop offset="0.83" stop-color="#A263A7"/>
<stop offset="0.97" stop-color="#700F78"/>
<stop offset="1" stop-color="#670070"/>
</radialGradient>
<radialGradient id="paint5_radial_284_12852" cx="0" cy="0" r="1" gradientUnits="userSpaceOnUse" gradientTransform="translate(48.3092 44.5446) scale(80.1665 78.8774)">
<stop stop-color="#91FBFF"/>
<stop offset="1"/>
</radialGradient>
<radialGradient id="paint6_radial_284_12852" cx="0" cy="0" r="1" gradientUnits="userSpaceOnUse" gradientTransform="translate(75.2858 63.5181) scale(100.072 98.4633)">
<stop offset="0.33" stop-color="white"/>
<stop offset="0.4" stop-color="#F3FAFA"/>
<stop offset="0.52" stop-color="#D6EDEC"/>
<stop offset="0.68" stop-color="#A6D9D6"/>
<stop offset="0.87" stop-color="#64BDB9"/>
<stop offset="1" stop-color="#35AAA4"/>
</radialGradient>
<radialGradient id="paint7_radial_284_12852" cx="0" cy="0" r="1" gradientUnits="userSpaceOnUse" gradientTransform="translate(57.6697 82.5702) scale(118.09 116.192)">
<stop stop-color="#00E1FF"/>
<stop offset="1"/>
</radialGradient>
<radialGradient id="paint8_radial_284_12852" cx="0" cy="0" r="1" gradientUnits="userSpaceOnUse" gradientTransform="translate(98.7874 90.0016) scale(12.3534 12.1547)">
<stop stop-color="#00E1FF"/>
<stop offset="1"/>
</radialGradient>
<radialGradient id="paint9_radial_284_12852" cx="0" cy="0" r="1" gradientUnits="userSpaceOnUse" gradientTransform="translate(39.4308 53.0827) scale(14.2817 14.0521)">
<stop stop-color="#00E1FF"/>
<stop offset="1"/>
</radialGradient>
<radialGradient id="paint10_radial_284_12852" cx="0" cy="0" r="1" gradientUnits="userSpaceOnUse" gradientTransform="translate(65.4834 49.1693) scale(13.2573 13.0441)">
<stop stop-color="#00E1FF"/>
<stop offset="1"/>
</radialGradient>
<radialGradient id="paint11_radial_284_12852" cx="0" cy="0" r="1" gradientUnits="userSpaceOnUse" gradientTransform="translate(81.4123 66.7396) scale(14.1009 13.8742)">
<stop stop-color="#00E1FF"/>
<stop offset="1"/>
</radialGradient>
<radialGradient id="paint12_radial_284_12852" cx="0" cy="0" r="1" gradientUnits="userSpaceOnUse" gradientTransform="translate(107.887 95.5353) scale(95.3521 93.8189)">
<stop offset="0.04"/>
<stop offset="0.84"/>
<stop offset="0.85" stop-color="#0E0915"/>
<stop offset="0.9" stop-color="#442E67"/>
<stop offset="0.93" stop-color="#6F4CA8"/>
<stop offset="0.96" stop-color="#8E61D7"/>
<stop offset="0.99" stop-color="#A16EF4"/>
<stop offset="1" stop-color="#A973FF"/>
</radialGradient>
</defs>
</svg>
