<svg width="226" height="144" viewBox="0 0 226 144" fill="none" xmlns="http://www.w3.org/2000/svg">
<g filter="url(#filter0_d_284_13047)">
<path fill-rule="evenodd" clip-rule="evenodd" d="M63.3636 55.4294C64.1162 54.0434 66.0074 52.8883 66.8372 52.8306L70.2529 81.129C64.0197 76.1623 61.7426 70.8107 61.897 64.4772C61.9548 61.6666 62.1671 58.1245 63.3636 55.4294Z" fill="#6C6C2E"/>
<path fill-rule="evenodd" clip-rule="evenodd" d="M66.0267 89.6956C64.8495 84.5942 67.474 82.8809 72.7616 81.6488C95.6101 76.3164 165.564 72.37 155.009 95.3168C154.41 96.6066 153.484 97.7424 152.519 98.8012C151.11 100.322 149.432 101.573 147.907 102.979C136.888 113.335 126.525 116.3 110.971 113.566C100.203 111.661 68.767 101.612 66.0267 89.6956Z" fill="#6C6C2E"/>
<path fill-rule="evenodd" clip-rule="evenodd" d="M162.631 63.3223C162.052 61.378 160.856 59.3951 159.061 57.5086C144.8 42.3391 99.2766 20.8169 83.7805 25.4563C72.144 34.9468 70.851 43.2631 74.6334 51.3291C90.5154 85.2487 163.461 99.7637 162.631 63.3223Z" fill="#6C6C2E"/>
<path fill-rule="evenodd" clip-rule="evenodd" d="M112.187 18.603C139.339 18.603 161.357 40.568 161.357 67.6536C161.357 94.7393 139.339 116.704 112.187 116.704C85.0349 116.704 63.0162 94.7393 63.0162 67.6536C63.0162 40.568 85.0156 18.603 112.187 18.603Z" fill="url(#paint0_radial_284_13047)"/>
<path fill-rule="evenodd" clip-rule="evenodd" d="M88.7015 22.3376C87.9103 22.7996 87.2541 23.4349 86.598 24.0894C86.3664 24.3204 86.1542 24.6285 86.0577 24.9557C85.9998 25.1675 86.0963 25.3985 86.1928 25.5717C86.3472 25.8412 86.6752 25.976 86.8296 26.2455C86.9261 26.4188 86.984 26.669 86.8682 26.823C86.3665 27.4775 85.6717 27.9781 85.0928 28.5748C84.1665 29.5181 83.1437 30.4036 82.3525 31.4624C81.6385 32.425 80.2491 35.9478 80.7894 37.1606C81.0596 37.7574 81.4841 38.3157 82.0245 38.6814C83.1244 39.4129 85.7296 39.7787 87.2927 40.7412C88.2769 41.3573 89.1646 42.1465 89.9751 42.9936C90.6313 43.6866 90.9207 44.6876 91.6154 45.3229C93.2943 46.8629 95.282 48.5377 97.5398 49.0575C99.0837 49.404 100.743 49.404 102.191 50.0393C103.503 50.6361 104.506 51.7526 105.606 52.6574C109.968 56.2765 111.685 59.3373 118.073 58.3941C120.929 57.9705 123.65 55.7375 126.178 54.4092C129.806 52.5034 130.23 53.4851 133.588 53.1386C134.437 53.0424 135.344 52.9846 136.058 52.5226C138.451 50.9633 139.126 48.634 140.748 46.7474C141.404 45.9967 142.214 45.3806 143.005 44.7839C144.105 43.9753 145.495 43.4941 146.46 42.5315C148.216 40.7797 145.784 36.2943 145.167 34.6003C145.032 34.2345 144.993 33.811 145.032 33.4067C145.051 33.0602 145.089 32.6752 145.302 32.4057C145.707 31.8667 146.749 31.6934 146.942 31.4624C147.077 31.3277 147.135 31.0774 147.058 30.9042C146.903 30.4806 146.653 30.0571 146.325 29.7491C145.012 28.5363 143.623 27.3813 142.176 26.3418C139.976 24.7632 137.698 23.2617 135.344 21.9141C133.839 21.0478 132.295 20.2586 130.655 19.7003C128.802 19.065 126.834 18.7763 124.943 18.3142C122.974 17.8137 121.025 17.1207 119.018 16.7934C117.995 16.6394 116.953 16.8897 115.931 16.8705C114.908 16.8512 113.904 16.7934 112.882 16.6587C111.569 16.5047 109.755 15.9464 108.983 16.0042C108.308 16.0427 104.989 17.0052 102.982 17.448C101.457 17.7752 99.8749 17.833 98.3697 18.2757C96.5943 18.7955 94.9154 19.5655 93.2365 20.2778C91.7119 20.9323 90.1488 21.5291 88.7208 22.3569L88.7015 22.3376ZM153.079 37.2184C152.519 36.5446 151.882 35.9478 151.207 35.3703C150.975 35.1778 149.103 34.0805 149.451 35.2741C149.972 37.0259 151.014 38.8932 151.593 40.8952C152.037 42.3968 151.94 43.5326 150.512 44.3411C149.007 45.1881 147.675 45.2074 146.981 47.0939C146.228 49.1153 145.746 51.2328 144.974 53.2541C143.951 55.8915 143.14 56.3342 141.693 58.2208C141.442 58.5481 141.133 58.8753 141.076 59.2796C140.921 60.4539 142.812 62.6292 143.874 62.9757C145.939 63.6302 148.409 63.0912 150.416 62.4367C152.307 61.8207 153.04 60.4346 154.41 59.7223C155.858 58.9716 159.138 59.7608 160.045 58.4518C160.586 57.6625 160.682 56.6423 160.779 55.699C161.01 53.6777 160.547 51.8103 160.528 49.866C160.528 49.5195 159.563 48.2105 159.177 47.3249C158.791 46.4394 158.289 44.7454 158.193 44.5721C157.807 43.9368 157.286 43.3978 156.919 42.7625C156.707 42.3968 156.668 41.9348 156.417 41.569C155.394 40.0675 154.275 38.6044 153.098 37.1991L153.079 37.2184ZM83.7806 25.4562C82.0052 27.3043 80.3649 31.1352 79.5351 31.6934C77.6439 33.0025 76.3895 33.4067 75.4246 35.9478C75.1931 36.5446 75.0194 37.1606 75.0194 37.7959C75.0194 38.0654 75.2124 38.3157 75.4246 38.4697C77.007 39.6632 77.3351 39.6824 76.9877 41.0877C76.8334 41.6845 76.7176 42.3198 76.7176 42.9358C76.7176 43.2053 76.7755 43.5133 76.9685 43.6866C77.2 43.9176 77.5667 44.0331 77.8947 44.0523C78.8982 44.1486 79.9017 43.9368 80.9052 44.0331C82.0438 44.1293 82.3332 44.8416 82.835 45.7271C83.2016 46.3624 83.4139 47.0747 83.8191 47.6907C84.1086 48.1335 84.6297 48.4222 84.8805 48.8842C85.6331 50.2318 86.077 51.7718 86.8489 53.1194C87.0998 53.5429 87.4664 53.9279 87.9103 54.1397C88.5085 54.4092 89.2225 54.2937 89.84 54.5054C90.4576 54.7172 91.0944 54.9289 91.5768 55.3717C92.3681 56.1032 92.7926 57.1813 93.5452 57.9513C94.6066 59.0293 95.7452 60.0496 96.9995 60.8581C97.5784 61.2239 98.2925 61.3202 98.9679 61.4742C99.9135 61.6859 100.917 61.6667 101.843 61.9169C102.499 62.0902 103.155 62.3404 103.696 62.7447C104.757 63.5147 105.703 64.4388 106.571 65.4205C107.922 66.9028 108.829 68.7894 110.354 70.0984C111.454 71.0417 112.862 71.6 114.252 72.0235C115.988 72.5625 117.822 72.8513 119.636 72.9283C120.832 72.986 122.048 72.832 123.167 72.4278C125.502 71.6 127.586 70.1177 129.921 69.2707C131.292 68.7701 132.778 68.5391 134.244 68.4044C135.865 68.2696 137.525 68.2889 139.146 68.4814C140.497 68.6546 141.809 69.0782 143.102 69.5017C145.533 70.3294 147.849 71.446 150.3 72.2545C151.67 72.6973 153.059 73.1978 154.488 73.2363C155.259 73.2555 156.051 72.909 156.63 72.4085C158.501 70.83 158.694 69.5594 159.524 67.5766C159.717 67.1338 159.929 66.6911 160.18 66.2868C160.335 66.0366 160.489 65.7478 160.74 65.5938C161.01 65.4398 161.435 65.6515 161.801 65.4975C162.515 65.1703 162.67 64.2847 162.612 63.303C163.133 64.612 162.979 69.0974 163.094 70.3679C163.21 71.7732 163.731 73.7561 163.828 74.5453C163.866 74.8726 162.631 76.8939 162.264 78.1645C161.743 79.897 161.801 81.7836 161.203 83.4969C160.759 84.7867 159.814 85.8455 159.138 87.0197C158.579 88.0208 158.154 89.0988 157.537 90.0613C154.854 94.2195 151.824 94.72 147.251 93.95C141.056 92.9297 137.737 92.5447 131.292 92.6409C120.755 92.7949 118.266 94.9125 109.697 97.4343C107.71 98.0311 105.645 98.3776 103.561 98.4931C98.9486 98.7626 94.6259 97.0686 90.4383 95.259C86.9068 93.7382 82.9893 91.2164 80.5192 88.2518C79.2456 86.7117 78.5123 84.8059 77.4702 83.1311C76.3702 81.3601 75.3667 79.5312 74.0931 77.8757C72.8966 76.3164 71.43 74.9688 70.0984 73.525C69.4423 72.8128 68.6897 72.1775 68.1301 71.3882C67.5897 70.6375 67.0494 69.8482 66.8178 68.9627C66.0459 65.9596 65.4284 61.5319 65.4284 58.3748C65.4284 57.0273 65.8722 55.853 65.5056 54.4284C65.2354 53.3889 64.367 52.9654 64.6372 51.1558C64.8302 49.9238 65.4477 48.788 65.7565 47.5945C66.0073 46.5742 65.8915 45.4769 66.2968 44.5144C66.895 43.0898 67.8985 41.8963 68.6897 40.568C68.9985 40.0482 69.3458 39.5669 69.5967 39.0087C69.9634 38.1809 70.1949 37.6419 70.7739 36.9296C71.1212 36.4868 71.6809 36.2558 72.1054 35.8901C73.0703 35.0238 73.6492 33.811 74.5369 32.8485C75.1159 32.2132 75.8685 31.7512 76.4667 31.1159C76.9492 30.6154 77.2386 29.9416 77.7404 29.4796C79.1298 28.2091 80.7701 27.2273 83.742 25.4177L83.7806 25.4562ZM119.095 98.3006C117.841 98.0504 116.915 97.9926 115.66 98.4161C113.962 98.9936 111.859 99.9754 110.315 100.976C109.003 101.843 108.192 102.863 109.524 104.422C112.013 107.329 118.883 109.081 124.036 108.041C126.583 107.522 129.458 106.039 131.89 105.674C133.163 105.481 134.456 105.866 135.73 105.654C136.753 105.481 137.718 105 138.663 104.576C140.284 103.845 143.97 101.881 144.607 99.9947C144.761 99.4942 144.684 98.9166 144.472 98.4354C144.318 98.0889 143.97 97.8578 143.623 97.7423C140.883 96.7606 136.965 96.2793 134.07 96.1445C132.99 96.0868 131.871 96.1445 130.809 96.414C130.307 96.5296 128.204 98.1466 127.085 98.5509C123.688 99.7444 122.376 98.9359 119.115 98.3199L119.095 98.3006ZM66.0459 89.1951C66.0459 89.1951 68.516 92.6024 71.6809 94.104C72.6843 94.5852 73.7264 94.9895 74.7878 95.3745C76.7176 96.0868 78.6474 96.7991 80.635 97.3573C82.7964 97.9733 85.0542 98.1851 87.177 98.8781C88.2383 99.2246 89.0102 100.495 90.1295 100.476C90.9207 100.476 94.2399 100.437 97.8293 101.862C103.638 104.172 107.883 106.944 113.21 109.447C114.58 110.082 116.008 110.602 117.494 110.929C118.787 111.218 120.118 111.333 121.45 111.256C122.82 111.179 124.132 110.717 125.483 110.429C127.143 110.082 128.821 109.793 130.462 109.37C131.137 109.196 131.716 108.696 132.392 108.638C133.144 108.561 133.897 108.888 134.649 108.927C135.672 108.985 136.734 109.139 137.737 108.927C138.683 108.734 139.57 108.253 140.362 107.733C141.423 107.04 142.291 106.097 143.276 105.308C144.704 104.172 146.151 103.075 147.598 101.939C148.795 101.015 150.03 100.129 151.168 99.1476C152.674 97.8578 153.503 96.5488 154.796 95.2013C155.259 94.7007 155.105 95.2013 155.047 95.3168C154.159 96.8761 153.021 99.1284 151.998 100.495C151.535 101.092 150.879 101.496 150.358 102.054C146.074 106.617 140.381 112.835 134.244 114.856C133.974 114.952 131.697 115.145 130.462 115.511C128.899 115.973 127.471 116.762 125.946 117.32C123.418 118.244 120.948 119.438 118.304 119.938C116.567 120.266 111.473 119.188 109.254 119.111C107.169 119.034 103.329 119.419 103.001 119.284C100.724 118.341 97.1732 116.723 94.2013 115.588C93.275 115.241 91.3839 114.76 91.2102 114.664C89.7629 113.817 88.5278 112.931 87.0419 112.142C85.1507 111.122 82.9893 110.621 81.1947 109.427C79.4965 108.311 78.0877 106.771 76.679 105.327C74.2089 102.805 71.5651 100.399 69.5195 97.5306C68.1301 95.5863 67.3968 93.2377 66.4898 91.0239C66.2389 90.4271 65.8915 89.1566 66.0845 89.1566L66.0459 89.1951ZM63.3828 55.4487C62.0513 57.7588 61.1829 61.0121 60.8355 63.0142C60.6811 63.9575 60.9513 64.92 60.9127 65.8826C60.8741 66.9606 60.5461 68.0386 60.5847 69.1167C60.6619 71.138 60.8741 73.1593 61.2408 75.1421C61.646 77.3174 62.0899 79.512 62.939 81.5333C63.1513 82.0338 63.9039 82.0338 64.2898 82.4188C65.0617 83.1696 65.7951 83.9781 66.3933 84.8829C67.088 85.9225 67.3582 87.2507 68.1687 88.2133C68.7669 88.9063 69.6353 89.3106 70.4651 89.6956C71.0826 89.9843 71.8352 90.4849 72.4335 90.1961C73.0896 89.8688 73.437 88.9641 73.4563 88.2325C73.4756 87.1545 72.8387 86.192 72.5493 85.1524C72.1633 83.7856 72.1247 82.2841 71.43 81.052C70.6774 79.7045 69.3072 78.7805 68.3038 77.6062C67.7827 76.9902 67.1652 76.4126 66.8178 75.6811C66.0459 74.0833 65.6214 72.3315 64.9652 70.676C64.5407 69.5787 63.7495 68.5969 63.5758 67.4419C63.267 65.613 63.9618 64.4965 63.9425 62.6484C63.9232 60.3961 62.2443 58.3556 63.3442 55.4872L63.3828 55.4487Z" fill="url(#paint1_radial_284_13047)"/>
<path style="mix-blend-mode:screen" fill-rule="evenodd" clip-rule="evenodd" d="M88.7015 22.3376C87.9103 22.7996 87.2541 23.4349 86.598 24.0894C86.3664 24.3204 86.1542 24.6285 86.0577 24.9557C85.9998 25.1675 86.0963 25.3985 86.1928 25.5717C86.3472 25.8412 86.6752 25.976 86.8296 26.2455C86.9261 26.4188 86.984 26.669 86.8682 26.823C86.3665 27.4775 85.6717 27.9781 85.0928 28.5748C84.1665 29.5181 83.1437 30.4036 82.3525 31.4624C81.6385 32.425 80.2491 35.9478 80.7894 37.1606C81.0596 37.7574 81.4841 38.3157 82.0245 38.6814C83.1244 39.4129 85.7296 39.7787 87.2927 40.7412C88.2769 41.3573 89.1646 42.1465 89.9751 42.9936C90.6313 43.6866 90.9207 44.6876 91.6154 45.3229C93.2943 46.8629 95.282 48.5377 97.5398 49.0575C99.0837 49.404 100.743 49.404 102.191 50.0393C103.503 50.6361 104.506 51.7526 105.606 52.6574C109.968 56.2765 111.685 59.3373 118.073 58.3941C120.929 57.9705 123.65 55.7375 126.178 54.4092C129.806 52.5034 130.23 53.4851 133.588 53.1386C134.437 53.0424 135.344 52.9846 136.058 52.5226C138.451 50.9633 139.126 48.634 140.748 46.7474C141.404 45.9967 142.214 45.3806 143.005 44.7839C144.105 43.9753 145.495 43.4941 146.46 42.5315C148.216 40.7797 145.784 36.2943 145.167 34.6003C145.032 34.2345 144.993 33.811 145.032 33.4067C145.051 33.0602 145.089 32.6752 145.302 32.4057C145.707 31.8667 146.749 31.6934 146.942 31.4624C147.077 31.3277 147.135 31.0774 147.058 30.9042C146.903 30.4806 146.653 30.0571 146.325 29.7491C145.012 28.5363 143.623 27.3813 142.176 26.3418C139.976 24.7632 137.698 23.2617 135.344 21.9141C133.839 21.0478 132.295 20.2586 130.655 19.7003C128.802 19.065 126.834 18.7763 124.943 18.3142C122.974 17.8137 121.025 17.1207 119.018 16.7934C117.995 16.6394 116.953 16.8897 115.931 16.8705C114.908 16.8512 113.904 16.7934 112.882 16.6587C111.569 16.5047 109.755 15.9464 108.983 16.0042C108.308 16.0427 104.989 17.0052 102.982 17.448C101.457 17.7752 99.8749 17.833 98.3697 18.2757C96.5943 18.7955 94.9154 19.5655 93.2365 20.2778C91.7119 20.9323 90.1488 21.5291 88.7208 22.3569L88.7015 22.3376ZM153.079 37.2184C152.519 36.5446 151.882 35.9478 151.207 35.3703C150.975 35.1778 149.103 34.0805 149.451 35.2741C149.972 37.0259 151.014 38.8932 151.593 40.8952C152.037 42.3968 151.94 43.5326 150.512 44.3411C149.007 45.1881 147.675 45.2074 146.981 47.0939C146.228 49.1153 145.746 51.2328 144.974 53.2541C143.951 55.8915 143.14 56.3342 141.693 58.2208C141.442 58.5481 141.133 58.8753 141.076 59.2796C140.921 60.4539 142.812 62.6292 143.874 62.9757C145.939 63.6302 148.409 63.0912 150.416 62.4367C152.307 61.8207 153.04 60.4346 154.41 59.7223C155.858 58.9716 159.138 59.7608 160.045 58.4518C160.586 57.6625 160.682 56.6423 160.779 55.699C161.01 53.6777 160.547 51.8103 160.528 49.866C160.528 49.5195 159.563 48.2105 159.177 47.3249C158.791 46.4394 158.289 44.7454 158.193 44.5721C157.807 43.9368 157.286 43.3978 156.919 42.7625C156.707 42.3968 156.668 41.9348 156.417 41.569C155.394 40.0675 154.275 38.6044 153.098 37.1991L153.079 37.2184ZM83.7806 25.4562C82.0052 27.3043 80.3649 31.1352 79.5351 31.6934C77.6439 33.0025 76.3895 33.4067 75.4246 35.9478C75.1931 36.5446 75.0194 37.1606 75.0194 37.7959C75.0194 38.0654 75.2124 38.3157 75.4246 38.4697C77.007 39.6632 77.3351 39.6824 76.9877 41.0877C76.8334 41.6845 76.7176 42.3198 76.7176 42.9358C76.7176 43.2053 76.7755 43.5133 76.9685 43.6866C77.2 43.9176 77.5667 44.0331 77.8947 44.0523C78.8982 44.1486 79.9017 43.9368 80.9052 44.0331C82.0438 44.1293 82.3332 44.8416 82.835 45.7271C83.2016 46.3624 83.4139 47.0747 83.8191 47.6907C84.1086 48.1335 84.6297 48.4222 84.8805 48.8842C85.6331 50.2318 86.077 51.7718 86.8489 53.1194C87.0998 53.5429 87.4664 53.9279 87.9103 54.1397C88.5085 54.4092 89.2225 54.2937 89.84 54.5054C90.4576 54.7172 91.0944 54.9289 91.5768 55.3717C92.3681 56.1032 92.7926 57.1813 93.5452 57.9513C94.6066 59.0293 95.7452 60.0496 96.9995 60.8581C97.5784 61.2239 98.2925 61.3202 98.9679 61.4742C99.9135 61.6859 100.917 61.6667 101.843 61.9169C102.499 62.0902 103.155 62.3404 103.696 62.7447C104.757 63.5147 105.703 64.4388 106.571 65.4205C107.922 66.9028 108.829 68.7894 110.354 70.0984C111.454 71.0417 112.862 71.6 114.252 72.0235C115.988 72.5625 117.822 72.8513 119.636 72.9283C120.832 72.986 122.048 72.832 123.167 72.4278C125.502 71.6 127.586 70.1177 129.921 69.2707C131.292 68.7701 132.778 68.5391 134.244 68.4044C135.865 68.2696 137.525 68.2889 139.146 68.4814C140.497 68.6546 141.809 69.0782 143.102 69.5017C145.533 70.3294 147.849 71.446 150.3 72.2545C151.67 72.6973 153.059 73.1978 154.488 73.2363C155.259 73.2555 156.051 72.909 156.63 72.4085C158.501 70.83 158.694 69.5594 159.524 67.5766C159.717 67.1338 159.929 66.6911 160.18 66.2868C160.335 66.0366 160.489 65.7478 160.74 65.5938C161.01 65.4398 161.435 65.6515 161.801 65.4975C162.515 65.1703 162.67 64.2847 162.612 63.303C163.133 64.612 162.979 69.0974 163.094 70.3679C163.21 71.7732 163.731 73.7561 163.828 74.5453C163.866 74.8726 162.631 76.8939 162.264 78.1645C161.743 79.897 161.801 81.7836 161.203 83.4969C160.759 84.7867 159.814 85.8455 159.138 87.0197C158.579 88.0208 158.154 89.0988 157.537 90.0613C154.854 94.2195 151.824 94.72 147.251 93.95C141.056 92.9297 137.737 92.5447 131.292 92.6409C120.755 92.7949 118.266 94.9125 109.697 97.4343C107.71 98.0311 105.645 98.3776 103.561 98.4931C98.9486 98.7626 94.6259 97.0686 90.4383 95.259C86.9068 93.7382 82.9893 91.2164 80.5192 88.2518C79.2456 86.7117 78.5123 84.8059 77.4702 83.1311C76.3702 81.3601 75.3667 79.5312 74.0931 77.8757C72.8966 76.3164 71.43 74.9688 70.0984 73.525C69.4423 72.8128 68.6897 72.1775 68.1301 71.3882C67.5897 70.6375 67.0494 69.8482 66.8178 68.9627C66.0459 65.9596 65.4284 61.5319 65.4284 58.3748C65.4284 57.0273 65.8722 55.853 65.5056 54.4284C65.2354 53.3889 64.367 52.9654 64.6372 51.1558C64.8302 49.9238 65.4477 48.788 65.7565 47.5945C66.0073 46.5742 65.8915 45.4769 66.2968 44.5144C66.895 43.0898 67.8985 41.8963 68.6897 40.568C68.9985 40.0482 69.3458 39.5669 69.5967 39.0087C69.9634 38.1809 70.1949 37.6419 70.7739 36.9296C71.1212 36.4868 71.6809 36.2558 72.1054 35.8901C73.0703 35.0238 73.6492 33.811 74.5369 32.8485C75.1159 32.2132 75.8685 31.7512 76.4667 31.1159C76.9492 30.6154 77.2386 29.9416 77.7404 29.4796C79.1298 28.2091 80.7701 27.2273 83.742 25.4177L83.7806 25.4562ZM119.095 98.3006C117.841 98.0504 116.915 97.9926 115.66 98.4161C113.962 98.9936 111.859 99.9754 110.315 100.976C109.003 101.843 108.192 102.863 109.524 104.422C112.013 107.329 118.883 109.081 124.036 108.041C126.583 107.522 129.458 106.039 131.89 105.674C133.163 105.481 134.456 105.866 135.73 105.654C136.753 105.481 137.718 105 138.663 104.576C140.284 103.845 143.97 101.881 144.607 99.9947C144.761 99.4942 144.684 98.9166 144.472 98.4354C144.318 98.0889 143.97 97.8578 143.623 97.7423C140.883 96.7606 136.965 96.2793 134.07 96.1445C132.99 96.0868 131.871 96.1445 130.809 96.414C130.307 96.5296 128.204 98.1466 127.085 98.5509C123.688 99.7444 122.376 98.9359 119.115 98.3199L119.095 98.3006ZM66.0459 89.1951C66.0459 89.1951 68.516 92.6024 71.6809 94.104C72.6843 94.5852 73.7264 94.9895 74.7878 95.3745C76.7176 96.0868 78.6474 96.7991 80.635 97.3573C82.7964 97.9733 85.0542 98.1851 87.177 98.8781C88.2383 99.2246 89.0102 100.495 90.1295 100.476C90.9207 100.476 94.2399 100.437 97.8293 101.862C103.638 104.172 107.883 106.944 113.21 109.447C114.58 110.082 116.008 110.602 117.494 110.929C118.787 111.218 120.118 111.333 121.45 111.256C122.82 111.179 124.132 110.717 125.483 110.429C127.143 110.082 128.821 109.793 130.462 109.37C131.137 109.196 131.716 108.696 132.392 108.638C133.144 108.561 133.897 108.888 134.649 108.927C135.672 108.985 136.734 109.139 137.737 108.927C138.683 108.734 139.57 108.253 140.362 107.733C141.423 107.04 142.291 106.097 143.276 105.308C144.704 104.172 146.151 103.075 147.598 101.939C148.795 101.015 150.03 100.129 151.168 99.1476C152.674 97.8578 153.503 96.5488 154.796 95.2013C155.259 94.7007 155.105 95.2013 155.047 95.3168C154.159 96.8761 153.021 99.1284 151.998 100.495C151.535 101.092 150.879 101.496 150.358 102.054C146.074 106.617 140.381 112.835 134.244 114.856C133.974 114.952 131.697 115.145 130.462 115.511C128.899 115.973 127.471 116.762 125.946 117.32C123.418 118.244 120.948 119.438 118.304 119.938C116.567 120.266 111.473 119.188 109.254 119.111C107.169 119.034 103.329 119.419 103.001 119.284C100.724 118.341 97.1732 116.723 94.2013 115.588C93.275 115.241 91.3839 114.76 91.2102 114.664C89.7629 113.817 88.5278 112.931 87.0419 112.142C85.1507 111.122 82.9893 110.621 81.1947 109.427C79.4965 108.311 78.0877 106.771 76.679 105.327C74.2089 102.805 71.5651 100.399 69.5195 97.5306C68.1301 95.5863 67.3968 93.2377 66.4898 91.0239C66.2389 90.4271 65.8915 89.1566 66.0845 89.1566L66.0459 89.1951ZM63.3828 55.4487C62.0513 57.7588 61.1829 61.0121 60.8355 63.0142C60.6811 63.9575 60.9513 64.92 60.9127 65.8826C60.8741 66.9606 60.5461 68.0386 60.5847 69.1167C60.6619 71.138 60.8741 73.1593 61.2408 75.1421C61.646 77.3174 62.0899 79.512 62.939 81.5333C63.1513 82.0338 63.9039 82.0338 64.2898 82.4188C65.0617 83.1696 65.7951 83.9781 66.3933 84.8829C67.088 85.9225 67.3582 87.2507 68.1687 88.2133C68.7669 88.9063 69.6353 89.3106 70.4651 89.6956C71.0826 89.9843 71.8352 90.4849 72.4335 90.1961C73.0896 89.8688 73.437 88.9641 73.4563 88.2325C73.4756 87.1545 72.8387 86.192 72.5493 85.1524C72.1633 83.7856 72.1247 82.2841 71.43 81.052C70.6774 79.7045 69.3072 78.7805 68.3038 77.6062C67.7827 76.9902 67.1652 76.4126 66.8178 75.6811C66.0459 74.0833 65.6214 72.3315 64.9652 70.676C64.5407 69.5787 63.7495 68.5969 63.5758 67.4419C63.267 65.613 63.9618 64.4965 63.9425 62.6484C63.9232 60.3961 62.2443 58.3556 63.3442 55.4872L63.3828 55.4487Z" fill="url(#paint2_radial_284_13047)"/>
<path style="mix-blend-mode:multiply" fill-rule="evenodd" clip-rule="evenodd" d="M123.65 19.8735C126.236 21.7024 129.014 26.0145 131.62 27.3428C132.546 27.8048 138.548 27.3235 138.2 29.0753C137.988 30.0956 136 30.2496 134.823 30.6346C133.221 31.1737 133.627 32.3095 134.495 32.8485C136.907 34.3693 139.319 35.5628 141.481 37.2761C143.025 38.4889 144.356 39.9712 145.514 41.5498C145.784 41.9348 145.996 42.3583 146.17 42.7818C146.267 42.7048 146.363 42.6085 146.44 42.5315C148.196 40.7797 145.765 36.2943 145.147 34.6003C145.012 34.2345 144.974 33.811 145.012 33.4067C145.032 33.0602 145.07 32.6752 145.282 32.4057C145.688 31.8667 146.73 31.6934 146.923 31.4624C147.058 31.3277 147.116 31.0774 147.039 30.9042C146.884 30.4806 146.633 30.0571 146.305 29.7491C144.993 28.5363 143.604 27.3813 142.156 26.3418C139.956 24.7632 137.679 23.2617 135.325 21.9141C133.82 21.0478 132.276 20.2586 130.635 19.7003C128.783 19.065 126.815 18.7763 124.923 18.3142C122.955 17.8137 121.006 17.1207 118.999 16.7934C117.976 16.6394 116.934 16.8897 115.911 16.8705C114.889 16.8512 113.885 16.7934 112.862 16.6587C111.55 16.5047 109.736 15.9464 108.964 16.0042C108.289 16.0427 104.969 17.0052 102.963 17.448C101.438 17.7752 99.8556 17.833 98.3503 18.2757C96.5749 18.7955 94.896 19.5655 93.2171 20.2778C91.6926 20.9131 90.1488 21.5099 88.7208 22.3376C91.9242 20.8361 93.0435 21.0671 95.5522 20.1431C101.091 18.0832 99.3731 19.142 104.236 18.5453C105.317 18.4105 106.243 17.5635 107.324 17.4865C108.211 17.4095 109.08 17.7752 109.91 18.064C113.132 19.1228 112.225 19.5463 116.239 19.3345C117.706 19.2575 119.134 18.7378 120.601 18.834C121.681 18.911 122.762 19.2768 123.65 19.8928V19.8735ZM151.593 40.8952C152.037 42.3968 151.94 43.5326 150.512 44.3411C149.451 44.9379 148.486 45.1111 147.772 45.8234C149.219 47.5752 151.651 49.3463 152.442 50.7323C152.905 51.5216 153.175 52.5226 153.021 53.4466C152.635 55.8145 151.496 58.009 150.879 60.3384C150.705 61.0314 150.512 61.7244 150.416 62.4367C152.288 61.8207 153.021 60.4346 154.391 59.7416C155.838 58.9908 159.119 59.7801 160.026 58.4711C160.566 57.6818 160.663 56.6615 160.759 55.7182C160.991 53.6969 160.528 51.8296 160.508 49.8853C160.508 49.5388 159.543 48.2297 159.158 47.3442C158.772 46.4587 158.27 44.7646 158.173 44.5914C157.787 43.9561 157.266 43.4171 156.9 42.7818C156.687 42.416 156.649 41.954 156.398 41.5883C155.375 40.0867 154.256 38.6237 153.079 37.2184C152.519 36.5446 151.882 35.9478 151.207 35.3703C150.975 35.1778 149.103 34.0805 149.451 35.2741C149.972 37.0259 151.014 38.8932 151.593 40.8952ZM156.649 72.447C156.07 72.9475 155.279 73.294 154.507 73.2748C153.426 73.2555 152.365 72.9475 151.342 72.6203C151.554 75.3539 151.207 78.0489 149.065 80.8403C147.849 82.4381 146.016 83.4391 144.549 84.7867C143.295 85.9417 142.002 87.0582 140.844 88.3095C139.57 89.6956 138.567 91.2164 137.602 92.7564C140.67 92.9297 143.43 93.3339 147.289 93.9692C151.863 94.72 154.893 94.2387 157.575 90.0806C158.193 89.1181 158.617 88.04 159.177 87.039C159.833 85.8455 160.779 84.7867 161.242 83.5161C161.84 81.8028 161.801 79.9163 162.303 78.1837C162.67 76.9324 163.905 74.9111 163.866 74.5646C163.77 73.7561 163.249 71.7925 163.133 70.3872C163.036 69.1359 163.171 64.6505 162.65 63.3222C162.708 64.304 162.573 65.1895 161.84 65.5168C161.473 65.69 161.049 65.459 160.779 65.613C160.528 65.767 160.373 66.0558 160.219 66.3061C159.968 66.7103 159.756 67.1531 159.563 67.5959C158.733 69.5787 158.54 70.8492 156.668 72.4278L156.649 72.447ZM143.604 97.7231C141.23 96.8761 137.988 96.3948 135.267 96.2023C135.228 96.26 135.19 96.2985 135.151 96.3563C133.337 98.7049 131.137 100.688 128.32 101.766C126.583 102.439 124.672 102.536 122.897 103.075C120.118 103.903 116.22 105.847 112.862 106.713C116.046 108.118 120.446 108.734 124.016 108.022C126.564 107.502 129.439 106.02 131.871 105.654C133.144 105.462 134.437 105.847 135.711 105.635C136.734 105.462 137.698 104.981 138.644 104.557C140.265 103.826 143.951 101.862 144.588 99.9754C144.742 99.4749 144.665 98.8974 144.453 98.4161C144.298 98.0696 143.951 97.8386 143.604 97.7231ZM130.404 109.37C128.764 109.793 127.085 110.082 125.425 110.429C124.074 110.717 122.762 111.16 121.392 111.256C120.08 111.333 118.729 111.218 117.436 110.929C115.969 110.602 114.522 110.101 113.152 109.447C111.338 108.58 109.64 107.695 107.98 106.809C104.255 105.924 101.419 104.307 96.9802 103.883C95.5136 103.749 93.9891 104.211 92.5417 103.883C90.1681 103.344 87.8331 102.517 85.7103 101.342C82.3911 99.5134 80.5385 98.3969 78.9754 96.8376C77.5667 96.3756 76.1579 95.8558 74.7492 95.336C73.7071 94.951 72.665 94.5467 71.6423 94.0655C68.4774 92.5832 66.0652 89.1566 66.0073 89.1566C65.8143 89.1566 66.181 90.4271 66.4126 91.0239C67.3196 93.2377 68.0529 95.5863 69.4423 97.5306C71.4879 100.399 74.1317 102.805 76.6018 105.327C78.0298 106.771 79.4193 108.311 81.1175 109.427C82.9121 110.602 85.0735 111.122 86.9647 112.142C88.4506 112.931 89.6857 113.817 91.133 114.664C91.3067 114.76 93.1978 115.241 94.1241 115.588C97.096 116.723 100.647 118.341 102.924 119.284C103.252 119.419 107.092 119.053 109.176 119.111C111.396 119.188 116.49 120.266 118.227 119.938C120.871 119.438 123.341 118.225 125.869 117.32C127.393 116.762 128.841 115.973 130.385 115.511C131.62 115.145 133.897 114.952 134.167 114.856C140.323 112.835 145.996 106.636 150.281 102.054C150.802 101.496 151.477 101.092 151.921 100.495C152.944 99.1284 154.082 96.8761 154.97 95.3168C155.028 95.2013 155.201 94.7007 154.719 95.2013C153.445 96.5488 152.596 97.8386 151.091 99.1476C149.953 100.129 148.698 101.015 147.521 101.939C146.074 103.056 144.626 104.172 143.198 105.308C142.214 106.097 141.346 107.04 140.284 107.733C139.474 108.253 138.586 108.734 137.66 108.927C136.656 109.139 135.595 108.985 134.572 108.927C133.82 108.888 133.067 108.561 132.314 108.638C131.62 108.715 131.041 109.196 130.385 109.37H130.404ZM71.3142 85.5182C70.33 84.2284 68.6511 83.4776 67.8599 82.0723C64.5214 76.1816 63.8653 73.371 64.0197 68.7124C63.8074 68.2889 63.653 67.8461 63.5758 67.3841C63.267 65.5553 63.9618 64.4388 63.9425 62.5907C63.9232 60.3384 62.2443 58.2978 63.3442 55.4295C62.0127 57.7395 61.1443 60.9929 60.7969 62.995C60.6425 63.9382 60.9127 64.9008 60.8741 65.8633C60.8355 66.9413 60.5075 68.0194 60.5461 69.0974C60.6232 71.1187 60.8355 73.14 61.2022 75.1229C61.6074 77.2982 62.0513 79.4927 62.9004 81.5141C63.1127 82.0146 63.8653 82.0146 64.2512 82.3996C65.0231 83.1504 65.7564 83.9589 66.3547 84.8637C67.0494 85.9032 67.3196 87.2315 68.1301 88.194C68.7283 88.8871 69.5967 89.2913 70.4265 89.6763C71.044 89.9651 71.7966 90.4656 72.3949 90.1768C72.9159 89.9266 73.244 89.3106 73.3598 88.7138C72.7229 87.6165 72.0475 86.5385 71.2756 85.5374L71.3142 85.5182Z" fill="url(#paint3_radial_284_13047)"/>
<path style="mix-blend-mode:multiply" opacity="0.5" fill-rule="evenodd" clip-rule="evenodd" d="M69.0371 51.9449C69.809 50.1546 73.5913 53.0614 74.1703 53.9469C76.0228 56.796 75.193 59.7606 75.9457 62.7252C76.5246 64.9968 78.0298 66.0171 78.821 66.9026C79.014 67.1144 78.9754 67.5956 78.7438 67.7689C78.4351 67.9999 77.9526 67.9999 77.586 67.8459C75.5018 66.9026 72.7615 65.2086 71.7002 63.091C70.5809 60.8387 71.3914 58.3361 70.8318 56.6998C70.5809 55.9298 69.809 55.4485 69.2686 54.8517C68.4774 53.9662 68.6318 52.8304 69.0178 51.9449H69.0371ZM100.434 25.1287C99.9906 24.0892 96.4592 22.7802 98.6591 20.4701C99.1608 19.9503 99.9714 19.3728 101.168 18.7183C102.866 17.8135 104.719 17.2167 106.533 16.543C105.355 16.851 103.985 17.1975 102.963 17.4285C102.77 17.467 102.596 17.5055 102.403 17.544C101.284 17.7365 100.338 18.006 99.2959 18.4488C95.0118 20.2198 91.5768 22.0294 90.8628 23.4347C90.8242 23.5309 90.7856 23.608 90.7663 23.7042C90.6891 24.0315 91.0172 24.455 91.3453 24.532C93.468 25.0517 95.6294 25.1287 97.8486 25.4368C98.5626 25.533 98.8135 25.8025 98.8135 26.0913C98.8135 26.3993 98.524 26.7266 98.1767 26.9191C95.5715 28.3629 87.6594 32.8098 89.0488 36.9294C89.7242 38.9315 95.6101 36.9871 99.7398 40.202C101.187 41.3378 101.882 43.2051 103.271 44.3794C106.957 47.498 110.759 43.8019 115.448 45.1109C117.031 45.5537 118.111 47.113 119.636 47.729C122.704 48.9803 126.815 47.9985 129.169 45.6692C130.269 44.5911 129.632 42.5698 130.404 41.2415C130.906 40.3945 131.658 39.74 132.488 39.1625C135.035 37.4492 138.451 36.6021 138.297 34.0995C138.181 32.1552 135.363 29.6141 135.344 28.1896C135.325 26.8228 135.904 25.8025 136.02 24.7245C136.116 23.839 135.884 22.9149 134.669 21.7791C134.206 21.3364 133.742 21.0091 133.163 20.7396C132.334 20.3353 131.485 19.9696 130.616 19.6808C128.957 19.1033 127.22 18.8338 125.502 18.4295C125.83 18.545 126.158 18.6413 126.486 18.7568C128.243 19.3343 132.43 20.9129 133.183 23.2807C133.376 23.8775 133.356 24.5127 133.028 25.1865C132.565 26.1683 128.571 28.6131 130.481 29.7874C137.39 34.0225 133.279 33.5605 130.307 37.3336C130.172 37.5069 130.057 37.6802 129.941 37.8534C127.76 41.1645 129.728 43.8981 122.009 43.1666C120.195 42.9933 116.413 41.8575 115.101 41.9346C112.438 42.0693 109.871 43.0896 107.208 43.0896C106.127 43.0896 105.066 42.5506 104.159 41.9346C102.557 40.8373 102.577 39.047 99.4696 38.0844C90.1102 35.1968 97.7328 30.5189 99.8749 27.3426C100.068 27.0538 100.28 26.7651 100.396 26.457C100.55 26.072 100.608 25.6485 100.396 25.1287H100.434ZM110.739 47.6327C106.629 48.653 112.187 51.0593 113.576 52.1181C115.525 53.6004 117.224 54.6207 117.938 53.7544C118.709 52.8304 117.031 49.6541 116.471 48.9033C115.332 47.3825 112.592 47.19 110.72 47.652L110.739 47.6327ZM150.705 47.4017C150.126 47.6327 149.509 47.9022 149.065 48.345C148.91 48.499 148.775 48.6723 148.64 48.8455C148.37 49.2305 148.158 49.654 148.042 50.0968C147.695 51.5599 148.023 53.1384 147.54 54.563C147.232 55.5062 146.518 56.3148 145.765 56.9885C144.974 57.6816 143.893 58.1821 143.005 58.5478C141.269 59.2409 143.777 59.0869 145.804 58.6633C147.502 58.3168 151.052 57.0078 151.033 54.8132C151.033 53.4464 150.281 52.1566 150.203 50.7898C150.203 50.5396 150.203 50.2701 150.281 50.0198C150.358 49.7118 150.493 49.4038 150.686 49.1535C151.072 48.653 151.67 48.3643 152.249 48.1333C153.195 47.7482 154.294 47.806 155.201 47.3632C155.607 47.1515 155.858 46.6895 156.031 46.2467C156.089 46.0927 156.147 45.9387 156.186 45.7847C156.321 45.3034 156.379 44.7836 156.398 44.2831C156.398 43.7826 156.379 43.2628 156.301 42.7623C156.128 41.6265 155.723 40.6833 155.047 39.7592C154.41 38.893 153.735 38.0459 153.04 37.2181C152.982 37.1604 152.924 37.0834 152.866 37.0256C153.503 38.5464 154.217 40.0287 154.661 41.6073C154.835 42.2041 154.912 42.8393 154.931 43.4746C154.931 43.9174 154.931 44.3794 154.893 44.8221C154.854 45.3419 154.719 45.9772 154.275 46.2659C153.195 46.9205 151.824 46.9397 150.647 47.421L150.705 47.4017ZM82.97 52.9459C82.4683 51.8679 76.1 48.4413 74.4211 46.4584C73.6878 45.5922 74.2089 44.1676 73.8422 43.0896C73.6299 42.4928 73.2247 41.9731 72.858 41.434C72.5493 40.972 72.2598 40.51 72.2019 39.971C72.1826 39.7207 72.2019 39.3935 72.2405 39.0277C72.4914 37.1989 73.6106 34.1958 74.9229 32.5017C74.7878 32.6172 74.672 32.752 74.5562 32.8675C73.6878 33.83 73.0896 35.0428 72.1247 35.9091C71.4107 36.5251 70.9282 37.1989 70.5809 38.0844C70.4458 38.4309 70.33 38.7774 70.2914 39.047C70.1563 39.817 70.5037 40.6063 70.4651 41.3763C70.4651 41.4918 70.4651 41.6073 70.4265 41.7228C70.2335 43.2436 69.3844 44.8414 69.9248 46.2467C70.5809 47.9407 72.7808 49.6156 74.5755 51.1556C75.4825 51.9256 76.2737 52.6379 76.7369 53.3117C77.5474 54.486 77.8561 55.9683 78.2035 57.3543C78.2035 57.3736 78.2035 57.3928 78.2035 57.4121C78.7631 59.6259 78.0298 62.3402 79.4385 64.1498C81.4069 66.6909 84.7068 67.8266 87.505 69.4052C92.9277 72.4468 93.275 72.5238 98.6012 76.3739C99.3345 76.9129 100.068 77.452 100.801 77.991C102.268 79.069 103.773 80.0893 105.413 80.8016C109.582 82.5919 115.873 83.3234 120.562 82.8229C122.511 82.6111 124.19 82.1876 125.329 81.5331C126.699 80.7438 127.046 79.839 124.711 80.3781C122.299 80.9363 113.885 81.3213 109.292 77.6637C109.254 77.6445 109.234 77.6252 109.196 77.5867C107.575 76.2584 106.378 74.4874 104.834 73.0628C104.313 72.5816 103.715 72.1003 103.02 71.9078C97.0381 70.2715 92.5417 71.7345 88.5471 66.3251C83.4525 59.4526 85.2665 57.9126 82.9507 52.8689L82.97 52.9459ZM119.288 88.3093C109.64 88.0591 108.926 86.6923 100.705 84.4592C99.9135 84.2474 99.0451 84.6517 98.2346 84.4592C95.8995 83.9009 94.6645 81.6678 92.8119 79.8583C92.3487 79.4155 91.6926 78.915 90.9593 78.4915C89.8207 77.8177 88.4699 77.298 87.4278 77.2787C87.0033 77.2787 86.3664 77.3557 86.2507 77.76C86.1349 78.1642 86.7524 78.5107 87.0612 78.6263C93.0628 81.1673 94.1048 88.0206 99.6819 88.0591C100.898 88.0591 102.056 87.52 103.252 87.52C109.234 87.52 112.631 89.7339 117.725 90.3499C118.845 90.4846 119.906 89.7339 121.006 89.6569C123.013 89.5221 125.058 89.9841 127.046 89.7339C129.285 89.4644 131.407 88.5788 133.627 88.1361C137.235 87.4045 139.763 88.6366 143.333 88.1361C144.125 88.0206 144.761 87.3468 145.553 87.2698C148.331 87.0388 149.856 88.0591 153.368 87.0965C153.793 86.981 154.179 86.7308 154.565 86.4805C155.066 86.1533 155.587 85.8067 156.166 85.7682C156.726 85.7297 157.324 85.7105 157.903 85.6527C157.98 85.6527 158.077 85.6335 158.154 85.6142C159.794 85.364 161.049 84.2282 161.435 82.6111C161.628 81.8026 161.724 80.9556 161.859 80.1086C161.415 81.3406 160.798 82.2069 158.868 82.9769C158.501 83.1309 158.077 83.2657 157.594 83.4197C156.34 83.8047 154.97 83.6314 153.735 83.9972C153.272 84.1319 152.866 84.2667 152.481 84.4014C148.968 85.6335 148.139 86.75 143.044 86.7885C139.648 86.827 136.367 85.364 133.26 85.2292C131.793 85.1715 130.327 85.4987 128.899 85.8837C125.001 86.9618 124.132 88.3863 119.269 88.2708L119.288 88.3093Z" fill="url(#paint4_radial_284_13047)"/>
<path style="mix-blend-mode:screen" fill-rule="evenodd" clip-rule="evenodd" d="M83.8191 47.7099C83.4139 47.0939 83.2016 46.3816 82.835 45.7464C82.3332 44.8608 82.0437 44.1486 80.9052 44.0523C79.9017 43.9561 78.8982 44.1678 77.8947 44.0716C77.5667 44.0331 77.2 43.9368 76.9684 43.7058C76.7755 43.5133 76.7176 43.2053 76.7176 42.955C76.7176 42.339 76.8334 41.7037 76.9877 41.107C77.3351 39.7017 77.007 39.6632 75.4246 38.4889C75.2509 38.3541 75.0773 38.1616 75.0387 37.9499C75.0387 37.9114 75.0001 37.8729 74.9422 37.8536C74.7685 37.8151 74.151 38.3926 73.6492 39.0856C72.9545 40.0097 72.3563 41.1647 72.2212 41.4535C71.2756 43.3593 71.1405 45.5731 70.33 47.5174C69.5195 49.4425 68.0915 51.0595 67.3775 53.0231C66.6441 54.9867 66.1038 57.085 65.988 59.1833C65.8722 61.0891 66.2389 62.9949 66.6441 64.843C67.1073 66.9221 67.9178 68.9049 68.6125 70.9069C68.7862 71.4267 68.9599 71.9657 69.1143 72.4855C69.4616 72.8513 69.8283 73.1978 70.1756 73.5635C71.5072 75.0073 72.9738 76.3549 74.1703 77.9142C75.4439 79.5697 76.4474 81.3985 77.5474 83.1696C77.5667 83.2081 77.586 83.2466 77.6246 83.2851C78.5894 83.8241 79.5929 84.2669 80.635 84.6134C83.6455 85.6144 86.7717 86.3652 89.9365 86.6732C92.2523 86.9042 94.6452 86.654 96.9223 86.1727C99.6626 85.6144 102.21 84.3631 104.892 83.6316C106.571 83.1888 108.424 83.4006 109.987 82.6498C112.264 81.5525 114.271 79.9162 116.162 78.2222C117.031 77.4329 117.378 76.1816 118.131 75.2768C118.825 74.4491 119.655 73.7175 120.466 73.0053C120.215 73.0053 119.945 73.0053 119.694 73.0053C117.88 72.9283 116.046 72.6395 114.31 72.1005C112.92 71.677 111.511 71.1187 110.411 70.1754C108.887 68.8664 107.98 66.9798 106.629 65.4975C105.741 64.535 104.796 63.611 103.754 62.8217C103.213 62.4174 102.557 62.1672 101.901 61.9939C100.956 61.7436 99.9713 61.7436 99.0258 61.5511C98.3503 61.3971 97.6363 61.3201 97.0574 60.9351C95.803 60.1073 94.6645 59.0871 93.6031 58.0283C92.8505 57.2582 92.4259 56.1802 91.6347 55.4487C91.1716 55.0059 90.5155 54.7942 89.8979 54.5824C89.2804 54.3707 88.5664 54.4862 87.9682 54.2166C87.5243 54.0049 87.1383 53.6199 86.9068 53.1964C86.1349 51.8488 85.691 50.328 84.9384 48.9612C84.6682 48.4992 84.1665 48.2104 83.877 47.7677L83.8191 47.7099ZM89.9944 42.9743C90.6505 43.6673 90.94 44.6683 91.6347 45.3036C93.3136 46.8437 95.3013 48.5185 97.5591 49.0382C99.1029 49.3847 100.763 49.3847 102.21 50.02C103.522 50.6168 104.526 51.7333 105.626 52.6381C109.987 56.2572 111.704 59.3181 118.092 58.3748C120.948 57.9513 123.669 55.7182 126.197 54.3899C126.757 54.1011 127.239 53.8701 127.664 53.6969C129.555 52.9269 130.886 51.5408 131.562 49.6157C131.813 48.865 132.083 48.1334 132.276 47.3634C132.642 45.9581 133.241 44.5336 133.106 43.0898C132.893 41.0107 132.044 39.0279 131.214 37.1028C130.809 36.1788 129.96 35.4858 129.4 34.6388C128.05 32.5789 127.046 30.2689 125.444 28.4016C124.094 26.823 122.473 25.4177 120.678 24.3782C119.018 23.4349 117.05 23.2231 115.255 22.5686C114.483 22.2991 113.769 21.8563 112.997 21.6253C111.724 21.2403 110.45 20.8168 109.138 20.682C107.826 20.5473 106.494 20.7205 105.182 20.8553C103.657 20.9901 102.152 21.1826 100.666 21.4713C98.6784 21.8563 96.6714 22.2606 94.7417 22.9151C93.7382 23.2424 92.9084 23.9547 91.9435 24.3974C90.94 24.8594 89.7821 25.0519 88.8558 25.668C87.9103 26.3225 87.3506 27.439 86.4243 28.132C86.2314 28.286 85.9998 28.3823 85.7875 28.4786C85.0735 28.7866 84.5139 29.1523 83.9542 29.7106C83.4139 30.2496 82.8735 30.8079 82.4104 31.4239C81.6964 32.3864 80.3069 35.9093 80.8473 37.1221C81.1175 37.7189 81.542 38.2771 82.0823 38.6429C83.1823 39.3744 85.7875 39.7402 87.3506 40.7027C88.3348 41.3187 89.2225 42.108 90.033 42.955L89.9944 42.9743Z" fill="url(#paint5_radial_284_13047)"/>
<g style="mix-blend-mode:screen" opacity="0.5">
<path fill-rule="evenodd" clip-rule="evenodd" d="M89.3962 95.8366C87.6015 95.0474 85.7489 94.3928 84.0507 93.411C82.6806 92.641 81.349 91.7555 80.2684 90.6197C79.3807 89.6957 78.8789 88.4829 78.3 87.3471C77.2 85.191 76.1772 83.4777 75.1738 81.6104C74.7492 80.8404 74.8264 79.8201 74.3054 79.1078C73.8808 78.5111 73.1475 78.1646 72.4914 77.8373C72.2019 77.6833 71.7967 77.5293 71.5072 77.664C71.2563 77.7795 71.1598 78.1838 71.2563 78.4341C71.5265 79.1848 72.2791 79.6854 72.53 80.4361C72.8387 81.3409 72.7036 82.3804 72.9352 83.3045C73.1089 83.9975 73.4756 84.6328 73.8036 85.268C74.1703 85.9611 74.479 86.5771 74.7106 87.3279C74.8843 87.8669 74.7685 88.4444 74.9615 88.9642C75.4246 90.2154 76.486 91.2165 76.8913 92.487C77.4509 94.2388 75.2317 93.3918 74.5562 93.026C73.3019 92.3523 72.2405 91.409 71.0247 90.6967C70.6774 90.485 70.2721 90.1962 69.8669 90.2924C69.6546 90.3309 69.7704 90.7545 69.8669 90.947C70.1949 91.6015 70.4844 92.3715 71.1019 92.7565C72.144 93.411 73.4756 93.4303 74.5948 93.9116C75.1545 94.1426 75.5597 94.7393 76.1579 94.8933C78.3386 95.4901 80.1526 94.9896 83.1823 96.0869C83.7613 96.2986 84.3016 96.5874 84.8612 96.7799C85.4209 96.9724 86.0384 96.9917 86.5401 97.2804C87.4471 97.8002 88.0839 98.782 89.0488 99.167C90.1681 99.629 94.8189 99.6868 95.2241 98.8205C95.6294 97.9542 90.94 96.5297 89.3769 95.8366H89.3962ZM70.7932 77.202C71.0826 77.1058 71.43 76.894 71.4493 76.586C71.4879 76.0855 71.2949 75.5272 70.9475 75.1422C70.4265 74.5647 69.5388 74.4299 69.0178 73.8717C68.2845 73.0824 67.995 71.5808 66.7599 70.3873C66.6635 70.291 66.3933 70.2525 66.3547 70.3873C66.2389 70.6568 66.2968 71.0033 66.3933 71.2921C66.8371 72.5819 67.281 73.9102 67.995 75.0652C68.2459 75.4502 68.8634 75.431 69.1915 75.7582C69.5581 76.1432 69.5774 76.7593 69.9634 77.1058C70.1756 77.2983 70.523 77.279 70.7932 77.1828V77.202ZM113.615 96.6644C111.878 97.2227 110.218 98.0505 108.482 98.5895C107.304 98.9552 106.089 99.2055 104.854 99.321C104.043 99.4172 103.213 99.321 102.384 99.244C101.149 99.1285 99.9135 98.8397 98.6784 98.705C98.1574 98.6472 97.5977 98.551 97.096 98.705C96.5364 98.8782 96.7679 99.1285 96.9223 99.2055C97.5398 99.475 98.2539 99.6868 98.8714 100.033C100.145 100.707 101.091 101.381 102.422 101.901C102.808 102.055 103.426 101.727 103.792 101.92C105.124 102.632 106.069 103.922 107.324 104.75C107.999 105.192 108.887 105.616 109.543 105.731C109.62 105.731 109.871 105.731 109.62 105.52C108.848 104.942 108.211 104.134 107.768 103.267C107.517 102.786 107.517 102.189 107.652 101.67C107.768 101.188 108.038 100.726 108.424 100.438C109.427 99.6675 110.604 99.167 111.704 98.551C112.611 98.0505 113.596 97.6462 114.464 97.0687C114.58 96.9917 114.676 96.7222 114.541 96.6644C114.232 96.5297 113.866 96.5682 113.557 96.6644H113.615ZM129.497 94.2581C128.686 93.9308 127.799 93.9308 126.93 93.8923C126.351 93.8731 125.772 94.0848 125.174 94.0656C124.73 94.0656 124.344 93.7961 123.901 93.7768C122.048 93.7383 118.941 94.7778 117.224 95.4324C116.934 95.5479 116.548 95.7596 116.567 96.0676C116.587 96.3179 117.05 96.2601 117.281 96.2024C118.034 96.0484 118.806 95.8174 119.887 95.8751C120.33 95.8944 120.736 95.9329 121.18 95.9329C121.566 95.9329 121.932 95.7211 122.318 95.7981C122.936 95.9329 123.36 96.4912 123.92 96.7607C124.422 97.0109 124.943 97.3382 125.502 97.3382C126.872 97.3382 133.009 95.6826 129.497 94.2581ZM86.9454 49.7314C86.8296 49.6351 86.5787 49.7699 86.5594 49.9046C86.5208 50.4436 86.6366 50.9827 86.8103 51.5024C87.0033 52.0415 87.2927 52.5805 87.6787 53.0232C88.1804 53.5815 89.3769 53.7933 90.0909 53.6393C90.5348 53.543 90.5155 52.619 90.2453 52.3495C89.7822 51.8874 89.0488 51.7719 88.5471 51.3677C88.0261 50.9442 87.5822 50.2896 86.9454 49.7506V49.7314ZM79.1105 38.6238C79.4386 38.7778 79.4772 39.2975 79.4386 39.644C79.3807 40.2986 78.8596 40.8761 78.821 41.5306C78.8017 41.8579 78.9754 42.2814 79.2649 42.4354C80.2491 42.9552 81.4262 42.9744 82.4297 43.4557C82.9507 43.7059 83.2209 44.3027 83.7034 44.6107C85.8647 45.939 87.1384 45.7465 89.2225 48.2683C89.9172 49.1154 90.3418 50.1741 91.2102 50.8094C92.1365 51.4832 93.0242 51.6179 94.1434 51.8682C95.5522 52.1955 97.0574 52.1955 98.331 52.85C98.9486 53.158 99.4503 54.0628 100.068 54.39C101.612 55.2178 102.847 55.5643 104.506 56.1418C105.761 56.5653 107.112 56.8156 108.211 57.5279C111.338 59.5877 111.106 61.994 117.301 62.7833C120.813 63.2261 121.971 60.839 123.881 59.1642C124.943 58.2402 126.062 57.3739 127.258 56.6231C127.895 56.2188 128.686 56.1033 129.323 55.6798C129.613 55.4873 130.095 55.1408 129.941 54.8135C129.767 54.467 129.169 54.467 128.783 54.5633C127.471 54.9098 126.255 55.4873 125.039 56.0841C123.592 56.7964 122.299 57.7974 120.852 58.5097C117.32 60.223 113.866 60.4347 110.566 57.9321C108.057 56.0263 105.934 53.6778 103.484 51.6949C102.692 51.0597 101.882 50.4244 100.936 50.0586C100.126 49.7506 99.1994 49.8854 98.3503 49.7314C97.0188 49.4811 95.6294 49.3849 94.3943 48.8266C90.9593 47.2288 89.0488 45.3807 87.1191 42.3776C86.7717 41.8386 86.405 41.2611 85.8454 40.9338C84.8226 40.3563 83.6262 40.1446 82.5069 39.7403C81.7157 39.4515 80.7894 39.3938 80.1719 38.8355C79.6122 38.335 79.3228 37.565 79.2263 36.8335C79.0526 35.6592 79.6122 34.1961 80.2877 33.2528C80.6543 32.7331 81.1561 32.3096 81.542 31.7898C81.6192 31.6743 81.8315 31.4818 81.7157 31.4048C81.5806 31.3085 81.349 31.4625 81.2139 31.578C80.5771 32.117 80.0754 32.8293 79.4193 33.3683C77.8561 34.6389 76.2544 35.5052 75.8492 36.8912C75.7527 37.2185 75.7141 37.7575 76.0229 37.9115C76.9492 38.412 78.1649 38.1425 79.1105 38.6045V38.6238ZM150.319 63.4763C148.332 63.6688 146.363 64.1116 144.356 64.3041C143.7 64.3619 142.947 64.4966 142.388 64.1886C141.905 63.9191 142.04 63.0913 141.616 62.7448C140.767 62.071 139.435 62.1095 138.702 61.301C138.335 60.8967 138.567 60.1652 138.779 59.6647C139.088 58.9139 139.628 58.2979 140.169 57.7011C140.709 57.1044 141.462 56.7386 141.983 56.1418C142.523 55.5066 142.947 54.775 143.333 54.0435C143.854 53.1195 144.298 52.157 144.704 51.1752C144.781 50.9827 144.897 50.7324 144.761 50.5784C144.646 50.4436 144.375 50.5784 144.24 50.6747C143.758 51.1367 143.449 51.7142 143.025 52.234C142.677 52.6575 142.388 53.1387 141.983 53.4852C141.307 54.0435 140.574 54.5633 139.783 54.9483C138.548 55.5258 137.042 55.5066 135.962 56.2958C135.016 56.9889 134.842 58.3749 134.032 59.2027C132.565 60.6657 130.539 61.532 129.188 63.0913C128.706 63.6496 128.436 64.6314 128.821 65.2666C129.15 65.8056 130.076 65.6516 130.713 65.5554C132.951 65.1704 135.035 64.1308 137.293 63.8421C137.949 63.7651 138.625 64.0923 139.184 64.4581C139.86 64.9009 140.13 65.8441 140.863 66.1714C141.654 66.5372 142.6 66.5949 143.449 66.4217C144.414 66.2099 145.147 65.3436 146.074 65.0356C147.521 64.5351 149.084 64.3811 150.551 63.9768C150.744 63.9191 151.13 63.8036 151.052 63.6303C150.937 63.3993 150.551 63.4571 150.3 63.4956L150.319 63.4763ZM120.388 71.3498C122.781 70.9456 122.608 68.982 123.63 68.1542C124.229 67.673 125.386 68.0195 125.85 67.4035C126.313 66.7874 126.815 65.9404 126.525 65.2281C125.425 62.5715 118.497 66.2292 117.494 66.5757C116.548 66.9029 115.525 67.0184 114.522 66.9222C111.492 66.6719 111.299 64.9971 109.292 63.6111C108.54 63.0913 107.69 62.7063 106.803 62.5138C106.513 62.4368 106.031 62.533 105.973 62.8218C105.915 63.1491 106.34 63.3993 106.61 63.6111C109.254 65.7094 109.157 66.1714 110.643 68.1542C113.055 71.3691 113.731 69.6558 115.641 69.9638C117.05 70.1948 118.671 71.6386 120.388 71.3498Z" fill="url(#paint6_radial_284_13047)"/>
</g>
<path fill-rule="evenodd" clip-rule="evenodd" d="M180.713 52.8306C186.232 59.6068 176.815 68.4043 164.31 74.8918C138.297 88.4057 97.3469 96.3755 68.1494 94.0269C56.0497 93.0451 43.236 89.3875 42.8693 82.0723C35.2467 81.745 27.6241 83.3043 20.0015 86.9235C19.905 92.3136 24.3435 96.5103 30.4223 99.1091C52.5375 108.6 93.0435 105.115 119.674 99.8406C146.305 94.5659 184.129 82.6691 200.686 65.2087C207.653 57.855 207.035 52.2338 203.041 48.0757C194.781 48.7302 187.448 50.405 180.732 52.8113L180.713 52.8306Z" fill="url(#paint7_linear_284_13047)"/>
<path style="mix-blend-mode:multiply" fill-rule="evenodd" clip-rule="evenodd" d="M57.4778 61.6858C53.5603 63.1296 47.7324 65.7091 43.622 68.385C20.6191 83.3235 36.6169 94.1808 56.4357 97.2224C85.8262 101.727 134.225 92.352 152.558 86.2111C113.21 99.725 78.165 103.517 56.0304 101.188C38.0642 99.3015 27.4505 93.4493 25.9452 85.749C24.5558 78.7033 36.5397 66.7679 57.4585 61.6665L57.4778 61.6858Z" fill="url(#paint8_radial_284_13047)"/>
<path style="mix-blend-mode:screen" fill-rule="evenodd" clip-rule="evenodd" d="M48.1377 69.7329C44.3939 72.274 39.8396 76.7016 39.9168 81.7068C40.1098 94.4892 68.3231 96.1833 77.4316 96.395C69.5196 97.0303 45.6675 96.9726 37.7941 86.9622C35.5362 84.0939 35.8064 81.1485 37.2923 78.5112C39.6274 74.3531 44.9535 70.9457 48.157 69.7329H48.1377Z" fill="url(#paint9_radial_284_13047)"/>
<path style="mix-blend-mode:multiply" fill-rule="evenodd" clip-rule="evenodd" d="M160.335 42.6852C177.471 43.4745 185.074 48.9802 186.309 55.0056C188.201 64.1689 174.673 76.5085 158.366 84.3051C182.45 75.9888 196.344 63.2449 193.643 54.1008C191.771 47.7674 180.192 40.9911 160.335 42.6852Z" fill="url(#paint10_radial_284_13047)"/>
<path style="mix-blend-mode:screen" fill-rule="evenodd" clip-rule="evenodd" d="M184.013 41.5879C189.764 42.3194 201.188 45.0723 203.292 52.3105C209.119 72.3504 153.561 90.4652 134.341 93.8533C151.516 89.0599 202.539 73.6209 199.374 52.965C198.351 46.208 190.42 43.4167 184.013 41.5879Z" fill="url(#paint11_radial_284_13047)"/>
</g>
<defs>
<filter id="filter0_d_284_13047" x="-6.10352e-05" y="0" width="226" height="144" filterUnits="userSpaceOnUse" color-interpolation-filters="sRGB">
<feFlood flood-opacity="0" result="BackgroundImageFix"/>
<feColorMatrix in="SourceAlpha" type="matrix" values="0 0 0 0 0 0 0 0 0 0 0 0 0 0 0 0 0 0 127 0" result="hardAlpha"/>
<feOffset dy="4"/>
<feGaussianBlur stdDeviation="10"/>
<feComposite in2="hardAlpha" operator="out"/>
<feColorMatrix type="matrix" values="0 0 0 0 0 0 0 0 0 0 0 0 0 0 0 0 0 0 0.25 0"/>
<feBlend mode="normal" in2="BackgroundImageFix" result="effect1_dropShadow_284_13047"/>
<feBlend mode="normal" in="SourceGraphic" in2="effect1_dropShadow_284_13047" result="shape"/>
</filter>
<radialGradient id="paint0_radial_284_13047" cx="0" cy="0" r="1" gradientUnits="userSpaceOnUse" gradientTransform="translate(91.3839 45.9774) scale(83.7136 83.5092)">
<stop stop-color="#23D1D1"/>
<stop offset="0.12" stop-color="#1CC4C4"/>
<stop offset="0.34" stop-color="#0DA4A4"/>
<stop offset="0.5" stop-color="#008A8A"/>
<stop offset="0.92" stop-color="#004242"/>
</radialGradient>
<radialGradient id="paint1_radial_284_13047" cx="0" cy="0" r="1" gradientUnits="userSpaceOnUse" gradientTransform="translate(94.2592 48.6917) scale(81.34 81.1414)">
<stop stop-color="#DEDE00"/>
<stop offset="0.15" stop-color="#D1D100"/>
<stop offset="0.42" stop-color="#B1B100"/>
<stop offset="0.47" stop-color="#ABAB00"/>
<stop offset="0.51" stop-color="#A5A500"/>
<stop offset="0.77" stop-color="#7D7D00"/>
<stop offset="0.91" stop-color="#6E6E00"/>
</radialGradient>
<radialGradient id="paint2_radial_284_13047" cx="0" cy="0" r="1" gradientUnits="userSpaceOnUse" gradientTransform="translate(116.066 73.217) scale(58.1248 57.9829)">
<stop offset="0.04"/>
<stop offset="0.84"/>
<stop offset="0.87" stop-color="#2E2E15"/>
<stop offset="0.92" stop-color="#6E6E33"/>
<stop offset="0.96" stop-color="#9D9D49"/>
<stop offset="0.98" stop-color="#BABA56"/>
<stop offset="1" stop-color="#C5C55C"/>
</radialGradient>
<radialGradient id="paint3_radial_284_13047" cx="0" cy="0" r="1" gradientUnits="userSpaceOnUse" gradientTransform="translate(103.947 51.2713) scale(72.656 72.4786)">
<stop offset="0.61" stop-color="white"/>
<stop offset="0.66" stop-color="#FCFCFA"/>
<stop offset="0.71" stop-color="#F5F5EE"/>
<stop offset="0.76" stop-color="#E9E9D9"/>
<stop offset="0.82" stop-color="#D8D8BC"/>
<stop offset="0.87" stop-color="#C2C297"/>
<stop offset="0.92" stop-color="#A7A769"/>
<stop offset="0.98" stop-color="#888833"/>
<stop offset="1" stop-color="#7A7A1B"/>
</radialGradient>
<radialGradient id="paint4_radial_284_13047" cx="0" cy="0" r="1" gradientUnits="userSpaceOnUse" gradientTransform="translate(64.7337 26.1298) scale(172.696 172.274)">
<stop stop-color="#848431"/>
<stop offset="1" stop-color="white"/>
</radialGradient>
<radialGradient id="paint5_radial_284_13047" cx="0" cy="0" r="1" gradientUnits="userSpaceOnUse" gradientTransform="translate(51.3217 21.1633) scale(92.6485 92.4223)">
<stop stop-color="#C5C55C"/>
<stop offset="1" stop-color="#000A00"/>
</radialGradient>
<radialGradient id="paint6_radial_284_13047" cx="0" cy="0" r="1" gradientUnits="userSpaceOnUse" gradientTransform="translate(89.2997 37.9307) scale(74.2191 74.0379)">
<stop stop-color="#72D6D3"/>
<stop offset="1"/>
</radialGradient>
<linearGradient id="paint7_linear_284_13047" x1="23.0891" y1="102.574" x2="207.98" y2="63.1768" gradientUnits="userSpaceOnUse">
<stop stop-color="#87E300"/>
<stop offset="1" stop-color="#13A300"/>
</linearGradient>
<radialGradient id="paint8_radial_284_13047" cx="0" cy="0" r="1" gradientUnits="userSpaceOnUse" gradientTransform="translate(67.5705 153.896) scale(103.243 102.991)">
<stop stop-color="#009933"/>
<stop offset="1" stop-color="white"/>
</radialGradient>
<radialGradient id="paint9_radial_284_13047" cx="0" cy="0" r="1" gradientUnits="userSpaceOnUse" gradientTransform="translate(48.5043 106.752) scale(76.5156 76.3287)">
<stop stop-color="#8FE561"/>
<stop offset="1"/>
</radialGradient>
<radialGradient id="paint10_radial_284_13047" cx="0" cy="0" r="1" gradientUnits="userSpaceOnUse" gradientTransform="translate(212.67 105.423) scale(77.4805 77.2913)">
<stop stop-color="#009933"/>
<stop offset="1" stop-color="white"/>
</radialGradient>
<radialGradient id="paint11_radial_284_13047" cx="0" cy="0" r="1" gradientUnits="userSpaceOnUse" gradientTransform="translate(178.475 96.4714) scale(80.4909 80.2944)">
<stop stop-color="#8FE561"/>
<stop offset="1"/>
</radialGradient>
</defs>
</svg>
