<svg width="186" height="184" viewBox="0 0 186 184" fill="none" xmlns="http://www.w3.org/2000/svg">
<g filter="url(#filter0_d_284_13057)">
<path fill-rule="evenodd" clip-rule="evenodd" d="M90.9673 16.3657C130.17 16.3657 161.935 48.3101 161.935 87.7355C161.935 127.161 130.17 159.105 90.9673 159.105C51.7642 159.105 20 127.139 20 87.7355C20 48.3323 51.7642 16.3657 90.9673 16.3657Z" fill="url(#paint0_radial_284_13057)"/>
<path style="mix-blend-mode:screen" fill-rule="evenodd" clip-rule="evenodd" d="M90.9673 16.3657C130.17 16.3657 161.935 48.3101 161.935 87.7355C161.935 127.161 130.17 159.105 90.9673 159.105C51.7642 159.105 20 127.139 20 87.7355C20 48.3323 51.7642 16.3657 90.9673 16.3657Z" fill="url(#paint1_radial_284_13057)"/>
<path style="mix-blend-mode:screen" fill-rule="evenodd" clip-rule="evenodd" d="M38.1005 62.4951C36.7982 61.5849 36.8203 60.1642 34.1493 60.0976C31.6108 60.0532 29.8228 62.6061 28.8957 65.3366C25.9599 73.9276 26.3352 85.6043 29.8891 93.9067C31.2356 97.0589 33.2443 99.8782 35.2751 102.631C38.0564 106.405 43.7294 111.644 48.9609 109.846C51.1903 109.069 52.9121 107.226 55.0753 106.272C56.5763 105.606 58.2539 105.317 59.8653 105.073C62.1389 104.74 64.4788 104.762 66.7744 104.54C73.2641 103.963 71.4541 102.387 75.913 100.7C77.3919 100.145 79.0696 100.256 80.5926 99.7672C81.7846 99.3898 82.9545 98.8571 84.0141 98.1689C87.7004 95.7714 82.2923 95.616 80.7913 95.7936C79.9967 95.8824 79.2903 96.282 78.5619 96.5928C77.105 97.1921 75.7364 98.0801 74.2133 98.5019C72.911 98.8571 71.5424 99.0568 70.1959 98.9015C68.3417 98.7017 66.6199 97.8137 64.8099 97.4363C63.7503 97.2143 63.1764 97.3475 62.1169 97.1033C61.1677 96.8813 60.1523 96.7038 59.3576 96.1044C55.0974 92.9521 59.5121 87.9351 65.141 88.3569C67.1055 88.5123 69.0039 88.5789 69.931 87.9573C70.1738 87.802 70.2179 87.358 70.0634 87.0916C69.9089 86.803 69.6882 86.5588 69.4454 86.3146C68.2313 85.0715 67.0393 83.6507 67.7015 81.7194C67.9223 81.0978 68.3637 80.5873 69.1363 80.2765C70.3945 79.7881 71.8293 80.2765 73.1538 80.0101C73.8381 79.8769 74.6106 79.6771 75.0521 79.1443C75.8247 78.2786 75.9351 76.9688 76.6414 76.0365C79.3786 72.418 86.6409 73.5724 90.9232 72.7288C92.7553 72.3736 94.6978 71.8853 96.1768 70.7531C97.5453 69.7098 98.031 65.0258 99.5982 63.605C101.099 62.2287 103.152 61.6737 104.984 60.8302C109.355 58.8323 112.6 59.1874 115.116 54.3481C115.955 52.7053 115.845 50.6852 116.705 49.0647C117.346 47.8437 120.193 46.6228 120.723 45.3575C124.321 36.8108 111.275 21.4269 101.386 22.8033C95.647 23.6024 97.744 24.8234 100.812 26.4439C107.677 30.0401 111.739 33.2368 111.187 41.6502C110.944 45.5129 106.662 44.8025 105.669 45.2909C105.315 45.4685 105.227 45.9568 105.205 46.3564C105.139 48.0879 105.823 49.8861 105.404 51.5732C104.984 53.2603 104.057 54.8586 102.843 56.0796C101.806 57.1229 100.305 57.6779 98.8918 58.0553C97.4129 58.4771 95.8236 58.5437 94.2784 58.4549C92.4463 58.3439 90.5259 58.2107 88.8924 57.3893C85.1399 55.569 84.0362 51.1958 85.3385 47.3332C85.7358 46.1344 86.7733 45.2687 87.3693 44.1587C88.0315 42.9822 86.685 42.0276 89.4442 40.2295C91.6516 38.7866 94.146 36.3891 86.7733 38.609C83.8154 39.4969 80.5926 39.9187 81.7846 43.0488C82.0716 43.7813 82.4248 44.5139 82.5131 45.2909C83.4181 54.3703 77.3919 52.5055 70.0855 53.8819C68.6949 54.1483 67.2821 54.2149 65.9356 54.681C64.7216 55.1028 63.7503 56.1018 62.5142 56.457C59.9978 57.1895 56.3335 56.5236 53.8392 57.3227C53.2653 57.5003 52.7134 58.0997 52.6472 58.7213C52.581 59.5426 54.8104 61.0965 52.6913 63.0279C51.2124 64.382 48.2103 64.4708 46.2237 64.493C43.332 64.5374 40.2417 63.9158 38.1005 62.4285V62.4951ZM46.5107 92.0642C64.8099 91.3982 57.3268 104.407 48.409 101.121C46.9963 100.611 45.6277 99.9004 44.4578 98.9458C41.4558 96.4818 43.4645 92.1752 46.4886 92.0642H46.5107Z" fill="url(#paint2_radial_284_13057)"/>
<path fill-rule="evenodd" clip-rule="evenodd" d="M22.3177 105.916C21.9425 107.825 21.2582 109.69 21.2141 111.621C21.2141 112.265 21.81 112.776 22.2074 113.264C22.98 114.241 23.7084 115.306 24.7459 116.017C26.1807 117.016 28.6088 116.572 30.1319 116.971C30.8162 117.149 31.3239 117.771 32.0082 117.993C32.9353 118.326 33.9506 118.303 34.8777 118.614C35.2971 118.747 37.7915 119.813 36.2243 120.523C35.7386 120.745 35.1647 120.457 34.6349 120.59C34.2597 120.679 33.8624 120.856 33.5754 121.145C32.9794 121.789 32.6924 122.677 32.0964 123.32C31.5446 123.92 30.2643 123.343 29.8008 122.876C28.8516 121.9 28.079 120.79 27.3947 119.524C27.0415 120.39 26.9312 121.256 26.7987 122.144C26.6442 123.254 26.5338 124.364 26.578 125.474C26.578 125.74 26.7325 126.006 26.9312 126.162C28.5205 127.405 34.3038 130.579 35.9152 131.09C37.2617 131.512 38.6082 131.845 39.9989 132.111C43.7073 132.844 43.023 131.845 46.3561 130.624C48.1883 129.958 50.0645 129.336 51.985 128.914C56.0024 128.026 60.1523 127.716 64.1476 126.672C67.0835 125.895 69.8427 124.541 72.6902 123.498C74.7872 122.743 76.8401 121.766 79.0475 121.278C79.9525 121.078 80.9458 121.167 81.8067 121.478C82.4689 121.722 83.0428 122.233 83.4181 122.832C83.7271 123.343 83.8375 123.986 83.7713 124.586C83.705 125.141 83.4402 125.696 83.0428 126.073C82.2482 126.806 81.1445 127.139 80.3057 127.827C79.5552 128.448 78.893 129.203 78.3411 130.002C77.8996 130.646 77.8555 131.556 77.3478 132.156C76.8622 132.733 76.1558 133.088 75.4715 133.376C73.6173 134.176 71.6307 134.686 69.7544 135.419C69.0922 135.685 68.4741 135.996 67.8781 136.373C66.2447 137.439 64.8319 138.904 63.0881 139.748C61.7416 140.391 60.2185 140.569 58.7396 140.747C55.9582 141.08 53.1328 141.013 50.3294 141.235C48.2986 141.412 46.2016 142.256 44.1929 141.368C43.5528 143.144 43.2437 146.341 43.8839 148.716C44.2591 150.07 45.7601 150.891 46.9742 151.602C48.1441 152.268 49.5568 152.445 50.8813 152.69C53.3094 153.134 55.8258 153.134 58.2539 153.622C59.3576 153.844 60.4172 154.288 61.4546 154.754C62.6245 155.287 63.7062 156.019 64.8319 156.597C65.9356 157.174 67.0172 157.795 68.1872 158.217C69.2025 158.572 70.24 158.839 71.3216 158.905C72.8447 158.994 74.3678 158.794 75.8909 158.683C77.4361 158.55 78.9813 158.373 80.5264 158.128C81.1886 158.017 81.8288 157.773 82.491 157.64C84.897 157.129 87.3472 156.796 89.7312 156.219C91.5192 155.775 93.263 155.176 94.9848 154.577C97.6999 153.622 100.371 152.556 103.042 151.491C106.905 149.959 110.768 148.45 114.586 146.785C115.845 146.252 117.059 145.608 118.229 144.942C122.069 142.722 125.888 140.48 129.597 138.06C132.422 136.218 135.159 134.242 137.808 132.178C140.236 130.291 142.576 128.293 144.85 126.228C146.814 124.452 148.668 122.566 150.545 120.679C151.163 120.057 151.626 119.28 152.288 118.725C152.399 118.636 152.575 118.836 152.62 118.947C153.105 121.012 145.71 129.647 143.967 131.112C142.62 132.244 141.185 133.288 139.817 134.42C137.94 135.974 136.175 137.639 134.298 139.193C132.93 140.325 131.561 141.479 130.082 142.456C127.544 144.187 124.873 145.697 122.224 147.517C120.326 148.805 118.295 150.403 116.463 151.58C114.962 152.556 113.681 152.912 112.092 153.533C109.818 154.421 107.611 155.442 105.315 156.241C104.013 156.685 102.622 156.885 101.298 157.263C99.1567 157.862 97.5012 158.484 95.2938 158.905C99.5099 159.349 101.96 160.615 104.499 159.46C105.536 158.972 106.397 158.106 107.456 157.684C109.112 157.018 110.856 156.574 112.578 156.197C116.948 155.242 123.482 154.177 125.8 152.69C127.19 151.802 127.985 150.403 129.287 149.382C130.237 148.627 131.385 148.161 132.378 147.473C135.821 145.031 139.464 142.722 142.311 139.592C145.578 135.996 147.653 131.467 150.523 127.56C152.906 124.297 156.416 121.589 158.028 117.637C158.822 115.684 158.756 113.464 159.286 111.422C159.749 109.668 160.257 107.914 160.986 106.271C163.988 99.5452 164.981 99.9448 165.842 91.3981C166.04 89.4224 165.996 87.3801 165.577 85.4488C165.246 83.8949 164.142 82.5851 163.612 81.0756C163.038 79.4551 162.751 77.7458 162.222 76.1252C161.868 75.0153 161.471 73.9275 161.03 72.862C160.566 71.752 160.036 70.7087 159.529 69.6209C159.926 71.7298 160.434 73.8165 160.743 75.9476C161.295 79.9435 161.493 84.4499 161.272 88.4901C160.566 101.21 155.71 110.578 146.902 119.635C144.827 121.766 142.775 123.964 140.457 125.851C139.419 126.717 138.139 127.227 136.903 127.805C135.225 128.581 133.482 129.181 131.782 129.913C130.06 130.668 128.294 131.312 126.661 132.222C125.601 132.821 124.74 133.687 123.769 134.442C122.732 135.241 121.738 136.129 120.635 136.862C119.31 137.705 117.942 138.482 116.529 139.148C113.703 140.458 110.834 141.634 107.942 142.744C106.11 143.455 103.461 144.831 99.8852 145.32C99.5541 145.364 99.1126 145.364 98.936 145.098C98.8035 144.898 99.0464 144.543 99.2671 144.432C101.761 143.166 103.748 142.012 105.845 140.569C107.743 139.259 109.333 137.505 111.231 136.174C112.732 135.108 114.52 134.509 115.999 133.421C117.103 132.599 118.074 131.556 118.935 130.468C120.524 128.448 121.738 126.162 123.35 124.142C124.343 122.899 125.447 121.7 126.705 120.701C127.875 119.768 129.221 119.014 130.59 118.392C132.378 117.593 134.431 117.46 136.108 116.483C137.278 115.817 138.227 114.729 138.934 113.575C140.082 111.732 140.523 109.49 141.627 107.626C143.304 104.784 145.335 102.142 147.278 99.5008C148.823 97.4141 150.412 95.3496 152.112 93.3739C152.597 92.7967 153.216 92.3083 153.856 91.9087C154.121 91.7533 154.452 91.6867 154.739 91.7755C155.29 91.9309 155.357 92.7079 156.571 92.5747C158.491 92.3749 159.198 89.6222 159.705 88.0017C160.213 86.359 160.743 81.786 160.699 79.9657C160.699 79.6327 160.632 79.1887 160.301 79.0333C160.147 78.9667 159.926 79.2109 159.661 79.0999C159.44 79.0333 159.33 78.7447 159.286 78.5227C158.866 76.0142 158.712 73.4392 158.403 70.9085C158.248 69.6209 158.16 68.3112 157.873 67.0458C157.697 66.2689 157.365 65.5363 157.012 64.8259C156.902 64.6039 156.725 64.3376 156.482 64.271C156.328 64.2266 156.24 64.493 156.129 64.6039C155.975 64.7149 155.842 64.8703 155.666 64.8925C155.401 64.9369 154.981 65.0035 154.871 64.7593C154.739 64.382 154.628 64.0046 154.562 63.6272C154.076 61.2963 153.745 59.032 153.216 56.6567C153.127 56.3015 152.973 55.9463 152.929 55.5912C152.929 55.5246 152.973 55.3914 153.061 55.3914C153.171 55.3914 153.26 55.5246 153.304 55.6134C153.635 56.2127 153.9 56.8343 154.209 57.4337C154.474 57.9664 154.761 58.5658 155.026 59.0542C155.268 59.4982 155.423 59.1208 155.423 58.9876C155.423 58.1662 155.313 57.3449 155.092 56.5457C154.65 54.9696 154.143 53.4379 153.48 51.9505C152.62 49.997 151.759 46.423 151.185 45.868C148.624 43.4039 144.651 40.0297 142.002 36.6776C139.11 33.0148 135.358 25.7779 132.069 23.6468C130.987 22.9364 129.265 23.9576 125.16 21.8709C122.643 20.5833 120.524 19.2514 118.229 17.6087C116.242 16.1879 93.859 15.4554 86.9499 16.4765C87.0603 17.4977 88.6937 17.8085 89.7754 17.8307C91.166 17.8529 92.5346 17.5199 93.9252 17.4311C94.146 17.4311 94.5212 17.3201 94.5874 17.5199C94.6316 17.7419 94.2563 17.8529 94.0577 17.986C93.2189 18.5854 92.4463 18.9184 91.7179 19.762C91.0777 20.5389 92.6449 20.4279 92.9981 20.4723C94.8744 20.6055 98.0972 20.7165 98.8698 20.7609C100.238 20.8275 101.629 20.5389 102.975 20.6943C104.454 20.8719 105.955 21.2271 107.346 21.7599C108.317 22.1151 109.09 22.892 110.017 23.3582C111.584 24.1352 113.152 24.9787 114.807 25.5115C115.756 25.8223 116.816 25.6225 117.809 25.8001C118.317 25.8889 118.78 26.1997 119.288 26.3551C120.016 26.5993 120.855 26.5993 121.518 26.9766C122.378 27.4872 123.217 28.1532 123.791 28.9968C124.475 29.9957 124.74 31.2167 125.138 32.371C125.601 33.7473 125.778 35.2347 126.352 36.5666C126.661 37.277 127.213 37.832 127.742 38.3869C128.714 39.4081 129.707 40.4958 130.877 41.295C131.936 42.0276 132.245 40.629 132.466 40.4292C132.554 40.3404 132.731 40.3626 132.863 40.4292C133.128 40.5624 133.437 40.6956 133.592 40.962C133.901 41.5392 134.122 42.183 134.342 42.8045C134.762 43.9589 134.674 43.9589 135.556 44.6914C136.152 45.202 136.793 45.6682 137.367 46.2232C137.764 46.6228 138.183 47.0223 138.448 47.5107C138.801 48.1767 139.022 48.8871 139.177 49.6196C139.331 50.3522 139.221 51.107 139.331 51.8395C139.375 52.1503 139.53 52.4389 139.684 52.7053C140.082 53.3047 140.656 53.793 141.009 54.4146C141.384 55.1028 141.494 55.9019 141.825 56.5901C142.223 57.3893 143.039 58.033 143.238 58.8988C143.68 60.7191 142.73 63.9602 141.825 65.5363C141.229 66.5797 140.28 67.3788 139.486 68.289C138.514 69.4211 137.433 70.4423 136.594 71.6632C136.042 72.4846 135.755 73.4614 135.336 74.3715C134.519 76.1918 133.901 78.1231 132.908 79.8547C132.135 81.2088 131.12 82.4075 130.082 83.5619C128.868 84.916 127.588 86.1814 126.197 87.3579C124.52 88.7787 122.643 89.9774 120.944 91.3537C119.332 92.6635 117.853 94.1286 116.198 95.394C114.388 96.7703 112.556 98.1022 110.613 99.2566C109.046 100.167 107.368 100.855 105.713 101.565C104.543 102.076 103.307 102.431 102.137 102.964C101.188 103.386 100.282 103.941 99.3775 104.451C97.8323 105.295 96.3313 106.205 94.764 107.026C93.2189 107.848 91.7178 108.736 90.0844 109.379C89.1352 109.757 88.1198 109.979 87.0823 110.112C86.685 110.156 86.2435 110.112 85.9345 109.89C85.7358 109.757 85.6696 109.402 85.8021 109.202C86.089 108.736 86.5746 108.403 87.0603 108.136C88.8482 107.115 90.7024 106.271 92.5567 105.361C94.5433 104.385 96.6182 103.519 98.5828 102.453C100.04 101.654 101.474 100.811 102.821 99.8116C104.565 98.524 106.287 97.1477 107.81 95.616C110.039 93.3739 111.982 90.8432 114.123 88.5345C115.138 87.4467 116.198 86.4478 117.279 85.4266C118.383 84.4055 119.575 83.4953 120.635 82.4075C122.003 81.0312 123.305 79.6105 124.52 78.1009C125.601 76.7468 126.617 75.3261 127.544 73.8609C128.382 72.5512 129.398 71.2858 129.839 69.7985C130.678 66.9126 130.899 63.8714 131.318 60.8967C131.517 59.4538 131.76 57.9886 131.738 56.5235C131.738 55.1472 131.23 53.793 131.252 52.4167C131.252 51.7285 131.605 51.0626 131.804 50.3966C131.958 49.9082 132.245 49.442 132.29 48.9315C132.356 48.3765 132.069 45.202 131.892 44.7358C131.208 42.8933 129.707 42.4271 128.007 43.2707C127.389 43.5815 126.727 44.8912 126.528 45.5128C126.263 46.4008 126.241 47.3331 125.998 48.2211C125.491 50.108 124.851 50.0636 122.996 50.663C121.562 51.1292 120.039 51.2846 118.626 51.7951C118.162 51.9505 117.699 52.2169 117.434 52.6165C117.125 53.1049 117.103 53.7042 117.037 54.2592C116.97 54.9252 117.169 55.6134 117.014 56.2349C116.573 58.0108 114.476 59.3428 113.196 60.5415C112.644 61.0743 112.224 61.7847 111.562 62.1621C110.591 62.6948 109.487 62.8946 108.406 63.161C107.125 63.4718 105.779 63.5162 104.499 63.8492C103.66 64.0712 102.821 64.4042 102.07 64.8481C101.541 65.1589 101.055 65.5585 100.68 66.0469C100.503 66.2689 100.525 66.6241 100.525 66.9126C100.525 67.0902 100.592 67.2678 100.724 67.401C100.878 67.5564 101.143 67.512 101.276 67.6674C101.651 68.067 101.276 69.1547 100.724 69.6431C100.393 69.9539 99.8189 69.8873 99.4878 70.1981C98.9801 70.6865 98.7815 71.419 98.34 71.9518C96.6845 73.8831 93.9473 75.8144 91.3426 76.0142C90.0182 76.1252 88.6937 75.881 87.3693 75.881C85.6917 75.881 84.0362 75.9032 82.3806 76.0142C79.8421 76.1696 78.0983 76.0364 76.6856 78.4339C76.3324 79.0555 76.1558 79.7881 75.7364 80.343C75.4936 80.676 75.0963 80.898 74.721 81.0312C74.2133 81.231 73.6615 81.2976 73.1096 81.3642C72.3591 81.453 71.5644 81.2754 70.836 81.4974C70.4608 81.6084 70.1959 81.9636 69.9751 82.2966C69.7544 82.6517 69.4895 83.0957 69.5557 83.5175C69.622 83.9615 70.1738 84.2057 70.3062 84.6496C70.4166 84.9826 70.1296 85.36 70.24 85.7152C70.3504 86.0704 70.5711 86.4478 70.9022 86.6476C71.2113 86.8473 71.6086 86.8029 71.9618 86.8029C72.933 86.8695 73.9484 86.692 74.8976 86.8695C76.0675 87.0915 76.0454 88.6899 75.0963 88.8897C73.7498 89.1782 72.337 89.2004 70.9464 89.3114C70.6153 89.3336 70.2621 89.1782 69.931 89.2448C69.1143 89.4446 68.3637 89.9996 67.5249 90.1106C66.5316 90.2216 65.5162 89.711 64.5229 89.8886C63.5296 90.0662 62.7128 90.7766 61.7637 91.1096C61.1015 91.3315 60.3289 91.2427 59.6887 91.5313C57.5696 92.5303 57.6579 94.7724 59.6004 95.1942C61.2339 95.5494 62.9777 95.2608 64.6333 95.4828C67.7677 95.9267 68.3858 96.6149 72.337 96.3707C74.0588 96.2597 75.8026 96.1043 77.4582 95.6382C78.1866 95.4384 78.6501 94.6836 79.3565 94.4394C80.2174 94.1508 81.2549 94.4394 82.0937 94.0398C82.8221 93.7068 83.1091 92.7745 83.7933 92.3971C84.5218 91.9975 85.4047 91.9975 86.2215 91.7977C87.5017 91.5091 88.76 91.1984 90.0402 90.932C90.9232 90.7544 92.7553 90.488 92.6008 92.0197C92.5346 92.6857 92.3138 93.3517 91.9386 93.9066C91.3647 94.7502 90.6362 95.505 89.7974 96.0821C88.8483 96.7703 87.6342 97.0367 86.6409 97.6583C85.9787 98.0578 85.5592 98.8348 84.875 99.1456C83.0649 99.967 81.1003 100.411 79.2241 101.055C77.9879 101.476 76.7076 101.832 75.5157 102.342C75.1183 102.52 74.7872 102.808 74.434 103.075C73.6173 103.652 72.8447 104.318 72.0059 104.851C71.2996 105.295 70.5711 105.761 69.7765 106.005C67.9664 106.582 66.0901 106.96 64.2139 107.359C63.066 107.603 61.8961 107.692 60.7703 107.914C59.3576 108.203 57.967 108.536 56.5984 108.913C55.5168 109.202 54.4352 109.557 53.3756 109.912C52.581 110.179 51.8304 110.578 51.0137 110.8C50.3515 110.978 49.6893 111.044 49.005 111.089C47.1729 111.244 45.3187 111.333 43.4865 111.422C42.14 111.488 40.7935 111.555 39.447 111.577C38.5199 111.577 37.5708 111.688 36.6437 111.555C34.8998 111.288 33.2001 110.756 31.4784 110.334C30.3747 110.068 29.2931 109.757 28.1894 109.468C27.483 109.291 26.7546 109.202 26.0924 108.98C25.4743 108.758 24.8121 108.536 24.3265 108.114C23.5097 107.426 22.9358 106.516 22.2515 105.717L22.3177 105.916ZM41.6103 93.1519C41.1467 93.6402 40.7715 94.3062 40.6832 94.9722C40.3079 97.9247 45.0317 99.9448 48.0117 100.7C49.4906 101.077 50.3515 100.944 52.6693 99.7228C53.0224 99.5452 53.5522 99.5452 53.7509 99.19C54.1923 98.4796 54.1261 97.5695 54.4793 96.8147C54.7663 96.1931 55.3843 95.7269 55.6713 95.1054C55.8037 94.8168 55.8258 94.4172 55.6713 94.1508C55.4064 93.6402 55.0311 93.1075 54.4793 92.8855C52.5147 92.1307 43.3099 91.3538 41.5882 93.1519H41.6103Z" fill="url(#paint3_radial_284_13057)"/>
<path style="mix-blend-mode:multiply" fill-rule="evenodd" clip-rule="evenodd" d="M22.3177 105.916C21.9425 107.825 21.2582 109.69 21.2141 111.621C21.2141 112.265 21.81 112.776 22.2074 113.264C22.98 114.241 23.7084 115.306 24.7459 116.017C26.1807 117.016 28.6088 116.572 30.1319 116.971C30.8162 117.149 31.3239 117.771 32.0082 117.993C32.9353 118.326 33.9506 118.303 34.8777 118.614C35.2971 118.747 37.7915 119.813 36.2243 120.523C35.7386 120.745 35.1647 120.457 34.6349 120.59C34.2597 120.679 33.8624 120.856 33.5754 121.145C32.9794 121.789 32.6924 122.677 32.0964 123.32C31.5446 123.92 30.2643 123.343 29.8008 122.876C28.8516 121.9 28.079 120.79 27.3947 119.524C27.0415 120.39 26.9312 121.256 26.7987 122.144C26.6442 123.254 26.5338 124.364 26.578 125.474C26.578 125.74 26.7325 126.006 26.9312 126.162C28.5205 127.405 34.3038 130.579 35.9152 131.09C37.2617 131.512 38.6082 131.845 39.9989 132.111C43.7073 132.844 43.023 131.845 46.3561 130.624C48.1883 129.958 50.0645 129.336 51.985 128.914C56.0024 128.026 60.1523 127.716 64.1476 126.672C67.0835 125.895 69.8427 124.541 72.6902 123.498C74.7872 122.743 76.8401 121.766 79.0475 121.278C79.9525 121.078 80.9458 121.167 81.8067 121.478C82.4689 121.722 83.0428 122.233 83.4181 122.832C83.7271 123.343 83.8375 123.986 83.7713 124.586C83.705 125.141 83.4402 125.696 83.0428 126.073C82.2482 126.806 81.1445 127.139 80.3057 127.827C79.5552 128.448 78.893 129.203 78.3411 130.002C77.8996 130.646 77.8555 131.556 77.3478 132.156C76.8622 132.733 76.1558 133.088 75.4715 133.376C73.6173 134.176 71.6307 134.686 69.7544 135.419C69.0922 135.685 68.4741 135.996 67.8781 136.373C66.2447 137.439 64.8319 138.904 63.0881 139.748C61.7416 140.391 60.2185 140.569 58.7396 140.747C55.9582 141.08 53.1328 141.013 50.3294 141.235C48.2986 141.412 46.2016 142.256 44.1929 141.368C43.5528 143.144 43.2437 146.341 43.8839 148.716C44.2591 150.07 45.7601 150.891 46.9742 151.602C48.1441 152.268 49.5568 152.445 50.8813 152.69C53.3094 153.134 55.8258 153.134 58.2539 153.622C59.3576 153.844 60.4172 154.288 61.4546 154.754C62.6245 155.287 63.7062 156.019 64.8319 156.597C65.9356 157.174 67.0172 157.795 68.1872 158.217C69.2025 158.572 70.24 158.839 71.3216 158.905C72.8447 158.994 74.3678 158.794 75.8909 158.683C77.4361 158.55 78.9813 158.373 80.5264 158.128C81.1886 158.017 81.8288 157.773 82.491 157.64C84.897 157.129 87.3472 156.796 89.7312 156.219C91.5192 155.775 93.263 155.176 94.9848 154.577C97.6999 153.622 100.371 152.556 103.042 151.491C106.905 149.959 110.768 148.45 114.586 146.785C115.845 146.252 117.059 145.608 118.229 144.942C122.069 142.722 125.888 140.48 129.597 138.06C132.422 136.218 135.159 134.242 137.808 132.178C140.236 130.291 142.576 128.293 144.85 126.228C146.814 124.452 148.668 122.566 150.545 120.679C151.163 120.057 151.626 119.28 152.288 118.725C152.399 118.636 152.575 118.836 152.62 118.947C153.105 121.012 145.71 129.647 143.967 131.112C142.62 132.244 141.185 133.288 139.817 134.42C137.94 135.974 136.175 137.639 134.298 139.193C132.93 140.325 131.561 141.479 130.082 142.456C127.544 144.187 124.873 145.697 122.224 147.517C120.326 148.805 118.295 150.403 116.463 151.58C114.962 152.556 113.681 152.912 112.092 153.533C109.818 154.421 107.611 155.442 105.315 156.241C104.013 156.685 102.622 156.885 101.298 157.263C99.1567 157.862 97.5012 158.484 95.2938 158.905C99.5099 159.349 101.96 160.615 104.499 159.46C105.536 158.972 106.397 158.106 107.456 157.684C109.112 157.018 110.856 156.574 112.578 156.197C116.948 155.242 123.482 154.177 125.8 152.69C127.19 151.802 127.985 150.403 129.287 149.382C130.237 148.627 131.385 148.161 132.378 147.473C135.821 145.031 139.464 142.722 142.311 139.592C145.578 135.996 147.653 131.467 150.523 127.56C152.906 124.297 156.416 121.589 158.028 117.637C158.822 115.684 158.756 113.464 159.286 111.422C159.749 109.668 160.257 107.914 160.986 106.271C163.988 99.5452 164.981 99.9448 165.842 91.3981C166.04 89.4224 165.996 87.3801 165.577 85.4488C165.246 83.8949 164.142 82.5851 163.612 81.0756C163.038 79.4551 162.751 77.7458 162.222 76.1252C161.868 75.0153 161.471 73.9275 161.03 72.862C160.566 71.752 160.036 70.7087 159.529 69.6209C159.926 71.7298 160.434 73.8165 160.743 75.9476C161.295 79.9435 161.493 84.4499 161.272 88.4901C160.566 101.21 155.71 110.578 146.902 119.635C144.827 121.766 142.775 123.964 140.457 125.851C139.419 126.717 138.139 127.227 136.903 127.805C135.225 128.581 133.482 129.181 131.782 129.913C130.06 130.668 128.294 131.312 126.661 132.222C125.601 132.821 124.74 133.687 123.769 134.442C122.732 135.241 121.738 136.129 120.635 136.862C119.31 137.705 117.942 138.482 116.529 139.148C113.703 140.458 110.834 141.634 107.942 142.744C106.11 143.455 103.461 144.831 99.8852 145.32C99.5541 145.364 99.1126 145.364 98.936 145.098C98.8035 144.898 99.0464 144.543 99.2671 144.432C101.761 143.166 103.748 142.012 105.845 140.569C107.743 139.259 109.333 137.505 111.231 136.174C112.732 135.108 114.52 134.509 115.999 133.421C117.103 132.599 118.074 131.556 118.935 130.468C120.524 128.448 121.738 126.162 123.35 124.142C124.343 122.899 125.447 121.7 126.705 120.701C127.875 119.768 129.221 119.014 130.59 118.392C132.378 117.593 134.431 117.46 136.108 116.483C137.278 115.817 138.227 114.729 138.934 113.575C140.082 111.732 140.523 109.49 141.627 107.626C143.304 104.784 145.335 102.142 147.278 99.5008C148.823 97.4141 150.412 95.3496 152.112 93.3739C152.597 92.7967 153.216 92.3083 153.856 91.9087C154.121 91.7533 154.452 91.6867 154.739 91.7755C155.29 91.9309 155.357 92.7079 156.571 92.5747C158.491 92.3749 159.198 89.6222 159.705 88.0017C160.213 86.359 160.743 81.786 160.699 79.9657C160.699 79.6327 160.632 79.1887 160.301 79.0333C160.147 78.9667 159.926 79.2109 159.661 79.0999C159.44 79.0333 159.33 78.7447 159.286 78.5227C158.866 76.0142 158.712 73.4392 158.403 70.9085C158.248 69.6209 158.16 68.3112 157.873 67.0458C157.697 66.2689 157.365 65.5363 157.012 64.8259C156.902 64.6039 156.725 64.3376 156.482 64.271C156.328 64.2266 156.24 64.493 156.129 64.6039C155.975 64.7149 155.842 64.8703 155.666 64.8925C155.401 64.9369 154.981 65.0035 154.871 64.7593C154.739 64.382 154.628 64.0046 154.562 63.6272C154.076 61.2963 153.745 59.032 153.216 56.6567C153.127 56.3015 152.973 55.9463 152.929 55.5912C152.929 55.5246 152.973 55.3914 153.061 55.3914C153.171 55.3914 153.26 55.5246 153.304 55.6134C153.635 56.2127 153.9 56.8343 154.209 57.4337C154.474 57.9664 154.761 58.5658 155.026 59.0542C155.268 59.4982 155.423 59.1208 155.423 58.9876C155.423 58.1662 155.313 57.3449 155.092 56.5457C154.65 54.9696 154.143 53.4379 153.48 51.9505C152.62 49.997 151.759 46.423 151.185 45.868C148.624 43.4039 144.651 40.0297 142.002 36.6776C139.11 33.0148 135.358 25.7779 132.069 23.6468C130.987 22.9364 129.265 23.9576 125.16 21.8709C122.643 20.5833 120.524 19.2514 118.229 17.6087C116.242 16.1879 93.859 15.4554 86.9499 16.4765C87.0603 17.4977 88.6937 17.8085 89.7754 17.8307C91.166 17.8529 92.5346 17.5199 93.9252 17.4311C94.146 17.4311 94.5212 17.3201 94.5874 17.5199C94.6316 17.7419 94.2563 17.8529 94.0577 17.986C93.2189 18.5854 92.4463 18.9184 91.7179 19.762C91.0777 20.5389 92.6449 20.4279 92.9981 20.4723C94.8744 20.6055 98.0972 20.7165 98.8698 20.7609C100.238 20.8275 101.629 20.5389 102.975 20.6943C104.454 20.8719 105.955 21.2271 107.346 21.7599C108.317 22.1151 109.09 22.892 110.017 23.3582C111.584 24.1352 113.152 24.9787 114.807 25.5115C115.756 25.8223 116.816 25.6225 117.809 25.8001C118.317 25.8889 118.78 26.1997 119.288 26.3551C120.016 26.5993 120.855 26.5993 121.518 26.9766C122.378 27.4872 123.217 28.1532 123.791 28.9968C124.475 29.9957 124.74 31.2167 125.138 32.371C125.601 33.7473 125.778 35.2347 126.352 36.5666C126.661 37.277 127.213 37.832 127.742 38.3869C128.714 39.4081 129.707 40.4958 130.877 41.295C131.936 42.0276 132.245 40.629 132.466 40.4292C132.554 40.3404 132.731 40.3626 132.863 40.4292C133.128 40.5624 133.437 40.6956 133.592 40.962C133.901 41.5392 134.122 42.183 134.342 42.8045C134.762 43.9589 134.674 43.9589 135.556 44.6914C136.152 45.202 136.793 45.6682 137.367 46.2232C137.764 46.6228 138.183 47.0223 138.448 47.5107C138.801 48.1767 139.022 48.8871 139.177 49.6196C139.331 50.3522 139.221 51.107 139.331 51.8395C139.375 52.1503 139.53 52.4389 139.684 52.7053C140.082 53.3047 140.656 53.793 141.009 54.4146C141.384 55.1028 141.494 55.9019 141.825 56.5901C142.223 57.3893 143.039 58.033 143.238 58.8988C143.68 60.7191 142.73 63.9602 141.825 65.5363C141.229 66.5797 140.28 67.3788 139.486 68.289C138.514 69.4211 137.433 70.4423 136.594 71.6632C136.042 72.4846 135.755 73.4614 135.336 74.3715C134.519 76.1918 133.901 78.1231 132.908 79.8547C132.135 81.2088 131.12 82.4075 130.082 83.5619C128.868 84.916 127.588 86.1814 126.197 87.3579C124.52 88.7787 122.643 89.9774 120.944 91.3537C119.332 92.6635 117.853 94.1286 116.198 95.394C114.388 96.7703 112.556 98.1022 110.613 99.2566C109.046 100.167 107.368 100.855 105.713 101.565C104.543 102.076 103.307 102.431 102.137 102.964C101.188 103.386 100.282 103.941 99.3775 104.451C97.8323 105.295 96.3313 106.205 94.764 107.026C93.2189 107.848 91.7178 108.736 90.0844 109.379C89.1352 109.757 88.1198 109.979 87.0823 110.112C86.685 110.156 86.2435 110.112 85.9345 109.89C85.7358 109.757 85.6696 109.402 85.8021 109.202C86.089 108.736 86.5746 108.403 87.0603 108.136C88.8482 107.115 90.7024 106.271 92.5567 105.361C94.5433 104.385 96.6182 103.519 98.5828 102.453C100.04 101.654 101.474 100.811 102.821 99.8116C104.565 98.524 106.287 97.1477 107.81 95.616C110.039 93.3739 111.982 90.8432 114.123 88.5345C115.138 87.4467 116.198 86.4478 117.279 85.4266C118.383 84.4055 119.575 83.4953 120.635 82.4075C122.003 81.0312 123.305 79.6105 124.52 78.1009C125.601 76.7468 126.617 75.3261 127.544 73.8609C128.382 72.5512 129.398 71.2858 129.839 69.7985C130.678 66.9126 130.899 63.8714 131.318 60.8967C131.517 59.4538 131.76 57.9886 131.738 56.5235C131.738 55.1472 131.23 53.793 131.252 52.4167C131.252 51.7285 131.605 51.0626 131.804 50.3966C131.958 49.9082 132.245 49.442 132.29 48.9315C132.356 48.3765 132.069 45.202 131.892 44.7358C131.208 42.8933 129.707 42.4271 128.007 43.2707C127.389 43.5815 126.727 44.8912 126.528 45.5128C126.263 46.4008 126.241 47.3331 125.998 48.2211C125.491 50.108 124.851 50.0636 122.996 50.663C121.562 51.1292 120.039 51.2846 118.626 51.7951C118.162 51.9505 117.699 52.2169 117.434 52.6165C117.125 53.1049 117.103 53.7042 117.037 54.2592C116.97 54.9252 117.169 55.6134 117.014 56.2349C116.573 58.0108 114.476 59.3428 113.196 60.5415C112.644 61.0743 112.224 61.7847 111.562 62.1621C110.591 62.6948 109.487 62.8946 108.406 63.161C107.125 63.4718 105.779 63.5162 104.499 63.8492C103.66 64.0712 102.821 64.4042 102.07 64.8481C101.541 65.1589 101.055 65.5585 100.68 66.0469C100.503 66.2689 100.525 66.6241 100.525 66.9126C100.525 67.0902 100.592 67.2678 100.724 67.401C100.878 67.5564 101.143 67.512 101.276 67.6674C101.651 68.067 101.276 69.1547 100.724 69.6431C100.393 69.9539 99.8189 69.8873 99.4878 70.1981C98.9801 70.6865 98.7815 71.419 98.34 71.9518C96.6845 73.8831 93.9473 75.8144 91.3426 76.0142C90.0182 76.1252 88.6937 75.881 87.3693 75.881C85.6917 75.881 84.0362 75.9032 82.3806 76.0142C79.8421 76.1696 78.0983 76.0364 76.6856 78.4339C76.3324 79.0555 76.1558 79.7881 75.7364 80.343C75.4936 80.676 75.0963 80.898 74.721 81.0312C74.2133 81.231 73.6615 81.2976 73.1096 81.3642C72.3591 81.453 71.5644 81.2754 70.836 81.4974C70.4608 81.6084 70.1959 81.9636 69.9751 82.2966C69.7544 82.6517 69.4895 83.0957 69.5557 83.5175C69.622 83.9615 70.1738 84.2057 70.3062 84.6496C70.4166 84.9826 70.1296 85.36 70.24 85.7152C70.3504 86.0704 70.5711 86.4478 70.9022 86.6476C71.2113 86.8473 71.6086 86.8029 71.9618 86.8029C72.933 86.8695 73.9484 86.692 74.8976 86.8695C76.0675 87.0915 76.0454 88.6899 75.0963 88.8897C73.7498 89.1782 72.337 89.2004 70.9464 89.3114C70.6153 89.3336 70.2621 89.1782 69.931 89.2448C69.1143 89.4446 68.3637 89.9996 67.5249 90.1106C66.5316 90.2216 65.5162 89.711 64.5229 89.8886C63.5296 90.0662 62.7128 90.7766 61.7637 91.1096C61.1015 91.3315 60.3289 91.2427 59.6887 91.5313C57.5696 92.5303 57.6579 94.7724 59.6004 95.1942C61.2339 95.5494 62.9777 95.2608 64.6333 95.4828C67.7677 95.9267 68.3858 96.6149 72.337 96.3707C74.0588 96.2597 75.8026 96.1043 77.4582 95.6382C78.1866 95.4384 78.6501 94.6836 79.3565 94.4394C80.2174 94.1508 81.2549 94.4394 82.0937 94.0398C82.8221 93.7068 83.1091 92.7745 83.7933 92.3971C84.5218 91.9975 85.4047 91.9975 86.2215 91.7977C87.5017 91.5091 88.76 91.1984 90.0402 90.932C90.9232 90.7544 92.7553 90.488 92.6008 92.0197C92.5346 92.6857 92.3138 93.3517 91.9386 93.9066C91.3647 94.7502 90.6362 95.505 89.7974 96.0821C88.8483 96.7703 87.6342 97.0367 86.6409 97.6583C85.9787 98.0578 85.5592 98.8348 84.875 99.1456C83.0649 99.967 81.1003 100.411 79.2241 101.055C77.9879 101.476 76.7076 101.832 75.5157 102.342C75.1183 102.52 74.7872 102.808 74.434 103.075C73.6173 103.652 72.8447 104.318 72.0059 104.851C71.2996 105.295 70.5711 105.761 69.7765 106.005C67.9664 106.582 66.0901 106.96 64.2139 107.359C63.066 107.603 61.8961 107.692 60.7703 107.914C59.3576 108.203 57.967 108.536 56.5984 108.913C55.5168 109.202 54.4352 109.557 53.3756 109.912C52.581 110.179 51.8304 110.578 51.0137 110.8C50.3515 110.978 49.6893 111.044 49.005 111.089C47.1729 111.244 45.3187 111.333 43.4865 111.422C42.14 111.488 40.7935 111.555 39.447 111.577C38.5199 111.577 37.5708 111.688 36.6437 111.555C34.8998 111.288 33.2001 110.756 31.4784 110.334C30.3747 110.068 29.2931 109.757 28.1894 109.468C27.483 109.291 26.7546 109.202 26.0924 108.98C25.4743 108.758 24.8121 108.536 24.3265 108.114C23.5097 107.426 22.9358 106.516 22.2515 105.717L22.3177 105.916ZM41.6103 93.1519C41.1467 93.6402 40.7715 94.3062 40.6832 94.9722C40.3079 97.9247 45.0317 99.9448 48.0117 100.7C49.4906 101.077 50.3515 100.944 52.6693 99.7228C53.0224 99.5452 53.5522 99.5452 53.7509 99.19C54.1923 98.4796 54.1261 97.5695 54.4793 96.8147C54.7663 96.1931 55.3843 95.7269 55.6713 95.1054C55.8037 94.8168 55.8258 94.4172 55.6713 94.1508C55.4064 93.6402 55.0311 93.1075 54.4793 92.8855C52.5147 92.1307 43.3099 91.3538 41.5882 93.1519H41.6103Z" fill="url(#paint4_radial_284_13057)"/>
<path style="mix-blend-mode:multiply" fill-rule="evenodd" clip-rule="evenodd" d="M42.3608 119.679C46.3341 118.214 53.0004 117.26 57.3489 116.971C60.0861 116.771 65.2955 117.171 67.6132 116.638C73.0434 115.373 76.3765 112.887 81.2328 110.689C83.0208 109.868 85.3164 108.891 87.3914 108.092C89.1131 107.137 90.9011 106.316 92.667 105.45C94.6537 104.473 96.7286 103.607 98.6932 102.542C100.15 101.743 101.585 100.899 102.931 99.9002C104.675 98.6126 106.397 97.2363 107.92 95.7046C110.149 93.4625 112.092 90.9318 114.233 88.6231C115.249 87.5353 116.308 86.5364 117.39 85.5152C118.493 84.4941 119.685 83.5839 120.745 82.4962C122.114 81.1198 123.416 79.6991 124.63 78.1895C125.712 76.8354 126.727 75.4147 127.654 73.9495C128.493 72.6398 129.508 71.3745 129.95 69.8871C130.789 67.0013 131.009 63.96 131.429 60.9853C131.627 59.5424 131.87 58.0773 131.848 56.6121C131.848 55.2358 131.34 53.8816 131.362 52.5053C131.362 51.8171 131.716 51.1512 131.914 50.4852C132.069 49.9968 132.356 49.5306 132.4 49.0201C132.466 48.4651 132.179 45.2906 132.003 44.8245C131.605 43.7367 130.899 43.1151 130.038 42.9819C130.259 43.1817 130.457 43.4037 130.612 43.6701C130.811 44.0253 130.877 44.4693 130.877 44.891C130.877 45.4682 130.855 46.0454 130.656 46.5782C130.391 47.2663 129.95 47.8657 129.508 48.4207C128.89 49.2199 127.897 49.7526 127.477 50.6628C127.146 51.351 127.19 52.1945 127.345 52.9493C127.522 53.7928 128.206 54.4588 128.471 55.258C128.758 56.1459 129.067 57.1005 129.001 58.0329C128.89 59.2982 128.427 60.4969 127.941 61.6735C127.544 62.6502 126.727 63.405 126.352 64.3818C125.756 66.0467 125.778 67.9114 125.093 69.5319C124.255 71.5298 123.151 73.439 121.804 75.1483C120.237 77.1462 118.383 78.9443 116.418 80.5648C113.549 82.9179 110.039 84.4719 107.346 87.0469C105.337 88.9561 104.432 91.8197 102.534 93.862C101.121 95.3938 99.3995 96.6147 97.6116 97.6359C96.4637 98.2796 95.0068 98.1908 93.859 98.8346C91.1219 100.344 88.6937 102.409 86.0228 104.051C83.7713 105.45 81.4977 106.804 79.1137 107.958C76.818 109.091 74.4561 110.178 72.0059 110.911C69.5778 111.643 67.0172 111.865 64.5008 112.332C61.7195 112.842 58.9161 113.175 56.179 113.863C53.9054 114.418 51.7642 115.395 49.5127 116.017C48.4973 116.305 47.4598 116.572 46.4224 116.572C45.0538 116.572 43.7294 116.194 42.3828 116.039C41.7206 115.972 41.0363 115.795 40.3741 115.906C39.5353 116.061 38.8069 116.572 38.0122 116.838C37.5928 116.971 37.1514 117.149 36.6878 117.104C35.4296 116.993 34.1493 116.838 32.9353 116.416C32.0964 116.128 29.0282 114.108 28.8295 114.108C28.0349 114.108 27.2844 114.663 26.4897 114.663C26.0482 114.663 25.6067 114.618 25.1653 114.529C24.7679 114.441 24.3927 114.307 24.0616 114.108C23.1345 113.597 21.9646 111.621 21.788 111.199C21.5893 110.733 21.6335 109.535 21.7217 108.358C21.4569 109.424 21.2141 110.511 21.2141 111.599C21.2141 112.243 21.81 112.753 22.2074 113.242C22.98 114.219 23.7084 115.284 24.7459 115.994C25.1211 116.239 25.5405 116.416 26.0041 116.505C27.3506 116.816 28.984 116.638 30.1319 116.949C30.8162 117.127 31.3239 117.748 32.0082 117.97C32.9353 118.303 33.9506 118.281 34.8777 118.592C35.2971 118.725 37.7915 119.79 36.2243 120.501C35.7386 120.723 35.1647 120.434 34.6349 120.567C34.2597 120.656 33.8624 120.834 33.5754 121.122C33.465 121.233 33.3767 121.367 33.2884 121.5C33.752 121.189 34.2597 120.989 34.9881 120.989C35.9594 120.989 37.2396 121.411 38.0785 121.344C39.9327 121.211 40.7494 120.212 42.3387 119.635L42.3608 119.679Z" fill="url(#paint5_radial_284_13057)"/>
<path style="mix-blend-mode:multiply" fill-rule="evenodd" clip-rule="evenodd" d="M47.3936 98.7462C44.3916 98.6575 41.7869 97.7029 40.7494 95.816C41.2571 98.3245 45.3628 100.012 48.0558 100.722C49.5348 101.099 50.3957 100.966 52.7134 99.7452C53.0666 99.5676 53.5964 99.5676 53.795 99.2124C54.2365 98.5021 54.1703 97.5919 54.5235 96.8371C54.8104 96.2156 55.4285 95.7494 55.7154 95.1278C55.8479 94.8392 55.87 94.4396 55.7154 94.1733C55.4506 93.6627 55.0753 93.1299 54.5235 92.9079C54.4793 92.9079 54.4131 92.8635 54.3469 92.8413C54.4352 92.9523 54.5014 93.0855 54.5676 93.2187C54.7221 93.6405 54.4131 94.3508 54.0378 94.5728C53.2432 95.0612 51.4331 95.1056 50.793 95.9714C50.4619 96.4154 50.793 97.9027 49.9983 98.2135C49.1816 98.5687 48.2766 98.7684 47.3936 98.7462Z" fill="url(#paint6_radial_284_13057)"/>
<path style="mix-blend-mode:multiply" fill-rule="evenodd" clip-rule="evenodd" d="M74.5003 93.6405C74.412 94.0623 74.8755 94.4618 74.8314 94.9058C74.8093 95.1278 74.5223 95.2832 74.3016 95.372C72.9551 95.8382 69.2026 96.149 67.9443 95.8382C66.9952 95.594 66.1343 95.1278 65.1851 94.9058C64.8319 94.817 64.4788 94.9058 64.1256 94.9502C62.7349 95.1722 61.9623 95.372 60.7483 95.483C62.0727 95.594 63.4413 95.4386 64.7436 95.6384C67.8781 96.0824 68.4962 96.7705 72.4474 96.5264C74.1692 96.4154 75.913 96.26 77.5685 95.7938C78.297 95.594 78.7605 94.8392 79.4669 94.595C80.3278 94.3065 81.3652 94.595 82.204 94.1955C82.9325 93.8625 83.2194 92.9301 83.9037 92.5527C84.6322 92.1532 85.5151 92.1532 86.3318 91.9534C87.6121 91.6648 88.8703 91.354 90.1506 91.0876C90.6362 90.9988 91.3867 90.8656 91.9607 91.021C89.9519 90.3106 86.2656 90.91 84.2348 91.1542C82.9987 91.3096 82.0937 91.132 81.8067 92.3307C81.7405 92.6415 81.608 92.9745 81.3211 93.1299C80.9679 93.3297 80.5043 93.3963 80.107 93.3519C78.893 93.2409 77.7231 92.7747 76.5311 92.6637C75.8909 92.5971 74.6548 92.8635 74.5003 93.6183V93.6405Z" fill="url(#paint7_radial_284_13057)"/>
<path style="mix-blend-mode:multiply" fill-rule="evenodd" clip-rule="evenodd" d="M75.5157 133.443C73.6615 134.242 71.6748 134.753 69.7985 135.485C69.1363 135.752 68.5183 136.062 67.9223 136.44C66.2888 137.505 64.8761 138.97 63.1322 139.814C61.7857 140.458 60.2626 140.635 58.7837 140.813C56.0024 141.146 53.1769 141.079 50.3736 141.301C48.3428 141.479 46.2458 142.322 44.237 141.435C43.5969 143.21 43.2879 146.407 43.928 148.782C44.3033 150.137 45.8043 150.958 47.0183 151.668C48.1883 152.334 49.601 152.512 50.9254 152.756C53.3535 153.2 55.87 153.2 58.2981 153.688C59.4018 153.91 60.4613 154.354 61.4988 154.821C62.6687 155.353 63.7503 156.086 64.8761 156.663C65.9798 157.24 67.0614 157.862 68.2313 158.284C69.2467 158.639 70.2842 158.905 71.3658 158.972C72.8889 159.061 74.412 158.861 75.9351 158.75C77.3257 158.639 78.6943 158.461 80.0849 158.261C80.2395 158.239 80.416 158.217 80.5706 158.195C81.2328 158.084 81.8729 157.84 82.5351 157.706C84.9412 157.196 87.3914 156.863 89.7753 156.286C91.5633 155.842 93.3072 155.242 95.0289 154.643C97.744 153.688 100.415 152.623 103.086 151.557C106.949 150.026 110.812 148.516 114.63 146.851C115.889 146.318 117.103 145.675 118.273 145.009C122.114 142.789 125.932 140.547 129.641 138.127C132.466 136.284 135.203 134.309 137.852 132.244C140.28 130.357 142.62 128.359 144.894 126.295C146.858 124.519 148.712 122.632 150.589 120.745C151.207 120.123 151.67 119.347 152.333 118.792C152.443 118.703 152.62 118.903 152.664 119.014C153.149 121.078 145.755 129.713 144.011 131.179C142.664 132.311 141.229 133.354 139.861 134.486C137.985 136.04 136.219 137.705 134.342 139.259C132.974 140.391 131.605 141.546 130.126 142.522C127.588 144.254 124.917 145.763 122.268 147.584C120.37 148.871 118.339 150.47 116.507 151.646C115.006 152.623 113.725 152.978 112.136 153.6C109.863 154.488 107.655 155.509 105.359 156.308C104.057 156.752 102.666 156.952 101.342 157.329C99.2009 157.928 97.5453 158.55 95.338 158.972C99.5541 159.416 102.004 160.681 104.543 159.527C105.58 159.038 106.441 158.173 107.501 157.751C109.156 157.085 110.9 156.641 112.622 156.263C116.992 155.309 123.526 154.243 125.844 152.756C127.235 151.868 128.029 150.47 129.332 149.448C130.281 148.694 131.429 148.227 132.422 147.539C135.865 145.097 139.508 142.789 142.355 139.659C145.622 136.062 147.697 131.534 150.567 127.627C152.951 124.363 156.46 121.655 158.072 117.704C158.866 115.75 158.8 113.53 159.33 111.488C159.794 109.734 160.301 107.981 161.03 106.338C164.032 99.6116 165.025 100.011 165.886 91.4646C166.085 89.4889 166.04 87.4465 165.621 85.5152C165.29 83.9613 164.186 82.6516 163.656 81.142C163.083 79.5215 162.796 77.8122 162.266 76.1917C161.913 75.0817 161.515 73.9939 161.074 72.9284C160.61 71.8184 160.08 70.7751 159.573 69.6873C159.97 71.7963 160.478 73.883 160.787 76.0141C161.339 80.0099 161.537 84.5163 161.317 88.5565C160.61 101.277 155.754 110.645 146.947 119.702C144.872 121.833 142.819 124.031 140.501 125.917C139.464 126.783 138.183 127.294 136.947 127.871C135.269 128.648 133.526 129.247 131.826 129.98C130.104 130.735 128.338 131.378 126.705 132.289C125.645 132.888 124.784 133.754 123.813 134.508C122.776 135.308 121.782 136.196 120.679 136.928C119.354 137.772 117.986 138.549 116.573 139.215C113.748 140.524 110.878 141.701 107.986 142.811C106.154 143.521 103.505 144.898 99.9293 145.386C99.5982 145.43 99.1567 145.43 98.9801 145.164C98.8477 144.964 99.0905 144.609 99.3112 144.498C101.806 143.233 103.792 142.078 105.889 140.635C107.788 139.326 109.377 137.572 111.275 136.24C112.776 135.174 114.564 134.575 116.043 133.487C117.147 132.666 118.118 131.623 118.979 130.535C120.568 128.515 121.782 126.228 123.394 124.208C124.387 122.965 125.491 121.766 126.749 120.767C127.919 119.835 129.265 119.08 130.634 118.459C132.422 117.659 134.475 117.526 136.152 116.549C137.322 115.883 138.272 114.796 138.978 113.641C140.126 111.799 140.567 109.557 141.671 107.692C143.349 104.851 145.379 102.209 147.322 99.5672C148.867 97.4805 150.456 95.416 152.156 93.4403C152.642 92.8631 153.26 92.3747 153.9 91.9751C154.165 91.8197 154.496 91.7532 154.783 91.842C155.335 91.9973 155.401 92.7743 156.615 92.6411C158.535 92.4413 159.242 89.6886 159.749 88.0681C160.257 86.4254 160.787 81.8524 160.743 80.0321C160.743 79.6991 160.676 79.2551 160.345 79.0997C160.191 79.0331 159.97 79.2773 159.705 79.1663C159.484 79.0997 159.374 78.8111 159.33 78.5891C158.911 76.0807 158.756 73.5056 158.447 70.9749C158.293 69.6873 158.204 68.3776 157.917 67.1123C157.741 66.3353 157.41 65.6027 157.056 64.8924C156.946 64.6704 156.769 64.404 156.527 64.3374C156.372 64.293 156.284 64.5594 156.173 64.6704C156.019 64.7814 155.886 64.9368 155.71 64.959C155.445 65.0034 155.026 65.07 154.915 64.8258C154.783 64.4484 154.672 64.071 154.606 63.6936C154.121 61.3627 153.789 59.0984 153.26 56.7231C153.171 56.3679 153.017 56.0128 152.973 55.6576C152.973 55.591 153.017 55.4578 153.105 55.4578C153.216 55.4578 153.304 55.591 153.348 55.6798C153.679 56.2791 153.944 56.9007 154.253 57.5001C154.518 58.0329 154.805 58.6322 155.07 59.1206C155.313 59.5646 155.467 59.1872 155.467 59.054C155.467 58.6544 155.467 58.2327 155.401 57.8331C155.335 57.4113 155.246 57.0117 155.136 56.6121C154.694 55.036 154.187 53.5043 153.525 52.0169C152.664 50.0634 151.803 46.4894 151.229 45.9344C150.5 45.224 149.64 44.4471 148.735 43.6035C149.904 45.8012 150.832 47.7769 151.405 50.352C151.604 51.2622 151.759 52.2611 151.869 53.3711C152.266 57.3447 151.891 63.738 150.677 67.4008C149.75 70.1979 147.587 72.4178 146.328 75.0817C145.203 77.5014 145.114 80.4539 143.569 82.6294C140.633 86.7362 128.515 97.9023 124.233 101.01C117.897 105.605 104.565 114.063 97.0156 115.95C91.4309 117.349 85.5372 116.993 79.9083 118.192C76.0013 119.036 72.4474 121.078 68.6065 122.099C62.7128 123.631 58.2981 124.097 52.0291 126.006C49.0933 126.894 48.4531 126.672 45.4953 126.317C43.5086 126.073 41.4557 125.962 40.639 126.961C40.2858 127.405 40.7935 128.337 40.3079 128.604C39.6015 129.025 38.6082 128.914 37.8136 128.626C35.9152 127.982 34.3038 126.65 32.4496 125.917C31.7874 125.651 31.3018 125.673 30.8824 125.806C30.3085 125.984 29.9111 126.384 29.4034 126.406C29.0503 126.428 28.6309 126.273 28.388 126.006C27.3726 124.963 27.1298 123.098 26.9532 121.1C26.887 121.455 26.8429 121.811 26.7987 122.166C26.6442 123.276 26.5338 124.386 26.578 125.496C26.578 125.762 26.7325 126.028 26.9312 126.184C28.1011 127.094 31.5887 129.092 33.9506 130.246C34.7894 130.668 35.4958 130.979 35.8931 131.112C37.2396 131.534 38.5861 131.867 39.9768 132.133C43.6852 132.866 43.0009 131.867 46.3341 130.646C48.1662 129.98 50.0425 129.358 51.9629 128.936C55.9803 128.049 60.1302 127.738 64.1256 126.694C67.0614 125.917 69.8206 124.563 72.6681 123.52C74.7651 122.765 76.818 121.788 79.0254 121.3C79.9304 121.1 80.9237 121.189 81.7846 121.5C82.4468 121.744 83.0208 122.255 83.396 122.854C83.705 123.365 83.8154 124.008 83.7492 124.608C83.683 125.163 83.4181 125.718 83.0208 126.095C82.2261 126.828 81.1224 127.161 80.2836 127.849C79.5331 128.47 78.8709 129.225 78.319 130.024C77.8776 130.668 77.8334 131.578 77.3257 132.178C76.8401 132.755 76.1337 133.11 75.4494 133.398L75.5157 133.443Z" fill="url(#paint8_radial_284_13057)"/>
<path style="mix-blend-mode:multiply" fill-rule="evenodd" clip-rule="evenodd" d="M61.0132 125.496C57.7021 126.384 53.9054 125.673 50.4398 126.406C48.7401 126.761 47.8351 126.584 45.5173 126.295C43.5307 126.051 41.4778 125.94 40.6611 126.939C40.3079 127.383 40.8156 128.315 40.33 128.581C39.6236 129.003 38.6303 128.892 37.8357 128.604C35.9373 127.96 34.3259 126.628 32.4717 125.895C31.8095 125.629 31.3239 125.651 30.9045 125.784C30.3306 125.962 29.9332 126.362 29.4255 126.384C29.0723 126.406 28.6529 126.251 28.4101 125.984C27.3947 124.941 27.1519 123.076 26.9753 121.078C26.9091 121.433 26.865 121.789 26.8208 122.144C26.6663 123.254 26.5559 124.364 26.6001 125.474C26.6001 125.74 26.7546 126.006 26.9533 126.162C28.1232 127.072 31.6108 129.07 33.9727 130.224C34.8115 130.646 35.5179 130.957 35.9152 131.09C37.2617 131.512 38.6082 131.845 39.9989 132.111C43.7073 132.844 43.023 131.845 46.3562 130.624C48.1883 129.958 50.0646 129.336 51.985 128.914C56.0024 128.026 60.1523 127.716 64.1477 126.672C67.0835 125.895 69.8427 124.541 72.6902 123.498C74.7872 122.743 76.8401 121.766 79.0475 121.278C79.9525 121.078 80.9458 121.167 81.8067 121.478C82.4689 121.722 83.0428 122.233 83.4181 122.832C83.7271 123.342 83.8375 123.986 83.7713 124.586C83.7051 125.141 83.4402 125.696 83.0428 126.073C82.778 126.317 82.4689 126.539 82.1378 126.717C82.6234 126.495 83.1091 126.251 83.5506 125.94C85.5372 124.519 85.471 122.743 89.9299 120.612C93.5058 118.903 86.5747 118.969 85.8904 118.991C82.6455 119.08 80.5706 118.481 77.1491 119.413C72.624 120.656 66.5316 123.92 60.969 125.407L61.0132 125.496Z" fill="url(#paint9_radial_284_13057)"/>
<path style="mix-blend-mode:multiply" fill-rule="evenodd" clip-rule="evenodd" d="M113.902 112.998C108.582 114.818 101.784 116.527 96.1768 118.037C95.647 118.17 93.0644 118.703 92.8657 119.28C92.7774 119.524 94.8082 119.657 96.8169 119.502C102.446 119.058 107.854 117.149 113.196 116.061C117.787 115.129 125.447 113.375 129.508 111.044C131.583 109.846 133.702 108.536 135.225 106.671C136.704 104.873 136.991 102.342 138.249 100.389C139.353 98.6572 140.81 97.1477 142.267 95.6826C144.739 93.2185 147.543 91.1096 150.037 88.6677C151.229 87.4911 152.597 86.359 153.326 84.8272C154.452 82.4519 155.07 79.8325 155.423 77.213C155.82 74.2827 155.533 71.308 155.577 68.3556C155.6 66.957 155.577 65.4253 155.931 64.8481C155.864 64.8925 155.82 64.9147 155.754 64.9147C155.489 64.9591 155.07 65.0257 154.959 64.7815C154.827 64.4042 154.717 64.0268 154.65 63.6494C154.165 61.3185 153.834 59.0542 153.304 56.6789C153.216 56.3237 153.061 55.9685 153.017 55.6133C153.017 55.5468 153.061 55.4136 153.149 55.4136C153.26 55.4136 153.348 55.5468 153.392 55.6355C153.723 56.2349 153.988 56.8565 154.297 57.4559C154.562 57.9886 154.849 58.588 155.114 59.0764C155.357 59.5204 155.511 59.143 155.511 59.0098C155.511 58.6102 155.511 58.1884 155.445 57.7888C155.379 57.3671 155.29 56.9675 155.18 56.5679C154.739 54.9918 154.231 53.46 153.569 51.9727C152.708 50.0192 151.847 46.4452 151.273 45.8902C151.185 45.8014 151.096 45.7348 151.008 45.646C151.604 46.201 152.774 50.7074 152.774 52.5943C152.774 52.8829 152.774 53.1271 152.708 53.349C152.686 53.5044 152.399 53.5044 152.377 53.6376C152.266 54.1482 152.487 55.9907 152.531 56.5901C152.752 59.4094 153.105 62.2065 153.039 65.0257C152.951 68.6442 152.929 72.3292 151.913 75.8144C151.141 78.4783 149.286 80.7204 147.83 83.0957C145.909 86.248 144.276 89.6444 141.781 92.3527C139.861 94.4394 136.859 95.283 134.806 97.2365C126.727 104.94 127.698 108.247 113.902 112.976V112.998Z" fill="url(#paint10_radial_284_13057)"/>
<path style="mix-blend-mode:multiply" fill-rule="evenodd" clip-rule="evenodd" d="M62.5142 149.604C60.6158 149.892 59.3797 150.558 58.0332 150.958C56.2673 151.513 54.2586 151.646 50.2191 150.114C45.5836 148.361 44.4137 145.741 44.7668 141.901C44.7668 141.812 44.7668 141.723 44.7889 141.656C44.6123 141.612 44.4137 141.523 44.2371 141.457C43.5969 143.233 43.2879 146.429 43.928 148.805C44.3033 150.159 45.8043 150.98 47.0184 151.69C48.1883 152.356 49.601 152.534 50.9254 152.778C53.3536 153.222 55.87 153.222 58.2981 153.711C59.4018 153.933 60.4613 154.377 61.4988 154.843C62.6687 155.375 63.7503 156.108 64.8761 156.685C65.9798 157.262 67.0614 157.884 68.2313 158.306C69.2467 158.661 70.2842 158.927 71.3658 158.994C72.8889 159.083 74.412 158.883 75.9351 158.772C77.3257 158.661 78.6943 158.483 80.085 158.284C80.2395 158.261 80.4161 158.239 80.5706 158.217C81.2328 158.106 81.8729 157.862 82.5352 157.729C84.9412 157.218 87.3914 156.885 89.7754 156.308C91.5633 155.864 93.3072 155.264 95.0289 154.665C97.744 153.711 100.415 152.645 103.086 151.579C106.949 150.048 110.812 148.538 114.63 146.873C115.889 146.34 117.103 145.697 118.273 145.031C122.114 142.811 125.932 140.569 129.641 138.149C132.466 136.307 135.203 134.331 137.852 132.266C140.28 130.379 142.62 128.381 144.894 126.317C146.858 124.541 148.712 122.654 150.589 120.767C151.207 120.146 151.67 119.369 152.333 118.814C152.443 118.725 152.62 118.925 152.664 119.036C153.149 121.1 145.755 129.736 144.011 131.201C143.834 131.356 143.658 131.489 143.481 131.645C148.602 127.96 150.92 125.029 154.893 118.214C155.379 117.393 155.82 116.572 156.262 115.728C157.365 113.641 158.337 111.51 159.131 109.313C159.352 108.735 160.036 106.515 159.882 106.271C159.838 106.182 159.595 106.515 159.33 106.937C158.911 107.603 158.403 108.536 158.248 108.802C156.482 111.843 155.114 114.152 152.818 116.993C151.737 118.325 150.545 119.568 149.331 120.767C147.454 122.632 145.578 124.497 143.547 126.184C141.914 127.538 140.082 128.648 138.36 129.891C136.064 131.556 133.746 133.154 131.517 134.908C129.994 136.107 128.758 137.638 127.168 138.748C125.535 139.881 123.681 140.68 121.915 141.59C119.619 142.766 117.257 143.876 114.94 145.031C113.438 145.763 112.026 146.673 110.459 147.273C107.589 148.383 104.587 149.027 101.717 150.114C100.194 150.691 98.8477 151.69 97.3025 152.223C94.2343 153.289 90.5479 153.311 87.4355 154.199C82.0937 155.753 80.3719 157.285 75.7585 157.418C74.7431 157.44 73.5952 157.418 72.2267 157.285C70.6815 157.151 69.9089 156.552 69.7544 155.819C69.5116 154.621 70.8802 153.022 73.1758 152.334C75.9571 151.491 78.8488 151.069 81.6522 150.358C87.4355 148.871 96.0002 147.206 101.32 145.475C103.814 144.653 106.22 143.543 108.626 142.478C108.428 142.567 108.207 142.633 108.008 142.722C106.176 143.432 103.527 144.809 99.9514 145.297C99.6203 145.342 99.1788 145.342 99.0022 145.075C98.8698 144.875 99.1126 144.52 99.3333 144.409C101.828 143.144 103.814 141.989 105.911 140.547C107.81 139.237 109.399 137.483 111.297 136.151C112.798 135.086 114.586 134.486 116.065 133.398C117.103 132.644 117.986 131.689 118.802 130.69C117.301 131.978 116.087 132.577 112.644 133.643C111.143 134.109 108.825 134.464 108.097 134.975C106.485 136.085 103.395 141.79 97.3025 143.899C90.0844 146.429 82.204 147.806 74.6106 148.671C70.5932 149.138 66.5096 148.982 62.5142 149.604Z" fill="url(#paint11_radial_284_13057)"/>
<path fill-rule="evenodd" clip-rule="evenodd" d="M67.9223 136.462C66.2888 137.528 64.8761 138.993 63.1323 139.836C61.7858 140.48 60.2627 140.658 58.7837 140.835C56.0024 141.168 53.177 141.102 50.3736 141.324C48.7622 141.457 47.1287 142.012 45.5394 141.812C46.6873 142.167 47.6585 141.967 49.888 141.901C55.1857 141.745 63.4854 142.3 65.7149 142.012C67.3042 141.79 68.8494 141.057 70.1959 140.169C72.2708 138.793 68.1872 138.748 70.8581 137.661C74.5003 136.151 84.0141 136.64 86.3098 132.71C86.5747 132.244 86.7954 131.578 86.5084 131.112C86.1994 130.646 85.1619 131.09 84.9191 130.579C84.7205 130.135 85.2502 129.602 85.6476 129.314C88.6717 127.161 93.6162 124.519 97.0818 123.165C99.1567 122.366 101.143 121.677 103.461 121.189C109.973 119.768 97.4791 120.146 93.3292 121.256C89.7091 122.21 88.76 123.387 86.089 125.629C85.3606 126.228 84.7867 127.05 83.9258 127.405C82.1599 128.16 79.6655 128.204 78.3853 130.091C77.9438 130.735 77.8996 131.645 77.3919 132.244C76.9063 132.821 76.2 133.177 75.5157 133.465C73.6615 134.264 71.6748 134.775 69.7985 135.507C69.1363 135.774 68.5183 136.085 67.9223 136.462Z" fill="url(#paint12_radial_284_13057)"/>
<path opacity="0.65" fill-rule="evenodd" clip-rule="evenodd" d="M104.499 145.075C102.335 145.852 100.084 146.407 97.8544 146.984C95.3159 147.65 92.7112 148.161 90.1506 148.76C88.3185 149.204 86.4643 149.515 84.6984 150.159C84.4556 150.247 84.1245 150.78 84.3673 150.891C85.3385 151.335 86.4643 151.335 87.5238 151.424C89.7754 151.602 92.049 151.779 94.3005 151.69C95.051 151.668 95.8015 151.446 96.4637 151.091C98.1193 150.203 99.4878 148.805 101.21 147.983C102.644 147.295 104.256 146.984 105.823 146.585C107.721 146.118 109.73 146.163 111.54 145.452C114.432 144.32 121.518 139.17 123.107 136.662C123.217 136.462 123.173 136.085 122.974 135.996C122.732 135.885 122.423 136.085 122.18 136.218C120.083 137.372 118.074 138.682 115.955 139.814C114.145 140.791 112.269 141.679 110.392 142.522C108.45 143.41 106.485 144.32 104.477 145.031L104.499 145.075Z" fill="url(#paint13_radial_284_13057)"/>
<path fill-rule="evenodd" clip-rule="evenodd" d="M59.181 22.3815C59.8432 22.1151 60.373 21.5824 61.0132 21.2494C65.3617 19.0073 72.7564 18.3635 78.606 20.0506C80.2174 20.5168 81.9833 20.2948 83.5947 20.7832C84.9853 21.205 86.1773 22.1817 87.5459 22.6923C88.8703 23.2029 90.3934 23.1141 91.6296 23.8245C92.4684 24.3128 92.6008 25.6448 93.4617 26.0666C94.9406 26.7769 96.7507 26.4439 98.2517 27.0655C102.004 28.5972 107.125 32.8594 107.655 37.1883C107.832 38.5868 107.743 40.1185 107.192 41.4283C106.551 42.9822 103.881 42.2496 103.108 42.627C102.666 42.849 102.578 43.4706 102.512 43.9589C102.269 45.9569 102.622 47.9992 102.247 49.9749C101.563 53.4379 97.7661 54.7699 94.6757 55.5912C90.5259 56.7012 85.6917 55.0362 86.5305 49.8417C86.7733 48.3765 88.1198 47.3332 88.6275 45.9347C89.0248 44.8247 88.5613 43.404 89.2235 42.4272C90.7245 40.1851 94.8523 39.1196 95.4042 38.3204C96.0002 37.4324 95.956 36.2115 95.934 35.1459C95.9119 34.1692 95.7574 33.1036 95.2497 32.2601C95.0289 31.9049 94.3667 31.7717 94.0356 31.9937C92.7112 32.9038 92.2255 35.3013 89.356 36.5001C86.6629 37.6322 81.4756 37.6322 79.0695 40.6735C78.8047 41.0065 78.606 41.5171 78.7384 41.9388C79.0475 42.9156 80.0849 43.6038 80.2836 44.6249C80.4161 45.2909 80.0408 46.0235 79.6214 46.534C78.8267 47.5552 77.8996 48.5763 76.7297 49.1091C73.9926 50.3745 70.9685 50.9072 68.1209 51.884C66.7082 52.3724 65.3617 52.9939 63.9711 53.5267C57.3268 56.1906 51.1462 55.5468 50.3515 56.3682C49.4906 57.2784 49.7334 58.8767 48.9609 59.8756C46.2899 63.3165 43.5086 64.5818 39.7561 62.0511C38.3654 61.1188 37.5708 59.4095 36.0697 58.6769C35.0543 58.1663 33.7961 58.6325 32.6483 58.5437C30.7058 58.3883 28.5205 57.5225 26.7325 59.0765C25.7392 59.9422 25.099 62.0511 24.5472 62.3619C24.1499 62.6061 24.8562 59.5205 25.4743 58.2773C26.4897 56.235 23.7305 54.5701 30.6396 48.6873C31.655 47.8216 33.752 45.2687 34.8778 42.8046C35.3634 41.739 36.0477 40.5403 36.8423 39.6967C37.7694 38.72 38.7186 38.1872 39.7781 37.3436C41.4116 36.0339 43.5969 33.2812 45.6719 31.5275C46.5107 30.7949 47.6364 30.4176 48.4752 29.685C50.3957 27.9757 51.8525 26.1997 53.3756 24.8012C55.296 23.0253 57.0619 23.2251 59.1369 22.3815H59.181Z" fill="url(#paint14_radial_284_13057)"/>
<path style="mix-blend-mode:multiply" fill-rule="evenodd" clip-rule="evenodd" d="M73.7277 39.1637C67.547 44.7356 71.3879 45.113 74.4561 45.5348C75.8688 45.7346 77.6789 46.4672 75.5819 47.3551C73.7498 48.1321 71.6969 48.2653 69.8648 48.9978C68.8273 49.4196 68.0547 50.3298 67.0393 50.7738C60.3509 53.815 51.4773 51.9725 46.4224 52.7273C44.1929 53.0603 43.3099 55.0804 45.1642 56.9007C46.4886 58.1882 47.8572 58.1882 47.9013 59.1428C47.9896 61.0963 45.2304 62.8722 43.4865 63.3606C45.5394 63.3828 47.3053 62.0731 49.0491 59.8532C49.8217 58.8542 49.5568 57.2559 50.4398 56.3457C51.2345 55.5022 57.393 56.1681 64.0593 53.5042C65.45 52.9493 66.7965 52.3277 68.2092 51.8615C71.0568 50.8626 74.0809 50.352 76.818 49.0866C77.9879 48.5317 78.915 47.5327 79.7097 46.5116C80.1291 45.9788 80.5043 45.2462 80.3719 44.6024C80.1732 43.5813 79.1358 42.9153 78.8267 41.9164C78.6943 41.4946 78.893 41.0062 79.1578 40.651C81.586 37.6098 86.7512 37.6098 89.4442 36.4776C92.3138 35.2789 92.7774 32.8814 94.1239 31.9712C94.4771 31.727 95.1172 31.8824 95.338 32.2376C95.8457 33.0812 96.0002 34.1245 96.0222 35.1235C96.0443 36.189 96.1105 37.41 95.4925 38.2979C94.9848 39.0305 91.5192 39.9851 89.7533 41.8276C94.5874 38.3867 98.053 39.8297 98.1193 35.7672C98.1413 34.3465 97.9427 31.4384 97.0377 30.3507C96.5741 29.7957 95.36 29.1297 94.4109 30.0843C92.5567 31.9712 91.7179 34.2577 89.0248 35.0347C87.2369 35.5675 85.4047 35.9004 83.5726 36.2334C79.9525 36.8772 76.7959 36.411 73.7718 39.1415L73.7277 39.1637Z" fill="url(#paint15_radial_284_13057)"/>
<path style="mix-blend-mode:multiply" fill-rule="evenodd" clip-rule="evenodd" d="M91.475 24.4461C91.6958 25.1786 91.5633 27.0434 92.667 27.2876C94.9848 27.8203 97.1259 26.6882 99.7307 28.4197C103.262 30.7728 106.927 33.7475 106.265 38.498C106.022 40.2518 104.477 39.8522 102.733 39.2972C101.563 38.9198 100.305 38.7644 100.062 39.8522C99.4878 42.4717 100.415 45.1799 100.393 47.866C100.327 53.6378 95.8677 55.4359 91.7399 55.9021C92.7112 55.9687 93.7486 55.8577 94.742 55.5913C97.8323 54.7699 101.629 53.438 102.313 49.9749C102.689 47.9992 102.335 45.9569 102.578 43.959C102.644 43.4706 102.733 42.849 103.174 42.6271C103.947 42.2497 106.618 43.0044 107.258 41.4283C107.788 40.1186 107.898 38.609 107.721 37.1883C107.192 32.8817 102.07 28.5973 98.3179 27.0656C96.7948 26.444 94.9848 26.7992 93.5279 26.0666C92.667 25.6448 92.5346 24.2907 91.6958 23.8245C91.1881 23.5359 90.6362 23.3805 90.0623 23.2695C90.4155 23.4027 90.7908 23.5581 91.1219 23.7579C91.3647 23.8911 91.475 24.2019 91.5413 24.4461H91.475Z" fill="url(#paint16_radial_284_13057)"/>
</g>
<defs>
<filter id="filter0_d_284_13057" x="0" y="0" width="186" height="184" filterUnits="userSpaceOnUse" color-interpolation-filters="sRGB">
<feFlood flood-opacity="0" result="BackgroundImageFix"/>
<feColorMatrix in="SourceAlpha" type="matrix" values="0 0 0 0 0 0 0 0 0 0 0 0 0 0 0 0 0 0 127 0" result="hardAlpha"/>
<feOffset dy="4"/>
<feGaussianBlur stdDeviation="10"/>
<feComposite in2="hardAlpha" operator="out"/>
<feColorMatrix type="matrix" values="0 0 0 0 0 0 0 0 0 0 0 0 0 0 0 0 0 0 0.25 0"/>
<feBlend mode="normal" in2="BackgroundImageFix" result="effect1_dropShadow_284_13057"/>
<feBlend mode="normal" in="SourceGraphic" in2="effect1_dropShadow_284_13057" result="shape"/>
</filter>
<radialGradient id="paint0_radial_284_13057" cx="0" cy="0" r="1" gradientUnits="userSpaceOnUse" gradientTransform="translate(62.3155 48.5987) scale(123.967 124.67)">
<stop stop-color="#71F5FF"/>
<stop offset="0.17" stop-color="#69E8FF"/>
<stop offset="0.47" stop-color="#56C8FF"/>
<stop offset="0.5" stop-color="#54C5FF"/>
<stop offset="0.92" stop-color="#1483FF"/>
</radialGradient>
<radialGradient id="paint1_radial_284_13057" cx="0" cy="0" r="1" gradientUnits="userSpaceOnUse" gradientTransform="translate(95.2938 92.0865) scale(78.0089 78.4513)">
<stop offset="0.04"/>
<stop offset="0.84"/>
<stop offset="0.85" stop-color="#0D1415"/>
<stop offset="0.9" stop-color="#3E6167"/>
<stop offset="0.93" stop-color="#659EA8"/>
<stop offset="0.96" stop-color="#81CAD7"/>
<stop offset="0.99" stop-color="#92E5F4"/>
<stop offset="1" stop-color="#99F0FF"/>
</radialGradient>
<radialGradient id="paint2_radial_284_13057" cx="0" cy="0" r="1" gradientUnits="userSpaceOnUse" gradientTransform="translate(40.3521 28.9746) scale(85.514 85.9989)">
<stop stop-color="#86FFFF"/>
<stop offset="1"/>
</radialGradient>
<radialGradient id="paint3_radial_284_13057" cx="0" cy="0" r="1" gradientUnits="userSpaceOnUse" gradientTransform="translate(59.9757 74.8155) scale(111.23 111.861)">
<stop stop-color="#F2F6FF"/>
<stop offset="1" stop-color="#D6F3FF"/>
</radialGradient>
<radialGradient id="paint4_radial_284_13057" cx="0" cy="0" r="1" gradientUnits="userSpaceOnUse" gradientTransform="translate(84.301 75.3705) scale(92.9308 93.4578)">
<stop offset="0.62" stop-color="white"/>
<stop offset="0.65" stop-color="#F5FAFF"/>
<stop offset="0.75" stop-color="#CFE7FF"/>
<stop offset="0.85" stop-color="#B4DAFF"/>
<stop offset="0.94" stop-color="#A3D1FF"/>
<stop offset="1" stop-color="#9ECFFF"/>
</radialGradient>
<radialGradient id="paint5_radial_284_13057" cx="0" cy="0" r="1" gradientUnits="userSpaceOnUse" gradientTransform="translate(36.136 34.8571) scale(114.011 114.658)">
<stop offset="0.7" stop-color="white"/>
<stop offset="1" stop-color="#AAC2E6"/>
</radialGradient>
<radialGradient id="paint6_radial_284_13057" cx="0" cy="0" r="1" gradientUnits="userSpaceOnUse" gradientTransform="translate(48.6739 90.355) scale(16.8203 16.9157)">
<stop stop-color="white"/>
<stop offset="1" stop-color="#AAC2E6"/>
</radialGradient>
<radialGradient id="paint7_radial_284_13057" cx="0" cy="0" r="1" gradientUnits="userSpaceOnUse" gradientTransform="translate(67.2601 82.4078) scale(37.2385 37.4497)">
<stop stop-color="white"/>
<stop offset="1" stop-color="#AAC2E6"/>
</radialGradient>
<radialGradient id="paint8_radial_284_13057" cx="0" cy="0" r="1" gradientUnits="userSpaceOnUse" gradientTransform="translate(63.8828 94.1728) scale(102.378 102.959)">
<stop stop-color="white"/>
<stop offset="1" stop-color="#CFE2FF"/>
</radialGradient>
<radialGradient id="paint9_radial_284_13057" cx="0" cy="0" r="1" gradientUnits="userSpaceOnUse" gradientTransform="translate(93.6604 126.317) scale(65.9566 66.3306)">
<stop stop-color="#AAC2E6"/>
<stop offset="1" stop-color="white"/>
</radialGradient>
<radialGradient id="paint10_radial_284_13057" cx="0" cy="0" r="1" gradientUnits="userSpaceOnUse" gradientTransform="translate(101.408 97.2809) scale(68.9366 69.3275)">
<stop stop-color="white"/>
<stop offset="1" stop-color="#AAC2E6"/>
</radialGradient>
<radialGradient id="paint11_radial_284_13057" cx="0" cy="0" r="1" gradientUnits="userSpaceOnUse" gradientTransform="translate(86.7513 51.4841) scale(121.936 122.627)">
<stop stop-color="white"/>
<stop offset="1" stop-color="#AAC2E6"/>
</radialGradient>
<radialGradient id="paint12_radial_284_13057" cx="0" cy="0" r="1" gradientUnits="userSpaceOnUse" gradientTransform="translate(90.6142 116.683) scale(52.911 53.211)">
<stop stop-color="#F2F6FF"/>
<stop offset="1" stop-color="#D6F3FF"/>
</radialGradient>
<radialGradient id="paint13_radial_284_13057" cx="0" cy="0" r="1" gradientUnits="userSpaceOnUse" gradientTransform="translate(107.368 127.138) scale(47.8119 48.083)">
<stop stop-color="#F2F6FF"/>
<stop offset="1" stop-color="#D6F3FF"/>
</radialGradient>
<radialGradient id="paint14_radial_284_13057" cx="0" cy="0" r="1" gradientUnits="userSpaceOnUse" gradientTransform="translate(30.0436 41.2507) scale(110.899 111.528)">
<stop stop-color="#F2F6FF"/>
<stop offset="1" stop-color="#D6F3FF"/>
</radialGradient>
<radialGradient id="paint15_radial_284_13057" cx="0" cy="0" r="1" gradientUnits="userSpaceOnUse" gradientTransform="translate(52.5368 33.2588) scale(47.7236 47.9942)">
<stop stop-color="white"/>
<stop offset="1" stop-color="#AAC2E6"/>
</radialGradient>
<radialGradient id="paint16_radial_284_13057" cx="0" cy="0" r="1" gradientUnits="userSpaceOnUse" gradientTransform="translate(79.8201 32.8595) scale(31.08 31.2562)">
<stop stop-color="white"/>
<stop offset="1" stop-color="#AAC2E6"/>
</radialGradient>
</defs>
</svg>
