<svg width="193" height="160" viewBox="0 0 193 160" fill="none" xmlns="http://www.w3.org/2000/svg">
<g filter="url(#filter0_d_284_12842)">
<path opacity="0.5" d="M140 119.25C163.196 97.2967 163.196 61.7033 140 39.75C116.804 17.7967 79.196 17.7967 56 39.75C32.804 61.7033 32.804 97.2967 56 119.25C79.196 141.203 116.804 141.203 140 119.25Z" fill="url(#paint0_radial_284_12842)"/>
<path d="M144.858 89.9599C150.966 65.4659 134.938 40.9231 109.058 35.142C83.1771 29.3609 57.2451 44.5307 51.1367 69.0247C45.0284 93.5187 61.0568 118.062 86.9373 123.843C112.818 129.624 138.75 114.454 144.858 89.9599Z" fill="url(#paint1_radial_284_12842)"/>
<path style="mix-blend-mode:screen" opacity="0.25" d="M54.7622 84.148C54.7622 58.9825 76.3205 38.5721 102.91 38.5721C115.046 38.5721 126.124 42.8334 134.592 49.8391C125.766 40.2936 112.802 34.2544 98.3483 34.2544C71.7584 34.2544 50.1927 54.6577 50.1927 79.8232C50.1927 93.5101 56.5737 105.772 66.6595 114.125C59.2498 106.111 54.7548 95.6267 54.7548 84.141L54.7622 84.148Z" fill="url(#paint2_radial_284_12842)"/>
<path style="mix-blend-mode:screen" opacity="0.25" d="M61.6129 102.054C49.5068 79.6398 58.892 52.1884 82.5747 40.7309C93.3837 35.5031 105.296 34.5224 116.202 37.1187C103.753 32.42 89.3061 32.6246 76.4323 38.8543C52.7495 50.3117 43.3718 77.7631 55.4704 100.177C62.0527 112.361 73.6294 120.531 86.63 123.628C76.1788 119.684 67.1291 112.284 61.6054 102.061L61.6129 102.054Z" fill="url(#paint3_radial_284_12842)"/>
<path style="mix-blend-mode:multiply" opacity="0.5" d="M119.429 38.6848C128.024 45.6341 133.489 55.9627 133.489 67.5048C133.489 88.4373 115.561 105.405 93.4433 105.405C71.326 105.405 53.3981 88.4373 53.3981 67.5048C53.3981 65.2825 53.6142 63.1095 54.0019 60.993C51.3406 66.6512 49.8572 72.902 49.8572 79.4915C49.8572 104.657 71.4154 125.067 98.0054 125.067C124.595 125.067 146.161 104.664 146.161 79.4915C146.161 61.6138 135.278 46.142 119.437 38.6777L119.429 38.6848Z" fill="url(#paint4_radial_284_12842)"/>
<path style="mix-blend-mode:multiply" opacity="0.5" d="M83.514 35.5947C94.8075 35.0303 106.28 38.96 114.681 47.3344C129.91 62.5099 129.262 86.4972 113.227 100.918C97.1929 115.331 71.8478 114.718 56.6109 99.535C54.9933 97.9264 53.5695 96.212 52.3097 94.4201C54.4939 100.255 57.9676 105.758 62.7608 110.541C81.0764 128.792 111.55 129.533 130.835 112.199C150.119 94.8645 150.902 66.0233 132.587 47.7718C119.579 34.8045 100.428 30.6914 83.514 35.6017V35.5947Z" fill="url(#paint5_radial_284_12842)"/>
<path d="M171.797 44.1667C168.83 38.3745 158.886 37.5632 141.383 41.7045C137.462 42.6287 133.272 43.7928 128.889 45.1474C129.978 45.9093 130.984 46.7701 131.923 47.6872C133.25 48.7455 134.48 49.9378 135.658 51.1795C137.671 50.601 139.638 50.0648 141.532 49.5921C159.109 45.2109 163.716 47.1228 164.447 47.5391C164.342 48.3433 163.068 52.9503 148.547 63.2931C136.858 71.611 120.637 80.6839 102.858 88.8396C85.0869 96.9953 67.5093 103.43 53.3683 106.957C35.7981 111.338 31.1838 109.433 30.4533 109.01C30.5577 108.206 31.8324 103.599 46.3536 93.2561C47.9414 92.1273 49.6336 90.9773 51.3779 89.8273C50.4461 87.104 49.9318 84.2891 50.0063 81.4176C46.3611 83.7317 42.9693 86.0175 39.9055 88.254C25.6377 98.6885 20.1438 106.576 23.1107 112.368C24.8401 115.741 28.9326 117.427 35.5074 117.427C40.2261 117.427 46.212 116.559 53.5248 114.831C68.4933 111.289 87.2785 104.509 106.399 95.7324C125.527 86.9559 142.784 77.2057 154.995 68.281C169.27 57.8466 174.764 49.9519 171.797 44.1597V44.1667Z" fill="url(#paint6_radial_284_12842)"/>
<path style="mix-blend-mode:multiply" opacity="0.5" d="M107.726 90.2578C164.887 64.4502 173.288 47.8637 167.257 43.7859C161.495 39.8914 144.417 43.9834 132.542 48.2235C133.63 49.1477 134.674 50.1354 135.658 51.1796C137.67 50.6011 139.638 50.0649 141.532 49.5922C159.109 45.211 163.716 47.1229 164.447 47.5392C164.342 48.3434 163.068 52.9504 148.546 63.2932C136.858 71.6111 120.637 80.684 102.858 88.8397C85.0869 96.9954 67.5093 103.43 53.3682 106.957C35.7981 111.338 31.1838 109.434 30.4533 109.01C30.5577 108.206 31.8324 103.599 46.3536 93.2562C47.9414 92.1274 49.6336 90.9774 51.3779 89.8274C50.789 88.106 50.3939 86.3422 50.1777 84.5572C43.7222 88.9244 21.1725 104.819 26.249 110.16C32.1604 116.376 50.5579 116.065 107.719 90.2648L107.726 90.2578Z" fill="url(#paint7_radial_284_12842)"/>
<path opacity="0.5" d="M43.5806 126.542C50.8594 126.542 56.76 120.957 56.76 114.069C56.76 107.18 50.8594 101.595 43.5806 101.595C36.3018 101.595 30.4011 107.18 30.4011 114.069C30.4011 120.957 36.3018 126.542 43.5806 126.542Z" fill="url(#paint8_radial_284_12842)"/>
<path d="M43.5806 124.178C49.4802 124.178 54.2628 119.652 54.2628 114.068C54.2628 108.485 49.4802 103.958 43.5806 103.958C37.6809 103.958 32.8983 108.485 32.8983 114.068C32.8983 119.652 37.6809 124.178 43.5806 124.178Z" fill="url(#paint9_radial_284_12842)"/>
<path style="mix-blend-mode:screen" opacity="0.5" d="M33.9867 115.099C33.9867 109.518 38.7725 104.989 44.6689 104.989C47.36 104.989 49.8199 105.934 51.6985 107.486C49.7379 105.37 46.868 104.029 43.6551 104.029C37.7587 104.029 32.9729 108.559 32.9729 114.139C32.9729 117.173 34.3892 119.896 36.6256 121.752C34.9856 119.974 33.9867 117.646 33.9867 115.099Z" fill="url(#paint10_radial_284_12842)"/>
<path style="mix-blend-mode:screen" opacity="0.5" d="M35.5074 119.07C32.8238 114.097 34.9036 108.008 40.159 105.468C42.5593 104.311 45.1982 104.092 47.6209 104.664C44.8553 103.62 41.6573 103.669 38.7948 105.052C33.5394 107.592 31.4596 113.687 34.1432 118.654C35.6043 121.356 38.1686 123.169 41.0535 123.854C38.7352 122.979 36.7299 121.335 35.4999 119.07H35.5074Z" fill="url(#paint11_radial_284_12842)"/>
<path style="mix-blend-mode:multiply" opacity="0.5" d="M48.3365 105.01C50.2448 106.555 51.4524 108.841 51.4524 111.402C51.4524 116.044 47.4718 119.811 42.5668 119.811C37.6617 119.811 33.6811 116.044 33.6811 111.402C33.6811 110.908 33.7258 110.428 33.8152 109.955C33.2263 111.211 32.8983 112.601 32.8983 114.061C32.8983 119.642 37.6841 124.171 43.5806 124.171C49.477 124.171 54.2628 119.642 54.2628 114.061C54.2628 110.096 51.8475 106.661 48.3365 105.01Z" fill="url(#paint12_radial_284_12842)"/>
<path style="mix-blend-mode:multiply" opacity="0.5" d="M40.3677 104.325C42.8724 104.198 45.4218 105.073 47.2854 106.929C50.6623 110.294 50.5206 115.621 46.9649 118.817C43.4091 122.012 37.781 121.878 34.4041 118.513C34.0463 118.153 33.7258 117.772 33.45 117.377C33.9345 118.668 34.7023 119.896 35.7683 120.954C39.831 125.004 46.5922 125.166 50.871 121.321C55.1499 117.476 55.3213 111.077 51.2586 107.027C48.3738 104.149 44.1247 103.239 40.3752 104.325H40.3677Z" fill="url(#paint13_radial_284_12842)"/>
<path opacity="0.5" d="M149.434 80.684C155.477 80.684 160.377 76.047 160.377 70.3271C160.377 64.6071 155.477 59.9702 149.434 59.9702C143.39 59.9702 138.49 64.6071 138.49 70.3271C138.49 76.047 143.39 80.684 149.434 80.684Z" fill="url(#paint14_radial_284_12842)"/>
<path d="M149.434 78.7228C154.333 78.7228 158.304 74.9639 158.304 70.3272C158.304 65.6905 154.333 61.9316 149.434 61.9316C144.534 61.9316 140.563 65.6905 140.563 70.3272C140.563 74.9639 144.534 78.7228 149.434 78.7228Z" fill="url(#paint15_radial_284_12842)"/>
<path style="mix-blend-mode:screen" opacity="0.5" d="M141.472 71.1806C141.472 66.5454 145.445 62.785 150.343 62.785C152.579 62.785 154.622 63.5681 156.18 64.8592C154.555 63.1025 152.169 61.9878 149.501 61.9878C144.603 61.9878 140.63 65.7482 140.63 70.3834C140.63 72.902 141.808 75.1667 143.664 76.7047C142.3 75.2302 141.472 73.2971 141.472 71.1806Z" fill="url(#paint16_radial_284_12842)"/>
<path style="mix-blend-mode:screen" opacity="0.5" d="M142.732 74.4826C140.503 70.3553 142.233 65.2968 146.593 63.1874C148.584 62.2279 150.775 62.0444 152.788 62.5242C150.492 61.6564 147.831 61.6987 145.46 62.8417C141.1 64.9511 139.37 70.0096 141.599 74.1369C142.814 76.3804 144.946 77.8902 147.339 78.4546C145.416 77.7279 143.746 76.3663 142.732 74.4826Z" fill="url(#paint17_radial_284_12842)"/>
<path style="mix-blend-mode:multiply" opacity="0.5" d="M153.384 62.8062C154.965 64.0831 155.971 65.988 155.971 68.1186C155.971 71.9778 152.669 75.1032 148.591 75.1032C144.514 75.1032 141.211 71.9778 141.211 68.1186C141.211 67.7094 141.249 67.3073 141.323 66.9193C140.831 67.9634 140.563 69.1134 140.563 70.3269C140.563 74.9621 144.536 78.7224 149.434 78.7224C154.331 78.7224 158.304 74.9621 158.304 70.3269C158.304 67.0322 156.299 64.1819 153.384 62.8062Z" fill="url(#paint18_radial_284_12842)"/>
<path style="mix-blend-mode:multiply" opacity="0.5" d="M146.765 62.2421C148.845 62.1363 150.962 62.863 152.505 64.401C155.308 67.1948 155.188 71.6183 152.236 74.271C149.285 76.9238 144.611 76.8109 141.808 74.0171C141.51 73.7208 141.249 73.4033 141.018 73.0717C141.42 74.1441 142.061 75.16 142.941 76.0419C146.318 79.4001 151.931 79.5412 155.479 76.3452C159.027 73.1493 159.177 67.8368 155.8 64.4786C153.399 62.0869 149.873 61.332 146.757 62.2351L146.765 62.2421Z" fill="url(#paint19_radial_284_12842)"/>
<path opacity="0.5" d="M172.252 50.4741C172.252 52.2944 170.694 53.7759 168.763 53.7759C166.832 53.7759 165.274 52.3014 165.274 50.4741C165.274 48.6469 166.832 47.1724 168.763 47.1724C170.694 47.1724 172.252 48.6469 172.252 50.4741Z" fill="url(#paint20_radial_284_12842)"/>
<path d="M171.596 50.4742C171.596 51.9487 170.328 53.1481 168.77 53.1481C167.212 53.1481 165.945 51.9487 165.945 50.4742C165.945 48.9997 167.212 47.8003 168.77 47.8003C170.328 47.8003 171.596 48.9997 171.596 50.4742Z" fill="url(#paint21_radial_284_12842)"/>
<path style="mix-blend-mode:screen" opacity="0.5" d="M166.228 50.7492C166.228 49.2746 167.496 48.0753 169.054 48.0753C169.769 48.0753 170.418 48.3222 170.91 48.7385C170.388 48.1811 169.628 47.8213 168.785 47.8213C167.227 47.8213 165.96 49.0207 165.96 50.4952C165.96 51.2995 166.333 52.0191 166.929 52.5059C166.497 52.0332 166.228 51.4194 166.228 50.7492Z" fill="url(#paint22_radial_284_12842)"/>
<path style="mix-blend-mode:screen" opacity="0.5" d="M166.631 51.8007C165.923 50.4884 166.474 48.8728 167.861 48.2026C168.495 47.8992 169.195 47.8357 169.836 47.9909C169.106 47.7158 168.256 47.7299 167.503 48.0897C166.117 48.7599 165.565 50.3755 166.273 51.6878C166.661 52.4003 167.339 52.8801 168.099 53.0635C167.488 52.8307 166.952 52.4003 166.631 51.8007Z" fill="url(#paint23_radial_284_12842)"/>
<path style="mix-blend-mode:multiply" opacity="0.5" d="M170.023 48.0752C170.53 48.4844 170.85 49.0911 170.85 49.7684C170.85 50.996 169.799 51.9908 168.502 51.9908C167.205 51.9908 166.154 50.996 166.154 49.7684C166.154 49.6414 166.169 49.5074 166.191 49.3874C166.035 49.719 165.945 50.0859 165.945 50.4739C165.945 51.9484 167.212 53.1478 168.77 53.1478C170.328 53.1478 171.596 51.9484 171.596 50.4739C171.596 49.4227 170.955 48.5197 170.03 48.0752H170.023Z" fill="url(#paint24_radial_284_12842)"/>
<path style="mix-blend-mode:multiply" opacity="0.5" d="M167.913 47.8988C168.577 47.8635 169.247 48.0963 169.739 48.5902C170.634 49.4791 170.597 50.8902 169.657 51.7368C168.718 52.5834 167.227 52.5481 166.333 51.6592C166.236 51.5674 166.154 51.4616 166.079 51.3558C166.206 51.7015 166.415 52.019 166.691 52.3012C167.764 53.3735 169.553 53.4159 170.686 52.3999C171.819 51.384 171.864 49.6908 170.791 48.6184C170.03 47.8565 168.905 47.6166 167.913 47.9059V47.8988Z" fill="url(#paint25_radial_284_12842)"/>
<path opacity="0.5" d="M125.796 80.5357C125.796 82.3559 124.238 83.8375 122.307 83.8375C120.376 83.8375 118.818 82.3629 118.818 80.5357C118.818 78.7084 120.376 77.2339 122.307 77.2339C124.238 77.2339 125.796 78.7084 125.796 80.5357Z" fill="url(#paint26_radial_284_12842)"/>
<path d="M125.132 80.5357C125.132 82.0102 123.865 83.2096 122.307 83.2096C120.749 83.2096 119.482 82.0102 119.482 80.5357C119.482 79.0612 120.749 77.8618 122.307 77.8618C123.865 77.8618 125.132 79.0612 125.132 80.5357Z" fill="url(#paint27_radial_284_12842)"/>
<path style="mix-blend-mode:screen" opacity="0.5" d="M119.772 80.8107C119.772 79.3362 121.04 78.1368 122.598 78.1368C123.313 78.1368 123.962 78.3837 124.454 78.8C123.939 78.2426 123.172 77.8828 122.329 77.8828C120.771 77.8828 119.504 79.0822 119.504 80.5567C119.504 81.361 119.877 82.0806 120.473 82.5674C120.041 82.0947 119.772 81.4809 119.772 80.8107Z" fill="url(#paint28_radial_284_12842)"/>
<path style="mix-blend-mode:screen" opacity="0.5" d="M120.175 81.8622C119.467 80.5499 120.018 78.9343 121.405 78.2641C122.039 77.9607 122.739 77.8972 123.38 78.0524C122.65 77.7773 121.8 77.7914 121.047 78.1512C119.661 78.8214 119.109 80.4371 119.817 81.7493C120.205 82.4619 120.883 82.9416 121.643 83.125C121.032 82.8922 120.495 82.4619 120.175 81.8622Z" fill="url(#paint29_radial_284_12842)"/>
<path style="mix-blend-mode:multiply" opacity="0.5" d="M123.567 78.144C124.074 78.5532 124.394 79.16 124.394 79.8373C124.394 81.0649 123.343 82.0596 122.046 82.0596C120.749 82.0596 119.698 81.0649 119.698 79.8373C119.698 79.7103 119.713 79.5762 119.735 79.4563C119.579 79.7879 119.489 80.1547 119.489 80.5428C119.489 82.0173 120.756 83.2167 122.314 83.2167C123.872 83.2167 125.14 82.0173 125.14 80.5428C125.14 79.4916 124.499 78.5885 123.574 78.144H123.567Z" fill="url(#paint30_radial_284_12842)"/>
<path style="mix-blend-mode:multiply" opacity="0.5" d="M121.457 77.9603C122.121 77.925 122.791 78.1579 123.283 78.6517C124.178 79.5407 124.141 80.9517 123.201 81.7983C122.262 82.6449 120.771 82.6096 119.877 81.7207C119.78 81.629 119.698 81.5231 119.623 81.4173C119.75 81.763 119.959 82.0805 120.235 82.3627C121.308 83.4351 123.097 83.4774 124.23 82.4615C125.363 81.4455 125.408 79.7523 124.335 78.6799C123.574 77.918 122.449 77.6781 121.457 77.9674V77.9603Z" fill="url(#paint31_radial_284_12842)"/>
<path opacity="0.5" d="M63.8119 114.81C65.7387 114.81 67.3006 113.331 67.3006 111.508C67.3006 109.684 65.7387 108.206 63.8119 108.206C61.8852 108.206 60.3232 109.684 60.3232 111.508C60.3232 113.331 61.8852 114.81 63.8119 114.81Z" fill="url(#paint32_radial_284_12842)"/>
<path d="M63.8119 114.182C65.3723 114.182 66.6372 112.985 66.6372 111.508C66.6372 110.031 65.3723 108.834 63.8119 108.834C62.2516 108.834 60.9867 110.031 60.9867 111.508C60.9867 112.985 62.2516 114.182 63.8119 114.182Z" fill="url(#paint33_radial_284_12842)"/>
<path style="mix-blend-mode:screen" opacity="0.5" d="M61.2774 111.783C61.2774 110.308 62.5447 109.109 64.1027 109.109C64.8183 109.109 65.4668 109.356 65.9588 109.772C65.437 109.215 64.6766 108.855 63.8343 108.855C62.2763 108.855 61.0091 110.054 61.0091 111.529C61.0091 112.333 61.3818 113.053 61.9781 113.54C61.5458 113.067 61.2774 112.453 61.2774 111.783Z" fill="url(#paint34_radial_284_12842)"/>
<path style="mix-blend-mode:screen" opacity="0.5" d="M61.68 112.834C60.9718 111.522 61.5234 109.906 62.9099 109.236C63.5436 108.926 64.2443 108.869 64.8854 109.025C64.1548 108.749 63.305 108.764 62.5521 109.123C61.1656 109.794 60.614 111.409 61.3221 112.721C61.7098 113.434 62.3881 113.914 63.1485 114.097C62.5372 113.864 62.0005 113.434 61.68 112.834Z" fill="url(#paint35_radial_284_12842)"/>
<path style="mix-blend-mode:multiply" opacity="0.5" d="M65.0717 109.116C65.5786 109.525 65.8992 110.132 65.8992 110.809C65.8992 112.037 64.8481 113.032 63.551 113.032C62.2539 113.032 61.2029 112.037 61.2029 110.809C61.2029 110.682 61.2178 110.548 61.2401 110.428C61.0836 110.76 60.9941 111.127 60.9941 111.515C60.9941 112.989 62.2614 114.189 63.8194 114.189C65.3773 114.189 66.6446 112.989 66.6446 111.515C66.6446 110.464 66.0035 109.561 65.0792 109.116H65.0717Z" fill="url(#paint36_radial_284_12842)"/>
<path style="mix-blend-mode:multiply" opacity="0.5" d="M62.9621 108.933C63.6256 108.898 64.2965 109.131 64.7885 109.624C65.683 110.513 65.6457 111.924 64.7065 112.771C63.7672 113.618 62.2763 113.582 61.3818 112.693C61.2849 112.602 61.2029 112.496 61.1283 112.39C61.2551 112.736 61.4638 113.053 61.7396 113.335C62.813 114.408 64.6021 114.45 65.7352 113.434C66.8682 112.418 66.913 110.725 65.8395 109.653C65.0792 108.891 63.9536 108.651 62.9621 108.94V108.933Z" fill="url(#paint37_radial_284_12842)"/>
<path opacity="0.5" d="M71.9224 106.252C73.8491 106.252 75.411 104.773 75.411 102.95C75.411 101.126 73.8491 99.6479 71.9224 99.6479C69.9956 99.6479 68.4337 101.126 68.4337 102.95C68.4337 104.773 69.9956 106.252 71.9224 106.252Z" fill="url(#paint38_radial_284_12842)"/>
<path d="M71.9224 105.624C73.4827 105.624 74.7476 104.427 74.7476 102.95C74.7476 101.473 73.4827 100.276 71.9224 100.276C70.362 100.276 69.0971 101.473 69.0971 102.95C69.0971 104.427 70.362 105.624 71.9224 105.624Z" fill="url(#paint39_radial_284_12842)"/>
<path style="mix-blend-mode:screen" opacity="0.5" d="M69.3804 103.225C69.3804 101.75 70.6476 100.551 72.2056 100.551C72.9213 100.551 73.5698 100.798 74.0618 101.214C73.5474 100.657 72.7796 100.297 71.9373 100.297C70.3793 100.297 69.112 101.496 69.112 102.971C69.112 103.775 69.4848 104.495 70.0811 104.981C69.6488 104.509 69.3804 103.895 69.3804 103.225Z" fill="url(#paint40_radial_284_12842)"/>
<path style="mix-blend-mode:screen" opacity="0.5" d="M69.7829 104.276C69.0748 102.964 69.6264 101.348 71.0129 100.678C71.6466 100.368 72.3473 100.311 72.9884 100.466C72.2578 100.191 71.408 100.205 70.6551 100.565C69.2686 101.235 68.717 102.851 69.4251 104.163C69.8128 104.876 70.4911 105.356 71.2515 105.539C70.6402 105.306 70.1035 104.876 69.7829 104.276Z" fill="url(#paint41_radial_284_12842)"/>
<path style="mix-blend-mode:multiply" opacity="0.5" d="M73.1747 100.558C73.6816 100.967 74.0022 101.574 74.0022 102.251C74.0022 103.479 72.9511 104.474 71.654 104.474C70.3569 104.474 69.3059 103.479 69.3059 102.251C69.3059 102.124 69.3208 101.99 69.3431 101.87C69.1866 102.202 69.0971 102.569 69.0971 102.957C69.0971 104.431 70.3644 105.631 71.9224 105.631C73.4803 105.631 74.7476 104.431 74.7476 102.957C74.7476 101.906 74.1065 101.003 73.1822 100.558H73.1747Z" fill="url(#paint42_radial_284_12842)"/>
<path style="mix-blend-mode:multiply" opacity="0.5" d="M71.0726 100.374C71.736 100.339 72.4069 100.572 72.8989 101.066C73.7934 101.955 73.7562 103.366 72.8169 104.212C71.8776 105.059 70.3868 105.024 69.4922 104.135C69.3953 104.043 69.3133 103.937 69.2388 103.831C69.3655 104.177 69.5742 104.495 69.85 104.777C70.9235 105.849 72.7125 105.891 73.8456 104.876C74.9787 103.86 75.0234 102.166 73.95 101.094C73.1896 100.332 72.064 100.092 71.0726 100.381V100.374Z" fill="url(#paint43_radial_284_12842)"/>
<path opacity="0.5" d="M26.987 112.94C26.987 114.76 25.429 116.242 23.4983 116.242C21.5676 116.242 20.0096 114.767 20.0096 112.94C20.0096 111.113 21.5676 109.638 23.4983 109.638C25.429 109.638 26.987 111.113 26.987 112.94Z" fill="url(#paint44_radial_284_12842)"/>
<path d="M26.331 112.94C26.331 114.415 25.0638 115.614 23.5058 115.614C21.9478 115.614 20.6805 114.415 20.6805 112.94C20.6805 111.465 21.9478 110.266 23.5058 110.266C25.0638 110.266 26.331 111.465 26.331 112.94Z" fill="url(#paint45_radial_284_12842)"/>
<path style="mix-blend-mode:screen" opacity="0.5" d="M20.9638 113.215C20.9638 111.74 22.2311 110.541 23.7891 110.541C24.5047 110.541 25.1532 110.788 25.6452 111.204C25.1234 110.647 24.363 110.287 23.5207 110.287C21.9627 110.287 20.6955 111.486 20.6955 112.961C20.6955 113.765 21.0682 114.485 21.6645 114.972C21.2322 114.499 20.9638 113.885 20.9638 113.215Z" fill="url(#paint46_radial_284_12842)"/>
<path style="mix-blend-mode:screen" opacity="0.5" d="M21.3664 114.266C20.6582 112.954 21.2098 111.339 22.5963 110.668C23.23 110.365 23.9307 110.302 24.5718 110.457C23.8412 110.182 22.9914 110.196 22.2385 110.555C20.852 111.226 20.3004 112.841 21.0085 114.154C21.3962 114.866 22.0745 115.346 22.8349 115.529C22.2236 115.297 21.6869 114.866 21.3664 114.266Z" fill="url(#paint47_radial_284_12842)"/>
<path style="mix-blend-mode:multiply" opacity="0.5" d="M24.7581 110.548C25.265 110.958 25.5856 111.564 25.5856 112.242C25.5856 113.469 24.5345 114.464 23.2374 114.464C21.9403 114.464 20.8893 113.469 20.8893 112.242C20.8893 112.115 20.9042 111.981 20.9265 111.861C20.77 112.192 20.6805 112.559 20.6805 112.947C20.6805 114.422 21.9478 115.621 23.5058 115.621C25.0638 115.621 26.331 114.422 26.331 112.947C26.331 111.896 25.6899 110.993 24.7656 110.548H24.7581Z" fill="url(#paint48_radial_284_12842)"/>
<path style="mix-blend-mode:multiply" opacity="0.5" d="M22.656 110.365C23.3194 110.329 23.9903 110.562 24.4823 111.056C25.3768 111.945 25.3396 113.356 24.4003 114.203C23.461 115.049 21.9702 115.014 21.0756 114.125C20.9787 114.033 20.8967 113.927 20.8222 113.822C20.9489 114.167 21.1576 114.485 21.4334 114.767C22.5069 115.839 24.2959 115.882 25.429 114.866C26.5621 113.85 26.6068 112.157 25.5334 111.084C24.773 110.322 23.6474 110.082 22.656 110.372V110.365Z" fill="url(#paint49_radial_284_12842)"/>
<path style="mix-blend-mode:screen" opacity="0.25" d="M82.3064 80.9661C91.4173 80.9661 98.8031 73.9759 98.8031 65.3532C98.8031 56.7304 91.4173 49.7402 82.3064 49.7402C73.1955 49.7402 65.8097 56.7304 65.8097 65.3532C65.8097 73.9759 73.1955 80.9661 82.3064 80.9661Z" fill="url(#paint50_radial_284_12842)"/>
<path style="mix-blend-mode:screen" opacity="0.25" d="M110.402 79.428C113.922 79.428 116.776 76.7273 116.776 73.3959C116.776 70.0644 113.922 67.3638 110.402 67.3638C106.882 67.3638 104.029 70.0644 104.029 73.3959C104.029 76.7273 106.882 79.428 110.402 79.428Z" fill="url(#paint51_radial_284_12842)"/>
<path style="mix-blend-mode:screen" opacity="0.25" d="M120.1 62.9969C120.1 64.542 118.781 65.7908 117.148 65.7908C115.516 65.7908 114.196 64.542 114.196 62.9969C114.196 61.4519 115.516 60.2031 117.148 60.2031C118.781 60.2031 120.1 61.4519 120.1 62.9969Z" fill="url(#paint52_radial_284_12842)"/>
<path style="mix-blend-mode:multiply" opacity="0.25" d="M110.081 108.031C110.807 105.122 108.903 102.207 105.83 101.521C102.757 100.834 99.6775 102.636 98.9521 105.544C98.2268 108.453 100.13 111.368 103.203 112.054C106.277 112.741 109.356 110.939 110.081 108.031Z" fill="url(#paint53_radial_284_12842)"/>
<path style="mix-blend-mode:multiply" opacity="0.25" d="M123.798 108.806C126.416 108.806 128.539 106.797 128.539 104.319C128.539 101.84 126.416 99.8315 123.798 99.8315C121.179 99.8315 119.057 101.84 119.057 104.319C119.057 106.797 121.179 108.806 123.798 108.806Z" fill="url(#paint54_radial_284_12842)"/>
</g>
<defs>
<filter id="filter0_d_284_12842" x="-6" y="-16" width="208" height="199" filterUnits="userSpaceOnUse" color-interpolation-filters="sRGB">
<feFlood flood-opacity="0" result="BackgroundImageFix"/>
<feColorMatrix in="SourceAlpha" type="matrix" values="0 0 0 0 0 0 0 0 0 0 0 0 0 0 0 0 0 0 127 0" result="hardAlpha"/>
<feOffset dy="4"/>
<feGaussianBlur stdDeviation="10"/>
<feComposite in2="hardAlpha" operator="out"/>
<feColorMatrix type="matrix" values="0 0 0 0 0 0 0 0 0 0 0 0 0 0 0 0 0 0 0.25 0"/>
<feBlend mode="normal" in2="BackgroundImageFix" result="effect1_dropShadow_284_12842"/>
<feBlend mode="normal" in="SourceGraphic" in2="effect1_dropShadow_284_12842" result="shape"/>
</filter>
<radialGradient id="paint0_radial_284_12842" cx="0" cy="0" r="1" gradientUnits="userSpaceOnUse" gradientTransform="translate(99.0015 80.8166) scale(59.5088 56.3208)">
<stop offset="0.06" stop-color="#5E8DEC"/>
<stop offset="0.24" stop-color="#5E8EEC" stop-opacity="0.99"/>
<stop offset="0.37" stop-color="#6091EC" stop-opacity="0.95"/>
<stop offset="0.48" stop-color="#6396EC" stop-opacity="0.88"/>
<stop offset="0.59" stop-color="#689EEC" stop-opacity="0.79"/>
<stop offset="0.68" stop-color="#6EA9EC" stop-opacity="0.66"/>
<stop offset="0.78" stop-color="#75B5EC" stop-opacity="0.51"/>
<stop offset="0.87" stop-color="#7DC4ED" stop-opacity="0.34"/>
<stop offset="0.95" stop-color="#87D5ED" stop-opacity="0.14"/>
<stop offset="1" stop-color="#8EE1EE" stop-opacity="0"/>
</radialGradient>
<radialGradient id="paint1_radial_284_12842" cx="0" cy="0" r="1" gradientUnits="userSpaceOnUse" gradientTransform="translate(81.7273 57.084) scale(96.1772 91.0248)">
<stop offset="0.08" stop-color="#FFE245"/>
<stop offset="0.53" stop-color="#DE007B"/>
<stop offset="1" stop-color="#E38427"/>
</radialGradient>
<radialGradient id="paint2_radial_284_12842" cx="0" cy="0" r="1" gradientUnits="userSpaceOnUse" gradientTransform="translate(87.9643 48.1741) scale(72.8373 68.9353)">
<stop stop-color="#8EE1EE"/>
<stop offset="0.94" stop-color="#5E8DEC"/>
</radialGradient>
<radialGradient id="paint3_radial_284_12842" cx="0" cy="0" r="1" gradientUnits="userSpaceOnUse" gradientTransform="translate(73.8741 55.7292) rotate(-25.8124) scale(72.0466 69.6919)">
<stop stop-color="#8EE1EE"/>
<stop offset="0.94" stop-color="#5E8DEC"/>
</radialGradient>
<radialGradient id="paint4_radial_284_12842" cx="0" cy="0" r="1" gradientUnits="userSpaceOnUse" gradientTransform="translate(126.72 80.1123) scale(183.998 174.141)">
<stop stop-color="#8EE1EE"/>
<stop offset="0.94" stop-color="#5E8DEC"/>
</radialGradient>
<radialGradient id="paint5_radial_284_12842" cx="0" cy="0" r="1" gradientUnits="userSpaceOnUse" gradientTransform="translate(118.958 60.8463) rotate(-41.9577) scale(179.39 178.614)">
<stop stop-color="#8EE1EE"/>
<stop offset="0.94" stop-color="#5E8DEC"/>
</radialGradient>
<radialGradient id="paint6_radial_284_12842" cx="0" cy="0" r="1" gradientUnits="userSpaceOnUse" gradientTransform="translate(97.4538 78.2711) scale(60.6419 57.3932)">
<stop offset="0.02" stop-color="#732FA4"/>
<stop offset="0.35" stop-color="#702DA0"/>
<stop offset="0.62" stop-color="#672696"/>
<stop offset="0.86" stop-color="#591C85"/>
<stop offset="1" stop-color="#51167B"/>
</radialGradient>
<radialGradient id="paint7_radial_284_12842" cx="0" cy="0" r="1" gradientUnits="userSpaceOnUse" gradientTransform="translate(97.2227 77.8549) scale(57.265 54.1972)">
<stop offset="0.02" stop-color="#732FA4"/>
<stop offset="0.35" stop-color="#702DA0"/>
<stop offset="0.62" stop-color="#672696"/>
<stop offset="0.86" stop-color="#591C85"/>
<stop offset="1" stop-color="#51167B"/>
</radialGradient>
<radialGradient id="paint8_radial_284_12842" cx="0" cy="0" r="1" gradientUnits="userSpaceOnUse" gradientTransform="translate(43.8042 114.358) scale(13.2018 12.4946)">
<stop offset="0.06" stop-color="#ECB900"/>
<stop offset="0.24" stop-color="#ECB800" stop-opacity="0.99"/>
<stop offset="0.37" stop-color="#ECB802" stop-opacity="0.95"/>
<stop offset="0.48" stop-color="#ECB604" stop-opacity="0.88"/>
<stop offset="0.59" stop-color="#ECB408" stop-opacity="0.79"/>
<stop offset="0.68" stop-color="#ECB20D" stop-opacity="0.66"/>
<stop offset="0.78" stop-color="#ECAF13" stop-opacity="0.51"/>
<stop offset="0.87" stop-color="#EDAC1B" stop-opacity="0.34"/>
<stop offset="0.95" stop-color="#EDA823" stop-opacity="0.14"/>
<stop offset="1" stop-color="#EEA629" stop-opacity="0"/>
</radialGradient>
<radialGradient id="paint9_radial_284_12842" cx="0" cy="0" r="1" gradientUnits="userSpaceOnUse" gradientTransform="translate(39.9726 109.095) scale(21.3346 20.1917)">
<stop stop-color="#EECA6C"/>
<stop offset="0.34" stop-color="#EEA629"/>
<stop offset="0.94" stop-color="#ECB900"/>
</radialGradient>
<radialGradient id="paint10_radial_284_12842" cx="0" cy="0" r="1" gradientUnits="userSpaceOnUse" gradientTransform="translate(41.3591 107.119) scale(16.1612 15.2955)">
<stop stop-color="#EEA629"/>
<stop offset="0.94" stop-color="#ECB900"/>
</radialGradient>
<radialGradient id="paint11_radial_284_12842" cx="0" cy="0" r="1" gradientUnits="userSpaceOnUse" gradientTransform="translate(38.2261 108.807) rotate(-25.8124) scale(15.9858 15.4633)">
<stop stop-color="#EEA629"/>
<stop offset="0.94" stop-color="#ECB900"/>
</radialGradient>
<radialGradient id="paint12_radial_284_12842" cx="0" cy="0" r="1" gradientUnits="userSpaceOnUse" gradientTransform="translate(49.9541 114.203) scale(40.8205 38.6337)">
<stop stop-color="#EEA629"/>
<stop offset="0.94" stop-color="#ECB900"/>
</radialGradient>
<radialGradient id="paint13_radial_284_12842" cx="0" cy="0" r="1" gradientUnits="userSpaceOnUse" gradientTransform="translate(48.2532 109.906) rotate(-41.9577) scale(39.7982 39.6261)">
<stop stop-color="#EEA629"/>
<stop offset="0.94" stop-color="#ECB900"/>
</radialGradient>
<radialGradient id="paint14_radial_284_12842" cx="0" cy="0" r="1" gradientUnits="userSpaceOnUse" gradientTransform="translate(149.62 70.567) scale(10.958 10.371)">
<stop offset="0.06" stop-color="#5E8DEC"/>
<stop offset="0.24" stop-color="#5E8EEC" stop-opacity="0.99"/>
<stop offset="0.37" stop-color="#6091EC" stop-opacity="0.95"/>
<stop offset="0.48" stop-color="#6396EC" stop-opacity="0.88"/>
<stop offset="0.59" stop-color="#689EEC" stop-opacity="0.79"/>
<stop offset="0.68" stop-color="#6EA9EC" stop-opacity="0.66"/>
<stop offset="0.78" stop-color="#75B5EC" stop-opacity="0.51"/>
<stop offset="0.87" stop-color="#7DC4ED" stop-opacity="0.34"/>
<stop offset="0.95" stop-color="#87D5ED" stop-opacity="0.14"/>
<stop offset="1" stop-color="#8EE1EE" stop-opacity="0"/>
</radialGradient>
<radialGradient id="paint15_radial_284_12842" cx="0" cy="0" r="1" gradientUnits="userSpaceOnUse" gradientTransform="translate(146.437 66.2) scale(17.7192 16.77)">
<stop stop-color="#D1E1EE"/>
<stop offset="0.34" stop-color="#8EE1EE"/>
<stop offset="0.94" stop-color="#5E8DEC"/>
</radialGradient>
<radialGradient id="paint16_radial_284_12842" cx="0" cy="0" r="1" gradientUnits="userSpaceOnUse" gradientTransform="translate(147.585 64.5558) scale(13.418 12.6992)">
<stop stop-color="#8EE1EE"/>
<stop offset="0.94" stop-color="#5E8DEC"/>
</radialGradient>
<radialGradient id="paint17_radial_284_12842" cx="0" cy="0" r="1" gradientUnits="userSpaceOnUse" gradientTransform="translate(144.991 65.9618) rotate(-25.8124) scale(13.2723 12.8385)">
<stop stop-color="#8EE1EE"/>
<stop offset="0.94" stop-color="#5E8DEC"/>
</radialGradient>
<radialGradient id="paint18_radial_284_12842" cx="0" cy="0" r="1" gradientUnits="userSpaceOnUse" gradientTransform="translate(154.726 70.4398) scale(33.8953 32.0795)">
<stop stop-color="#8EE1EE"/>
<stop offset="0.94" stop-color="#5E8DEC"/>
</radialGradient>
<radialGradient id="paint19_radial_284_12842" cx="0" cy="0" r="1" gradientUnits="userSpaceOnUse" gradientTransform="translate(153.306 66.8559) rotate(-41.9578) scale(33.0464 32.9036)">
<stop stop-color="#8EE1EE"/>
<stop offset="0.94" stop-color="#5E8DEC"/>
</radialGradient>
<radialGradient id="paint20_radial_284_12842" cx="0" cy="0" r="1" gradientUnits="userSpaceOnUse" gradientTransform="translate(168.823 50.5518) scale(3.49613 3.30884)">
<stop offset="0.06" stop-color="#ECB900"/>
<stop offset="0.24" stop-color="#ECB800" stop-opacity="0.99"/>
<stop offset="0.37" stop-color="#ECB802" stop-opacity="0.95"/>
<stop offset="0.48" stop-color="#ECB604" stop-opacity="0.88"/>
<stop offset="0.59" stop-color="#ECB408" stop-opacity="0.79"/>
<stop offset="0.68" stop-color="#ECB20D" stop-opacity="0.66"/>
<stop offset="0.78" stop-color="#ECAF13" stop-opacity="0.51"/>
<stop offset="0.87" stop-color="#EDAC1B" stop-opacity="0.34"/>
<stop offset="0.95" stop-color="#EDA823" stop-opacity="0.14"/>
<stop offset="1" stop-color="#EEA629" stop-opacity="0"/>
</radialGradient>
<radialGradient id="paint21_radial_284_12842" cx="0" cy="0" r="1" gradientUnits="userSpaceOnUse" gradientTransform="translate(167.809 49.1619) scale(5.64301 5.34071)">
<stop stop-color="#EECA6C"/>
<stop offset="0.34" stop-color="#EEA629"/>
<stop offset="0.94" stop-color="#ECB900"/>
</radialGradient>
<radialGradient id="paint22_radial_284_12842" cx="0" cy="0" r="1" gradientUnits="userSpaceOnUse" gradientTransform="translate(168.174 48.6326) scale(4.27884 4.04962)">
<stop stop-color="#EEA629"/>
<stop offset="0.94" stop-color="#ECB900"/>
</radialGradient>
<radialGradient id="paint23_radial_284_12842" cx="0" cy="0" r="1" gradientUnits="userSpaceOnUse" gradientTransform="translate(167.35 49.0937) rotate(-25.8124) scale(4.2324 4.09407)">
<stop stop-color="#EEA629"/>
<stop offset="0.94" stop-color="#ECB900"/>
</radialGradient>
<radialGradient id="paint24_radial_284_12842" cx="0" cy="0" r="1" gradientUnits="userSpaceOnUse" gradientTransform="translate(170.455 50.5092) scale(10.8015 10.2228)">
<stop stop-color="#EEA629"/>
<stop offset="0.94" stop-color="#ECB900"/>
</radialGradient>
<radialGradient id="paint25_radial_284_12842" cx="0" cy="0" r="1" gradientUnits="userSpaceOnUse" gradientTransform="translate(170.005 49.3408) rotate(-41.9577) scale(10.531 10.4854)">
<stop stop-color="#EEA629"/>
<stop offset="0.94" stop-color="#ECB900"/>
</radialGradient>
<radialGradient id="paint26_radial_284_12842" cx="0" cy="0" r="1" gradientUnits="userSpaceOnUse" gradientTransform="translate(122.367 80.6133) scale(3.49613 3.30884)">
<stop offset="0.06" stop-color="#5E8DEC"/>
<stop offset="0.24" stop-color="#5E8EEC" stop-opacity="0.99"/>
<stop offset="0.37" stop-color="#6091EC" stop-opacity="0.95"/>
<stop offset="0.48" stop-color="#6396EC" stop-opacity="0.88"/>
<stop offset="0.59" stop-color="#689EEC" stop-opacity="0.79"/>
<stop offset="0.68" stop-color="#6EA9EC" stop-opacity="0.66"/>
<stop offset="0.78" stop-color="#75B5EC" stop-opacity="0.51"/>
<stop offset="0.87" stop-color="#7DC4ED" stop-opacity="0.34"/>
<stop offset="0.95" stop-color="#87D5ED" stop-opacity="0.14"/>
<stop offset="1" stop-color="#8EE1EE" stop-opacity="0"/>
</radialGradient>
<radialGradient id="paint27_radial_284_12842" cx="0" cy="0" r="1" gradientUnits="userSpaceOnUse" gradientTransform="translate(121.353 79.2234) scale(5.64301 5.34071)">
<stop stop-color="#D1E1EE"/>
<stop offset="0.34" stop-color="#8EE1EE"/>
<stop offset="0.94" stop-color="#5E8DEC"/>
</radialGradient>
<radialGradient id="paint28_radial_284_12842" cx="0" cy="0" r="1" gradientUnits="userSpaceOnUse" gradientTransform="translate(121.718 78.7012) scale(4.27885 4.04963)">
<stop stop-color="#8EE1EE"/>
<stop offset="0.94" stop-color="#5E8DEC"/>
</radialGradient>
<radialGradient id="paint29_radial_284_12842" cx="0" cy="0" r="1" gradientUnits="userSpaceOnUse" gradientTransform="translate(120.89 79.1562) rotate(-25.8124) scale(4.2324 4.09407)">
<stop stop-color="#8EE1EE"/>
<stop offset="0.94" stop-color="#5E8DEC"/>
</radialGradient>
<radialGradient id="paint30_radial_284_12842" cx="0" cy="0" r="1" gradientUnits="userSpaceOnUse" gradientTransform="translate(123.992 80.571) scale(10.8015 10.2228)">
<stop stop-color="#8EE1EE"/>
<stop offset="0.94" stop-color="#5E8DEC"/>
</radialGradient>
<radialGradient id="paint31_radial_284_12842" cx="0" cy="0" r="1" gradientUnits="userSpaceOnUse" gradientTransform="translate(123.553 79.407) rotate(-41.9577) scale(10.531 10.4854)">
<stop stop-color="#8EE1EE"/>
<stop offset="0.94" stop-color="#5E8DEC"/>
</radialGradient>
<radialGradient id="paint32_radial_284_12842" cx="0" cy="0" r="1" gradientUnits="userSpaceOnUse" gradientTransform="translate(63.8716 111.585) scale(3.49613 3.30884)">
<stop offset="0.06" stop-color="#5E8DEC"/>
<stop offset="0.24" stop-color="#5E8EEC" stop-opacity="0.99"/>
<stop offset="0.37" stop-color="#6091EC" stop-opacity="0.95"/>
<stop offset="0.48" stop-color="#6396EC" stop-opacity="0.88"/>
<stop offset="0.59" stop-color="#689EEC" stop-opacity="0.79"/>
<stop offset="0.68" stop-color="#6EA9EC" stop-opacity="0.66"/>
<stop offset="0.78" stop-color="#75B5EC" stop-opacity="0.51"/>
<stop offset="0.87" stop-color="#7DC4ED" stop-opacity="0.34"/>
<stop offset="0.95" stop-color="#87D5ED" stop-opacity="0.14"/>
<stop offset="1" stop-color="#8EE1EE" stop-opacity="0"/>
</radialGradient>
<radialGradient id="paint33_radial_284_12842" cx="0" cy="0" r="1" gradientUnits="userSpaceOnUse" gradientTransform="translate(62.8578 110.196) scale(5.64301 5.34071)">
<stop stop-color="#D1E1EE"/>
<stop offset="0.34" stop-color="#8EE1EE"/>
<stop offset="0.94" stop-color="#5E8DEC"/>
</radialGradient>
<radialGradient id="paint34_radial_284_12842" cx="0" cy="0" r="1" gradientUnits="userSpaceOnUse" gradientTransform="translate(63.223 109.673) scale(4.27885 4.04962)">
<stop stop-color="#8EE1EE"/>
<stop offset="0.94" stop-color="#5E8DEC"/>
</radialGradient>
<radialGradient id="paint35_radial_284_12842" cx="0" cy="0" r="1" gradientUnits="userSpaceOnUse" gradientTransform="translate(62.3888 110.131) rotate(-25.8125) scale(4.2324 4.09407)">
<stop stop-color="#8EE1EE"/>
<stop offset="0.94" stop-color="#5E8DEC"/>
</radialGradient>
<radialGradient id="paint36_radial_284_12842" cx="0" cy="0" r="1" gradientUnits="userSpaceOnUse" gradientTransform="translate(65.4966 111.55) scale(10.8015 10.2228)">
<stop stop-color="#8EE1EE"/>
<stop offset="0.94" stop-color="#5E8DEC"/>
</radialGradient>
<radialGradient id="paint37_radial_284_12842" cx="0" cy="0" r="1" gradientUnits="userSpaceOnUse" gradientTransform="translate(65.0656 110.39) rotate(-41.9578) scale(10.531 10.4854)">
<stop stop-color="#8EE1EE"/>
<stop offset="0.94" stop-color="#5E8DEC"/>
</radialGradient>
<radialGradient id="paint38_radial_284_12842" cx="0" cy="0" r="1" gradientUnits="userSpaceOnUse" gradientTransform="translate(71.982 103.027) scale(3.49613 3.30884)">
<stop offset="0.06" stop-color="#ECB900"/>
<stop offset="0.24" stop-color="#ECB800" stop-opacity="0.99"/>
<stop offset="0.37" stop-color="#ECB802" stop-opacity="0.95"/>
<stop offset="0.48" stop-color="#ECB604" stop-opacity="0.88"/>
<stop offset="0.59" stop-color="#ECB408" stop-opacity="0.79"/>
<stop offset="0.68" stop-color="#ECB20D" stop-opacity="0.66"/>
<stop offset="0.78" stop-color="#ECAF13" stop-opacity="0.51"/>
<stop offset="0.87" stop-color="#EDAC1B" stop-opacity="0.34"/>
<stop offset="0.95" stop-color="#EDA823" stop-opacity="0.14"/>
<stop offset="1" stop-color="#EEA629" stop-opacity="0"/>
</radialGradient>
<radialGradient id="paint39_radial_284_12842" cx="0" cy="0" r="1" gradientUnits="userSpaceOnUse" gradientTransform="translate(70.9682 101.638) scale(5.64301 5.34071)">
<stop stop-color="#EECA6C"/>
<stop offset="0.34" stop-color="#EEA629"/>
<stop offset="0.94" stop-color="#ECB900"/>
</radialGradient>
<radialGradient id="paint40_radial_284_12842" cx="0" cy="0" r="1" gradientUnits="userSpaceOnUse" gradientTransform="translate(71.3335 101.115) scale(4.27885 4.04963)">
<stop stop-color="#EEA629"/>
<stop offset="0.94" stop-color="#ECB900"/>
</radialGradient>
<radialGradient id="paint41_radial_284_12842" cx="0" cy="0" r="1" gradientUnits="userSpaceOnUse" gradientTransform="translate(70.4938 101.575) rotate(-25.8124) scale(4.23239 4.09406)">
<stop stop-color="#EEA629"/>
<stop offset="0.94" stop-color="#ECB900"/>
</radialGradient>
<radialGradient id="paint42_radial_284_12842" cx="0" cy="0" r="1" gradientUnits="userSpaceOnUse" gradientTransform="translate(73.6071 102.985) scale(10.8015 10.2228)">
<stop stop-color="#EEA629"/>
<stop offset="0.94" stop-color="#ECB900"/>
</radialGradient>
<radialGradient id="paint43_radial_284_12842" cx="0" cy="0" r="1" gradientUnits="userSpaceOnUse" gradientTransform="translate(73.1701 101.828) rotate(-41.9577) scale(10.531 10.4854)">
<stop stop-color="#EEA629"/>
<stop offset="0.94" stop-color="#ECB900"/>
</radialGradient>
<radialGradient id="paint44_radial_284_12842" cx="0" cy="0" r="1" gradientUnits="userSpaceOnUse" gradientTransform="translate(23.5654 113.018) scale(3.49613 3.30884)">
<stop offset="0.06" stop-color="#5E8DEC"/>
<stop offset="0.24" stop-color="#5E8EEC" stop-opacity="0.99"/>
<stop offset="0.37" stop-color="#6091EC" stop-opacity="0.95"/>
<stop offset="0.48" stop-color="#6396EC" stop-opacity="0.88"/>
<stop offset="0.59" stop-color="#689EEC" stop-opacity="0.79"/>
<stop offset="0.68" stop-color="#6EA9EC" stop-opacity="0.66"/>
<stop offset="0.78" stop-color="#75B5EC" stop-opacity="0.51"/>
<stop offset="0.87" stop-color="#7DC4ED" stop-opacity="0.34"/>
<stop offset="0.95" stop-color="#87D5ED" stop-opacity="0.14"/>
<stop offset="1" stop-color="#8EE1EE" stop-opacity="0"/>
</radialGradient>
<radialGradient id="paint45_radial_284_12842" cx="0" cy="0" r="1" gradientUnits="userSpaceOnUse" gradientTransform="translate(22.5516 111.628) scale(5.64301 5.3407)">
<stop stop-color="#D1E1EE"/>
<stop offset="0.34" stop-color="#8EE1EE"/>
<stop offset="0.94" stop-color="#5E8DEC"/>
</radialGradient>
<radialGradient id="paint46_radial_284_12842" cx="0" cy="0" r="1" gradientUnits="userSpaceOnUse" gradientTransform="translate(22.9169 111.106) scale(4.27885 4.04963)">
<stop stop-color="#8EE1EE"/>
<stop offset="0.94" stop-color="#5E8DEC"/>
</radialGradient>
<radialGradient id="paint47_radial_284_12842" cx="0" cy="0" r="1" gradientUnits="userSpaceOnUse" gradientTransform="translate(22.0825 111.562) rotate(-25.8125) scale(4.2324 4.09407)">
<stop stop-color="#8EE1EE"/>
<stop offset="0.94" stop-color="#5E8DEC"/>
</radialGradient>
<radialGradient id="paint48_radial_284_12842" cx="0" cy="0" r="1" gradientUnits="userSpaceOnUse" gradientTransform="translate(25.1905 112.975) scale(10.8015 10.2228)">
<stop stop-color="#8EE1EE"/>
<stop offset="0.94" stop-color="#5E8DEC"/>
</radialGradient>
<radialGradient id="paint49_radial_284_12842" cx="0" cy="0" r="1" gradientUnits="userSpaceOnUse" gradientTransform="translate(24.7583 111.821) rotate(-41.9577) scale(10.531 10.4854)">
<stop stop-color="#8EE1EE"/>
<stop offset="0.94" stop-color="#5E8DEC"/>
</radialGradient>
<radialGradient id="paint50_radial_284_12842" cx="0" cy="0" r="1" gradientUnits="userSpaceOnUse" gradientTransform="translate(76.7305 57.6772) scale(32.9561 31.1906)">
<stop offset="0.08" stop-color="#FFE245"/>
<stop offset="0.53" stop-color="#DE007B"/>
<stop offset="1" stop-color="#E38427"/>
</radialGradient>
<radialGradient id="paint51_radial_284_12842" cx="0" cy="0" r="1" gradientUnits="userSpaceOnUse" gradientTransform="translate(111.409 62.3617) scale(39.5011 37.385)">
<stop offset="0.08" stop-color="#FFE245"/>
<stop offset="0.53" stop-color="#DE007B"/>
<stop offset="1" stop-color="#E38427"/>
</radialGradient>
<radialGradient id="paint52_radial_284_12842" cx="0" cy="0" r="1" gradientUnits="userSpaceOnUse" gradientTransform="translate(111.409 62.362) scale(39.5011 37.3849)">
<stop offset="0.08" stop-color="#FFE245"/>
<stop offset="0.53" stop-color="#DE007B"/>
<stop offset="1" stop-color="#E38427"/>
</radialGradient>
<radialGradient id="paint53_radial_284_12842" cx="0" cy="0" r="1" gradientUnits="userSpaceOnUse" gradientTransform="translate(102.583 104.131) scale(11.4202 10.8084)">
<stop stop-color="#8EE1EE"/>
<stop offset="0.94" stop-color="#5E8DEC"/>
</radialGradient>
<radialGradient id="paint54_radial_284_12842" cx="0" cy="0" r="1" gradientUnits="userSpaceOnUse" gradientTransform="translate(122.195 102.11) scale(9.45968 8.95292)">
<stop stop-color="#8EE1EE"/>
<stop offset="0.94" stop-color="#5E8DEC"/>
</radialGradient>
</defs>
</svg>
