<svg width="156" height="170" viewBox="0 0 156 170" fill="none" xmlns="http://www.w3.org/2000/svg">
<g filter="url(#filter0_d_284_13042)">
<path fill-rule="evenodd" clip-rule="evenodd" d="M72.3242 21.2646C105.542 21.2646 132.461 48.2441 132.461 81.5375C132.461 114.831 105.542 141.81 72.3242 141.81C39.1061 141.81 12.1876 114.811 12.1876 81.5181C12.1876 48.2247 39.1061 21.2646 72.3242 21.2646Z" fill="url(#paint0_radial_284_13042)"/>
<g style="mix-blend-mode:multiply">
<path fill-rule="evenodd" clip-rule="evenodd" d="M117.89 77.5674C117.91 78.3614 119.127 79.2524 120.132 77.6836C120.886 76.4828 121.175 74.1973 120.383 72.7641C119.997 72.0669 117.658 69.7621 116.828 70.8854C116.402 71.4471 116.634 72.5123 116.886 73.1515C117.697 75.2045 117.794 75.3013 117.871 77.5674H117.89ZM54.8745 127.091C55.5122 127.304 60.4012 127.44 60.5365 127.052C60.6717 126.646 60.6137 126.471 60.4205 126.181C59.9181 125.445 56.691 124.263 55.8407 124.593C55.1257 124.844 53.4832 126.646 54.8745 127.091ZM72.7879 128.447C75.3194 127.44 78.3533 124.767 74.7203 123.024C72.9812 122.191 59.2997 120.487 61.4447 125.309C62.2756 127.188 68.7878 130.054 72.7879 128.466V128.447ZM72.3048 21.2456C66.7202 21.2456 61.3287 22.001 56.1885 23.4342C58.1209 23.531 60.0533 23.4148 61.9858 23.3954C63.5124 23.3954 65.0583 23.1824 66.5849 23.2986C68.6912 23.4535 70.7589 24.0927 72.8652 24.1895C75.1841 24.3057 77.5223 23.8022 79.8605 23.9958C81.6384 24.1508 83.3969 24.5381 85.0587 25.1966C86.8945 25.9326 88.4404 27.2884 90.2569 28.1018C92.9816 29.322 95.9575 29.9999 98.6436 31.2975C99.9769 31.9367 101.04 33.0406 102.238 33.8928C104.132 35.2679 106.45 36.1782 107.919 37.9988C108.924 39.2384 108.557 41.1945 109.31 42.6084C110.992 45.7072 113.369 48.3994 115.204 51.4207C116.364 53.3382 117.716 55.2556 118.296 57.4248C119.185 60.7367 118.857 64.281 119.591 67.6316C120.055 69.7621 121.62 71.5827 121.89 73.7325C122.238 76.4247 121.89 79.1749 121.388 81.8283C120.538 86.3991 119.03 90.815 117.89 95.3277C117.465 97.0514 117.446 98.9107 116.692 100.538C116.074 101.874 114.837 102.823 113.89 103.946C111.997 106.193 109.755 108.169 108.209 110.648C107.011 112.565 107.011 115.102 105.716 116.942C104.441 118.763 102.702 120.312 100.731 121.339C98.9721 122.249 96.7885 121.862 94.9333 122.54C92.6338 123.372 90.5468 124.747 88.3438 125.832C85.1167 127.44 82.0635 129.435 78.6625 130.635C76.7687 131.294 74.6817 131.468 72.672 131.333C69.2323 131.1 65.9086 129.899 62.4882 129.531C59.1838 129.163 55.8407 129.26 52.4976 129.125C50.4106 129.047 48.1884 129.628 46.2173 128.931C43.1254 127.846 40.0336 126.258 37.734 123.934C36.1881 122.365 36.5359 119.615 35.2412 117.833C33.7726 115.819 31.4537 114.56 29.6565 112.836C26.9705 110.26 23.8593 108.014 21.7723 104.934C20.3037 102.784 20.3037 99.9179 19.2795 97.5356C18.3133 95.2696 16.4002 93.4103 15.7818 91.028C14.7383 87.0382 14.1779 82.8548 14.3905 78.7294C14.5838 74.7009 16.6514 70.9436 16.9799 66.915C17.2118 64.1067 16.9799 61.279 16.7287 58.4513C13.7915 65.5593 12.1682 73.3452 12.1682 81.5184C12.1682 114.812 39.0867 141.791 72.3048 141.791C105.523 141.791 132.441 114.812 132.441 81.5184C132.441 48.225 105.523 21.265 72.3242 21.265L72.3048 21.2456Z" fill="url(#paint1_radial_284_13042)"/>
</g>
<path fill-rule="evenodd" clip-rule="evenodd" d="M106.296 50.1615C110.779 47.9342 114.683 45.1065 116.016 41.078C118.064 34.8415 114.818 35.5775 113.446 32.9822C111.958 30.1739 112.963 29.3023 108.673 26.2035C108.074 25.758 107.513 25.4287 106.837 25.0995C99.5132 21.4777 90.9719 19.6571 84.1892 19.7927C78.3533 19.9089 72.9425 20.9935 68.44 22.2912C81.3099 22.756 92.112 24.2667 98.9141 27.6561C102.199 29.3023 104.054 31.3747 105.272 33.9893C106.451 36.5459 111.204 37.3787 109.523 41.2523C107.977 44.816 101.33 48.2635 94.9334 50.82C91.8222 52.0596 88.9429 53.8414 85.5419 54.5387C75.6286 56.5335 64.7491 56.6691 54.2175 58.1217C46.6038 59.1676 39.9756 62.6538 33.2509 66.2562C29.6759 68.1736 25.5405 67.8831 21.3665 71.5436C17.6177 74.8168 16.4389 79.62 14.8736 84.0165C11.8011 92.674 12.3808 102.687 16.4775 112.991C17.2119 114.85 18.1008 116.671 19.0863 118.414C8.94115 95.1918 14.0814 77.3927 32.5938 67.98C36.1881 66.1594 40.8839 66.0044 45.5023 64.823C49.5604 63.7965 53.4252 60.717 58.2562 61.1625C68.3434 62.1115 73.6769 60.9107 81.1746 58.1992C90.74 54.7517 99.5711 53.4928 106.296 50.1421V50.1615Z" fill="url(#paint2_radial_284_13042)"/>
<path fill-rule="evenodd" clip-rule="evenodd" d="M69.6188 42.3565C74.1986 41.3687 79.3968 38.0374 83.6867 36.3331C87.8801 34.6674 92.228 34.0283 94.2763 32.0334C94.3343 31.9753 94.4116 31.9172 94.4696 31.8397C95.8996 30.3678 96.5373 28.431 96.344 26.5136C96.344 26.4167 96.3247 26.3199 96.3054 26.223C96.1894 25.3708 95.8802 24.5187 95.4165 23.7246C94.7015 22.5431 93.9285 21.4392 92.827 20.6451C92.7497 20.587 92.6724 20.5289 92.5758 20.4708C86.1795 16.0162 75.3774 16.1905 65.8313 16.0162C59.0678 15.9 51.4155 16.3648 45.6376 18.902C39.7631 21.4973 35.8209 27.114 30.874 30.9875C29.6179 31.9753 28.2073 32.8468 26.8352 33.7378C25.212 34.803 22.7772 35.8101 21.5404 37.2046C18.3906 40.7296 16.5935 44.7387 14.4871 48.9996C12.7673 52.4665 11.4146 56.1464 10.4871 60.0587C12.6707 54.4226 15.2215 54.8875 19.5114 52.6795C20.2264 52.3116 20.9994 51.8661 21.8303 51.3044C26.2748 48.283 30.5455 45.7265 35.0866 44.545C45.2318 41.8916 58.9519 44.6612 69.6381 42.3565H69.6188ZM81.1746 58.1994C73.6768 60.9109 68.3627 62.0923 58.2562 61.1627C53.4252 60.7172 49.5604 63.7967 45.5023 64.8232C40.9032 66.0046 36.2074 66.1402 32.5938 67.9802C20.5549 74.1004 14.1586 83.765 13.9654 96.1604C13.8495 102.823 15.5306 110.299 19.067 118.414C19.8206 119.731 20.6322 121.009 21.5018 122.249C23.4922 125.077 26.7193 127.517 29.1348 130.306C31.2605 132.785 33.0769 134.935 35.4538 137.065C39.7631 140.958 46.3719 142.391 53.7924 143.418C60.7104 144.386 67.783 146.652 75.0295 145.742C80.1118 145.103 86.1989 143.844 92.3246 141.714C101.523 138.518 110.702 132.959 116.364 124.302C115.977 124.786 115.571 125.232 115.108 125.696C109.291 131.468 100.692 137.046 92.5178 139.389C88.4018 140.571 84.2471 141.21 80.2084 141.288C75.8218 141.384 71.5898 140.803 67.8023 139.525C58.2949 136.349 49.4444 135.051 42.7776 129.105C34.99 122.171 32.3426 108.633 34.6615 100.867C35.705 97.3806 39.1447 94.9402 41.6955 91.9963C47.1449 85.7211 48.3236 77.4898 62.6428 77.9159C68.6526 78.0902 74.7203 72.4154 81.6384 71.4276C88.1506 70.4786 94.0444 70.2656 100.518 64.9007C104.132 61.8986 107.629 61.2595 111.088 59.2646C115.958 56.4756 120.364 52.7764 121.659 47.0629C122.122 45.0099 122.2 42.6857 121.736 40.0517C121.523 39.3738 121.253 38.6959 120.905 37.9793C118.258 32.4595 112.982 28.1211 106.837 25.0803C107.513 25.4096 108.054 25.7388 108.673 26.1843C112.982 29.2832 111.958 30.1547 113.446 32.9631C114.779 35.4615 117.813 34.8805 116.248 40.3422C116.19 40.5746 116.113 40.807 116.035 41.0588C114.721 45.0873 110.798 47.915 106.315 50.1424C99.5905 53.493 90.7593 54.7325 81.1939 58.1994H81.1746ZM127.379 57.2504C137.176 63.0414 136.944 83.3001 134.78 93.6038C132.441 104.721 124.113 117.911 111.591 119.77C102.682 121.087 99.204 121.552 94.8367 119.092C91.8801 117.426 90.4308 110.028 91.4743 107.917C92.3246 106.193 96.3054 104.876 100.479 102.92C105.581 100.518 109.813 99.6466 113.523 93.7975C117.117 88.1615 123.069 88.7812 126.548 81.2665C129.311 75.2818 131.108 66.7212 127.34 57.2504H127.379Z" fill="url(#paint3_radial_284_13042)"/>
<path fill-rule="evenodd" clip-rule="evenodd" d="M43.7825 122.23C41.0964 117.097 41.908 110.396 42.2945 104.992C42.5457 101.525 43.5119 98.2135 45.2704 95.347C49.9082 87.7936 58.1789 82.4674 67.7443 78.8843C79.0489 74.6621 94.4889 73.8099 103.011 70.1688C106.721 68.5806 109.233 64.7845 112.286 61.6082C115.011 58.7805 117.774 59.2259 120.287 53.3187C121.06 51.4788 121.736 49.6195 122.103 47.7214C122.586 45.2811 122.586 42.7439 121.717 40.0518C122.18 42.6858 122.122 45.0099 121.639 47.0629C120.345 52.7764 115.919 56.4757 111.069 59.2647C107.61 61.2596 104.112 61.8987 100.499 64.9007C94.0251 70.2656 88.1313 70.4787 81.619 71.4277C74.701 72.4348 68.6333 78.0902 62.6235 77.9159C48.3043 77.4898 47.1255 85.7212 41.6761 91.9964C39.106 94.9403 35.6857 97.3806 34.6422 100.867C32.3233 108.614 34.9707 122.172 42.7583 129.105C49.4251 135.051 58.2755 136.349 67.783 139.525C71.5898 140.803 75.8025 141.365 80.1891 141.288C84.2085 141.21 88.3825 140.571 92.4985 139.39C100.653 137.046 109.253 131.468 115.088 125.696C116.557 124.225 117.581 122.733 118.412 120.816C118.567 120.428 118.741 120.06 118.895 119.673C113.117 126.491 106.083 130.926 97.2716 133.405C93.6773 134.412 89.7352 134.47 86.0443 135.652C72.4594 139.951 67.9376 138.305 61.0002 135.981C56.5943 134.509 52.4203 132.068 49.5217 129.531C47.1255 127.42 45.1931 124.902 43.7825 122.23Z" fill="url(#paint4_radial_284_13042)"/>
<path fill-rule="evenodd" clip-rule="evenodd" d="M83.6674 36.3331C79.3775 38.0375 74.1986 41.3687 69.5995 42.3565C58.9132 44.6613 45.1931 41.8917 35.048 44.5451C30.5261 45.7265 26.2362 48.2831 21.7917 51.3045C16.0524 55.2168 13.0185 53.4737 10.4484 60.0587C8.99911 66.3339 8.57398 73.1514 9.46289 80.4337C10.0619 85.3919 11.1248 89.3042 12.9412 91.1829C11.5499 78.0321 12.6707 67.709 17.8495 60.5042C19.3955 58.3544 21.8303 56.1464 24.2845 54.9456C27.2411 53.493 30.4295 53.2025 34.4683 52.1179C38.1398 51.1495 41.7728 48.1862 46.4492 47.121C52.2464 45.804 58.3722 46.1526 64.5559 46.0364C69.1357 45.9589 76.3049 46.2494 81.9862 45.2423C87.4743 44.2545 89.5613 41.9304 93.3101 37.8244C96.0735 34.8224 101.774 34.1833 96.9817 26.4942C96.4213 25.6033 95.9189 24.6349 95.3778 23.7246C96.9431 26.378 96.5759 29.6318 94.4309 31.8397C94.373 31.8978 94.315 31.956 94.2377 32.0334C92.1893 34.0283 87.8414 34.6675 83.6481 36.3331H83.6674Z" fill="url(#paint5_radial_284_13042)"/>
<path style="mix-blend-mode:screen" opacity="0.5" fill-rule="evenodd" clip-rule="evenodd" d="M39.3959 34.0091C34.4876 37.7471 31.6083 38.27 28.072 44.1385C27.1831 45.5911 26.4681 47.1405 25.8111 48.7093C28.8643 46.85 31.9175 45.3587 35.0673 44.5259C45.2125 41.8725 58.9326 44.6421 69.6188 42.3373C74.1986 41.3495 79.3968 38.0182 83.6867 36.3139C86.3148 35.268 89.0202 34.6289 91.1652 33.7961C90.6434 32.7308 90.1023 31.685 89.2714 30.8328C83.2616 24.6544 79.8412 24.4801 72.5754 24.5576C69.9666 24.5769 67.3965 24.1702 64.7878 24.1509C62.7008 24.1509 60.5751 24.0734 58.5267 24.4607C55.5315 25.0224 52.5556 25.8359 49.7343 26.9979C44.4008 29.1671 43.3767 30.9683 39.4152 33.9897L39.3959 34.0091ZM58.2562 61.1628C53.4252 60.7174 49.5604 63.7969 45.5023 64.8234C40.9032 66.0048 36.2074 66.1404 32.5938 67.9803C28.2845 70.1689 24.7096 72.8029 21.8689 75.8631C20.0332 77.8386 19.5694 80.5694 20.6515 83.0292C20.9221 83.6489 21.2119 84.3074 21.5018 84.9853C24.6323 92.2483 23.3956 92.5775 30.2943 97.865C31.4923 98.7752 33.1156 99.5693 34.8547 100.267C36.0915 97.1096 39.28 94.7855 41.6761 92.0159C47.1255 85.7407 48.3043 77.5093 62.6235 77.9354C68.6333 78.1097 74.701 72.4349 81.619 71.4472C85.5032 70.8855 89.1748 70.5756 92.885 69.278C94.6242 68.6776 95.8223 67.3412 96.2667 65.5787C96.5179 64.6103 96.7885 63.6613 97.1363 62.7123C98.2957 59.6522 99.0687 56.2821 99.2426 52.8734C93.8512 54.539 87.6675 55.8754 81.1553 58.2189C73.6575 60.9304 68.3434 62.1119 58.2369 61.1822L58.2562 61.1628Z" fill="url(#paint6_radial_284_13042)"/>
<path style="mix-blend-mode:screen" fill-rule="evenodd" clip-rule="evenodd" d="M91.6096 75.3979C90.141 75.3398 88.653 75.2429 87.2037 75.4366C84.7689 75.7659 82.45 76.6955 80.0538 77.1991C78.1214 77.5864 76.5755 77.5283 74.701 78.1481C73.9474 78.3999 73.2131 79.4458 72.4594 79.7363C70.8942 80.3367 69.1164 80.143 67.4931 80.6078C62.9133 81.9442 56.9422 85.0043 53.174 87.832C52.3044 88.4712 52.1498 89.7688 51.4155 90.5629C50.6425 91.4151 49.4638 91.8606 48.6908 92.7127C47.1835 94.359 43.9564 99.6658 44.7873 101.99C45.0192 102.629 45.2511 103.094 45.7342 103.578C50.6232 104.488 54.5847 104.411 60.1113 102.416C71.7444 98.2132 70.643 94.8238 78.0248 88.2581C80.3243 86.2245 83.4355 85.2367 85.7158 83.1838C89.368 79.9106 90.856 77.6252 91.5903 75.4172L91.6096 75.3979ZM29.5213 54.1901C26.2169 54.6355 24.0912 55.9525 22.1975 58.2573C21.096 60.6008 20.0138 62.9443 19.2022 65.3847C17.8109 69.4907 17.3858 72.3377 17.637 74.933C18.5066 73.403 19.4921 71.6792 20.1684 70.9239C21.0573 69.8974 22.0815 68.9484 23.2796 68.3286C25.4053 67.244 28.9029 67.1472 31.8015 65.5396C33.8692 64.3969 35.4924 62.4989 37.6374 61.5305C39.4732 60.6977 41.5989 60.8526 43.5313 60.2522C44.9806 59.8067 46.2753 58.9158 47.7246 58.451C53.0194 56.7272 54.8359 56.979 59.3577 56.1656C60.6331 55.9332 61.7732 55.0616 63.0679 54.8873C65.2709 54.6161 67.5125 54.9648 69.7347 54.8292C72.614 54.6549 75.474 54.132 78.3533 53.9576C80.3823 53.8221 82.4307 54.1707 84.4404 53.8995C88.2472 53.4153 94.7208 51.4979 95.4165 47.1789C94.9913 45.7263 94.3923 44.3124 93.6193 42.9761C93.2908 42.4338 92.8464 42.0077 92.3633 41.6009C91.2618 41.2717 91.1652 41.3104 89.7738 42.5693C86.1795 45.7844 86.4114 46.5979 81.1553 47.5469C79.7446 47.7987 78.276 47.4113 76.8653 47.6437C75.1068 47.9342 73.4836 49.0769 71.7058 49.1157C69.0391 49.1738 66.4496 48.3022 63.8216 47.9536C58.7007 47.2564 49.5604 46.6753 44.7294 48.6315C41.8694 49.7936 39.4152 51.8078 36.6519 53.2217C35.8403 53.6284 34.9707 53.9383 34.0625 54.0545C32.5745 54.2482 31.0286 53.9576 29.5406 54.1513L29.5213 54.1901ZM88.5951 86.8249C89.484 89.6526 94.1411 85.0237 95.2232 84.9269C106.238 83.9778 85.3293 76.4631 88.5951 86.8249ZM86.8172 87.8127C84.6723 86.1277 79.8026 88.2388 78.5465 90.6597C77.503 92.6546 75.2808 97.4966 78.5659 98.7361C81.8703 99.9951 84.4404 93.3131 87.6868 92.3254C89.426 91.8025 87.8414 88.6261 86.8172 87.8127ZM51.5701 111.17C57.9857 112.1 72.2082 112.817 66.9134 106.638C63.7249 102.92 62.5269 105.128 57.0581 106.483C53.3286 107.394 52.2271 105.96 49.9469 106.096C46.7391 106.29 45.7342 110.337 51.5894 111.17H51.5701ZM69.3869 108.226C69.9087 109.234 71.9184 106.987 72.0923 106.309C72.7493 103.656 71.4739 104.314 69.2903 104.643C66.2951 105.089 68.6526 106.774 69.3869 108.226Z" fill="url(#paint7_radial_284_13042)"/>
<path style="mix-blend-mode:multiply" fill-rule="evenodd" clip-rule="evenodd" d="M42.7583 129.105C40.4201 127.033 38.565 124.36 37.135 121.435C36.3041 120.564 36.0528 119.305 35.7437 118.085C35.5311 117.484 35.3379 116.865 35.1639 116.245C35.048 115.993 34.9127 115.741 34.7388 115.509C31.8209 111.519 25.0188 107.975 21.5984 102.92C20.1684 100.809 20.1684 98.0391 19.1636 95.6956C18.7578 94.7272 18.1201 94.3398 17.5017 93.9912C14.9123 92.5967 14.8157 90.0402 15.2794 87.3287C14.4485 90.0789 14.0234 93.0228 13.9654 96.1217C13.8495 102.784 15.5307 110.26 19.067 118.375C19.8206 119.692 20.6322 120.971 21.5018 122.21C23.4922 125.038 26.7193 127.478 29.1348 130.267C31.2605 132.746 33.0769 134.896 35.4538 137.027C39.7631 140.92 46.3719 142.353 53.7924 143.379C60.7104 144.348 67.783 146.614 75.0295 145.703C80.1118 145.064 86.1989 143.805 92.3246 141.675C101.523 138.479 110.702 132.921 116.364 124.263C115.977 124.747 115.571 125.193 115.108 125.658C109.291 131.429 100.692 137.007 92.5179 139.351C88.4018 140.532 84.2471 141.171 80.2084 141.249C75.8218 141.346 71.5899 140.765 67.8023 139.486C58.2949 136.31 49.4444 135.012 42.7776 129.066L42.7583 129.105ZM17.5017 45.3391C17.9268 44.0027 18.0428 42.6857 18.5452 41.2525C17.0379 43.6928 15.8205 46.3075 14.4678 48.9996C12.748 52.4665 11.3953 56.1464 10.4677 60.0587C12.0716 55.9527 13.8495 55.0812 16.3616 54.0547C16.3616 53.9385 16.3616 53.8416 16.3423 53.7254C16.2263 52.2147 15.9944 50.8396 16.1877 49.3289C16.3809 47.8957 17.0573 46.6949 17.5017 45.3198V45.3391ZM30.6421 32.6532C32.1301 32.2464 33.9079 32.3626 35.1253 31.3749C37.9853 29.0701 35.9176 26.7847 42.3332 23.957C46.8164 21.9815 49.8696 22.1364 54.7006 22.485C57.6185 22.6981 61.6186 21.5554 65.2322 21.6522C65.4641 21.6522 65.6767 21.6522 65.9086 21.691C66.9134 21.7684 67.9183 21.9427 68.9038 22.1364C69.2903 22.2139 69.6768 22.272 70.0826 22.3495C70.7396 22.4657 71.3966 22.5431 72.0536 22.5819C72.9425 22.6206 73.7542 22.6206 74.4885 22.5819C77.6963 22.4657 79.9379 21.9621 83.9186 23.5503C85.7158 24.2669 87.3197 26.4748 89.0782 27.2689C91.3584 28.2954 93.2908 29.4187 95.4358 30.5033C96.1508 29.2832 96.4406 27.8887 96.3054 26.5136C96.3054 26.4167 96.286 26.3199 96.2667 26.223C96.1508 25.3708 95.8416 24.5187 95.3778 23.7246C94.6628 22.5431 93.8899 21.4392 92.7884 20.6451C92.7111 20.587 92.6338 20.5289 92.5372 20.4708C86.1795 16.0162 75.3774 16.1905 65.8313 16.0162C59.0678 15.9 51.4155 16.3648 45.6376 18.902C39.7631 21.4973 35.821 27.114 30.874 30.9875C29.6372 31.9559 28.2846 32.8081 26.9512 33.6797C28.1879 33.331 29.4247 32.9824 30.6614 32.6338L30.6421 32.6532ZM115.997 41.0782C115.127 43.7122 113.156 45.8233 110.644 47.6052C114.238 48.0313 118.876 51.5562 115.649 56.1658C118.509 53.8222 120.789 50.8977 121.659 47.0629C122.122 45.0099 122.2 42.6857 121.736 40.0517C121.523 39.3738 121.253 38.6959 120.905 37.9793C118.258 32.4595 112.982 28.1211 106.837 25.0803C107.513 25.4096 108.054 25.7388 108.673 26.1843C112.982 29.2832 111.958 30.1547 113.446 32.9631C114.779 35.4615 117.813 34.8805 116.248 40.3422C116.19 40.5746 116.113 40.807 116.035 41.0588L115.997 41.0782ZM115.069 103.036C113.233 105.225 107.436 106.077 105.909 108.498C104.731 110.357 104.731 112.836 103.475 114.637C102.238 116.419 100.518 117.93 98.6049 118.937C97.7547 119.382 96.7885 119.518 95.8029 119.615C97.6387 120.486 99.3972 120.854 101.6 120.854C104.112 120.854 107.185 120.428 111.571 119.77C115.687 119.169 119.34 117.329 122.47 114.754C128.905 109.485 133.176 101.06 134.741 93.6038C136.809 83.7843 137.099 64.9588 128.693 58.18C132.325 62.286 134.76 68.8711 132.094 75.185C132.016 75.3787 131.92 75.5724 131.823 75.766C130.335 78.9036 126.973 83.029 124.886 87.0962C122.702 91.3572 123.262 91.9382 119.127 94.7853C118.702 95.0758 118.238 95.3857 117.794 95.6568C116.576 96.4509 115.359 97.1675 114.547 97.613C117.349 99.4917 116.364 101.467 115.05 103.017L115.069 103.036Z" fill="url(#paint8_radial_284_13042)"/>
<path fill-rule="evenodd" clip-rule="evenodd" d="M128.712 58.1801C128.287 57.8315 127.842 57.5216 127.359 57.2505C131.108 66.7214 129.33 75.282 126.567 81.2666C124.75 85.1789 122.277 86.8833 119.823 88.4134C117.543 89.8272 115.262 91.0861 113.542 93.7976C109.832 99.6274 105.6 100.518 100.499 102.92C96.344 104.876 92.3439 106.193 91.4937 107.917C90.7014 109.524 91.3391 114.134 92.9623 117.02C92.4406 114.986 92.5179 113.456 93.3101 111.965C94.7788 109.214 100.595 104.779 103.185 102.939C106.856 100.325 110.315 99.7436 114.084 97.8649C114.837 97.4969 116.325 96.6254 117.813 95.657C118.258 95.3664 118.702 95.0759 119.146 94.7854C123.301 91.9383 122.721 91.3573 124.905 87.0964C126.992 83.0291 130.335 78.9231 131.842 75.7662C131.939 75.5725 132.016 75.3788 132.113 75.1851C134.78 68.8712 132.345 62.2668 128.712 58.1801Z" fill="url(#paint9_radial_284_13042)"/>
<path style="mix-blend-mode:screen" fill-rule="evenodd" clip-rule="evenodd" d="M69.6188 42.3565C74.1986 41.3687 79.3968 38.0374 83.6867 36.3331C87.8801 34.6674 92.228 34.0283 94.2763 32.0334C94.3343 31.9753 94.4116 31.9172 94.4696 31.8397C95.8996 30.3678 96.5373 28.431 96.344 26.5136C96.344 26.4167 96.3247 26.3199 96.3054 26.223C96.1894 25.3708 95.8802 24.5187 95.4165 23.7246C94.7015 22.5431 93.9285 21.4392 92.827 20.6451C92.7497 20.587 92.6724 20.5289 92.5758 20.4708C86.1795 16.0162 75.3774 16.1905 65.8313 16.0162C59.0678 15.9 51.4155 16.3648 45.6376 18.902C39.7631 21.4973 35.8209 27.114 30.874 30.9875C29.6179 31.9753 28.2073 32.8468 26.8352 33.7378C25.212 34.803 22.7772 35.8101 21.5404 37.2046C18.3906 40.7296 16.5935 44.7387 14.4871 48.9996C12.7673 52.4665 11.4146 56.1464 10.4871 60.0587C12.6707 54.4226 15.2215 54.8875 19.5114 52.6795C20.2264 52.3116 20.9994 51.8661 21.8303 51.3044C26.2748 48.283 30.5455 45.7265 35.0866 44.545C45.2318 41.8916 58.9519 44.6612 69.6381 42.3565H69.6188Z" fill="url(#paint10_radial_284_13042)"/>
<path style="mix-blend-mode:screen" fill-rule="evenodd" clip-rule="evenodd" d="M81.1746 58.1996C73.6768 60.9111 68.3627 62.0926 58.2562 61.1629C53.4252 60.7174 49.5604 63.7969 45.5023 64.8234C40.9032 66.0049 36.2074 66.1404 32.5938 67.9804C20.5549 74.1006 14.1586 83.7652 13.9654 96.1606C13.8494 102.823 15.5306 110.299 19.0669 118.414C19.8206 119.731 20.6322 121.01 21.5018 122.249C23.4922 125.077 26.7193 127.517 29.1348 130.306C31.2605 132.785 33.0769 134.935 35.4538 137.066C39.7631 140.959 46.3719 142.392 53.7923 143.418C60.7104 144.387 67.783 146.653 75.0295 145.742C80.1118 145.103 86.1988 143.844 92.3246 141.714C101.523 138.518 110.702 132.96 116.364 124.302C115.977 124.786 115.571 125.232 115.108 125.697C109.291 131.468 100.692 137.046 92.5178 139.39C88.4018 140.571 84.2471 141.21 80.2084 141.288C75.8218 141.385 71.5898 140.804 67.8023 139.525C58.2949 136.349 49.4444 135.051 42.7776 129.105C34.99 122.172 32.3426 108.634 34.6615 100.867C35.705 97.3808 39.1447 94.9405 41.6955 91.9965C47.1449 85.7214 48.3236 77.49 62.6428 77.9161C68.6526 78.0904 74.7203 72.4156 81.6384 71.4279C88.1506 70.4788 94.0444 70.2658 100.518 64.9009C104.132 61.8989 107.629 61.2597 111.088 59.2649C115.958 56.4759 120.364 52.7766 121.659 47.0631C122.122 45.0101 122.2 42.686 121.736 40.0519C121.523 39.3741 121.253 38.6962 120.905 37.9796C118.258 32.4597 112.982 28.1213 106.837 25.0806C107.513 25.4098 108.054 25.7391 108.673 26.1845C112.982 29.2834 111.958 30.1549 113.446 32.9633C114.779 35.4617 117.813 34.8807 116.248 40.3424C116.19 40.5749 116.113 40.8073 116.035 41.0591C114.721 45.0876 110.798 47.9153 106.315 50.1426C99.5905 53.4932 90.7593 54.7328 81.1939 58.1996H81.1746Z" fill="url(#paint11_linear_284_13042)"/>
</g>
<defs>
<filter id="filter0_d_284_13042" x="-11" y="0" width="167" height="169.954" filterUnits="userSpaceOnUse" color-interpolation-filters="sRGB">
<feFlood flood-opacity="0" result="BackgroundImageFix"/>
<feColorMatrix in="SourceAlpha" type="matrix" values="0 0 0 0 0 0 0 0 0 0 0 0 0 0 0 0 0 0 127 0" result="hardAlpha"/>
<feOffset dy="4"/>
<feGaussianBlur stdDeviation="10"/>
<feComposite in2="hardAlpha" operator="out"/>
<feColorMatrix type="matrix" values="0 0 0 0 0 0 0 0 0 0 0 0 0 0 0 0 0 0 0.25 0"/>
<feBlend mode="normal" in2="BackgroundImageFix" result="effect1_dropShadow_284_13042"/>
<feBlend mode="normal" in="SourceGraphic" in2="effect1_dropShadow_284_13042" result="shape"/>
</filter>
<radialGradient id="paint0_radial_284_13042" cx="0" cy="0" r="1" gradientUnits="userSpaceOnUse" gradientTransform="translate(60.4012 50.5876) scale(104.543 104.78)">
<stop stop-color="#71F5FF"/>
<stop offset="0.15" stop-color="#66E8FF"/>
<stop offset="0.43" stop-color="#4CC8FF"/>
<stop offset="0.5" stop-color="#44BFFF"/>
<stop offset="0.92" stop-color="#CE2FEB"/>
</radialGradient>
<radialGradient id="paint1_radial_284_13042" cx="0" cy="0" r="1" gradientUnits="userSpaceOnUse" gradientTransform="translate(62.6041 65.6174) scale(94.4562 94.6701)">
<stop offset="0.33" stop-color="#F5F5FF"/>
<stop offset="0.46" stop-color="#EFE9FA"/>
<stop offset="0.68" stop-color="#E1CCED"/>
<stop offset="0.98" stop-color="#C99CD8"/>
<stop offset="1" stop-color="#C899D7"/>
</radialGradient>
<radialGradient id="paint2_radial_284_13042" cx="0" cy="0" r="1" gradientUnits="userSpaceOnUse" gradientTransform="translate(42.623 63.7771) scale(81.7602 81.9454)">
<stop stop-color="#E87923"/>
<stop offset="1" stop-color="#AD4200"/>
</radialGradient>
<radialGradient id="paint3_radial_284_13042" cx="0" cy="0" r="1" gradientUnits="userSpaceOnUse" gradientTransform="translate(59.5703 50.4716) scale(102.688 102.921)">
<stop stop-color="#ED9600"/>
<stop offset="1" stop-color="#E94E1B"/>
</radialGradient>
<radialGradient id="paint4_radial_284_13042" cx="0" cy="0" r="1" gradientUnits="userSpaceOnUse" gradientTransform="translate(77.2518 124.728) scale(96.4852 96.7038)">
<stop stop-color="#F5812A"/>
<stop offset="1" stop-color="#B84706"/>
</radialGradient>
<radialGradient id="paint5_radial_284_13042" cx="0" cy="0" r="1" gradientUnits="userSpaceOnUse" gradientTransform="translate(40.5747 50.491) scale(78.9583 79.1371)">
<stop stop-color="#F5812A"/>
<stop offset="1" stop-color="#BD5519"/>
</radialGradient>
<radialGradient id="paint6_radial_284_13042" cx="0" cy="0" r="1" gradientUnits="userSpaceOnUse" gradientTransform="translate(56.1499 44.9713) scale(78.5331 78.711)">
<stop stop-color="#A48A7B"/>
<stop offset="1" stop-color="#000A00"/>
</radialGradient>
<radialGradient id="paint7_radial_284_13042" cx="0" cy="0" r="1" gradientUnits="userSpaceOnUse" gradientTransform="translate(53.6184 43.4796) scale(81.1419 81.3257)">
<stop stop-color="#C2F5F4"/>
<stop offset="1" stop-color="#000012"/>
</radialGradient>
<radialGradient id="paint8_radial_284_13042" cx="0" cy="0" r="1" gradientUnits="userSpaceOnUse" gradientTransform="translate(71.0295 56.2239) scale(101.297 101.526)">
<stop offset="0.33" stop-color="#E6F5F5"/>
<stop offset="0.46" stop-color="#E4F1F0"/>
<stop offset="0.61" stop-color="#E0E6E2"/>
<stop offset="0.76" stop-color="#DAD3CA"/>
<stop offset="0.92" stop-color="#D1BAAA"/>
<stop offset="1" stop-color="#CCAC99"/>
</radialGradient>
<radialGradient id="paint9_radial_284_13042" cx="0" cy="0" r="1" gradientUnits="userSpaceOnUse" gradientTransform="translate(95.5324 99.5112) scale(53.1413 53.2616)">
<stop stop-color="#D45C00"/>
<stop offset="1" stop-color="#8C3500"/>
</radialGradient>
<radialGradient id="paint10_radial_284_13042" cx="0" cy="0" r="1" gradientUnits="userSpaceOnUse" gradientTransform="translate(87.0105 75.0301) scale(79.7892 79.9699)">
<stop offset="0.68"/>
<stop offset="0.72" stop-color="#030200"/>
<stop offset="0.76" stop-color="#0F0800"/>
<stop offset="0.8" stop-color="#231200"/>
<stop offset="0.84" stop-color="#3F2100"/>
<stop offset="0.88" stop-color="#633300"/>
<stop offset="0.92" stop-color="#8F4A00"/>
<stop offset="0.96" stop-color="#C36500"/>
<stop offset="1" stop-color="#F98100"/>
</radialGradient>
<linearGradient id="paint11_linear_284_13042" x1="27.5695" y1="31.6656" x2="87.3509" y2="96.975" gradientUnits="userSpaceOnUse">
<stop stop-color="#F98100"/>
<stop offset="0.08" stop-color="#F57E00"/>
<stop offset="0.17" stop-color="#E97800"/>
<stop offset="0.25" stop-color="#D46E00"/>
<stop offset="0.33" stop-color="#B85F00"/>
<stop offset="0.41" stop-color="#944C00"/>
<stop offset="0.5" stop-color="#683500"/>
<stop offset="0.58" stop-color="#341B00"/>
<stop offset="0.65"/>
</linearGradient>
</defs>
</svg>
